<?xml version="1.0" encoding="utf-8"?>
<!-- Generator: Adobe Illustrator 22.1.0, SVG Export Plug-In . SVG Version: 6.00 Build 0)  -->
<svg version="1.1" id="Layer_1" xmlns="http://www.w3.org/2000/svg" xmlns:xlink="http://www.w3.org/1999/xlink" x="0px" y="0px"
	 viewBox="0 0 709.8 424.4" style="enable-background:new 0 0 709.8 424.4;" xml:space="preserve">
<style type="text/css">
	.st0{fill:#757474;}
	.st1{fill:#FFFFFF;}
	.st2{fill:#005321;}
	.st3{fill:#52AE32;}
	.st4{fill:#DCDCDC;}
	.st5{fill:#F9B041;}
	.st6{fill:#21386C;}
	.st7{fill:#144F9F;}
	.st8{fill:#F49523;}
	.st9{fill:none;stroke:#52AE32;stroke-miterlimit:10;}
	.st10{fill:none;stroke:#52AE32;stroke-miterlimit:10;stroke-dasharray:4.9052,4.9052;}
	.st11{font-family:'Montserrat-Bold';}
	.st12{font-size:32.7602px;}
	.st13{font-family:'Montserrat-Medium';}
	.st14{font-size:23.7945px;}
	.st15{font-size:14.1517px;}
	.st16{font-size:15.7637px;}
	.st17{fill:#E30613;}
	.st18{fill:#B2B2B2;}
	.st19{fill:#FFCC00;}
	.st20{fill:#9B9B9A;}
	.st21{fill:#706F6F;stroke:#706F6F;stroke-width:0.25;stroke-miterlimit:10;}
	.st22{fill:#4E4D4D;}
	.st23{fill:#706F6F;}
	.st24{fill:#FFED00;}
	.st25{fill:#E41513;}
	.st26{fill:#5AB031;}
</style>
<rect class="st2" width="709.8" height="63.4"/>
<rect y="63.4" class="st3" width="709.8" height="361"/>
<g>
	<path class="st2" d="M328.2,121.5c-0.5-0.4-1.2-0.7-1.8-0.9c-0.7-0.2-1.3-0.3-2-0.3c-0.5,0-1.1,0-1.8,0s-1.4,0.1-2.1,0.3
		c-0.7,0.2-1.3,0.5-1.7,0.9c-0.5,0.4-0.7,1-0.7,1.8v7.7h5.1c2.2,0,3.9-0.4,5.1-1.2c1.2-0.8,1.8-2.2,1.8-4.1c0-1-0.2-1.8-0.5-2.4
		C329.1,122.5,328.7,122,328.2,121.5z"/>
	<g>
		<path class="st2" d="M328.2,121.5c-0.5-0.4-1.2-0.7-1.8-0.9c-0.7-0.2-1.3-0.3-2-0.3c-0.5,0-1.1,0-1.8,0c-0.7,0-1.4,0.1-2.1,0.3
			c-0.7,0.2-1.3,0.5-1.7,0.9c-0.5,0.4-0.7,1-0.7,1.8v7.7h5.1c2.2,0,3.9-0.4,5.1-1.2c1.2-0.8,1.8-2.2,1.8-4.1c0-1-0.2-1.8-0.5-2.4
			C329.1,122.5,328.7,122,328.2,121.5z"/>
		<path class="st2" d="M379.1,112l-1.8-0.3c-1.1-0.2-2.2-0.3-3.3-0.2h0c-1.2,0-2.3,0.2-3.3,0.6c-1.1,0.4-2,1-2.9,1.8
			c-0.3,0.3-0.7,0.7-0.9,1c-6.4-9.3-17.1-15.5-29.3-15.5c-19.6,0-35.5,15.9-35.5,35.5c0,19.6,15.9,35.5,35.5,35.5
			s35.5-15.9,35.5-35.5c0-1.9-0.2-3.7-0.4-5.6c1.8-4.8,3.8-10,5.9-15.6L379.1,112z M337.2,115.5c1,0,1.9,0.2,2.7,0.5
			c0.8,0.3,1.6,0.8,2.3,1.4c0.7,0.6,1.3,1.5,1.7,2.5c0,0.2,0.2,0.7,0.6,1.5c0.3,0.9,0.8,2,1.3,3.3c0.5,1.3,1.1,2.8,1.7,4.4
			c0.6,1.6,1.2,3.2,1.9,4.9c0.2,0.6,0.5,1.3,0.7,1.9h-7.8l-8-20.1C335.3,115.6,336.3,115.5,337.2,115.5z M341.3,149.7
			c-0.7,1.7-1.7,3.1-3,4.4c-1.3,1.3-2.8,2.3-4.6,3.1c-1.8,0.8-3.8,1.1-6.1,1.1c-2.6,0-5-0.4-7.1-1.1c-2.1-0.7-3.9-1.9-5.4-3.5
			c-1.5-1.6-2.6-3.6-3.4-6.2c-0.7-2.2-1.1-4.8-1.2-7.9h7.4c0,2.2,0.2,4,0.5,5.5c0.4,1.8,1,3.2,1.9,4.3c0.8,1,1.9,1.8,3.1,2.2
			c1.2,0.4,2.6,0.7,4.2,0.7c1.3,0,2.4-0.2,3.3-0.6c0.9-0.4,1.7-1,2.3-1.7c0.6-0.7,1-1.5,1.3-2.5c0.3-0.9,0.4-2,0.4-3
			c0-1.8-0.3-3.2-0.9-4.4c-0.6-1.1-1.4-2-2.3-2.7c-0.9-0.6-2-1.1-3.1-1.3c-1.1-0.2-2.2-0.3-3.3-0.3c-1,0-1.9,0-2.7,0
			c-0.9,0-1.6,0-2.2,0c-0.8,0-1.5,0-2.3,0l0,0h-7.4v-10.1c0-2.7,0.4-4.9,1.3-6.5c0.8-1.5,2-2.6,3.7-3.2c1-0.4,2.1-0.7,3.4-0.8
			c0.8-0.1,1.8-0.2,2.8-0.2c1,0,1.9,0,2.6,0c2.1,0,3.9,0.3,5.4,0.9c1.5,0.6,2.8,1.4,3.8,2.3c1,1,1.8,2.1,2.3,3.3
			c0.5,1.2,0.8,2.6,0.8,3.9c0,1.3-0.2,2.5-0.7,3.6c-0.5,1.1-1.2,2.1-2.1,3c1.2,0.4,2.3,1,3.3,1.7c1,0.7,1.9,1.6,2.7,2.6
			c0.8,1,1.4,2.2,1.8,3.5c0.4,1.3,0.7,2.8,0.7,4.4C342.4,146.3,342,148,341.3,149.7z M367.8,133.3c-0.9,2.3-1.8,4.6-2.7,6.8
			c-0.9,2.3-1.7,4.3-2.5,6.3c-0.8,1.9-1.5,3.6-2.1,5c-0.6,1.4-1.1,2.4-1.4,3c-0.7,1.3-1.5,2.2-2.4,2.7c-0.9,0.5-1.8,0.8-2.6,0.8
			c-1,0.1-2,0-3-0.3l-7.2-18h7.7c0.9,2.3,1.9,4.8,2.9,7.4c1.8-4.8,3.5-9.2,5-13.1c0.6-1.6,1.3-3.3,1.9-4.9c0.6-1.6,1.2-3.1,1.7-4.4
			c0.5-1.3,0.9-2.4,1.3-3.3c0.3-0.9,0.6-1.4,0.6-1.5c0.4-1,1-1.9,1.7-2.5c0.7-0.6,1.5-1.1,2.3-1.4c0.8-0.3,1.7-0.5,2.7-0.5
			c1,0,1.9,0.1,2.9,0.2C372.1,122.1,369.8,128,367.8,133.3z"/>
	</g>
</g>
<g>
	<path class="st1" d="M299.4,37.7c-1,0-2-0.2-2.8-0.4c-0.8-0.3-1.5-0.8-2.1-1.4c-0.6-0.6-1.1-1.5-1.4-2.5c-0.3-1-0.5-2.2-0.5-3.7v-5
		c0-1.1,0.2-2,0.5-2.6c0.3-0.6,0.8-1,1.5-1.3c0.4-0.2,0.8-0.3,1.4-0.3c0.3,0,0.7-0.1,1.1-0.1c0.4,0,0.8,0,1,0c0.8,0,1.6,0.1,2.2,0.3
		c0.6,0.2,1.1,0.5,1.5,0.9c0.4,0.4,0.7,0.8,0.9,1.3c0.2,0.5,0.3,1,0.3,1.6c0,0.5-0.1,1-0.3,1.4c-0.2,0.4-0.5,0.8-0.8,1.2
		c0.5,0.2,0.9,0.4,1.3,0.7c0.4,0.3,0.8,0.6,1.1,1c0.3,0.4,0.5,0.9,0.7,1.4c0.2,0.5,0.3,1.1,0.3,1.8c0,0.7-0.1,1.4-0.4,2.1
		c-0.3,0.7-0.7,1.2-1.2,1.8c-0.5,0.5-1.1,0.9-1.9,1.2C301.2,37.5,300.3,37.7,299.4,37.7z M299.4,35.3c0.5,0,1-0.1,1.3-0.3
		c0.4-0.2,0.7-0.4,0.9-0.7c0.2-0.3,0.4-0.6,0.5-1c0.1-0.4,0.2-0.8,0.2-1.2c0-0.7-0.1-1.3-0.4-1.7c-0.2-0.5-0.6-0.8-0.9-1.1
		c-0.4-0.2-0.8-0.4-1.3-0.5c-0.5-0.1-0.9-0.1-1.3-0.1c-0.4,0-0.7,0-1.1,0c-0.3,0-0.7,0-0.9,0c-0.3,0-0.6,0-0.9,0v1
		c0,1.1,0,2,0.2,2.7c0.2,0.7,0.4,1.3,0.7,1.7c0.3,0.4,0.7,0.7,1.2,0.9C298.3,35.2,298.8,35.3,299.4,35.3z M295.6,26.7h2
		c0.9,0,1.5-0.2,2-0.5c0.5-0.3,0.7-0.9,0.7-1.6c0-0.4-0.1-0.7-0.2-1c-0.1-0.3-0.3-0.5-0.5-0.7c-0.2-0.2-0.5-0.3-0.7-0.4
		c-0.3-0.1-0.5-0.1-0.8-0.1c-0.2,0-0.4,0-0.7,0c-0.3,0-0.6,0-0.8,0.1c-0.3,0.1-0.5,0.2-0.7,0.4c-0.2,0.2-0.3,0.4-0.3,0.7V26.7z"/>
	<path class="st1" d="M316.4,32.4c0,1.1-0.2,2-0.5,2.6c-0.3,0.7-0.7,1.2-1.2,1.6c-0.5,0.4-1.1,0.6-1.7,0.8c-0.6,0.1-1.2,0.2-1.9,0.2
		c-0.6,0-1.2-0.1-1.9-0.2c-0.6-0.1-1.2-0.4-1.7-0.8c-0.5-0.4-0.9-0.9-1.2-1.6c-0.3-0.7-0.5-1.6-0.5-2.6l0-3.4c0-1,0.3-1.7,0.8-2.1
		s1.3-0.6,2.3-0.6c0,0.1,0,0.2,0,0.4c0,0.2,0,0.4,0,0.7c0,0.3,0,0.7,0,1.2l0,3.7c0,0.7,0.1,1.2,0.2,1.6c0.1,0.4,0.3,0.7,0.5,1
		c0.2,0.2,0.5,0.4,0.7,0.5c0.3,0.1,0.5,0.1,0.8,0.1s0.5,0,0.8-0.1c0.3-0.1,0.5-0.2,0.7-0.5c0.2-0.2,0.4-0.5,0.5-1
		c0.1-0.4,0.2-0.9,0.2-1.6l0-3.4c0-1,0.3-1.7,0.8-2.1c0.5-0.4,1.3-0.6,2.3-0.6c0,0.1,0,0.2,0,0.4c0,0.2,0,0.4,0,0.7
		c0,0.3,0,0.7,0,1.2L316.4,32.4z"/>
	<path class="st1" d="M326.1,35.1c0.2,0.1,0.4,0.3,0.6,0.6l0.1,0.1l-0.1,0.1c-0.5,0.6-1.2,1-1.9,1.4c-0.7,0.3-1.5,0.5-2.4,0.5
		c-0.7,0-1.4-0.2-2.1-0.4c-0.7-0.3-1.2-0.7-1.7-1.2c-0.5-0.5-0.9-1.1-1.1-1.8c-0.3-0.7-0.4-1.5-0.4-2.3s0.1-1.6,0.4-2.3
		c0.2-0.7,0.6-1.3,1.1-1.8c0.5-0.5,1-0.9,1.7-1.2c0.7-0.3,1.4-0.5,2.2-0.5c0.4,0,0.9,0.1,1.5,0.2c0.5,0.1,1,0.4,1.5,0.7
		c0.5,0.3,0.9,0.7,1.2,1.2c0.3,0.5,0.5,1.1,0.5,1.7c0,0.7-0.2,1.2-0.5,1.6c-0.3,0.4-0.7,0.7-1.2,1c-0.5,0.2-1,0.4-1.5,0.5
		c-0.5,0.1-1,0.1-1.4,0.1c-0.6,0-1.1,0-1.6-0.1c-0.4-0.1-0.7-0.1-0.9-0.2c0.1,0.6,0.2,1.1,0.4,1.4c0.2,0.4,0.4,0.6,0.7,0.9
		c0.2,0.2,0.5,0.4,0.7,0.4c0.2,0.1,0.5,0.1,0.7,0.1c0.3,0,0.7,0,1-0.1c0.3-0.1,0.6-0.1,0.8-0.2c0.2-0.1,0.5-0.2,0.7-0.2
		c0.2-0.1,0.4-0.1,0.6-0.1C325.8,34.9,326,35,326.1,35.1z M322.4,28.2c-0.2,0-0.4,0.1-0.6,0.1c-0.2,0.1-0.5,0.2-0.7,0.4
		c-0.2,0.2-0.4,0.5-0.6,0.8c-0.2,0.4-0.3,0.8-0.4,1.3c0.3,0.1,0.6,0.2,1.1,0.2c0.5,0.1,0.9,0.1,1.4,0c0.5,0,0.9-0.2,1.3-0.4
		c0.4-0.2,0.6-0.6,0.6-1.1c0-0.4-0.1-0.7-0.5-1C323.6,28.3,323.1,28.1,322.4,28.2z"/>
	<path class="st1" d="M327.7,31.3c0-1.1,0.2-2,0.5-2.6c0.3-0.7,0.7-1.2,1.2-1.6c0.5-0.4,1-0.6,1.7-0.8c0.6-0.1,1.2-0.2,1.9-0.2
		c0.6,0,1.2,0.1,1.9,0.2c0.6,0.1,1.2,0.4,1.7,0.8c0.5,0.4,0.9,0.9,1.2,1.6c0.3,0.7,0.5,1.6,0.5,2.6l0.1,6.1c-1,0-1.7-0.2-2.3-0.6
		c-0.5-0.4-0.8-1.1-0.8-2.1l0-3.4c0-0.7-0.1-1.2-0.2-1.6c-0.1-0.4-0.3-0.7-0.5-1c-0.2-0.2-0.5-0.4-0.7-0.5c-0.3-0.1-0.5-0.1-0.8-0.1
		s-0.5,0-0.8,0.1c-0.3,0.1-0.5,0.2-0.7,0.5c-0.2,0.2-0.4,0.6-0.5,1s-0.2,1-0.2,1.6v3.7c0,0.5,0,0.9,0,1.2c0,0.3,0,0.5,0,0.7
		c0,0.2,0,0.3,0,0.4c-1,0-1.8-0.2-2.3-0.6c-0.5-0.4-0.8-1.1-0.8-2.1L327.7,31.3z"/>
	<path class="st1" d="M340.3,31.3c0.4-0.3,0.9-0.5,1.5-0.6c0.5-0.1,1.1-0.2,1.7-0.2c0.8,0,1.6,0.1,2.4,0.4c0-0.5-0.2-0.9-0.3-1.3
		c-0.2-0.5-0.5-0.9-0.9-1.1c-0.2-0.1-0.3-0.1-0.5-0.2c-0.2,0-0.4-0.1-0.6-0.1h-0.3c-0.2,0-0.4,0.1-0.7,0.1c-0.2,0.1-0.4,0.1-0.7,0.2
		c-0.2,0.1-0.5,0.1-0.7,0.2c-0.2,0.1-0.4,0.1-0.6,0.1c-0.2,0-0.4,0-0.7-0.1c-0.2-0.1-0.4-0.3-0.5-0.6l0-0.1l0-0.1
		c0.5-0.5,1.1-0.9,1.7-1.2c0.7-0.3,1.4-0.5,2.1-0.5c0.1,0,0.1,0,0.2,0c0.1,0,0.1,0,0.2,0c0.7,0,1.4,0.1,2,0.4
		c0.6,0.3,1.1,0.6,1.6,1.1c0.9,1,1.4,2.3,1.4,3.9v0.2c0,1.7-0.4,3-1.3,4.1c-0.4,0.5-0.9,0.9-1.5,1.3c-0.6,0.3-1.2,0.5-2,0.6
		c-0.1,0-0.2,0-0.3,0c-0.1,0-0.2,0-0.3,0c-0.3,0-0.7,0-1.1-0.1c-0.4-0.1-0.7-0.2-1.1-0.3c-0.4-0.1-0.7-0.3-1-0.6
		c-0.3-0.2-0.6-0.5-0.8-0.9c-0.3-0.5-0.5-1-0.5-1.7v-0.1c0-0.6,0.1-1.1,0.4-1.6C339.4,31.9,339.8,31.6,340.3,31.3z M345.2,32.4
		c-0.2,0-0.4-0.1-0.7-0.1c-0.3,0-0.5,0-0.8,0c-0.2,0-0.4,0-0.7,0c-0.2,0-0.4,0.1-0.6,0.1c-0.4,0.1-0.7,0.3-0.9,0.6
		c-0.1,0.1-0.1,0.2-0.2,0.3c0,0.1-0.1,0.3-0.1,0.4c0,0,0,0.1,0,0.2c0,0.2,0,0.3,0.1,0.5c0,0.2,0.1,0.4,0.3,0.5
		c0.1,0.2,0.3,0.3,0.6,0.4c0.2,0.1,0.6,0.2,1,0.2c0.1,0,0.2,0,0.3,0c0.5,0,0.8-0.1,1.2-0.4c0.2-0.1,0.3-0.2,0.4-0.4
		c0.1-0.1,0.2-0.3,0.3-0.4c0.2-0.3,0.3-0.6,0.4-0.9c0.1-0.3,0.1-0.6,0.1-0.9c0,0,0,0,0,0c0,0,0,0,0,0c-0.1,0-0.1,0-0.2,0
		C345.5,32.5,345.4,32.5,345.2,32.4z"/>
	<path class="st1" d="M362.6,20.7c-1,2.6-1.9,4.9-2.7,7c-0.4,0.9-0.7,1.8-1.1,2.7c-0.4,0.9-0.7,1.7-1,2.5c-0.3,0.8-0.6,1.4-0.8,2
		c-0.2,0.6-0.4,1-0.6,1.2c-0.3,0.5-0.6,0.9-1,1.1c-0.4,0.2-0.7,0.3-1,0.3c-0.4,0-0.8,0-1.2-0.1l-6.7-16.8c0.4-0.1,0.8-0.1,1.2-0.1
		c0.4,0,0.8,0.1,1.1,0.2c0.3,0.1,0.6,0.3,0.9,0.6c0.3,0.3,0.5,0.6,0.7,1c0,0.1,0.1,0.3,0.2,0.6c0.1,0.3,0.3,0.8,0.5,1.3
		c0.2,0.5,0.4,1.1,0.7,1.7c0.2,0.6,0.5,1.3,0.7,2c0.6,1.6,1.3,3.3,2,5.2c0.7-1.9,1.4-3.7,2-5.2c0.3-0.7,0.5-1.3,0.7-2
		c0.2-0.6,0.5-1.2,0.7-1.7c0.2-0.5,0.4-1,0.5-1.3c0.1-0.3,0.2-0.6,0.3-0.6c0.2-0.4,0.4-0.7,0.7-1c0.3-0.2,0.6-0.4,0.9-0.6
		c0.3-0.1,0.7-0.2,1.1-0.2C361.8,20.6,362.2,20.6,362.6,20.7z"/>
	<path class="st1" d="M368.9,35.1c0.2,0.1,0.4,0.3,0.6,0.6l0.1,0.1l-0.1,0.1c-0.5,0.6-1.2,1-1.9,1.4c-0.7,0.3-1.5,0.5-2.4,0.5
		c-0.7,0-1.4-0.2-2.1-0.4c-0.7-0.3-1.2-0.7-1.7-1.2c-0.5-0.5-0.9-1.1-1.1-1.8c-0.3-0.7-0.4-1.5-0.4-2.3s0.1-1.6,0.4-2.3
		c0.2-0.7,0.6-1.3,1.1-1.8c0.5-0.5,1-0.9,1.7-1.2c0.7-0.3,1.4-0.5,2.2-0.5c0.4,0,0.9,0.1,1.5,0.2c0.5,0.1,1,0.4,1.5,0.7
		c0.5,0.3,0.9,0.7,1.2,1.2c0.3,0.5,0.5,1.1,0.5,1.7c0,0.7-0.2,1.2-0.5,1.6c-0.3,0.4-0.7,0.7-1.2,1c-0.5,0.2-1,0.4-1.5,0.5
		c-0.5,0.1-1,0.1-1.4,0.1c-0.6,0-1.1,0-1.6-0.1c-0.4-0.1-0.7-0.1-0.9-0.2c0.1,0.6,0.2,1.1,0.4,1.4c0.2,0.4,0.4,0.6,0.7,0.9
		c0.2,0.2,0.5,0.4,0.7,0.4c0.2,0.1,0.5,0.1,0.7,0.1c0.3,0,0.7,0,1-0.1c0.3-0.1,0.6-0.1,0.8-0.2c0.2-0.1,0.5-0.2,0.7-0.2
		c0.2-0.1,0.4-0.1,0.6-0.1C368.5,34.9,368.7,35,368.9,35.1z M365.2,28.2c-0.2,0-0.4,0.1-0.6,0.1c-0.2,0.1-0.5,0.2-0.7,0.4
		c-0.2,0.2-0.4,0.5-0.6,0.8c-0.2,0.4-0.3,0.8-0.4,1.3c0.3,0.1,0.6,0.2,1.1,0.2c0.5,0.1,0.9,0.1,1.4,0c0.5,0,0.9-0.2,1.3-0.4
		c0.4-0.2,0.6-0.6,0.6-1.1c0-0.4-0.1-0.7-0.5-1C366.3,28.3,365.8,28.1,365.2,28.2z"/>
	<path class="st1" d="M370.4,31.3c0-1.1,0.2-2,0.5-2.6c0.3-0.7,0.7-1.2,1.2-1.6c0.5-0.4,1-0.6,1.7-0.8c0.6-0.1,1.2-0.2,1.9-0.2
		c0.6,0,1.2,0.1,1.9,0.2c0.6,0.1,1.2,0.4,1.7,0.8c0.5,0.4,0.9,0.9,1.2,1.6c0.3,0.7,0.5,1.6,0.5,2.6l0.1,6.1c-1,0-1.7-0.2-2.3-0.6
		c-0.5-0.4-0.8-1.1-0.8-2.1l0-3.4c0-0.7-0.1-1.2-0.2-1.6c-0.1-0.4-0.3-0.7-0.5-1c-0.2-0.2-0.5-0.4-0.7-0.5c-0.3-0.1-0.5-0.1-0.8-0.1
		s-0.5,0-0.8,0.1c-0.3,0.1-0.5,0.2-0.7,0.5c-0.2,0.2-0.4,0.6-0.5,1c-0.1,0.4-0.2,1-0.2,1.6v3.7c0,0.5,0,0.9,0,1.2c0,0.3,0,0.5,0,0.7
		c0,0.2,0,0.3,0,0.4c-1,0-1.8-0.2-2.3-0.6c-0.5-0.4-0.8-1.1-0.8-2.1L370.4,31.3z"/>
	<path class="st1" d="M388.3,35.3c0,0,0,0.1,0,0.2c0,0.1,0,0.2,0,0.4c0,0.3-0.1,0.6-0.2,0.8c-0.1,0.2-0.3,0.4-0.5,0.6
		c-0.4,0.3-1,0.5-1.6,0.5c-0.5,0-1.1-0.1-1.6-0.4c-0.5-0.2-1-0.6-1.4-1.1c-0.4-0.5-0.7-1.1-1-1.8c-0.2-0.7-0.4-1.6-0.4-2.5l0-7
		c0-1,0.3-1.7,0.8-2.1c0.5-0.4,1.3-0.6,2.2-0.6c0,0.1,0,0.3,0,0.5c0,0.2,0,0.4,0,0.7c0,0.3,0,0.7,0,1.2l0,1.5h3.2
		c0,0.7-0.2,1.3-0.6,1.7s-1,0.7-1.7,0.7h-0.9l0,3.4c0,0.7,0.1,1.2,0.2,1.7c0.1,0.5,0.3,0.8,0.5,1.1c0.4,0.5,1,0.8,1.7,0.8
		c0.3,0,0.6,0,0.9-0.1C388,35.4,388.2,35.3,388.3,35.3z"/>
	<path class="st1" d="M398.9,32.4c0,1.1-0.2,2-0.5,2.6c-0.3,0.7-0.7,1.2-1.2,1.6c-0.5,0.4-1.1,0.6-1.7,0.8c-0.6,0.1-1.2,0.2-1.9,0.2
		c-0.6,0-1.2-0.1-1.9-0.2c-0.6-0.1-1.2-0.4-1.7-0.8c-0.5-0.4-0.9-0.9-1.2-1.6c-0.3-0.7-0.5-1.6-0.5-2.6l0-3.4c0-1,0.3-1.7,0.8-2.1
		s1.3-0.6,2.3-0.6c0,0.1,0,0.2,0,0.4c0,0.2,0,0.4,0,0.7c0,0.3,0,0.7,0,1.2l0,3.7c0,0.7,0.1,1.2,0.2,1.6c0.1,0.4,0.3,0.7,0.5,1
		c0.2,0.2,0.5,0.4,0.7,0.5c0.3,0.1,0.5,0.1,0.8,0.1s0.5,0,0.8-0.1c0.3-0.1,0.5-0.2,0.7-0.5c0.2-0.2,0.4-0.5,0.5-1
		c0.1-0.4,0.2-0.9,0.2-1.6l0-3.4c0-1,0.3-1.7,0.8-2.1c0.5-0.4,1.3-0.6,2.3-0.6c0,0.1,0,0.2,0,0.4c0,0.2,0,0.4,0,0.7
		c0,0.3,0,0.7,0,1.2L398.9,32.4z"/>
	<path class="st1" d="M399.7,31.6c0-1.1,0.2-2,0.5-2.6c0.3-0.7,0.7-1.2,1.2-1.6c0.5-0.4,1.1-0.6,1.7-0.8c0.6-0.1,1.2-0.2,1.8-0.2
		h1.2c0.1,0.3,0.1,0.6,0,0.9c0,0.2-0.1,0.5-0.3,0.7c-0.2,0.2-0.5,0.4-0.9,0.4c-0.3,0-0.5,0.1-0.8,0.2c-0.3,0.1-0.5,0.2-0.7,0.5
		c-0.2,0.2-0.4,0.5-0.5,0.9c-0.1,0.4-0.2,0.9-0.2,1.6v3.5c0,0.5,0,0.9,0,1.2c0,0.3,0,0.5,0,0.7c0,0.2,0,0.3,0,0.4
		c-1,0-1.7-0.2-2.3-0.6c-0.5-0.4-0.8-1.1-0.8-2.1V31.6z"/>
	<path class="st1" d="M407.5,31.3c0.4-0.3,0.9-0.5,1.5-0.6c0.5-0.1,1.1-0.2,1.7-0.2c0.8,0,1.6,0.1,2.4,0.4c0-0.5-0.2-0.9-0.3-1.3
		c-0.2-0.5-0.5-0.9-0.9-1.1c-0.2-0.1-0.3-0.1-0.5-0.2c-0.2,0-0.4-0.1-0.6-0.1h-0.3c-0.2,0-0.4,0.1-0.7,0.1c-0.2,0.1-0.4,0.1-0.7,0.2
		c-0.2,0.1-0.5,0.1-0.7,0.2c-0.2,0.1-0.4,0.1-0.6,0.1c-0.2,0-0.4,0-0.7-0.1c-0.2-0.1-0.4-0.3-0.5-0.6l0-0.1l0-0.1
		c0.5-0.5,1.1-0.9,1.7-1.2c0.7-0.3,1.4-0.5,2.1-0.5c0.1,0,0.1,0,0.2,0c0.1,0,0.1,0,0.2,0c0.7,0,1.4,0.1,2,0.4
		c0.6,0.3,1.1,0.6,1.6,1.1c0.9,1,1.4,2.3,1.4,3.9v0.2c0,1.7-0.4,3-1.3,4.1c-0.4,0.5-0.9,0.9-1.5,1.3c-0.6,0.3-1.2,0.5-2,0.6
		c-0.1,0-0.2,0-0.3,0c-0.1,0-0.2,0-0.3,0c-0.3,0-0.7,0-1.1-0.1c-0.4-0.1-0.7-0.2-1.1-0.3c-0.4-0.1-0.7-0.3-1-0.6
		c-0.3-0.2-0.6-0.5-0.8-0.9c-0.3-0.5-0.5-1-0.5-1.7v-0.1c0-0.6,0.1-1.1,0.4-1.6C406.7,31.9,407,31.6,407.5,31.3z M412.5,32.4
		c-0.2,0-0.4-0.1-0.7-0.1c-0.3,0-0.5,0-0.8,0c-0.2,0-0.4,0-0.7,0c-0.2,0-0.4,0.1-0.6,0.1c-0.4,0.1-0.7,0.3-0.9,0.6
		c-0.1,0.1-0.1,0.2-0.2,0.3c0,0.1-0.1,0.3-0.1,0.4c0,0,0,0.1,0,0.2c0,0.2,0,0.3,0.1,0.5c0,0.2,0.1,0.4,0.3,0.5
		c0.1,0.2,0.3,0.3,0.6,0.4c0.2,0.1,0.6,0.2,1,0.2c0.1,0,0.2,0,0.3,0c0.5,0,0.8-0.1,1.2-0.4c0.2-0.1,0.3-0.2,0.4-0.4
		c0.1-0.1,0.2-0.3,0.3-0.4c0.2-0.3,0.3-0.6,0.4-0.9c0.1-0.3,0.1-0.6,0.1-0.9c0,0,0,0,0,0c0,0,0,0,0,0c-0.1,0-0.1,0-0.2,0
		C412.7,32.5,412.6,32.5,412.5,32.4z"/>
	<g>
		<g>
			<path class="st1" d="M337.2,46.8c0,0.1,0,0.1,0.1,0.2c0,0.1,0,0.1,0.1,0.2c0,0.1,0,0.1,0.1,0.2c-0.2,0-0.4,0.1-0.5,0
				c-0.1,0-0.3-0.1-0.4-0.1c-0.1-0.1-0.3-0.2-0.3-0.4c0-0.1-0.1-0.3-0.2-0.5c-0.1-0.3-0.2-0.5-0.4-0.9H333c-0.1,0.3-0.3,0.6-0.4,0.9
				c-0.1,0.3-0.2,0.4-0.2,0.5c-0.1,0.2-0.2,0.3-0.3,0.4c-0.1,0.1-0.3,0.1-0.4,0.1c-0.2,0-0.3,0-0.5,0c0-0.1,0-0.1,0.1-0.2
				c0,0,0-0.1,0.1-0.2c0-0.1,0-0.1,0.1-0.2c0-0.1,0.1-0.3,0.2-0.6c0.1-0.3,0.2-0.6,0.4-0.9c0.1-0.4,0.3-0.7,0.4-1.1
				c0.2-0.4,0.3-0.8,0.4-1.1c0.1-0.4,0.3-0.7,0.4-0.9c0.1-0.3,0.2-0.5,0.2-0.6c0.1-0.2,0.1-0.3,0.2-0.4c0.1-0.1,0.2-0.2,0.2-0.2
				c0.1-0.1,0.1-0.1,0.2-0.1c0.1,0,0.1,0,0.2,0c0.1,0,0.1,0,0.2,0c0.1,0,0.1,0.1,0.2,0.1c0.1,0.1,0.1,0.1,0.2,0.2
				c0.1,0.1,0.1,0.2,0.2,0.4c0,0.1,0.1,0.3,0.2,0.6c0.1,0.3,0.2,0.6,0.4,0.9c0.1,0.4,0.3,0.7,0.4,1.1c0.2,0.4,0.3,0.8,0.4,1.1
				c0.1,0.4,0.3,0.7,0.4,0.9C337.1,46.5,337.2,46.7,337.2,46.8z M335.2,44.5c-0.1-0.3-0.2-0.6-0.4-0.9c-0.1-0.3-0.2-0.6-0.3-0.8
				c-0.1-0.3-0.2-0.5-0.3-0.8c-0.1,0.2-0.2,0.5-0.3,0.8c-0.1,0.2-0.2,0.5-0.3,0.8c-0.1,0.3-0.2,0.6-0.4,0.9H335.2z"/>
			<path class="st1" d="M338.4,47.2c0.3-0.1,0.6-0.1,0.9-0.2c0.3,0,0.6,0,0.9,0.1c0.3,0.1,0.5,0.2,0.7,0.4c0.2,0.2,0.3,0.5,0.3,0.8
				c0,0.3-0.1,0.5-0.2,0.7c-0.1,0.2-0.2,0.3-0.4,0.5c-0.2,0.1-0.4,0.2-0.6,0.2c-0.2,0-0.4,0.1-0.5,0.1h-0.1c-0.3,0-0.5-0.1-0.8-0.2
				c-0.2-0.1-0.4-0.3-0.6-0.5c-0.2-0.2-0.3-0.4-0.4-0.7s-0.2-0.6-0.2-0.9c0,0,0,0,0-0.1c0,0,0,0,0-0.1c0-0.4,0.1-0.7,0.2-1
				c0.1-0.3,0.3-0.5,0.5-0.7c-0.2-0.1-0.4-0.3-0.5-0.5c-0.1-0.2-0.2-0.4-0.2-0.7c0-0.2,0-0.4,0.1-0.6c0.1-0.2,0.2-0.4,0.4-0.5
				c0.2-0.1,0.4-0.3,0.6-0.3c0.2-0.1,0.5-0.1,0.7-0.1c0.3,0,0.5,0,0.8,0.1c0.2,0.1,0.4,0.2,0.6,0.3c0.3,0.3,0.5,0.7,0.5,1.1
				c0,0.2,0,0.4-0.1,0.6c-0.1,0.2-0.2,0.4-0.4,0.5c-0.2,0.1-0.3,0.3-0.6,0.3c-0.2,0.1-0.4,0.1-0.7,0.1v0h-0.1c-0.2,0-0.4,0-0.5,0.1
				c-0.1,0.1-0.2,0.2-0.3,0.3c-0.1,0.1-0.1,0.2-0.1,0.4C338.4,47,338.4,47.1,338.4,47.2z M340,48.7c0.1-0.1,0.1-0.1,0.1-0.2
				c0-0.1,0-0.1,0-0.2c0-0.1,0-0.1,0-0.1c0-0.1-0.1-0.2-0.1-0.2c0-0.1-0.1-0.1-0.2-0.1c-0.1,0-0.2-0.1-0.3-0.1c-0.1,0-0.2,0-0.3,0
				s-0.2,0-0.3,0c-0.1,0-0.2,0-0.3,0c-0.1,0-0.2,0-0.2,0.1c-0.1,0-0.1,0-0.1,0c0,0.1,0,0.2,0,0.2c0,0.1,0,0.2,0.1,0.3
				c0,0.1,0.1,0.2,0.2,0.3c0.1,0.1,0.1,0.1,0.2,0.2c0.1,0.1,0.3,0.1,0.5,0.1s0.3,0,0.4-0.1C339.9,48.8,340,48.8,340,48.7z
				 M339.3,43.7c-0.1,0-0.1,0-0.2,0c-0.1,0-0.2,0.1-0.2,0.1c-0.1,0.1-0.1,0.1-0.2,0.3s-0.1,0.2-0.1,0.4c0,0.2,0,0.3,0.1,0.4
				c0,0.1,0.1,0.2,0.2,0.2c0.1,0.1,0.1,0.1,0.2,0.1c0.1,0,0.1,0,0.2,0c0.1,0,0.1,0,0.2,0c0.1,0,0.2-0.1,0.2-0.1
				c0.1-0.1,0.1-0.1,0.2-0.2c0-0.1,0.1-0.2,0.1-0.4c0-0.2,0-0.3-0.1-0.4c0-0.1-0.1-0.2-0.2-0.3c-0.1-0.1-0.1-0.1-0.2-0.1
				C339.4,43.7,339.3,43.7,339.3,43.7z"/>
			<path class="st1" d="M341.2,45.1c0-0.4,0.1-0.7,0.2-1c0.1-0.3,0.3-0.5,0.5-0.6c0.2-0.1,0.4-0.2,0.6-0.3c0.2-0.1,0.5-0.1,0.7-0.1
				h0.5c0,0.1,0,0.2,0,0.4c0,0.1-0.1,0.2-0.1,0.3c-0.1,0.1-0.2,0.1-0.3,0.2c-0.1,0-0.2,0-0.3,0.1c-0.1,0-0.2,0.1-0.3,0.2
				c-0.1,0.1-0.1,0.2-0.2,0.4c-0.1,0.2-0.1,0.4-0.1,0.6v1.3c0,0.2,0,0.3,0,0.4c0,0.1,0,0.2,0,0.3c0,0.1,0,0.1,0,0.2
				c-0.4,0-0.7-0.1-0.9-0.2c-0.2-0.2-0.3-0.4-0.3-0.8V45.1z"/>
			<path class="st1" d="M346.9,43.6c0.2,0.2,0.3,0.4,0.4,0.7c0.1,0.3,0.2,0.6,0.2,0.9c0,0.3,0,0.6-0.1,0.9c-0.1,0.3-0.2,0.5-0.4,0.7
				c-0.2,0.2-0.4,0.4-0.7,0.5c-0.3,0.1-0.5,0.2-0.9,0.2c-0.3,0-0.5-0.1-0.8-0.2c-0.2-0.1-0.5-0.3-0.7-0.5c-0.2-0.2-0.3-0.4-0.4-0.7
				c-0.1-0.3-0.2-0.6-0.2-0.9c0-0.3,0-0.6,0.1-0.9c0.1-0.3,0.2-0.5,0.4-0.7c0.2-0.2,0.4-0.4,0.7-0.5c0.3-0.1,0.5-0.2,0.9-0.2
				c0.3,0,0.6,0.1,0.8,0.2C346.5,43.3,346.7,43.4,346.9,43.6z M345.4,46.6c0.1,0,0.2,0,0.3-0.1c0.1,0,0.2-0.1,0.3-0.2
				c0.1-0.1,0.2-0.2,0.2-0.4c0.1-0.2,0.1-0.4,0.1-0.7c0-0.3,0-0.5-0.1-0.7c-0.1-0.2-0.2-0.3-0.2-0.4c-0.1-0.1-0.2-0.2-0.3-0.2
				c-0.1,0-0.2-0.1-0.3-0.1c-0.1,0-0.2,0-0.3,0.1c-0.1,0-0.2,0.1-0.3,0.2c-0.1,0.1-0.2,0.2-0.2,0.4c-0.1,0.2-0.1,0.4-0.1,0.7
				c0,0.3,0,0.5,0.1,0.7c0.1,0.2,0.2,0.3,0.2,0.4c0.1,0.1,0.2,0.2,0.3,0.2C345.3,46.6,345.3,46.6,345.4,46.6z"/>
			<path class="st1" d="M347.7,45c0-0.4,0.1-0.7,0.2-1c0.1-0.3,0.3-0.5,0.5-0.6c0.2-0.1,0.4-0.2,0.6-0.3c0.2-0.1,0.5-0.1,0.7-0.1
				c0.2,0,0.5,0,0.7,0.1c0.2,0.1,0.5,0.2,0.7,0.3c0.2,0.1,0.4,0.4,0.5,0.6s0.2,0.6,0.2,1l0,2.3c-0.4,0-0.7-0.1-0.9-0.2
				c-0.2-0.2-0.3-0.4-0.3-0.8l0-1.3c0-0.3,0-0.5-0.1-0.6c-0.1-0.2-0.1-0.3-0.2-0.4c-0.1-0.1-0.2-0.1-0.3-0.2c-0.1,0-0.2,0-0.3,0
				c-0.1,0-0.2,0-0.3,0c-0.1,0-0.2,0.1-0.3,0.2c-0.1,0.1-0.2,0.2-0.2,0.4c-0.1,0.2-0.1,0.4-0.1,0.6v1.4c0,0.2,0,0.3,0,0.5
				c0,0.1,0,0.2,0,0.3c0,0.1,0,0.1,0,0.2c-0.4,0-0.7-0.1-0.9-0.2c-0.2-0.2-0.3-0.4-0.3-0.8L347.7,45z"/>
			<path class="st1" d="M355.5,46.4c0.1,0,0.1,0.1,0.2,0.2l0,0l0,0c-0.2,0.2-0.4,0.4-0.7,0.5c-0.3,0.1-0.6,0.2-0.9,0.2
				c-0.3,0-0.5-0.1-0.8-0.2c-0.2-0.1-0.5-0.3-0.7-0.5c-0.2-0.2-0.3-0.4-0.4-0.7c-0.1-0.3-0.2-0.6-0.2-0.9c0-0.3,0-0.6,0.1-0.9
				c0.1-0.3,0.2-0.5,0.4-0.7c0.2-0.2,0.4-0.4,0.7-0.5c0.3-0.1,0.5-0.2,0.9-0.2c0.2,0,0.4,0,0.6,0.1c0.2,0.1,0.4,0.1,0.6,0.2
				c0.2,0.1,0.3,0.3,0.4,0.4c0.1,0.2,0.2,0.4,0.2,0.7c0,0.3-0.1,0.5-0.2,0.6c-0.1,0.2-0.3,0.3-0.5,0.4c-0.2,0.1-0.4,0.2-0.6,0.2
				c-0.2,0-0.4,0.1-0.5,0.1c-0.2,0-0.4,0-0.6,0c-0.2,0-0.3,0-0.3-0.1c0,0.2,0.1,0.4,0.1,0.5c0.1,0.1,0.2,0.2,0.2,0.3
				c0.1,0.1,0.2,0.1,0.3,0.2c0.1,0,0.2,0,0.2,0c0.1,0,0.3,0,0.4,0c0.1,0,0.2-0.1,0.3-0.1c0.1,0,0.2-0.1,0.3-0.1c0.1,0,0.2,0,0.2,0
				C355.3,46.3,355.4,46.4,355.5,46.4z M354.1,43.8c-0.1,0-0.1,0-0.2,0.1c-0.1,0-0.2,0.1-0.3,0.2c-0.1,0.1-0.2,0.2-0.2,0.3
				c-0.1,0.1-0.1,0.3-0.2,0.5c0.1,0,0.2,0.1,0.4,0.1c0.2,0,0.4,0,0.5,0c0.2,0,0.3-0.1,0.5-0.2c0.1-0.1,0.2-0.2,0.2-0.4
				c0-0.2,0-0.3-0.2-0.4C354.5,43.8,354.3,43.7,354.1,43.8z"/>
			<path class="st1" d="M356.9,47.2c0.3-0.1,0.6-0.1,0.9-0.2c0.3,0,0.6,0,0.9,0.1c0.3,0.1,0.5,0.2,0.7,0.4c0.2,0.2,0.3,0.5,0.3,0.8
				c0,0.3-0.1,0.5-0.2,0.7c-0.1,0.2-0.2,0.3-0.4,0.5c-0.2,0.1-0.4,0.2-0.6,0.2c-0.2,0-0.4,0.1-0.5,0.1h-0.1c-0.3,0-0.5-0.1-0.8-0.2
				c-0.2-0.1-0.4-0.3-0.6-0.5c-0.2-0.2-0.3-0.4-0.4-0.7s-0.2-0.6-0.2-0.9c0,0,0,0,0-0.1c0,0,0,0,0-0.1c0-0.4,0.1-0.7,0.2-1
				c0.1-0.3,0.3-0.5,0.5-0.7c-0.2-0.1-0.4-0.3-0.5-0.5c-0.1-0.2-0.2-0.4-0.2-0.7c0-0.2,0-0.4,0.1-0.6c0.1-0.2,0.2-0.4,0.4-0.5
				c0.2-0.1,0.4-0.3,0.6-0.3c0.2-0.1,0.5-0.1,0.7-0.1c0.3,0,0.5,0,0.8,0.1c0.2,0.1,0.4,0.2,0.6,0.3c0.3,0.3,0.5,0.7,0.5,1.1
				c0,0.2,0,0.4-0.1,0.6c-0.1,0.2-0.2,0.4-0.4,0.5c-0.2,0.1-0.3,0.3-0.6,0.3c-0.2,0.1-0.4,0.1-0.7,0.1v0h-0.1c-0.2,0-0.4,0-0.5,0.1
				c-0.1,0.1-0.2,0.2-0.3,0.3c-0.1,0.1-0.1,0.2-0.1,0.4C356.9,47,356.9,47.1,356.9,47.2z M358.6,48.7c0.1-0.1,0.1-0.1,0.1-0.2
				c0-0.1,0-0.1,0-0.2c0-0.1,0-0.1,0-0.1c0-0.1-0.1-0.2-0.1-0.2c0-0.1-0.1-0.1-0.2-0.1c-0.1,0-0.2-0.1-0.3-0.1c-0.1,0-0.2,0-0.3,0
				s-0.2,0-0.3,0c-0.1,0-0.2,0-0.3,0c-0.1,0-0.2,0-0.2,0.1c-0.1,0-0.1,0-0.1,0c0,0.1,0,0.2,0,0.2c0,0.1,0,0.2,0.1,0.3
				c0,0.1,0.1,0.2,0.2,0.3c0.1,0.1,0.1,0.1,0.2,0.2c0.1,0.1,0.3,0.1,0.5,0.1c0.2,0,0.3,0,0.4-0.1C358.4,48.8,358.5,48.8,358.6,48.7z
				 M357.8,43.7c-0.1,0-0.1,0-0.2,0c-0.1,0-0.2,0.1-0.2,0.1c-0.1,0.1-0.1,0.1-0.2,0.3s-0.1,0.2-0.1,0.4c0,0.2,0,0.3,0.1,0.4
				c0,0.1,0.1,0.2,0.2,0.2c0.1,0.1,0.1,0.1,0.2,0.1c0.1,0,0.1,0,0.2,0c0.1,0,0.1,0,0.2,0c0.1,0,0.2-0.1,0.2-0.1
				c0.1-0.1,0.1-0.1,0.2-0.2c0-0.1,0.1-0.2,0.1-0.4c0-0.2,0-0.3-0.1-0.4c0-0.1-0.1-0.2-0.2-0.3c-0.1-0.1-0.1-0.1-0.2-0.1
				C357.9,43.7,357.9,43.7,357.8,43.7z"/>
			<path class="st1" d="M363.2,43.6c0.2,0.2,0.3,0.4,0.4,0.7c0.1,0.3,0.2,0.6,0.2,0.9c0,0.3,0,0.6-0.1,0.9c-0.1,0.3-0.2,0.5-0.4,0.7
				c-0.2,0.2-0.4,0.4-0.7,0.5c-0.3,0.1-0.5,0.2-0.9,0.2c-0.3,0-0.5-0.1-0.8-0.2c-0.2-0.1-0.5-0.3-0.7-0.5c-0.2-0.2-0.3-0.4-0.4-0.7
				c-0.1-0.3-0.2-0.6-0.2-0.9c0-0.3,0-0.6,0.1-0.9c0.1-0.3,0.2-0.5,0.4-0.7c0.2-0.2,0.4-0.4,0.7-0.5c0.3-0.1,0.5-0.2,0.9-0.2
				c0.3,0,0.6,0.1,0.8,0.2C362.8,43.3,363.1,43.4,363.2,43.6z M361.8,46.6c0.1,0,0.2,0,0.3-0.1c0.1,0,0.2-0.1,0.3-0.2
				c0.1-0.1,0.2-0.2,0.2-0.4c0.1-0.2,0.1-0.4,0.1-0.7c0-0.3,0-0.5-0.1-0.7c-0.1-0.2-0.2-0.3-0.2-0.4c-0.1-0.1-0.2-0.2-0.3-0.2
				c-0.1,0-0.2-0.1-0.3-0.1c-0.1,0-0.2,0-0.3,0.1c-0.1,0-0.2,0.1-0.3,0.2c-0.1,0.1-0.2,0.2-0.2,0.4c-0.1,0.2-0.1,0.4-0.1,0.7
				c0,0.3,0,0.5,0.1,0.7c0.1,0.2,0.2,0.3,0.2,0.4c0.1,0.1,0.2,0.2,0.3,0.2C361.6,46.6,361.7,46.6,361.8,46.6z"/>
			<path class="st1" d="M366.1,43.8c-0.1,0-0.2,0-0.3,0.1c-0.1,0-0.2,0.1-0.3,0.2c-0.1,0.1-0.2,0.2-0.2,0.4
				c-0.1,0.2-0.1,0.4-0.1,0.7c0,0.3,0,0.5,0.1,0.7c0.1,0.2,0.2,0.3,0.2,0.4c0.1,0.1,0.2,0.2,0.3,0.2c0.1,0,0.2,0.1,0.3,0.1
				c0.1,0,0.3,0,0.4,0c0.1,0,0.2-0.1,0.3-0.1c0.1,0,0.2-0.1,0.3-0.1c0.1,0,0.2,0,0.2,0c0.1,0,0.2,0,0.2,0.1c0.1,0,0.1,0.1,0.2,0.2
				l0,0l0,0c-0.2,0.2-0.4,0.4-0.7,0.5c-0.3,0.1-0.6,0.2-0.9,0.2c-0.3,0-0.6-0.1-0.8-0.2c-0.2-0.1-0.5-0.3-0.7-0.5
				c-0.2-0.2-0.3-0.4-0.4-0.7c-0.1-0.3-0.2-0.6-0.2-0.9c0-0.3,0-0.6,0.1-0.9c0.1-0.3,0.2-0.5,0.4-0.7c0.2-0.2,0.4-0.4,0.6-0.5
				c0.3-0.1,0.5-0.2,0.8-0.2c0.3,0,0.6,0.1,0.9,0.2c0.3,0.1,0.5,0.3,0.7,0.5l0,0l0,0c-0.1,0.1-0.1,0.2-0.2,0.2
				c-0.1,0-0.2,0.1-0.2,0.1c-0.1,0-0.2,0-0.2,0c-0.1,0-0.2-0.1-0.3-0.1c-0.1,0-0.2-0.1-0.3-0.1C366.3,43.8,366.2,43.8,366.1,43.8z"
				/>
			<path class="st1" d="M369.1,41.7c-0.1,0.2-0.3,0.3-0.5,0.3c-0.1,0-0.2,0-0.3-0.1c-0.1-0.1-0.2-0.1-0.2-0.2c0-0.1-0.1-0.2-0.1-0.3
				c0-0.1,0-0.2,0.1-0.3c0.1-0.1,0.1-0.2,0.2-0.2c0.1-0.1,0.2-0.1,0.3-0.1c0.1,0,0.2,0,0.3,0.1c0.1,0,0.2,0.1,0.2,0.2
				c0,0.1,0.1,0.2,0.1,0.3C369.2,41.5,369.1,41.6,369.1,41.7z M369.8,46.5c0,0-0.1,0.1-0.2,0.1c-0.1,0-0.1,0-0.2,0s-0.1-0.1-0.2-0.1
				c-0.1-0.1-0.1-0.2-0.1-0.3V44c0-0.2,0-0.3,0-0.4c0-0.1,0-0.2,0-0.3c0-0.1,0-0.1,0-0.2c-0.4,0-0.7,0.1-0.9,0.2
				c-0.2,0.2-0.3,0.4-0.3,0.8l0,2.2c0,0.2,0,0.3,0.1,0.4c0,0.1,0.1,0.3,0.2,0.4c0.1,0.1,0.2,0.2,0.4,0.2c0.1,0.1,0.3,0.1,0.5,0.1
				c0.2,0,0.3-0.1,0.4-0.2c0.1-0.1,0.2-0.2,0.2-0.3C369.8,46.8,369.8,46.6,369.8,46.5z"/>
			<path class="st1" d="M373.3,43.6c0.2,0.2,0.3,0.4,0.4,0.7c0.1,0.3,0.2,0.6,0.2,0.9c0,0.3,0,0.6-0.1,0.9c-0.1,0.3-0.2,0.5-0.4,0.7
				c-0.2,0.2-0.4,0.4-0.7,0.5c-0.3,0.1-0.5,0.2-0.9,0.2c-0.3,0-0.5-0.1-0.8-0.2c-0.2-0.1-0.5-0.3-0.7-0.5c-0.2-0.2-0.3-0.4-0.4-0.7
				c-0.1-0.3-0.2-0.6-0.2-0.9c0-0.3,0-0.6,0.1-0.9c0.1-0.3,0.2-0.5,0.4-0.7c0.2-0.2,0.4-0.4,0.7-0.5c0.3-0.1,0.5-0.2,0.9-0.2
				c0.3,0,0.6,0.1,0.8,0.2C372.9,43.3,373.1,43.4,373.3,43.6z M371.8,46.6c0.1,0,0.2,0,0.3-0.1c0.1,0,0.2-0.1,0.3-0.2
				c0.1-0.1,0.2-0.2,0.2-0.4c0.1-0.2,0.1-0.4,0.1-0.7c0-0.3,0-0.5-0.1-0.7c-0.1-0.2-0.2-0.3-0.2-0.4c-0.1-0.1-0.2-0.2-0.3-0.2
				c-0.1,0-0.2-0.1-0.3-0.1c-0.1,0-0.2,0-0.3,0.1c-0.1,0-0.2,0.1-0.3,0.2c-0.1,0.1-0.2,0.2-0.2,0.4c-0.1,0.2-0.1,0.4-0.1,0.7
				c0,0.3,0,0.5,0.1,0.7c0.1,0.2,0.2,0.3,0.2,0.4c0.1,0.1,0.2,0.2,0.3,0.2C371.6,46.6,371.7,46.6,371.8,46.6z"/>
			<path class="st1" d="M376.3,46.2c0-0.1,0-0.2-0.1-0.3c-0.1-0.1-0.2-0.1-0.3-0.2c-0.1-0.1-0.3-0.1-0.5-0.2
				c-0.2-0.1-0.4-0.2-0.6-0.3c-0.1-0.1-0.3-0.2-0.4-0.3c-0.1-0.1-0.2-0.2-0.2-0.4c0-0.1-0.1-0.3-0.1-0.4c0-0.1,0-0.3,0.1-0.4
				c0.1-0.1,0.1-0.2,0.2-0.3c0.1-0.1,0.2-0.2,0.3-0.2c0.1-0.1,0.2-0.1,0.4-0.1c0.1,0,0.2,0,0.3,0h0.1c0.3,0,0.6,0.1,0.9,0.2
				c0.3,0.1,0.5,0.3,0.7,0.6l0,0l0,0c-0.1,0.1-0.1,0.2-0.2,0.2c-0.1,0-0.1,0.1-0.2,0.1c-0.1,0-0.2,0-0.2-0.1c-0.1,0-0.2-0.1-0.3-0.1
				c-0.1,0-0.2-0.1-0.3-0.1c-0.1,0-0.2-0.1-0.3-0.1c-0.1,0-0.2,0-0.3,0.1c-0.1,0.1-0.1,0.1-0.1,0.2c0,0.1,0,0.2,0.1,0.3
				c0.1,0.1,0.2,0.1,0.4,0.2c0.2,0.1,0.4,0.2,0.6,0.3c0.2,0.1,0.4,0.2,0.6,0.4c0.2,0.1,0.3,0.3,0.4,0.5c0.1,0.2,0.1,0.4,0,0.7
				c0,0.1-0.1,0.2-0.2,0.3c-0.1,0.1-0.2,0.2-0.3,0.3c-0.1,0.1-0.3,0.2-0.5,0.2c-0.2,0.1-0.4,0.1-0.7,0.1c0,0-0.1,0-0.1,0
				c-0.3,0-0.6-0.1-0.9-0.2c-0.3-0.1-0.5-0.3-0.7-0.6l0,0l0,0c0,0,0.1-0.1,0.1-0.1c0,0,0.1-0.1,0.1-0.1c0.1,0,0.1-0.1,0.2-0.1
				c0.1,0,0.2,0,0.2,0.1c0.1,0,0.2,0.1,0.3,0.1c0.1,0,0.2,0.1,0.3,0.1c0.1,0,0.2,0.1,0.4,0.1c0.2,0,0.4,0,0.5-0.1
				C376.2,46.4,376.3,46.3,376.3,46.2z"/>
		</g>
	</g>
</g>
<text transform="matrix(1 0 0 1 227.0726 217.005)"><tspan x="0" y="0" class="st1 st11 st12">Bienvenido/a</tspan><tspan x="-61.5" y="28.6" class="st1 st13 st14">Ingresá a tu panel de Control</tspan></text>
<text transform="matrix(1 0 0 1 280.6975 375.4774)"><tspan x="0" y="0" class="st2 st13 st15">¿No sos usuario?</tspan><tspan x="-11.4" y="17" class="st2 st13 st15">¿Olvidaste tu clave?</tspan></text>
<path class="st1" d="M413.7,303.3h-145c-6.6,0-12-5.4-12-12v-4c0-6.6,5.4-12,12-12h145c6.6,0,12,5.4,12,12v4
	C425.7,297.9,420.3,303.3,413.7,303.3z"/>
<path class="st1" d="M413.7,343.9h-145c-6.6,0-12-5.4-12-12v-4c0-6.6,5.4-12,12-12h145c6.6,0,12,5.4,12,12v4
	C425.7,338.5,420.3,343.9,413.7,343.9z"/>
<text transform="matrix(1 0 0 1 306.9243 295.1282)" class="st3 st13 st16">Usuario</text>
<text transform="matrix(1 0 0 1 315.7514 335.5543)" class="st3 st13 st16">Clave</text>
</svg>
