<?xml version="1.0" encoding="utf-8"?>
<!-- Generator: Adobe Illustrator 22.1.0, SVG Export Plug-In . SVG Version: 6.00 Build 0)  -->
<svg version="1.1" id="Layer_1" xmlns="http://www.w3.org/2000/svg" xmlns:xlink="http://www.w3.org/1999/xlink" x="0px" y="0px"
	 viewBox="0 0 709.8 424.4" style="enable-background:new 0 0 709.8 424.4;" xml:space="preserve">
<style type="text/css">
	.st0{fill:#757474;}
	.st1{fill:#FFFFFF;}
	.st2{fill:#005321;}
	.st3{fill:#52AE32;}
	.st4{fill:#DCDCDC;}
	.st5{fill:#F9B041;}
	.st6{fill:#21386C;}
	.st7{fill:#144F9F;}
	.st8{fill:#F49523;}
	.st9{fill:none;stroke:#52AE32;stroke-miterlimit:10;}
	.st10{fill:none;stroke:#52AE32;stroke-miterlimit:10;stroke-dasharray:4.9052,4.9052;}
	.st11{fill:#E30613;}
	.st12{fill:#B2B2B2;}
	.st13{fill:#FFCC00;}
	.st14{fill:#9B9B9A;}
	.st15{fill:#706F6F;stroke:#706F6F;stroke-width:0.25;stroke-miterlimit:10;}
	.st16{fill:#4E4D4D;}
	.st17{font-family:'Montserrat-Medium';}
	.st18{font-size:10.0598px;}
	.st19{font-size:13.9213px;}
	.st20{fill:#706F6F;}
	.st21{font-size:9.9213px;}
	.st22{font-size:8.408px;}
	.st23{font-family:'Montserrat-Bold';}
	.st24{fill:#FFED00;}
	.st25{fill:#E41513;}
	.st26{fill:#5AB031;}
</style>
<path class="st11" d="M547.2,79.2H284.6c-5.1,0-9.3-4.2-9.3-9.3v-25c0-5.1,4.2-9.3,9.3-9.3h262.6c5.1,0,9.3,4.2,9.3,9.3v25
	C556.5,75,552.3,79.2,547.2,79.2z"/>
<g>
	<g>
		<path class="st1" d="M357.7,77.7c-6.8,0-12.3-5.6-12.3-12.3c0-6.8,5.6-12.3,12.3-12.3c6.8,0,12.3,5.6,12.3,12.3
			C370,72.1,364.5,77.7,357.7,77.7z"/>
	</g>
	<g>
		<path id="XMLID_8_" class="st11" d="M351.9,67.2c-0.2,0-0.3-0.1-0.4-0.3c-0.2-0.4-0.2-0.9-0.2-1.4c0-0.5,0.1-1.1,0.3-1.6
			c0.1-0.2,0.3-0.3,0.5-0.2c0.2,0.1,0.3,0.3,0.2,0.5c-0.2,0.4-0.3,0.8-0.3,1.2c0,0.4,0.1,0.7,0.2,1.1c0.1,0.2,0,0.4-0.2,0.5
			C352,67.2,351.9,67.2,351.9,67.2z"/>
		<path id="XMLID_7_" class="st11" d="M350.4,68.4c-0.1,0-0.2-0.1-0.3-0.1c-0.5-0.6-0.8-1.6-0.8-2.8c0-1.1,0.3-2,0.7-2.7
			c0.1-0.2,0.4-0.2,0.5-0.1c0.2,0.1,0.2,0.4,0.1,0.5c-0.3,0.5-0.5,1.3-0.5,2.2c0,0.9,0.2,1.8,0.6,2.3c0.1,0.2,0.1,0.4-0.1,0.6
			C350.6,68.4,350.5,68.4,350.4,68.4z"/>
		<path id="XMLID_6_" class="st11" d="M363.5,67.2c0,0-0.1,0-0.1,0c-0.2-0.1-0.3-0.3-0.2-0.5c0.1-0.3,0.2-0.7,0.2-1.1
			c0-0.4-0.1-0.9-0.3-1.2c-0.1-0.2,0-0.4,0.2-0.5c0.2-0.1,0.4,0,0.5,0.2c0.2,0.5,0.3,1,0.3,1.6c0,0.5-0.1,0.9-0.2,1.4
			C363.8,67.1,363.7,67.2,363.5,67.2z"/>
		<path id="XMLID_5_" class="st11" d="M365,68.4c-0.1,0-0.2,0-0.2-0.1c-0.2-0.1-0.2-0.4-0.1-0.6c0.4-0.5,0.6-1.3,0.6-2.3
			c0-0.9-0.2-1.7-0.5-2.2c-0.1-0.2-0.1-0.4,0.1-0.5c0.2-0.1,0.4-0.1,0.5,0.1c0.4,0.6,0.7,1.6,0.7,2.7c0,1.1-0.3,2.2-0.8,2.8
			C365.2,68.4,365.1,68.4,365,68.4z"/>
		<path id="XMLID_3_" class="st11" d="M361.9,68.1c-0.5-1-0.5-2.1-0.5-2.1c-0.1-0.9-0.3-1.7-0.5-2.4c-1.2-3.2-5.1-3.2-6.3,0
			c-0.2,0.7-0.4,1.5-0.5,2.4c0,0,0,1.1-0.5,2.1c-0.2,0.3,0,0.8,0.3,0.8h3.9h3.9C361.9,68.9,362.1,68.4,361.9,68.1z"/>
		<path id="XMLID_1_" class="st11" d="M358.7,68.8c0-0.5-0.4-0.8-1-0.8s-1,0.4-1,0.8c0,0.5,0.4,0.8,1,0.8S358.7,69.3,358.7,68.8z"/>
	</g>
</g>
<rect x="0" class="st2" width="130.9" height="48.4"/>
<rect x="130.9" class="st3" width="578.8" height="48.4"/>
<rect x="0.1" y="407.3" class="st3" width="709.6" height="17.2"/>
<g>
	<path class="st1" d="M23.5,24.2c-0.8,0-1.5-0.1-2.1-0.3c-0.6-0.2-1.1-0.6-1.6-1c-0.4-0.5-0.8-1.1-1-1.8c-0.2-0.7-0.4-1.6-0.4-2.7
		v-3.7c0-0.8,0.1-1.4,0.4-1.9c0.2-0.4,0.6-0.8,1.1-0.9c0.3-0.1,0.6-0.2,1-0.2c0.2,0,0.5-0.1,0.8-0.1c0.3,0,0.6,0,0.8,0
		c0.6,0,1.2,0.1,1.6,0.3c0.5,0.2,0.8,0.4,1.1,0.7c0.3,0.3,0.5,0.6,0.7,1c0.1,0.4,0.2,0.8,0.2,1.2c0,0.4-0.1,0.7-0.2,1.1
		c-0.1,0.3-0.3,0.6-0.6,0.9c0.4,0.1,0.7,0.3,1,0.5c0.3,0.2,0.6,0.5,0.8,0.8c0.2,0.3,0.4,0.7,0.5,1c0.1,0.4,0.2,0.8,0.2,1.3
		c0,0.5-0.1,1.1-0.3,1.5c-0.2,0.5-0.5,0.9-0.9,1.3c-0.4,0.4-0.8,0.7-1.4,0.9C24.8,24,24.2,24.2,23.5,24.2z M23.5,22.4
		c0.4,0,0.7-0.1,1-0.2c0.3-0.1,0.5-0.3,0.7-0.5c0.2-0.2,0.3-0.5,0.4-0.7c0.1-0.3,0.1-0.6,0.1-0.9c0-0.5-0.1-1-0.3-1.3
		c-0.2-0.3-0.4-0.6-0.7-0.8c-0.3-0.2-0.6-0.3-0.9-0.4c-0.3-0.1-0.7-0.1-1-0.1c-0.3,0-0.6,0-0.8,0c-0.3,0-0.5,0-0.7,0
		c-0.2,0-0.4,0-0.6,0v0.8c0,0.8,0,1.5,0.1,2c0.1,0.5,0.3,0.9,0.6,1.3c0.2,0.3,0.6,0.5,0.9,0.7C22.7,22.3,23.1,22.4,23.5,22.4z
		 M20.7,16h1.5c0.6,0,1.1-0.1,1.5-0.4c0.4-0.2,0.5-0.6,0.5-1.2c0-0.3,0-0.5-0.2-0.7c-0.1-0.2-0.2-0.4-0.4-0.5
		c-0.2-0.1-0.3-0.2-0.5-0.3c-0.2-0.1-0.4-0.1-0.6-0.1c-0.1,0-0.3,0-0.5,0c-0.2,0-0.4,0-0.6,0.1c-0.2,0.1-0.4,0.1-0.5,0.3
		c-0.1,0.1-0.2,0.3-0.2,0.5V16z"/>
	<path class="st1" d="M36.1,20.3c0,0.8-0.1,1.4-0.4,1.9c-0.2,0.5-0.5,0.9-0.9,1.2c-0.4,0.3-0.8,0.5-1.3,0.6
		c-0.5,0.1-0.9,0.2-1.4,0.2c-0.5,0-0.9-0.1-1.4-0.2c-0.5-0.1-0.9-0.3-1.3-0.6c-0.4-0.3-0.7-0.7-0.9-1.2c-0.2-0.5-0.3-1.2-0.3-1.9
		l0-2.5c0-0.7,0.2-1.2,0.6-1.5c0.4-0.3,0.9-0.5,1.7-0.5c0,0.1,0,0.2,0,0.3c0,0.1,0,0.3,0,0.5c0,0.2,0,0.5,0,0.9l0,2.8
		c0,0.5,0,0.9,0.1,1.2c0.1,0.3,0.2,0.5,0.4,0.7c0.2,0.2,0.3,0.3,0.5,0.3c0.2,0.1,0.4,0.1,0.6,0.1c0.2,0,0.4,0,0.6-0.1
		c0.2-0.1,0.4-0.2,0.5-0.3c0.2-0.2,0.3-0.4,0.4-0.7c0.1-0.3,0.1-0.7,0.1-1.2l0-2.5c0-0.7,0.2-1.2,0.6-1.5c0.4-0.3,1-0.5,1.7-0.5
		c0,0.1,0,0.2,0,0.3c0,0.1,0,0.3,0,0.5c0,0.2,0,0.5,0,0.9L36.1,20.3z"/>
	<path class="st1" d="M43.3,22.2c0.1,0.1,0.3,0.2,0.4,0.4l0.1,0.1l-0.1,0.1c-0.4,0.4-0.9,0.8-1.4,1c-0.5,0.2-1.1,0.4-1.8,0.4
		c-0.5,0-1.1-0.1-1.5-0.3c-0.5-0.2-0.9-0.5-1.3-0.9c-0.4-0.4-0.6-0.8-0.8-1.3c-0.2-0.5-0.3-1.1-0.3-1.7c0-0.6,0.1-1.2,0.3-1.7
		c0.2-0.5,0.4-1,0.8-1.4c0.3-0.4,0.8-0.7,1.3-0.9c0.5-0.2,1-0.3,1.7-0.3c0.3,0,0.7,0,1.1,0.2c0.4,0.1,0.8,0.3,1.1,0.5
		c0.3,0.2,0.6,0.5,0.9,0.9c0.2,0.4,0.3,0.8,0.3,1.3c0,0.5-0.1,0.9-0.4,1.2c-0.2,0.3-0.5,0.5-0.9,0.7c-0.3,0.2-0.7,0.3-1.1,0.4
		c-0.4,0.1-0.7,0.1-1,0.1c-0.4,0-0.8,0-1.2-0.1c-0.3-0.1-0.6-0.1-0.7-0.1c0,0.4,0.1,0.8,0.3,1c0.1,0.3,0.3,0.5,0.5,0.6
		c0.2,0.2,0.4,0.3,0.5,0.3c0.2,0.1,0.3,0.1,0.5,0.1c0.2,0,0.5,0,0.7-0.1c0.2,0,0.4-0.1,0.6-0.2c0.2-0.1,0.3-0.1,0.5-0.2
		c0.2-0.1,0.3-0.1,0.5-0.1C43,22.1,43.2,22.1,43.3,22.2z M40.6,17.1c-0.1,0-0.3,0-0.5,0.1c-0.2,0.1-0.4,0.2-0.5,0.3
		c-0.2,0.1-0.3,0.3-0.5,0.6c-0.1,0.3-0.2,0.6-0.3,1c0.2,0.1,0.5,0.1,0.8,0.2c0.4,0.1,0.7,0.1,1.1,0c0.4,0,0.7-0.1,0.9-0.3
		c0.3-0.2,0.4-0.4,0.4-0.8c0-0.3-0.1-0.6-0.3-0.8C41.4,17.2,41.1,17.1,40.6,17.1z"/>
	<path class="st1" d="M44.5,19.5c0-0.8,0.1-1.5,0.3-2c0.2-0.5,0.5-0.9,0.9-1.2c0.4-0.3,0.8-0.5,1.2-0.6c0.5-0.1,0.9-0.2,1.4-0.2
		c0.5,0,0.9,0,1.4,0.2c0.5,0.1,0.9,0.3,1.3,0.6c0.4,0.3,0.7,0.7,0.9,1.2c0.2,0.5,0.3,1.2,0.3,2l0.1,4.5c-0.7,0-1.3-0.2-1.7-0.5
		C50.2,23.2,50,22.7,50,22l0-2.5c0-0.5,0-0.9-0.2-1.2c-0.1-0.3-0.2-0.5-0.4-0.7c-0.2-0.2-0.4-0.3-0.6-0.3c-0.2-0.1-0.4-0.1-0.6-0.1
		c-0.2,0-0.4,0-0.6,0.1c-0.2,0.1-0.4,0.2-0.5,0.3c-0.2,0.2-0.3,0.4-0.4,0.7c-0.1,0.3-0.2,0.7-0.2,1.2v2.8c0,0.4,0,0.6,0,0.9
		c0,0.2,0,0.4,0,0.5c0,0.1,0,0.2,0,0.3c-0.7,0-1.3-0.2-1.7-0.5c-0.4-0.3-0.6-0.8-0.6-1.5L44.5,19.5z"/>
	<path class="st1" d="M53.8,19.4c0.3-0.2,0.7-0.4,1.1-0.5c0.4-0.1,0.8-0.2,1.3-0.2c0.6,0,1.2,0.1,1.8,0.3c0-0.4-0.1-0.7-0.2-1
		c-0.2-0.4-0.4-0.6-0.7-0.8c-0.1-0.1-0.2-0.1-0.4-0.1c-0.1,0-0.3,0-0.5,0h-0.2c-0.2,0-0.3,0-0.5,0.1c-0.2,0-0.3,0.1-0.5,0.2
		c-0.2,0.1-0.3,0.1-0.5,0.2c-0.2,0-0.3,0.1-0.5,0.1c-0.2,0-0.3,0-0.5-0.1c-0.1-0.1-0.3-0.2-0.4-0.4l0-0.1l0-0.1
		c0.4-0.4,0.8-0.7,1.3-0.9c0.5-0.2,1-0.4,1.6-0.4c0.1,0,0.1,0,0.2,0c0,0,0.1,0,0.2,0c0.5,0,1,0.1,1.5,0.3c0.5,0.2,0.8,0.5,1.2,0.8
		c0.7,0.7,1,1.7,1.1,2.9v0.1c0,1.2-0.3,2.2-0.9,3c-0.3,0.4-0.7,0.7-1.1,0.9c-0.4,0.2-0.9,0.4-1.5,0.4c-0.1,0-0.1,0-0.2,0
		c-0.1,0-0.1,0-0.2,0c-0.3,0-0.5,0-0.8-0.1c-0.3,0-0.5-0.1-0.8-0.2c-0.3-0.1-0.5-0.2-0.8-0.4c-0.2-0.2-0.4-0.4-0.6-0.7
		c-0.2-0.3-0.3-0.8-0.4-1.3v-0.1c0-0.5,0.1-0.9,0.3-1.2C53.2,19.9,53.5,19.6,53.8,19.4z M57.5,20.3c-0.2,0-0.3,0-0.5-0.1
		c-0.2,0-0.4,0-0.6,0c-0.2,0-0.3,0-0.5,0c-0.2,0-0.3,0.1-0.4,0.1c-0.3,0.1-0.5,0.2-0.7,0.4c-0.1,0.1-0.1,0.2-0.1,0.2
		c0,0.1-0.1,0.2-0.1,0.3c0,0,0,0.1,0,0.2c0,0.1,0,0.2,0.1,0.4c0,0.1,0.1,0.3,0.2,0.4c0.1,0.1,0.2,0.2,0.4,0.3
		c0.2,0.1,0.4,0.1,0.7,0.1c0.1,0,0.2,0,0.2,0c0.3,0,0.6-0.1,0.9-0.3c0.1-0.1,0.2-0.2,0.3-0.3c0.1-0.1,0.2-0.2,0.2-0.3
		c0.1-0.2,0.2-0.5,0.3-0.7c0-0.2,0.1-0.5,0.1-0.7c0,0,0,0,0,0c0,0,0,0,0,0c0,0-0.1,0-0.2,0C57.7,20.3,57.6,20.3,57.5,20.3z"/>
	<path class="st1" d="M70.4,11.5c-0.7,1.9-1.4,3.6-2,5.2c-0.3,0.7-0.5,1.4-0.8,2c-0.3,0.7-0.5,1.3-0.8,1.9c-0.2,0.6-0.4,1.1-0.6,1.5
		c-0.2,0.4-0.3,0.7-0.4,0.9c-0.2,0.4-0.4,0.6-0.7,0.8c-0.3,0.1-0.5,0.2-0.8,0.2c-0.3,0-0.6,0-0.9-0.1l-5-12.4c0.3,0,0.6-0.1,0.9-0.1
		c0.3,0,0.6,0.1,0.8,0.1c0.2,0.1,0.5,0.2,0.7,0.4c0.2,0.2,0.4,0.4,0.5,0.7c0,0,0.1,0.2,0.2,0.5c0.1,0.3,0.2,0.6,0.4,1
		c0.2,0.4,0.3,0.8,0.5,1.3c0.2,0.5,0.4,1,0.6,1.4c0.4,1.2,0.9,2.4,1.5,3.9c0.5-1.4,1-2.7,1.5-3.9c0.2-0.5,0.4-1,0.6-1.4
		c0.2-0.5,0.3-0.9,0.5-1.3c0.1-0.4,0.3-0.7,0.4-1c0.1-0.3,0.2-0.4,0.2-0.5c0.1-0.3,0.3-0.6,0.5-0.7c0.2-0.2,0.4-0.3,0.7-0.4
		c0.3-0.1,0.5-0.1,0.8-0.1C69.8,11.5,70.1,11.5,70.4,11.5z"/>
	<path class="st1" d="M75,22.2c0.1,0.1,0.3,0.2,0.4,0.4l0.1,0.1l-0.1,0.1c-0.4,0.4-0.9,0.8-1.4,1c-0.5,0.2-1.1,0.4-1.8,0.4
		c-0.5,0-1.1-0.1-1.5-0.3c-0.5-0.2-0.9-0.5-1.3-0.9c-0.4-0.4-0.6-0.8-0.8-1.3c-0.2-0.5-0.3-1.1-0.3-1.7c0-0.6,0.1-1.2,0.3-1.7
		c0.2-0.5,0.4-1,0.8-1.4c0.3-0.4,0.8-0.7,1.3-0.9c0.5-0.2,1-0.3,1.7-0.3c0.3,0,0.7,0,1.1,0.2c0.4,0.1,0.8,0.3,1.1,0.5
		c0.3,0.2,0.6,0.5,0.9,0.9c0.2,0.4,0.3,0.8,0.3,1.3c0,0.5-0.1,0.9-0.4,1.2c-0.2,0.3-0.5,0.5-0.9,0.7c-0.3,0.2-0.7,0.3-1.1,0.4
		c-0.4,0.1-0.7,0.1-1,0.1c-0.4,0-0.8,0-1.2-0.1c-0.3-0.1-0.6-0.1-0.7-0.1c0,0.4,0.1,0.8,0.3,1c0.1,0.3,0.3,0.5,0.5,0.6
		c0.2,0.2,0.4,0.3,0.5,0.3c0.2,0.1,0.3,0.1,0.5,0.1c0.2,0,0.5,0,0.7-0.1c0.2,0,0.4-0.1,0.6-0.2c0.2-0.1,0.3-0.1,0.5-0.2
		c0.2-0.1,0.3-0.1,0.5-0.1C74.7,22.1,74.9,22.1,75,22.2z M72.3,17.1c-0.1,0-0.3,0-0.5,0.1c-0.2,0.1-0.4,0.2-0.5,0.3
		c-0.2,0.1-0.3,0.3-0.5,0.6c-0.1,0.3-0.2,0.6-0.3,1c0.2,0.1,0.5,0.1,0.8,0.2c0.4,0.1,0.7,0.1,1.1,0c0.4,0,0.7-0.1,0.9-0.3
		c0.3-0.2,0.4-0.4,0.4-0.8c0-0.3-0.1-0.6-0.3-0.8C73.1,17.2,72.8,17.1,72.3,17.1z"/>
	<path class="st1" d="M76.2,19.5c0-0.8,0.1-1.5,0.3-2c0.2-0.5,0.5-0.9,0.9-1.2c0.4-0.3,0.8-0.5,1.2-0.6c0.5-0.1,0.9-0.2,1.4-0.2
		c0.5,0,0.9,0,1.4,0.2c0.5,0.1,0.9,0.3,1.3,0.6c0.4,0.3,0.7,0.7,0.9,1.2c0.2,0.5,0.3,1.2,0.3,2L84,24c-0.7,0-1.3-0.2-1.7-0.5
		c-0.4-0.3-0.6-0.8-0.6-1.5l0-2.5c0-0.5,0-0.9-0.2-1.2c-0.1-0.3-0.2-0.5-0.4-0.7c-0.2-0.2-0.4-0.3-0.6-0.3c-0.2-0.1-0.4-0.1-0.6-0.1
		c-0.2,0-0.4,0-0.6,0.1c-0.2,0.1-0.4,0.2-0.5,0.3c-0.2,0.2-0.3,0.4-0.4,0.7c-0.1,0.3-0.2,0.7-0.2,1.2v2.8c0,0.4,0,0.6,0,0.9
		c0,0.2,0,0.4,0,0.5c0,0.1,0,0.2,0,0.3c-0.7,0-1.3-0.2-1.7-0.5c-0.4-0.3-0.6-0.8-0.6-1.5L76.2,19.5z"/>
	<path class="st1" d="M89.4,22.4c0,0,0,0.1,0,0.1c0,0.1,0,0.2,0,0.3c0,0.2,0,0.4-0.1,0.6c-0.1,0.2-0.2,0.3-0.4,0.4
		c-0.3,0.2-0.7,0.4-1.2,0.4c-0.4,0-0.8-0.1-1.2-0.3c-0.4-0.2-0.7-0.4-1-0.8c-0.3-0.4-0.6-0.8-0.7-1.3c-0.2-0.5-0.3-1.2-0.3-1.9
		l0-5.2c0-0.7,0.2-1.2,0.6-1.5c0.4-0.3,0.9-0.5,1.7-0.5c0,0.1,0,0.2,0,0.3c0,0.1,0,0.3,0,0.5c0,0.2,0,0.5,0,0.9l0,1.1h2.4
		c0,0.5-0.1,1-0.4,1.3c-0.3,0.3-0.7,0.5-1.3,0.5h-0.7l0,2.5c0,0.5,0,0.9,0.1,1.3c0.1,0.3,0.2,0.6,0.4,0.8c0.3,0.4,0.7,0.6,1.3,0.6
		c0.2,0,0.4,0,0.6-0.1C89.2,22.5,89.3,22.4,89.4,22.4z"/>
	<path class="st1" d="M97.3,20.3c0,0.8-0.1,1.4-0.4,1.9c-0.2,0.5-0.5,0.9-0.9,1.2c-0.4,0.3-0.8,0.5-1.3,0.6
		c-0.5,0.1-0.9,0.2-1.4,0.2c-0.5,0-0.9-0.1-1.4-0.2c-0.5-0.1-0.9-0.3-1.3-0.6c-0.4-0.3-0.7-0.7-0.9-1.2c-0.2-0.5-0.3-1.2-0.3-1.9
		l0-2.5c0-0.7,0.2-1.2,0.6-1.5c0.4-0.3,0.9-0.5,1.7-0.5c0,0.1,0,0.2,0,0.3c0,0.1,0,0.3,0,0.5c0,0.2,0,0.5,0,0.9l0,2.8
		c0,0.5,0,0.9,0.1,1.2s0.2,0.5,0.4,0.7c0.2,0.2,0.3,0.3,0.5,0.3c0.2,0.1,0.4,0.1,0.6,0.1s0.4,0,0.6-0.1c0.2-0.1,0.4-0.2,0.5-0.3
		c0.2-0.2,0.3-0.4,0.4-0.7c0.1-0.3,0.1-0.7,0.1-1.2l0-2.5c0-0.7,0.2-1.2,0.6-1.5c0.4-0.3,1-0.5,1.7-0.5c0,0.1,0,0.2,0,0.3
		c0,0.1,0,0.3,0,0.5c0,0.2,0,0.5,0,0.9L97.3,20.3z"/>
	<path class="st1" d="M97.9,19.7c0-0.8,0.1-1.5,0.3-2c0.2-0.5,0.5-0.9,0.9-1.2c0.4-0.3,0.8-0.5,1.2-0.6c0.5-0.1,0.9-0.2,1.4-0.2h0.9
		c0.1,0.2,0.1,0.5,0,0.7c0,0.2-0.1,0.4-0.2,0.5c-0.1,0.2-0.4,0.3-0.7,0.3c-0.2,0-0.4,0.1-0.6,0.1c-0.2,0.1-0.4,0.2-0.5,0.3
		c-0.2,0.2-0.3,0.4-0.4,0.7c-0.1,0.3-0.2,0.7-0.2,1.2v2.6c0,0.4,0,0.6,0,0.9c0,0.2,0,0.4,0,0.5c0,0.1,0,0.2,0,0.3
		c-0.7,0-1.3-0.2-1.7-0.5c-0.4-0.3-0.6-0.8-0.6-1.5V19.7z"/>
	<path class="st1" d="M103.7,19.4c0.3-0.2,0.7-0.4,1.1-0.5c0.4-0.1,0.8-0.2,1.3-0.2c0.6,0,1.2,0.1,1.8,0.3c0-0.4-0.1-0.7-0.2-1
		c-0.2-0.4-0.4-0.6-0.7-0.8c-0.1-0.1-0.2-0.1-0.4-0.1c-0.1,0-0.3,0-0.5,0h-0.2c-0.2,0-0.3,0-0.5,0.1c-0.2,0-0.3,0.1-0.5,0.2
		c-0.2,0.1-0.3,0.1-0.5,0.2c-0.2,0-0.3,0.1-0.5,0.1c-0.2,0-0.3,0-0.5-0.1c-0.1-0.1-0.3-0.2-0.4-0.4l0-0.1l0-0.1
		c0.4-0.4,0.8-0.7,1.3-0.9c0.5-0.2,1-0.4,1.6-0.4c0.1,0,0.1,0,0.2,0c0,0,0.1,0,0.2,0c0.5,0,1,0.1,1.5,0.3c0.5,0.2,0.8,0.5,1.2,0.8
		c0.7,0.7,1,1.7,1.1,2.9v0.1c0,1.2-0.3,2.2-0.9,3c-0.3,0.4-0.7,0.7-1.1,0.9c-0.4,0.2-0.9,0.4-1.5,0.4c-0.1,0-0.1,0-0.2,0
		c-0.1,0-0.1,0-0.2,0c-0.3,0-0.5,0-0.8-0.1c-0.3,0-0.5-0.1-0.8-0.2c-0.3-0.1-0.5-0.2-0.8-0.4c-0.2-0.2-0.4-0.4-0.6-0.7
		c-0.2-0.3-0.3-0.8-0.4-1.3v-0.1c0-0.5,0.1-0.9,0.3-1.2C103.1,19.9,103.3,19.6,103.7,19.4z M107.4,20.3c-0.2,0-0.3,0-0.5-0.1
		c-0.2,0-0.4,0-0.6,0c-0.2,0-0.3,0-0.5,0c-0.2,0-0.3,0.1-0.4,0.1c-0.3,0.1-0.5,0.2-0.7,0.4c-0.1,0.1-0.1,0.2-0.1,0.2
		c0,0.1-0.1,0.2-0.1,0.3c0,0,0,0.1,0,0.2c0,0.1,0,0.2,0.1,0.4s0.1,0.3,0.2,0.4c0.1,0.1,0.2,0.2,0.4,0.3c0.2,0.1,0.4,0.1,0.7,0.1
		c0.1,0,0.2,0,0.2,0c0.3,0,0.6-0.1,0.9-0.3c0.1-0.1,0.2-0.2,0.3-0.3c0.1-0.1,0.2-0.2,0.2-0.3c0.1-0.2,0.2-0.5,0.3-0.7
		c0-0.2,0.1-0.5,0.1-0.7c0,0,0,0,0,0c0,0,0,0,0,0c0,0-0.1,0-0.2,0C107.5,20.3,107.5,20.3,107.4,20.3z"/>
	<g>
		<g>
			<path class="st1" d="M51.5,30.9c0,0,0,0.1,0.1,0.1c0,0,0,0.1,0,0.1c0,0,0,0.1,0,0.1c-0.1,0-0.3,0-0.4,0c-0.1,0-0.2,0-0.3-0.1
				c-0.1-0.1-0.2-0.2-0.2-0.3c0-0.1-0.1-0.2-0.2-0.4c-0.1-0.2-0.2-0.4-0.3-0.7h-1.9c-0.1,0.3-0.2,0.5-0.3,0.7
				C48,30.7,48,30.9,48,30.9c-0.1,0.1-0.1,0.2-0.3,0.3c-0.1,0.1-0.2,0.1-0.3,0.1c-0.1,0-0.3,0-0.4,0c0,0,0-0.1,0-0.1
				c0,0,0-0.1,0-0.1c0,0,0-0.1,0.1-0.1c0-0.1,0.1-0.2,0.2-0.4c0.1-0.2,0.2-0.4,0.3-0.7c0.1-0.3,0.2-0.5,0.3-0.8
				c0.1-0.3,0.2-0.6,0.3-0.8c0.1-0.3,0.2-0.5,0.3-0.7c0.1-0.2,0.1-0.3,0.2-0.4c0-0.1,0.1-0.2,0.2-0.3c0.1-0.1,0.1-0.1,0.2-0.2
				c0.1,0,0.1-0.1,0.2-0.1c0.1,0,0.1,0,0.1,0c0,0,0.1,0,0.1,0c0.1,0,0.1,0,0.2,0.1c0.1,0,0.1,0.1,0.2,0.2c0.1,0.1,0.1,0.2,0.2,0.3
				c0,0.1,0.1,0.2,0.2,0.4c0.1,0.2,0.2,0.4,0.3,0.7c0.1,0.3,0.2,0.5,0.3,0.8c0.1,0.3,0.2,0.6,0.3,0.8c0.1,0.3,0.2,0.5,0.3,0.7
				C51.5,30.7,51.5,30.8,51.5,30.9z M50.1,29.2c-0.1-0.2-0.2-0.5-0.3-0.7c-0.1-0.2-0.2-0.4-0.2-0.6c-0.1-0.2-0.2-0.4-0.2-0.6
				c-0.1,0.2-0.1,0.4-0.2,0.6c-0.1,0.2-0.1,0.4-0.2,0.6c-0.1,0.2-0.2,0.4-0.3,0.7H50.1z"/>
			<path class="st1" d="M52.4,31.2c0.2-0.1,0.4-0.1,0.7-0.1c0.2,0,0.5,0,0.7,0c0.2,0.1,0.4,0.1,0.5,0.3c0.1,0.1,0.2,0.3,0.2,0.6
				c0,0.2,0,0.4-0.1,0.5c-0.1,0.1-0.2,0.2-0.3,0.3c-0.1,0.1-0.3,0.1-0.4,0.2c-0.1,0-0.3,0.1-0.4,0.1h-0.1c-0.2,0-0.4-0.1-0.6-0.1
				c-0.2-0.1-0.3-0.2-0.5-0.3c-0.1-0.1-0.2-0.3-0.3-0.5c-0.1-0.2-0.1-0.4-0.1-0.7c0,0,0,0,0-0.1c0,0,0,0,0-0.1c0-0.3,0-0.5,0.1-0.7
				c0.1-0.2,0.2-0.4,0.4-0.5c-0.1-0.1-0.3-0.2-0.3-0.4c-0.1-0.2-0.1-0.3-0.1-0.5c0-0.2,0-0.3,0.1-0.5c0.1-0.1,0.2-0.3,0.3-0.4
				c0.1-0.1,0.3-0.2,0.4-0.3c0.2-0.1,0.3-0.1,0.5-0.1c0.2,0,0.4,0,0.6,0.1c0.2,0.1,0.3,0.1,0.4,0.3c0.3,0.2,0.4,0.5,0.4,0.8
				c0,0.2,0,0.3-0.1,0.5c-0.1,0.1-0.2,0.3-0.3,0.4c-0.1,0.1-0.3,0.2-0.4,0.2c-0.2,0.1-0.3,0.1-0.5,0.1v0h0c-0.2,0-0.3,0-0.4,0.1
				c-0.1,0-0.2,0.1-0.2,0.2c-0.1,0.1-0.1,0.2-0.1,0.3C52.4,31.1,52.4,31.2,52.4,31.2z M53.6,32.4c0,0,0.1-0.1,0.1-0.1
				c0-0.1,0-0.1,0-0.2c0,0,0-0.1,0-0.1c0-0.1,0-0.1-0.1-0.2c0,0-0.1-0.1-0.1-0.1c-0.1,0-0.1,0-0.2-0.1c-0.1,0-0.1,0-0.2,0
				c-0.1,0-0.1,0-0.2,0c-0.1,0-0.1,0-0.2,0c-0.1,0-0.1,0-0.2,0c0,0-0.1,0-0.1,0c0,0.1,0,0.1,0,0.2c0,0.1,0,0.1,0.1,0.2
				c0,0.1,0.1,0.1,0.1,0.2c0,0.1,0.1,0.1,0.2,0.1c0.1,0.1,0.2,0.1,0.3,0.1c0.1,0,0.2,0,0.3,0C53.5,32.4,53.6,32.4,53.6,32.4z
				 M53.1,28.6c0,0-0.1,0-0.2,0c-0.1,0-0.1,0-0.2,0.1c-0.1,0-0.1,0.1-0.1,0.2c0,0.1-0.1,0.2-0.1,0.3c0,0.1,0,0.2,0.1,0.3
				c0,0.1,0.1,0.1,0.1,0.2c0.1,0,0.1,0.1,0.2,0.1c0.1,0,0.1,0,0.2,0c0,0,0.1,0,0.2,0c0.1,0,0.1,0,0.2-0.1c0.1,0,0.1-0.1,0.1-0.2
				c0-0.1,0.1-0.2,0.1-0.3c0-0.1,0-0.2-0.1-0.3c0-0.1-0.1-0.1-0.1-0.2c-0.1,0-0.1-0.1-0.2-0.1C53.2,28.6,53.1,28.6,53.1,28.6z"/>
			<path class="st1" d="M54.5,29.7c0-0.3,0-0.6,0.1-0.7c0.1-0.2,0.2-0.3,0.3-0.5c0.1-0.1,0.3-0.2,0.5-0.2c0.2,0,0.3-0.1,0.5-0.1h0.3
				c0,0.1,0,0.2,0,0.3c0,0.1,0,0.1-0.1,0.2c-0.1,0.1-0.1,0.1-0.3,0.1c-0.1,0-0.2,0-0.2,0.1c-0.1,0-0.1,0.1-0.2,0.1
				c-0.1,0.1-0.1,0.1-0.1,0.3c0,0.1-0.1,0.3-0.1,0.5v1c0,0.1,0,0.2,0,0.3c0,0.1,0,0.2,0,0.2c0,0.1,0,0.1,0,0.1
				c-0.3,0-0.5-0.1-0.6-0.2c-0.2-0.1-0.2-0.3-0.2-0.6V29.7z"/>
			<path class="st1" d="M58.7,28.6c0.1,0.1,0.3,0.3,0.3,0.5c0.1,0.2,0.1,0.4,0.1,0.6c0,0.2,0,0.4-0.1,0.6c-0.1,0.2-0.2,0.4-0.3,0.5
				c-0.1,0.2-0.3,0.3-0.5,0.4c-0.2,0.1-0.4,0.1-0.6,0.1c-0.2,0-0.4,0-0.6-0.1c-0.2-0.1-0.3-0.2-0.5-0.4c-0.1-0.1-0.2-0.3-0.3-0.5
				c-0.1-0.2-0.1-0.4-0.1-0.6c0-0.2,0-0.4,0.1-0.6c0.1-0.2,0.2-0.4,0.3-0.5c0.1-0.2,0.3-0.3,0.5-0.4c0.2-0.1,0.4-0.1,0.6-0.1
				c0.2,0,0.4,0,0.6,0.1C58.4,28.3,58.6,28.4,58.7,28.6z M57.6,30.8c0.1,0,0.1,0,0.2,0c0.1,0,0.2-0.1,0.2-0.2
				c0.1-0.1,0.1-0.2,0.2-0.3c0.1-0.1,0.1-0.3,0.1-0.5c0-0.2,0-0.4-0.1-0.5c-0.1-0.1-0.1-0.2-0.2-0.3c-0.1-0.1-0.1-0.1-0.2-0.2
				c-0.1,0-0.1,0-0.2,0c-0.1,0-0.1,0-0.2,0c-0.1,0-0.2,0.1-0.2,0.2c-0.1,0.1-0.1,0.2-0.2,0.3c0,0.1-0.1,0.3-0.1,0.5
				c0,0.2,0,0.4,0.1,0.5c0.1,0.1,0.1,0.2,0.2,0.3c0.1,0.1,0.1,0.1,0.2,0.2C57.5,30.8,57.6,30.8,57.6,30.8z"/>
			<path class="st1" d="M59.3,29.6c0-0.3,0-0.6,0.1-0.7c0.1-0.2,0.2-0.3,0.3-0.5c0.1-0.1,0.3-0.2,0.5-0.2c0.2,0,0.4-0.1,0.5-0.1
				c0.2,0,0.3,0,0.5,0.1c0.2,0,0.3,0.1,0.5,0.2c0.1,0.1,0.3,0.3,0.3,0.5c0.1,0.2,0.1,0.4,0.1,0.7l0,1.7c-0.3,0-0.5-0.1-0.6-0.2
				c-0.2-0.1-0.2-0.3-0.2-0.6l0-1c0-0.2,0-0.3-0.1-0.5c0-0.1-0.1-0.2-0.2-0.3c-0.1-0.1-0.1-0.1-0.2-0.1c-0.1,0-0.2,0-0.2,0
				c-0.1,0-0.2,0-0.2,0c-0.1,0-0.1,0.1-0.2,0.1c-0.1,0.1-0.1,0.2-0.2,0.3c0,0.1-0.1,0.3-0.1,0.5v1.1c0,0.1,0,0.2,0,0.3
				c0,0.1,0,0.2,0,0.2c0,0.1,0,0.1,0,0.1c-0.3,0-0.5-0.1-0.7-0.2c-0.2-0.1-0.2-0.3-0.2-0.6L59.3,29.6z"/>
			<path class="st1" d="M65.1,30.6c0.1,0,0.1,0.1,0.2,0.2l0,0l0,0c-0.2,0.2-0.3,0.3-0.5,0.4c-0.2,0.1-0.4,0.1-0.7,0.1
				c-0.2,0-0.4,0-0.6-0.1c-0.2-0.1-0.3-0.2-0.5-0.4c-0.1-0.1-0.2-0.3-0.3-0.5c-0.1-0.2-0.1-0.4-0.1-0.6c0-0.2,0-0.4,0.1-0.6
				c0.1-0.2,0.2-0.4,0.3-0.5c0.1-0.1,0.3-0.3,0.5-0.3c0.2-0.1,0.4-0.1,0.6-0.1c0.1,0,0.3,0,0.4,0.1c0.2,0,0.3,0.1,0.4,0.2
				c0.1,0.1,0.2,0.2,0.3,0.3c0.1,0.1,0.1,0.3,0.1,0.5c0,0.2,0,0.3-0.1,0.5c-0.1,0.1-0.2,0.2-0.3,0.3C64.7,30,64.6,30,64.4,30
				c-0.1,0-0.3,0-0.4,0c-0.2,0-0.3,0-0.4,0c-0.1,0-0.2,0-0.3,0c0,0.2,0.1,0.3,0.1,0.4c0.1,0.1,0.1,0.2,0.2,0.2
				c0.1,0.1,0.1,0.1,0.2,0.1c0.1,0,0.1,0,0.2,0c0.1,0,0.2,0,0.3,0c0.1,0,0.2,0,0.2-0.1c0.1,0,0.1,0,0.2-0.1c0.1,0,0.1,0,0.2,0
				C65,30.6,65,30.6,65.1,30.6z M64,28.7c-0.1,0-0.1,0-0.2,0c-0.1,0-0.1,0.1-0.2,0.1c-0.1,0.1-0.1,0.1-0.2,0.2
				c-0.1,0.1-0.1,0.2-0.1,0.4c0.1,0,0.2,0,0.3,0.1c0.1,0,0.3,0,0.4,0c0.1,0,0.3-0.1,0.4-0.1c0.1-0.1,0.2-0.2,0.2-0.3
				c0-0.1,0-0.2-0.1-0.3C64.4,28.7,64.2,28.7,64,28.7z"/>
			<path class="st1" d="M66.1,31.2c0.2-0.1,0.4-0.1,0.7-0.1c0.2,0,0.5,0,0.7,0c0.2,0.1,0.4,0.1,0.5,0.3c0.1,0.1,0.2,0.3,0.2,0.6
				c0,0.2,0,0.4-0.1,0.5c-0.1,0.1-0.2,0.2-0.3,0.3c-0.1,0.1-0.3,0.1-0.4,0.2c-0.1,0-0.3,0.1-0.4,0.1h-0.1c-0.2,0-0.4-0.1-0.6-0.1
				c-0.2-0.1-0.3-0.2-0.5-0.3c-0.1-0.1-0.2-0.3-0.3-0.5c-0.1-0.2-0.1-0.4-0.1-0.7c0,0,0,0,0-0.1c0,0,0,0,0-0.1c0-0.3,0-0.5,0.1-0.7
				c0.1-0.2,0.2-0.4,0.4-0.5c-0.1-0.1-0.3-0.2-0.3-0.4c-0.1-0.2-0.1-0.3-0.1-0.5c0-0.2,0-0.3,0.1-0.5c0.1-0.1,0.2-0.3,0.3-0.4
				c0.1-0.1,0.3-0.2,0.4-0.3c0.2-0.1,0.3-0.1,0.5-0.1c0.2,0,0.4,0,0.6,0.1c0.2,0.1,0.3,0.1,0.4,0.3c0.3,0.2,0.4,0.5,0.4,0.8
				c0,0.2,0,0.3-0.1,0.5c-0.1,0.1-0.2,0.3-0.3,0.4c-0.1,0.1-0.3,0.2-0.4,0.2c-0.2,0.1-0.3,0.1-0.5,0.1v0h0c-0.2,0-0.3,0-0.4,0.1
				c-0.1,0-0.2,0.1-0.2,0.2c-0.1,0.1-0.1,0.2-0.1,0.3C66.2,31.1,66.1,31.2,66.1,31.2z M67.4,32.4c0,0,0.1-0.1,0.1-0.1
				c0-0.1,0-0.1,0-0.2c0,0,0-0.1,0-0.1c0-0.1,0-0.1-0.1-0.2c0,0-0.1-0.1-0.1-0.1c-0.1,0-0.1,0-0.2-0.1c-0.1,0-0.1,0-0.2,0
				s-0.1,0-0.2,0c-0.1,0-0.1,0-0.2,0c-0.1,0-0.1,0-0.2,0c0,0-0.1,0-0.1,0c0,0.1,0,0.1,0,0.2c0,0.1,0,0.1,0.1,0.2
				c0,0.1,0.1,0.1,0.1,0.2c0,0.1,0.1,0.1,0.2,0.1c0.1,0.1,0.2,0.1,0.3,0.1c0.1,0,0.2,0,0.3,0C67.3,32.4,67.3,32.4,67.4,32.4z
				 M66.8,28.6c0,0-0.1,0-0.2,0c-0.1,0-0.1,0-0.2,0.1c-0.1,0-0.1,0.1-0.1,0.2c0,0.1-0.1,0.2-0.1,0.3c0,0.1,0,0.2,0.1,0.3
				c0,0.1,0.1,0.1,0.1,0.2c0.1,0,0.1,0.1,0.2,0.1c0.1,0,0.1,0,0.2,0c0,0,0.1,0,0.2,0c0.1,0,0.1,0,0.2-0.1c0.1,0,0.1-0.1,0.1-0.2
				c0-0.1,0.1-0.2,0.1-0.3c0-0.1,0-0.2-0.1-0.3c0-0.1-0.1-0.1-0.1-0.2c-0.1,0-0.1-0.1-0.2-0.1C66.9,28.6,66.9,28.6,66.8,28.6z"/>
			<path class="st1" d="M70.8,28.6c0.1,0.1,0.3,0.3,0.3,0.5c0.1,0.2,0.1,0.4,0.1,0.6c0,0.2,0,0.4-0.1,0.6c-0.1,0.2-0.2,0.4-0.3,0.5
				c-0.1,0.2-0.3,0.3-0.5,0.4c-0.2,0.1-0.4,0.1-0.6,0.1c-0.2,0-0.4,0-0.6-0.1c-0.2-0.1-0.3-0.2-0.5-0.4c-0.1-0.1-0.2-0.3-0.3-0.5
				c-0.1-0.2-0.1-0.4-0.1-0.6c0-0.2,0-0.4,0.1-0.6c0.1-0.2,0.2-0.4,0.3-0.5c0.1-0.2,0.3-0.3,0.5-0.4c0.2-0.1,0.4-0.1,0.6-0.1
				c0.2,0,0.4,0,0.6,0.1C70.6,28.3,70.7,28.4,70.8,28.6z M69.8,30.8c0.1,0,0.1,0,0.2,0c0.1,0,0.2-0.1,0.2-0.2
				c0.1-0.1,0.1-0.2,0.2-0.3c0.1-0.1,0.1-0.3,0.1-0.5c0-0.2,0-0.4-0.1-0.5c-0.1-0.1-0.1-0.2-0.2-0.3c-0.1-0.1-0.1-0.1-0.2-0.2
				c-0.1,0-0.1,0-0.2,0c-0.1,0-0.1,0-0.2,0c-0.1,0-0.2,0.1-0.2,0.2c-0.1,0.1-0.1,0.2-0.2,0.3c0,0.1-0.1,0.3-0.1,0.5
				c0,0.2,0,0.4,0.1,0.5c0.1,0.1,0.1,0.2,0.2,0.3c0.1,0.1,0.1,0.1,0.2,0.2C69.6,30.8,69.7,30.8,69.8,30.8z"/>
			<path class="st1" d="M73,28.7c-0.1,0-0.1,0-0.2,0c-0.1,0-0.2,0.1-0.2,0.2c-0.1,0.1-0.1,0.2-0.2,0.3c0,0.1-0.1,0.3-0.1,0.5
				c0,0.2,0,0.4,0.1,0.5c0.1,0.1,0.1,0.2,0.2,0.3c0.1,0.1,0.1,0.1,0.2,0.2c0.1,0,0.1,0,0.2,0c0.1,0,0.2,0,0.3,0c0.1,0,0.2,0,0.2-0.1
				c0.1,0,0.1-0.1,0.2-0.1c0.1,0,0.1,0,0.2,0c0.1,0,0.1,0,0.2,0c0,0,0.1,0.1,0.2,0.2l0,0l0,0c-0.2,0.2-0.3,0.3-0.5,0.4
				c-0.2,0.1-0.4,0.1-0.7,0.1c-0.2,0-0.4,0-0.6-0.1c-0.2-0.1-0.3-0.2-0.5-0.3c-0.1-0.1-0.2-0.3-0.3-0.5c-0.1-0.2-0.1-0.4-0.1-0.6
				c0-0.2,0-0.4,0.1-0.6c0.1-0.2,0.2-0.4,0.3-0.5c0.1-0.1,0.3-0.3,0.5-0.3c0.2-0.1,0.4-0.1,0.6-0.1c0.2,0,0.5,0,0.7,0.1
				c0.2,0.1,0.4,0.2,0.5,0.4l0,0l0,0c-0.1,0.1-0.1,0.1-0.2,0.2c-0.1,0-0.1,0.1-0.2,0c-0.1,0-0.1,0-0.2,0c-0.1,0-0.1,0-0.2-0.1
				c-0.1,0-0.1-0.1-0.2-0.1C73.2,28.7,73.1,28.7,73,28.7z"/>
			<path class="st1" d="M75.2,27.2c-0.1,0.2-0.2,0.2-0.4,0.2c-0.1,0-0.1,0-0.2,0c-0.1,0-0.1-0.1-0.2-0.2c0-0.1-0.1-0.1-0.1-0.2
				c0-0.1,0-0.2,0.1-0.2c0-0.1,0.1-0.1,0.2-0.2c0.1,0,0.1-0.1,0.2-0.1c0.1,0,0.1,0,0.2,0.1c0.1,0,0.1,0.1,0.2,0.2
				c0,0.1,0.1,0.1,0.1,0.2C75.2,27,75.2,27.1,75.2,27.2z M75.7,30.7c0,0-0.1,0.1-0.1,0.1c-0.1,0-0.1,0-0.2,0s-0.1,0-0.1-0.1
				c0,0-0.1-0.1-0.1-0.2v-1.6c0-0.1,0-0.2,0-0.3c0-0.1,0-0.2,0-0.2c0-0.1,0-0.1,0-0.1c-0.3,0-0.5,0.1-0.6,0.2
				c-0.1,0.1-0.2,0.3-0.2,0.6l0,1.6c0,0.1,0,0.2,0.1,0.3c0,0.1,0.1,0.2,0.2,0.3c0.1,0.1,0.2,0.1,0.3,0.2c0.1,0,0.2,0.1,0.4,0
				c0.1,0,0.3-0.1,0.3-0.1c0.1-0.1,0.1-0.2,0.1-0.2C75.7,30.9,75.7,30.8,75.7,30.7z"/>
			<path class="st1" d="M78.3,28.6c0.1,0.1,0.3,0.3,0.3,0.5c0.1,0.2,0.1,0.4,0.1,0.6c0,0.2,0,0.4-0.1,0.6c-0.1,0.2-0.2,0.4-0.3,0.5
				c-0.1,0.2-0.3,0.3-0.5,0.4c-0.2,0.1-0.4,0.1-0.6,0.1c-0.2,0-0.4,0-0.6-0.1c-0.2-0.1-0.3-0.2-0.5-0.4c-0.1-0.1-0.2-0.3-0.3-0.5
				c-0.1-0.2-0.1-0.4-0.1-0.6c0-0.2,0-0.4,0.1-0.6c0.1-0.2,0.2-0.4,0.3-0.5c0.1-0.2,0.3-0.3,0.5-0.4c0.2-0.1,0.4-0.1,0.6-0.1
				c0.2,0,0.4,0,0.6,0.1C78,28.3,78.2,28.4,78.3,28.6z M77.2,30.8c0.1,0,0.1,0,0.2,0c0.1,0,0.2-0.1,0.2-0.2c0.1-0.1,0.1-0.2,0.2-0.3
				s0.1-0.3,0.1-0.5c0-0.2,0-0.4-0.1-0.5c-0.1-0.1-0.1-0.2-0.2-0.3c-0.1-0.1-0.1-0.1-0.2-0.2c-0.1,0-0.1,0-0.2,0c-0.1,0-0.1,0-0.2,0
				c-0.1,0-0.2,0.1-0.2,0.2c-0.1,0.1-0.1,0.2-0.2,0.3c0,0.1-0.1,0.3-0.1,0.5c0,0.2,0,0.4,0.1,0.5c0.1,0.1,0.1,0.2,0.2,0.3
				c0.1,0.1,0.1,0.1,0.2,0.2C77.1,30.8,77.2,30.8,77.2,30.8z"/>
			<path class="st1" d="M80.5,30.5c0-0.1,0-0.1-0.1-0.2c-0.1-0.1-0.1-0.1-0.2-0.2c-0.1,0-0.2-0.1-0.3-0.2c-0.1-0.1-0.3-0.1-0.4-0.2
				c-0.1-0.1-0.2-0.1-0.3-0.2c-0.1-0.1-0.1-0.2-0.2-0.3c0-0.1,0-0.2,0-0.3c0-0.1,0-0.2,0.1-0.3c0-0.1,0.1-0.2,0.2-0.3
				c0.1-0.1,0.2-0.1,0.2-0.2c0.1,0,0.2-0.1,0.3-0.1c0.1,0,0.2,0,0.3,0h0.1c0.2,0,0.5,0.1,0.7,0.2s0.4,0.2,0.5,0.4l0,0l0,0
				c0,0.1-0.1,0.1-0.2,0.1c-0.1,0-0.1,0-0.2,0c-0.1,0-0.1,0-0.2,0c-0.1,0-0.1-0.1-0.2-0.1c-0.1,0-0.2-0.1-0.2-0.1
				c-0.1,0-0.2,0-0.2,0c-0.1,0-0.2,0-0.2,0.1c-0.1,0-0.1,0.1-0.1,0.2c0,0.1,0,0.2,0.1,0.2c0.1,0.1,0.2,0.1,0.3,0.2
				c0.1,0.1,0.3,0.1,0.5,0.2c0.2,0.1,0.3,0.2,0.4,0.3c0.1,0.1,0.2,0.2,0.3,0.4c0.1,0.1,0.1,0.3,0,0.5c0,0.1-0.1,0.2-0.1,0.3
				C81.2,31,81.1,31,81,31.1c-0.1,0.1-0.2,0.1-0.4,0.2c-0.1,0-0.3,0.1-0.5,0.1c0,0-0.1,0-0.1,0c-0.2,0-0.4-0.1-0.6-0.2
				c-0.2-0.1-0.4-0.2-0.5-0.4l0,0l0,0c0,0,0-0.1,0.1-0.1c0,0,0.1,0,0.1-0.1c0.1,0,0.1,0,0.2,0c0.1,0,0.1,0,0.2,0
				c0.1,0,0.1,0.1,0.2,0.1c0.1,0,0.1,0.1,0.2,0.1c0.1,0,0.2,0,0.3,0c0.2,0,0.3,0,0.4-0.1C80.5,30.6,80.5,30.6,80.5,30.5z"/>
		</g>
	</g>
</g>
<g>
	<path class="st16" d="M258.9,294.6h-90c-4.9,0-8.9-4-8.9-8.9l0,0c0-4.9,4-8.9,8.9-8.9h90c4.9,0,8.9,4,8.9,8.9l0,0
		C267.8,290.6,263.8,294.6,258.9,294.6z"/>
	<text transform="matrix(1 0 0 1 181.4912 289.3976)" class="st1 st17 st18">VER TODAS</text>
</g>
<g>
	<path class="st16" d="M439.8,294.6h-90c-4.9,0-8.9-4-8.9-8.9l0,0c0-4.9,4-8.9,8.9-8.9h90c4.9,0,8.9,4,8.9,8.9l0,0
		C448.7,290.6,444.7,294.6,439.8,294.6z"/>
	<text transform="matrix(1 0 0 1 362.401 289.3976)" class="st1 st17 st18">VER TODAS</text>
</g>
<g>
	<path class="st16" d="M624.5,294.6h-90c-4.9,0-8.9-4-8.9-8.9l0,0c0-4.9,4-8.9,8.9-8.9h90c4.9,0,8.9,4,8.9,8.9l0,0
		C633.4,290.6,629.4,294.6,624.5,294.6z"/>
	<text transform="matrix(1 0 0 1 547.0953 289.3976)" class="st1 st17 st18">VER TODAS</text>
</g>
<g>
	<text transform="matrix(1 0 0 1 415.3662 32.5636)" class="st1 st17 st19">Menú 1</text>
</g>
<text transform="matrix(1 0 0 1 172.0462 129.9024)" class="st20 st17 st21">PRESUPUESTOS</text>
<text transform="matrix(1 0 0 1 276.0462 129.9024)" class="st20 st17 st21">6</text>
<text transform="matrix(1 0 0 1 460.7129 129.9024)" class="st20 st17 st21">6</text>
<text transform="matrix(1 0 0 1 643.3796 129.9024)" class="st20 st17 st21">6</text>
<text transform="matrix(1 0 0 1 375.3275 129.9026)" class="st20 st17 st21">LOGÍSTICA</text>
<text transform="matrix(1 0 0 1 552.2897 129.9028)" class="st20 st17 st21">VENCIMIENTOS</text>
<g>
	<text transform="matrix(1 0 0 1 504.6071 32.5636)" class="st1 st17 st19">Menú 2</text>
</g>
<g>
	<text transform="matrix(1 0 0 1 583.3813 32.5636)" class="st1 st17 st19">Cerrar Sesión</text>
</g>
<path class="st16" d="M163,125.9c-0.8-0.7-2.1-1.3-3.9-1.7v-2.9c0.5,0,0.8,0.2,1.1,0.5c0.3,0.3,0.4,0.7,0.4,1.3h3.4
	c-0.1-1.3-0.5-2.3-1.3-3.1c-0.8-0.7-2-1.1-3.5-1.2v-1.2h-1.5v1.2c-1.6,0-2.8,0.4-3.7,1.2c-0.9,0.8-1.4,1.7-1.4,3
	c0,1.1,0.4,2,1.2,2.7c0.8,0.7,2,1.2,3.8,1.6l0,3.2c-0.5,0-0.9-0.2-1.2-0.5c-0.2-0.3-0.4-0.8-0.4-1.6h-3.5c0,1.4,0.5,2.6,1.4,3.4
	c0.9,0.8,2.2,1.3,3.8,1.3v1.6h1.5V133c1.8-0.1,3.1-0.5,3.9-1.2c0.9-0.7,1.3-1.8,1.3-3.1C164.1,127.5,163.8,126.5,163,125.9z
	 M157.6,123.8c-0.6-0.2-1.1-0.3-1.4-0.5c-0.3-0.2-0.4-0.5-0.4-0.8c0-0.4,0.1-0.7,0.4-1c0.3-0.2,0.7-0.3,1.3-0.3h0.1V123.8z
	 M160.2,130c-0.3,0.2-0.8,0.3-1.4,0.3v-2.8c0.7,0.2,1.2,0.4,1.5,0.6c0.3,0.2,0.4,0.5,0.4,0.9C160.7,129.5,160.5,129.8,160.2,130z"/>
<g>
	<path class="st16" d="M349,130.1c-1.6,0-2.8,1.3-2.8,2.8c0,1.6,1.3,2.8,2.8,2.8c1.6,0,2.8-1.3,2.8-2.8
		C351.8,131.4,350.6,130.1,349,130.1z M349,134.1c-0.6,0-1.1-0.5-1.1-1.1c0-0.6,0.5-1.1,1.1-1.1c0.6,0,1.1,0.5,1.1,1.1
		C350.1,133.6,349.6,134.1,349,134.1z"/>
	<path class="st16" d="M359.1,130.1c-1.6,0-2.8,1.3-2.8,2.8c0,1.6,1.3,2.8,2.8,2.8c1.6,0,2.8-1.3,2.8-2.8
		C362,131.4,360.7,130.1,359.1,130.1z M359.1,134.1c-0.6,0-1.1-0.5-1.1-1.1c0-0.6,0.5-1.1,1.1-1.1c0.6,0,1.1,0.5,1.1,1.1
		C360.3,133.6,359.8,134.1,359.1,134.1z"/>
	<path class="st16" d="M353.7,119.6h-11.6v11.1h-0.5c-0.3,0-0.6,0.3-0.6,0.6v1.2c0,0.3,0.3,0.6,0.6,0.6h0.5h2h1.6
		c0-1.8,1.4-3.2,3.2-3.2c1.8,0,3.2,1.4,3.2,3.2h3.6c0-1.8,1.4-3.2,3.2-3.2c1.8,0,3.2,1.4,3.2,3.2h1.2h2.1h0.4c0.3,0,0.6-0.3,0.6-0.6
		v-1.2c0-0.3-0.3-0.6-0.6-0.6h-0.4v-1.2c0.2-0.2,0.3-0.5,0.3-0.8c0-0.4-0.1-0.7-0.4-0.8c0,0,0,0,0,0c0-0.1,0-0.3-0.1-0.4
		c-0.1-0.2-0.1-0.5-0.2-0.7l-2.9-6.2c-0.1-0.2-0.3-0.4-0.5-0.6c-0.2-0.2-0.5-0.2-0.8-0.2h-6.3v9h-0.9L353.7,119.6z M357.6,127.1
		c-0.1,0-0.3-0.1-0.4-0.2c-0.1-0.1-0.2-0.3-0.2-0.4v-4.6c0-0.1,0-0.3,0.1-0.4c0.1-0.1,0.2-0.1,0.4-0.1h2.9c0.2,0,0.4,0.1,0.6,0.2
		c0.2,0.1,0.3,0.3,0.4,0.5l1.7,4c0.1,0.2,0.1,0.5-0.1,0.7c-0.1,0.2-0.4,0.3-0.6,0.3H357.6z"/>
</g>
<g>
	<path class="st16" d="M546.4,118.6V131c0,1.1-0.9,2.1-2,2.1h-17.2c-1.1,0-2-1-2-2.1v-12.5c0-1.1,0.9-1.9,2-1.9h1.9v1.1
		c0,0.8,0.6,1.4,1.4,1.4s1.4-0.6,1.4-1.4v-1.1h7.9v1.1c0,0.8,0.6,1.4,1.4,1.4c0.8,0,1.4-0.6,1.4-1.4v-1.1h1.9
		C545.5,116.7,546.4,117.5,546.4,118.6z"/>
	<rect x="526.9" y="122.4" class="st1" width="17.8" height="8.9"/>
	<g>
		<rect x="528.1" y="123.7" class="st16" width="2.6" height="2.6"/>
		<rect x="532.4" y="123.7" class="st16" width="2.6" height="2.6"/>
		<rect x="536.6" y="123.7" class="st16" width="2.6" height="2.6"/>
		<rect x="540.8" y="123.7" class="st16" width="2.6" height="2.6"/>
	</g>
	<g>
		<rect x="528.1" y="127.4" class="st16" width="2.6" height="2.6"/>
		<rect x="532.4" y="127.4" class="st16" width="2.6" height="2.6"/>
		<rect x="536.6" y="127.4" class="st16" width="2.6" height="2.6"/>
		<rect x="540.8" y="127.4" class="st16" width="2.6" height="2.6"/>
	</g>
	<path class="st16" d="M530.5,118.6L530.5,118.6c-0.4,0-0.8-0.4-0.8-0.8v-1.5c0-0.4,0.4-0.8,0.8-0.8l0,0c0.4,0,0.8,0.4,0.8,0.8v1.5
		C531.2,118.2,530.9,118.6,530.5,118.6z"/>
	<path class="st16" d="M541.1,118.6L541.1,118.6c-0.4,0-0.8-0.4-0.8-0.8v-1.5c0-0.4,0.4-0.8,0.8-0.8l0,0c0.4,0,0.8,0.4,0.8,0.8v1.5
		C541.9,118.2,541.5,118.6,541.1,118.6z"/>
</g>
<text transform="matrix(1 0 0 1 12.503 74.9648)"><tspan x="0" y="0" class="st12 st17 st22">• Presupuestos</tspan><tspan x="0" y="16.9" class="st12 st17 st22">• Negocios confirmados</tspan><tspan x="0" y="33.8" class="st12 st17 st22">• Logística</tspan><tspan x="0" y="50.7" class="st12 st17 st22">• Comprobantes</tspan><tspan x="0" y="67.6" class="st12 st23 st22">• NOTIFICACIONES</tspan></text>
<text transform="matrix(1 0 0 1 152.5071 162.9648)"><tspan x="0" y="0" class="st12 st17 st22">Nuevo Pedido Marcos Juarez</tspan><tspan x="0" y="16.9" class="st11 st23 st22">Nuevo Pedido Marcos Juarez</tspan><tspan x="0" y="33.8" class="st12 st17 st22">Nuevo Pedido Marcos Juarez</tspan><tspan x="0" y="50.7" class="st12 st17 st22">Nuevo Pedido Marcos Juarez</tspan><tspan x="0" y="67.6" class="st12 st17 st22">Nuevo Pedido Marcos Juarez</tspan><tspan x="0" y="84.5" class="st12 st17 st22">Nuevo Pedido Marcos Juarez</tspan><tspan x="0" y="101.4" class="st12 st17 st22">Nuevo Pedido Marcos Juarez</tspan></text>
<text transform="matrix(1 0 0 1 340.8405 162.9648)"><tspan x="0" y="0" class="st12 st17 st22">Nuevo Pedido Marcos Juarez</tspan><tspan x="0" y="16.9" class="st12 st17 st22">Nuevo Pedido Marcos Juarez</tspan><tspan x="0" y="33.8" class="st12 st17 st22">Nuevo Pedido Marcos Juarez</tspan><tspan x="0" y="50.7" class="st12 st17 st22">Nuevo Pedido Marcos Juarez</tspan><tspan x="0" y="67.6" class="st12 st17 st22">Nuevo Pedido Marcos Juarez</tspan><tspan x="0" y="84.5" class="st12 st17 st22">Nuevo Pedido Marcos Juarez</tspan><tspan x="0" y="101.4" class="st11 st23 st22">Nuevo Pedido Marcos Juarez</tspan></text>
<text transform="matrix(1 0 0 1 525.5344 162.9648)"><tspan x="0" y="0" class="st12 st17 st22">Nuevo Pedido Marcos Juarez</tspan><tspan x="0" y="16.9" class="st12 st17 st22">Nuevo Pedido Marcos Juarez</tspan><tspan x="0" y="33.8" class="st12 st17 st22">Nuevo Pedido Marcos Juarez</tspan><tspan x="0" y="50.7" class="st11 st23 st22">Nuevo Pedido Marcos Juarez</tspan><tspan x="0" y="67.6" class="st12 st17 st22">Nuevo Pedido Marcos Juarez</tspan><tspan x="0" y="84.5" class="st12 st17 st22">Nuevo Pedido Marcos Juarez</tspan><tspan x="0" y="101.4" class="st12 st17 st22">Nuevo Pedido Marcos Juarez</tspan></text>
<g>
	<text transform="matrix(1 0 0 1 379.6093 71.0009)" class="st1 st17 st19">Notificaciones</text>
</g>
<line class="st15" x1="322.9" y1="107.7" x2="322.9" y2="415.9"/>
<line class="st15" x1="709.8" y1="141" x2="130.9" y2="141"/>
<line class="st15" x1="709.8" y1="107.5" x2="130.9" y2="107.5"/>
<line class="st15" x1="130.9" y1="48.4" x2="130.9" y2="411.5"/>
<line class="st15" x1="509.5" y1="107.7" x2="509.5" y2="415.9"/>
<rect x="4.2" y="132" class="st12" width="3.4" height="15.6"/>
<g>
	<g>
		<g>
			
				<ellipse transform="matrix(0.1874 -0.9823 0.9823 0.1874 133.088 684.4175)" class="st11" cx="480.2" cy="261.8" rx="6.5" ry="6.5"/>
		</g>
	</g>
	<path class="st1" d="M483.3,264l-2.1-2.1c0.5-0.8,0.4-1.9-0.3-2.6c-0.8-0.8-2.2-0.8-3,0c-0.8,0.8-0.8,2.2,0,3
		c0.7,0.7,1.8,0.8,2.6,0.3l2.1,2.1L483.3,264z M478.4,261.9c-0.6-0.6-0.6-1.5,0-2c0.6-0.6,1.5-0.6,2,0c0.6,0.6,0.6,1.5,0,2
		C479.8,262.5,478.9,262.5,478.4,261.9z"/>
</g>
<g>
	<g>
		<g>
			
				<ellipse transform="matrix(0.1874 -0.9823 0.9823 0.1874 331.413 825.0513)" class="st11" cx="664.4" cy="212.2" rx="6.5" ry="6.5"/>
		</g>
	</g>
	<path class="st1" d="M667.4,214.5l-2.1-2.1c0.5-0.8,0.4-1.9-0.3-2.6c-0.8-0.8-2.2-0.8-3,0c-0.8,0.8-0.8,2.2,0,3
		c0.7,0.7,1.8,0.8,2.6,0.3l2.1,2.1L667.4,214.5z M662.5,212.4c-0.6-0.6-0.6-1.5,0-2c0.6-0.6,1.5-0.6,2,0c0.6,0.6,0.6,1.5,0,2
		C664,212.9,663.1,212.9,662.5,212.4z"/>
</g>
<g>
	<g>
		<g>
			
				<ellipse transform="matrix(0.1874 -0.9823 0.9823 0.1874 62.0562 429.077)" class="st11" cx="290.4" cy="177" rx="6.5" ry="6.5"/>
		</g>
	</g>
	<path class="st1" d="M293.4,179.3l-2.1-2.1c0.5-0.8,0.4-1.9-0.3-2.6c-0.8-0.8-2.2-0.8-3,0c-0.8,0.8-0.8,2.2,0,3
		c0.7,0.7,1.8,0.8,2.6,0.3l2.1,2.1L293.4,179.3z M288.5,177.2c-0.6-0.6-0.6-1.5,0-2c0.6-0.6,1.5-0.6,2,0c0.6,0.6,0.6,1.5,0,2
		C290,177.7,289.1,177.7,288.5,177.2z"/>
</g>
</svg>
