<?xml version="1.0" encoding="utf-8"?>
<!-- Generator: Adobe Illustrator 22.1.0, SVG Export Plug-In . SVG Version: 6.00 Build 0)  -->
<svg version="1.1" id="Layer_1" xmlns="http://www.w3.org/2000/svg" xmlns:xlink="http://www.w3.org/1999/xlink" x="0px" y="0px"
	 viewBox="0 0 139.8 249" style="enable-background:new 0 0 139.8 249;" xml:space="preserve">
<style type="text/css">
	.st0{fill:#757474;}
	.st1{fill:#FFFFFF;}
	.st2{fill:#005321;}
	.st3{fill:#52AE32;}
	.st4{fill:#DCDCDC;}
	.st5{fill:#F9B041;}
	.st6{fill:#21386C;}
	.st7{fill:#144F9F;}
	.st8{fill:#F49523;}
	.st9{fill:none;stroke:#52AE32;stroke-miterlimit:10;}
	.st10{fill:none;stroke:#52AE32;stroke-miterlimit:10;stroke-dasharray:4.9052,4.9052;}
	.st11{fill:#E30613;}
	.st12{fill:#B2B2B2;}
	.st13{fill:#FFCC00;}
	.st14{fill:#9B9B9A;}
	.st15{fill:#706F6F;stroke:#706F6F;stroke-width:0.25;stroke-miterlimit:10;}
	.st16{fill:#4E4D4D;}
	.st17{fill:#706F6F;}
	.st18{fill:#FFED00;}
	.st19{fill:#E41513;}
	.st20{fill:#5AB031;}
</style>
<rect class="st2" width="139.8" height="36.2"/>
<g>
	<path class="st1" d="M26.2,19.8c-0.8,0-1.5-0.1-2.1-0.3c-0.6-0.2-1.1-0.6-1.6-1c-0.4-0.5-0.8-1.1-1-1.8c-0.2-0.7-0.4-1.6-0.4-2.7
		v-3.7c0-0.8,0.1-1.4,0.4-1.9c0.2-0.4,0.6-0.8,1.1-0.9c0.3-0.1,0.6-0.2,1-0.2c0.2,0,0.5-0.1,0.8-0.1c0.3,0,0.6,0,0.8,0
		c0.6,0,1.2,0.1,1.6,0.3c0.5,0.2,0.8,0.4,1.1,0.7c0.3,0.3,0.5,0.6,0.7,1c0.1,0.4,0.2,0.8,0.2,1.2c0,0.4-0.1,0.7-0.2,1.1
		c-0.1,0.3-0.3,0.6-0.6,0.9c0.4,0.1,0.7,0.3,1,0.5c0.3,0.2,0.6,0.5,0.8,0.8c0.2,0.3,0.4,0.7,0.5,1c0.1,0.4,0.2,0.8,0.2,1.3
		c0,0.5-0.1,1.1-0.3,1.5c-0.2,0.5-0.5,0.9-0.9,1.3C29,19,28.5,19.3,28,19.5C27.4,19.7,26.8,19.8,26.2,19.8z M26.2,18.1
		c0.4,0,0.7-0.1,1-0.2c0.3-0.1,0.5-0.3,0.7-0.5c0.2-0.2,0.3-0.5,0.4-0.7c0.1-0.3,0.1-0.6,0.1-0.9c0-0.5-0.1-1-0.3-1.3
		c-0.2-0.3-0.4-0.6-0.7-0.8c-0.3-0.2-0.6-0.3-0.9-0.4c-0.3-0.1-0.7-0.1-1-0.1c-0.3,0-0.6,0-0.8,0c-0.3,0-0.5,0-0.7,0
		c-0.2,0-0.4,0-0.6,0v0.8c0,0.8,0,1.5,0.1,2c0.1,0.5,0.3,0.9,0.6,1.3c0.2,0.3,0.6,0.5,0.9,0.7C25.3,18,25.7,18.1,26.2,18.1z
		 M23.3,11.7h1.5c0.6,0,1.1-0.1,1.5-0.4c0.4-0.2,0.5-0.6,0.5-1.2c0-0.3,0-0.5-0.2-0.7c-0.1-0.2-0.2-0.4-0.4-0.5
		c-0.2-0.1-0.3-0.2-0.5-0.3c-0.2-0.1-0.4-0.1-0.6-0.1c-0.1,0-0.3,0-0.5,0c-0.2,0-0.4,0-0.6,0.1c-0.2,0.1-0.4,0.1-0.5,0.3
		c-0.1,0.1-0.2,0.3-0.2,0.5V11.7z"/>
	<path class="st1" d="M38.7,15.9c0,0.8-0.1,1.4-0.4,1.9c-0.2,0.5-0.5,0.9-0.9,1.2c-0.4,0.3-0.8,0.5-1.3,0.6
		c-0.5,0.1-0.9,0.2-1.4,0.2c-0.5,0-0.9-0.1-1.4-0.2c-0.5-0.1-0.9-0.3-1.3-0.6c-0.4-0.3-0.7-0.7-0.9-1.2c-0.2-0.5-0.3-1.2-0.3-1.9
		l0-2.5c0-0.7,0.2-1.2,0.6-1.5c0.4-0.3,0.9-0.5,1.7-0.5c0,0.1,0,0.2,0,0.3c0,0.1,0,0.3,0,0.5c0,0.2,0,0.5,0,0.9l0,2.8
		c0,0.5,0,0.9,0.1,1.2c0.1,0.3,0.2,0.5,0.4,0.7c0.2,0.2,0.3,0.3,0.5,0.3c0.2,0.1,0.4,0.1,0.6,0.1s0.4,0,0.6-0.1
		c0.2-0.1,0.4-0.2,0.5-0.3c0.2-0.2,0.3-0.4,0.4-0.7c0.1-0.3,0.1-0.7,0.1-1.2l0-2.5c0-0.7,0.2-1.2,0.6-1.5c0.4-0.3,1-0.5,1.7-0.5
		c0,0.1,0,0.2,0,0.3c0,0.1,0,0.3,0,0.5c0,0.2,0,0.5,0,0.9L38.7,15.9z"/>
	<path class="st1" d="M46,17.9c0.1,0.1,0.3,0.2,0.4,0.4l0.1,0.1l-0.1,0.1c-0.4,0.4-0.9,0.8-1.4,1c-0.5,0.2-1.1,0.4-1.8,0.4
		c-0.5,0-1.1-0.1-1.5-0.3c-0.5-0.2-0.9-0.5-1.3-0.9c-0.4-0.4-0.6-0.8-0.8-1.3c-0.2-0.5-0.3-1.1-0.3-1.7s0.1-1.2,0.3-1.7
		c0.2-0.5,0.4-1,0.8-1.4c0.3-0.4,0.8-0.7,1.3-0.9c0.5-0.2,1-0.3,1.7-0.3c0.3,0,0.7,0,1.1,0.2c0.4,0.1,0.8,0.3,1.1,0.5
		c0.3,0.2,0.6,0.5,0.9,0.9c0.2,0.4,0.3,0.8,0.3,1.3c0,0.5-0.1,0.9-0.4,1.2c-0.2,0.3-0.5,0.5-0.9,0.7c-0.3,0.2-0.7,0.3-1.1,0.4
		c-0.4,0.1-0.7,0.1-1,0.1c-0.4,0-0.8,0-1.2-0.1c-0.3-0.1-0.6-0.1-0.7-0.1c0,0.4,0.1,0.8,0.3,1c0.1,0.3,0.3,0.5,0.5,0.6
		c0.2,0.2,0.4,0.3,0.5,0.3c0.2,0.1,0.3,0.1,0.5,0.1c0.2,0,0.5,0,0.7-0.1c0.2,0,0.4-0.1,0.6-0.2c0.2-0.1,0.3-0.1,0.5-0.2
		c0.2-0.1,0.3-0.1,0.5-0.1C45.7,17.8,45.8,17.8,46,17.9z M43.2,12.8c-0.1,0-0.3,0-0.5,0.1c-0.2,0.1-0.4,0.2-0.5,0.3
		c-0.2,0.1-0.3,0.3-0.5,0.6c-0.1,0.3-0.2,0.6-0.3,1c0.2,0.1,0.5,0.1,0.8,0.2c0.4,0.1,0.7,0.1,1.1,0c0.4,0,0.7-0.1,0.9-0.3
		c0.3-0.2,0.4-0.4,0.4-0.8c0-0.3-0.1-0.6-0.3-0.8C44.1,12.8,43.7,12.7,43.2,12.8z"/>
	<path class="st1" d="M47.1,15.1c0-0.8,0.1-1.5,0.3-2c0.2-0.5,0.5-0.9,0.9-1.2c0.4-0.3,0.8-0.5,1.2-0.6c0.5-0.1,0.9-0.2,1.4-0.2
		c0.5,0,0.9,0,1.4,0.2c0.5,0.1,0.9,0.3,1.3,0.6c0.4,0.3,0.7,0.7,0.9,1.2c0.2,0.5,0.3,1.2,0.3,2l0.1,4.5c-0.7,0-1.3-0.2-1.7-0.5
		c-0.4-0.3-0.6-0.8-0.6-1.5l0-2.5c0-0.5,0-0.9-0.2-1.2c-0.1-0.3-0.2-0.5-0.4-0.7c-0.2-0.2-0.4-0.3-0.6-0.3c-0.2-0.1-0.4-0.1-0.6-0.1
		c-0.2,0-0.4,0-0.6,0.1c-0.2,0.1-0.4,0.2-0.5,0.3c-0.2,0.2-0.3,0.4-0.4,0.7c-0.1,0.3-0.2,0.7-0.2,1.2v2.8c0,0.4,0,0.6,0,0.9
		c0,0.2,0,0.4,0,0.5c0,0.1,0,0.2,0,0.3c-0.7,0-1.3-0.2-1.7-0.5c-0.4-0.3-0.6-0.8-0.6-1.5L47.1,15.1z"/>
	<path class="st1" d="M56.4,15.1c0.3-0.2,0.7-0.4,1.1-0.5c0.4-0.1,0.8-0.2,1.3-0.2c0.6,0,1.2,0.1,1.8,0.3c0-0.4-0.1-0.7-0.2-1
		c-0.2-0.4-0.4-0.6-0.7-0.8c-0.1-0.1-0.2-0.1-0.4-0.1c-0.1,0-0.3,0-0.5,0h-0.2c-0.2,0-0.3,0-0.5,0.1c-0.2,0-0.3,0.1-0.5,0.2
		c-0.2,0.1-0.3,0.1-0.5,0.2c-0.2,0-0.3,0.1-0.5,0.1c-0.2,0-0.3,0-0.5-0.1c-0.1-0.1-0.3-0.2-0.4-0.4l0-0.1l0-0.1
		c0.4-0.4,0.8-0.7,1.3-0.9c0.5-0.2,1-0.4,1.6-0.4c0.1,0,0.1,0,0.2,0c0,0,0.1,0,0.2,0c0.5,0,1,0.1,1.5,0.3c0.5,0.2,0.8,0.5,1.2,0.8
		c0.7,0.7,1,1.7,1.1,2.9v0.1c0,1.2-0.3,2.2-0.9,3c-0.3,0.4-0.7,0.7-1.1,0.9c-0.4,0.2-0.9,0.4-1.5,0.4c-0.1,0-0.1,0-0.2,0
		c-0.1,0-0.1,0-0.2,0c-0.3,0-0.5,0-0.8-0.1c-0.3,0-0.5-0.1-0.8-0.2c-0.3-0.1-0.5-0.2-0.8-0.4c-0.2-0.2-0.4-0.4-0.6-0.7
		c-0.2-0.3-0.3-0.8-0.4-1.3V17c0-0.5,0.1-0.9,0.3-1.2C55.8,15.6,56.1,15.3,56.4,15.1z M60.1,15.9c-0.2,0-0.3,0-0.5-0.1
		c-0.2,0-0.4,0-0.6,0c-0.2,0-0.3,0-0.5,0c-0.2,0-0.3,0.1-0.4,0.1c-0.3,0.1-0.5,0.2-0.7,0.4c-0.1,0.1-0.1,0.2-0.1,0.2
		c0,0.1-0.1,0.2-0.1,0.3c0,0,0,0.1,0,0.2c0,0.1,0,0.2,0.1,0.4c0,0.1,0.1,0.3,0.2,0.4c0.1,0.1,0.2,0.2,0.4,0.3
		c0.2,0.1,0.4,0.1,0.7,0.1c0.1,0,0.2,0,0.2,0c0.3,0,0.6-0.1,0.9-0.3c0.1-0.1,0.2-0.2,0.3-0.3c0.1-0.1,0.2-0.2,0.2-0.3
		c0.1-0.2,0.2-0.5,0.3-0.7c0-0.2,0.1-0.5,0.1-0.7c0,0,0,0,0,0c0,0,0,0,0,0c0,0-0.1,0-0.2,0C60.3,16,60.2,15.9,60.1,15.9z"/>
	<path class="st1" d="M73,7.2c-0.7,1.9-1.4,3.6-2,5.2c-0.3,0.7-0.5,1.4-0.8,2c-0.3,0.7-0.5,1.3-0.8,1.9c-0.2,0.6-0.4,1.1-0.6,1.5
		c-0.2,0.4-0.3,0.7-0.4,0.9c-0.2,0.4-0.4,0.6-0.7,0.8c-0.3,0.1-0.5,0.2-0.8,0.2c-0.3,0-0.6,0-0.9-0.1l-5-12.4c0.3,0,0.6-0.1,0.9-0.1
		c0.3,0,0.6,0.1,0.8,0.1c0.2,0.1,0.5,0.2,0.7,0.4c0.2,0.2,0.4,0.4,0.5,0.7c0,0,0.1,0.2,0.2,0.5c0.1,0.3,0.2,0.6,0.4,1
		c0.2,0.4,0.3,0.8,0.5,1.3c0.2,0.5,0.4,1,0.6,1.4c0.4,1.2,0.9,2.4,1.5,3.9c0.5-1.4,1-2.7,1.5-3.9c0.2-0.5,0.4-1,0.6-1.4
		c0.2-0.5,0.3-0.9,0.5-1.3c0.1-0.4,0.3-0.7,0.4-1c0.1-0.3,0.2-0.4,0.2-0.5c0.1-0.3,0.3-0.6,0.5-0.7c0.2-0.2,0.4-0.3,0.7-0.4
		c0.3-0.1,0.5-0.1,0.8-0.1C72.4,7.1,72.7,7.2,73,7.2z"/>
	<path class="st1" d="M77.7,17.9c0.1,0.1,0.3,0.2,0.4,0.4l0.1,0.1l-0.1,0.1c-0.4,0.4-0.9,0.8-1.4,1c-0.5,0.2-1.1,0.4-1.8,0.4
		c-0.5,0-1.1-0.1-1.5-0.3c-0.5-0.2-0.9-0.5-1.3-0.9c-0.4-0.4-0.6-0.8-0.8-1.3c-0.2-0.5-0.3-1.1-0.3-1.7s0.1-1.2,0.3-1.7
		c0.2-0.5,0.4-1,0.8-1.4c0.3-0.4,0.8-0.7,1.3-0.9c0.5-0.2,1-0.3,1.7-0.3c0.3,0,0.7,0,1.1,0.2c0.4,0.1,0.8,0.3,1.1,0.5
		c0.3,0.2,0.6,0.5,0.9,0.9c0.2,0.4,0.3,0.8,0.3,1.3c0,0.5-0.1,0.9-0.4,1.2c-0.2,0.3-0.5,0.5-0.9,0.7c-0.3,0.2-0.7,0.3-1.1,0.4
		c-0.4,0.1-0.7,0.1-1,0.1c-0.4,0-0.8,0-1.2-0.1c-0.3-0.1-0.6-0.1-0.7-0.1c0,0.4,0.1,0.8,0.3,1c0.1,0.3,0.3,0.5,0.5,0.6
		c0.2,0.2,0.4,0.3,0.5,0.3c0.2,0.1,0.3,0.1,0.5,0.1c0.2,0,0.5,0,0.7-0.1c0.2,0,0.4-0.1,0.6-0.2c0.2-0.1,0.3-0.1,0.5-0.2
		c0.2-0.1,0.3-0.1,0.5-0.1C77.4,17.8,77.5,17.8,77.7,17.9z M74.9,12.8c-0.1,0-0.3,0-0.5,0.1c-0.2,0.1-0.4,0.2-0.5,0.3
		c-0.2,0.1-0.3,0.3-0.5,0.6c-0.1,0.3-0.2,0.6-0.3,1c0.2,0.1,0.5,0.1,0.8,0.2c0.4,0.1,0.7,0.1,1.1,0c0.4,0,0.7-0.1,0.9-0.3
		c0.3-0.2,0.4-0.4,0.4-0.8c0-0.3-0.1-0.6-0.3-0.8C75.8,12.8,75.4,12.7,74.9,12.8z"/>
	<path class="st1" d="M78.8,15.1c0-0.8,0.1-1.5,0.3-2c0.2-0.5,0.5-0.9,0.9-1.2c0.4-0.3,0.8-0.5,1.2-0.6c0.5-0.1,0.9-0.2,1.4-0.2
		c0.5,0,0.9,0,1.4,0.2c0.5,0.1,0.9,0.3,1.3,0.6c0.4,0.3,0.7,0.7,0.9,1.2c0.2,0.5,0.3,1.2,0.3,2l0.1,4.5c-0.7,0-1.3-0.2-1.7-0.5
		c-0.4-0.3-0.6-0.8-0.6-1.5l0-2.5c0-0.5,0-0.9-0.2-1.2c-0.1-0.3-0.2-0.5-0.4-0.7c-0.2-0.2-0.4-0.3-0.6-0.3c-0.2-0.1-0.4-0.1-0.6-0.1
		c-0.2,0-0.4,0-0.6,0.1c-0.2,0.1-0.4,0.2-0.5,0.3c-0.2,0.2-0.3,0.4-0.4,0.7C81,14.2,81,14.6,81,15.1v2.8c0,0.4,0,0.6,0,0.9
		c0,0.2,0,0.4,0,0.5c0,0.1,0,0.2,0,0.3c-0.7,0-1.3-0.2-1.7-0.5c-0.4-0.3-0.6-0.8-0.6-1.5L78.8,15.1z"/>
	<path class="st1" d="M92.1,18.1c0,0,0,0.1,0,0.1c0,0.1,0,0.2,0,0.3c0,0.2,0,0.4-0.1,0.6c-0.1,0.2-0.2,0.3-0.4,0.4
		c-0.3,0.2-0.7,0.4-1.2,0.4c-0.4,0-0.8-0.1-1.2-0.3c-0.4-0.2-0.7-0.4-1-0.8c-0.3-0.4-0.6-0.8-0.7-1.3c-0.2-0.5-0.3-1.2-0.3-1.9
		l0-5.2c0-0.7,0.2-1.2,0.6-1.5c0.4-0.3,0.9-0.5,1.7-0.5c0,0.1,0,0.2,0,0.3c0,0.1,0,0.3,0,0.5c0,0.2,0,0.5,0,0.9l0,1.1h2.4
		c0,0.5-0.1,1-0.4,1.3C91,12.9,90.6,13,90,13h-0.7l0,2.5c0,0.5,0,0.9,0.1,1.3c0.1,0.3,0.2,0.6,0.4,0.8c0.3,0.4,0.7,0.6,1.3,0.6
		c0.2,0,0.4,0,0.6-0.1C91.9,18.1,92,18.1,92.1,18.1z"/>
	<path class="st1" d="M99.9,15.9c0,0.8-0.1,1.4-0.4,1.9c-0.2,0.5-0.5,0.9-0.9,1.2c-0.4,0.3-0.8,0.5-1.3,0.6
		c-0.5,0.1-0.9,0.2-1.4,0.2c-0.5,0-0.9-0.1-1.4-0.2c-0.5-0.1-0.9-0.3-1.3-0.6c-0.4-0.3-0.7-0.7-0.9-1.2c-0.2-0.5-0.3-1.2-0.3-1.9
		l0-2.5c0-0.7,0.2-1.2,0.6-1.5s0.9-0.5,1.7-0.5c0,0.1,0,0.2,0,0.3c0,0.1,0,0.3,0,0.5c0,0.2,0,0.5,0,0.9l0,2.8c0,0.5,0,0.9,0.1,1.2
		c0.1,0.3,0.2,0.5,0.4,0.7c0.2,0.2,0.3,0.3,0.5,0.3c0.2,0.1,0.4,0.1,0.6,0.1s0.4,0,0.6-0.1s0.4-0.2,0.5-0.3c0.2-0.2,0.3-0.4,0.4-0.7
		c0.1-0.3,0.1-0.7,0.1-1.2l0-2.5c0-0.7,0.2-1.2,0.6-1.5c0.4-0.3,1-0.5,1.7-0.5c0,0.1,0,0.2,0,0.3c0,0.1,0,0.3,0,0.5
		c0,0.2,0,0.5,0,0.9L99.9,15.9z"/>
	<path class="st1" d="M100.5,15.3c0-0.8,0.1-1.5,0.3-2c0.2-0.5,0.5-0.9,0.9-1.2c0.4-0.3,0.8-0.5,1.2-0.6c0.5-0.1,0.9-0.2,1.4-0.2
		h0.9c0.1,0.2,0.1,0.5,0,0.7c0,0.2-0.1,0.4-0.2,0.5c-0.1,0.2-0.4,0.3-0.7,0.3c-0.2,0-0.4,0.1-0.6,0.1c-0.2,0.1-0.4,0.2-0.5,0.3
		c-0.2,0.2-0.3,0.4-0.4,0.7c-0.1,0.3-0.2,0.7-0.2,1.2v2.6c0,0.4,0,0.6,0,0.9c0,0.2,0,0.4,0,0.5c0,0.1,0,0.2,0,0.3
		c-0.7,0-1.3-0.2-1.7-0.5s-0.6-0.8-0.6-1.5V15.3z"/>
	<path class="st1" d="M106.3,15.1c0.3-0.2,0.7-0.4,1.1-0.5c0.4-0.1,0.8-0.2,1.3-0.2c0.6,0,1.2,0.1,1.8,0.3c0-0.4-0.1-0.7-0.2-1
		c-0.2-0.4-0.4-0.6-0.7-0.8c-0.1-0.1-0.2-0.1-0.4-0.1c-0.1,0-0.3,0-0.5,0h-0.2c-0.2,0-0.3,0-0.5,0.1c-0.2,0-0.3,0.1-0.5,0.2
		c-0.2,0.1-0.3,0.1-0.5,0.2c-0.2,0-0.3,0.1-0.5,0.1c-0.2,0-0.3,0-0.5-0.1c-0.1-0.1-0.3-0.2-0.4-0.4l0-0.1l0-0.1
		c0.4-0.4,0.8-0.7,1.3-0.9c0.5-0.2,1-0.4,1.6-0.4c0.1,0,0.1,0,0.2,0c0,0,0.1,0,0.2,0c0.5,0,1,0.1,1.5,0.3c0.5,0.2,0.8,0.5,1.2,0.8
		c0.7,0.7,1,1.7,1.1,2.9v0.1c0,1.2-0.3,2.2-0.9,3c-0.3,0.4-0.7,0.7-1.1,0.9c-0.4,0.2-0.9,0.4-1.5,0.4c-0.1,0-0.1,0-0.2,0
		c-0.1,0-0.1,0-0.2,0c-0.3,0-0.5,0-0.8-0.1c-0.3,0-0.5-0.1-0.8-0.2c-0.3-0.1-0.5-0.2-0.8-0.4c-0.2-0.2-0.4-0.4-0.6-0.7
		c-0.2-0.3-0.3-0.8-0.4-1.3V17c0-0.5,0.1-0.9,0.3-1.2C105.7,15.6,106,15.3,106.3,15.1z M110,15.9c-0.2,0-0.3,0-0.5-0.1
		c-0.2,0-0.4,0-0.6,0c-0.2,0-0.3,0-0.5,0c-0.2,0-0.3,0.1-0.4,0.1c-0.3,0.1-0.5,0.2-0.7,0.4c-0.1,0.1-0.1,0.2-0.1,0.2
		c0,0.1-0.1,0.2-0.1,0.3c0,0,0,0.1,0,0.2c0,0.1,0,0.2,0.1,0.4c0,0.1,0.1,0.3,0.2,0.4c0.1,0.1,0.2,0.2,0.4,0.3
		c0.2,0.1,0.4,0.1,0.7,0.1c0.1,0,0.2,0,0.2,0c0.3,0,0.6-0.1,0.9-0.3c0.1-0.1,0.2-0.2,0.3-0.3c0.1-0.1,0.2-0.2,0.2-0.3
		c0.1-0.2,0.2-0.5,0.3-0.7c0-0.2,0.1-0.5,0.1-0.7c0,0,0,0,0,0c0,0,0,0,0,0c0,0-0.1,0-0.2,0C110.2,16,110.1,15.9,110,15.9z"/>
	<g>
		<g>
			<path class="st1" d="M54.2,26.6c0,0,0,0.1,0.1,0.1c0,0,0,0.1,0,0.1c0,0,0,0.1,0,0.1c-0.1,0-0.3,0-0.4,0c-0.1,0-0.2,0-0.3-0.1
				c-0.1-0.1-0.2-0.2-0.2-0.3c0-0.1-0.1-0.2-0.2-0.4c-0.1-0.2-0.2-0.4-0.3-0.7H51c-0.1,0.3-0.2,0.5-0.3,0.7
				c-0.1,0.2-0.1,0.3-0.2,0.4c-0.1,0.1-0.1,0.2-0.3,0.3C50.2,26.9,50.1,27,50,27c-0.1,0-0.3,0-0.4,0c0,0,0-0.1,0-0.1
				c0,0,0-0.1,0-0.1c0,0,0-0.1,0.1-0.1c0-0.1,0.1-0.2,0.2-0.4c0.1-0.2,0.2-0.4,0.3-0.7c0.1-0.3,0.2-0.5,0.3-0.8
				c0.1-0.3,0.2-0.6,0.3-0.8c0.1-0.3,0.2-0.5,0.3-0.7c0.1-0.2,0.1-0.3,0.2-0.4c0-0.1,0.1-0.2,0.2-0.3c0.1-0.1,0.1-0.1,0.2-0.2
				c0.1,0,0.1-0.1,0.2-0.1c0.1,0,0.1,0,0.1,0c0,0,0.1,0,0.1,0c0.1,0,0.1,0,0.2,0.1c0.1,0,0.1,0.1,0.2,0.2c0.1,0.1,0.1,0.2,0.2,0.3
				c0,0.1,0.1,0.2,0.2,0.4c0.1,0.2,0.2,0.4,0.3,0.7c0.1,0.3,0.2,0.5,0.3,0.8c0.1,0.3,0.2,0.6,0.3,0.8c0.1,0.3,0.2,0.5,0.3,0.7
				C54.1,26.4,54.1,26.5,54.2,26.6z M52.7,24.9c-0.1-0.2-0.2-0.5-0.3-0.7c-0.1-0.2-0.2-0.4-0.2-0.6C52.1,23.4,52,23.2,52,23
				c-0.1,0.2-0.1,0.4-0.2,0.6c-0.1,0.2-0.1,0.4-0.2,0.6c-0.1,0.2-0.2,0.4-0.3,0.7H52.7z"/>
			<path class="st1" d="M55,26.9c0.2-0.1,0.4-0.1,0.7-0.1c0.2,0,0.5,0,0.7,0c0.2,0.1,0.4,0.1,0.5,0.3c0.1,0.1,0.2,0.3,0.2,0.6
				c0,0.2,0,0.4-0.1,0.5c-0.1,0.1-0.2,0.2-0.3,0.3c-0.1,0.1-0.3,0.1-0.4,0.2c-0.1,0-0.3,0.1-0.4,0.1h-0.1c-0.2,0-0.4-0.1-0.6-0.1
				c-0.2-0.1-0.3-0.2-0.5-0.3c-0.1-0.1-0.2-0.3-0.3-0.5c-0.1-0.2-0.1-0.4-0.1-0.7c0,0,0,0,0-0.1c0,0,0,0,0-0.1c0-0.3,0-0.5,0.1-0.7
				c0.1-0.2,0.2-0.4,0.4-0.5c-0.1-0.1-0.3-0.2-0.3-0.4c-0.1-0.2-0.1-0.3-0.1-0.5c0-0.2,0-0.3,0.1-0.5c0.1-0.1,0.2-0.3,0.3-0.4
				c0.1-0.1,0.3-0.2,0.4-0.3c0.2-0.1,0.3-0.1,0.5-0.1c0.2,0,0.4,0,0.6,0.1c0.2,0.1,0.3,0.1,0.4,0.3c0.3,0.2,0.4,0.5,0.4,0.8
				c0,0.2,0,0.3-0.1,0.5c-0.1,0.1-0.2,0.3-0.3,0.4c-0.1,0.1-0.3,0.2-0.4,0.2c-0.2,0.1-0.3,0.1-0.5,0.1v0h0c-0.2,0-0.3,0-0.4,0.1
				c-0.1,0-0.2,0.1-0.2,0.2c-0.1,0.1-0.1,0.2-0.1,0.3C55,26.7,55,26.8,55,26.9z M56.3,28c0,0,0.1-0.1,0.1-0.1c0-0.1,0-0.1,0-0.2
				c0,0,0-0.1,0-0.1c0-0.1,0-0.1-0.1-0.2c0,0-0.1-0.1-0.1-0.1c-0.1,0-0.1,0-0.2-0.1c-0.1,0-0.1,0-0.2,0c-0.1,0-0.1,0-0.2,0
				c-0.1,0-0.1,0-0.2,0c-0.1,0-0.1,0-0.2,0c0,0-0.1,0-0.1,0c0,0.1,0,0.1,0,0.2c0,0.1,0,0.1,0.1,0.2c0,0.1,0.1,0.1,0.1,0.2
				c0,0.1,0.1,0.1,0.2,0.1c0.1,0.1,0.2,0.1,0.3,0.1c0.1,0,0.2,0,0.3,0C56.2,28.1,56.2,28.1,56.3,28z M55.7,24.3c0,0-0.1,0-0.2,0
				c-0.1,0-0.1,0-0.2,0.1c-0.1,0-0.1,0.1-0.1,0.2c0,0.1-0.1,0.2-0.1,0.3c0,0.1,0,0.2,0.1,0.3c0,0.1,0.1,0.1,0.1,0.2
				c0.1,0,0.1,0.1,0.2,0.1c0.1,0,0.1,0,0.2,0c0,0,0.1,0,0.2,0c0.1,0,0.1,0,0.2-0.1c0.1,0,0.1-0.1,0.1-0.2c0-0.1,0.1-0.2,0.1-0.3
				c0-0.1,0-0.2-0.1-0.3c0-0.1-0.1-0.1-0.1-0.2c-0.1,0-0.1-0.1-0.2-0.1C55.8,24.3,55.7,24.3,55.7,24.3z"/>
			<path class="st1" d="M57.1,25.3c0-0.3,0-0.6,0.1-0.7c0.1-0.2,0.2-0.3,0.3-0.5c0.1-0.1,0.3-0.2,0.5-0.2c0.2,0,0.3-0.1,0.5-0.1h0.3
				c0,0.1,0,0.2,0,0.3c0,0.1,0,0.1-0.1,0.2c-0.1,0.1-0.1,0.1-0.3,0.1c-0.1,0-0.2,0-0.2,0.1c-0.1,0-0.1,0.1-0.2,0.1
				c-0.1,0.1-0.1,0.1-0.1,0.3c0,0.1-0.1,0.3-0.1,0.5v1c0,0.1,0,0.2,0,0.3c0,0.1,0,0.2,0,0.2c0,0.1,0,0.1,0,0.1
				c-0.3,0-0.5-0.1-0.6-0.2c-0.2-0.1-0.2-0.3-0.2-0.6V25.3z"/>
			<path class="st1" d="M61.3,24.2c0.1,0.1,0.3,0.3,0.3,0.5c0.1,0.2,0.1,0.4,0.1,0.6c0,0.2,0,0.4-0.1,0.6c-0.1,0.2-0.2,0.4-0.3,0.5
				c-0.1,0.2-0.3,0.3-0.5,0.4C60.7,27,60.5,27,60.3,27c-0.2,0-0.4,0-0.6-0.1c-0.2-0.1-0.3-0.2-0.5-0.4c-0.1-0.1-0.2-0.3-0.3-0.5
				c-0.1-0.2-0.1-0.4-0.1-0.6c0-0.2,0-0.4,0.1-0.6c0.1-0.2,0.2-0.4,0.3-0.5c0.1-0.2,0.3-0.3,0.5-0.4c0.2-0.1,0.4-0.1,0.6-0.1
				c0.2,0,0.4,0,0.6,0.1C61,24,61.2,24.1,61.3,24.2z M60.3,26.5c0.1,0,0.1,0,0.2,0c0.1,0,0.2-0.1,0.2-0.2c0.1-0.1,0.1-0.2,0.2-0.3
				c0.1-0.1,0.1-0.3,0.1-0.5c0-0.2,0-0.4-0.1-0.5c-0.1-0.1-0.1-0.2-0.2-0.3c-0.1-0.1-0.1-0.1-0.2-0.2c-0.1,0-0.1,0-0.2,0
				c-0.1,0-0.1,0-0.2,0c-0.1,0-0.2,0.1-0.2,0.2c-0.1,0.1-0.1,0.2-0.2,0.3c0,0.1-0.1,0.3-0.1,0.5c0,0.2,0,0.4,0.1,0.5
				c0.1,0.1,0.1,0.2,0.2,0.3c0.1,0.1,0.1,0.1,0.2,0.2C60.1,26.4,60.2,26.5,60.3,26.5z"/>
			<path class="st1" d="M62,25.2c0-0.3,0-0.6,0.1-0.7c0.1-0.2,0.2-0.3,0.3-0.5c0.1-0.1,0.3-0.2,0.5-0.2c0.2,0,0.4-0.1,0.5-0.1
				c0.2,0,0.3,0,0.5,0.1c0.2,0,0.3,0.1,0.5,0.2c0.1,0.1,0.3,0.3,0.3,0.5s0.1,0.4,0.1,0.7l0,1.7c-0.3,0-0.5-0.1-0.6-0.2
				c-0.2-0.1-0.2-0.3-0.2-0.6l0-1c0-0.2,0-0.3-0.1-0.5c0-0.1-0.1-0.2-0.2-0.3c-0.1-0.1-0.1-0.1-0.2-0.1c-0.1,0-0.2,0-0.2,0
				c-0.1,0-0.2,0-0.2,0c-0.1,0-0.1,0.1-0.2,0.1c-0.1,0.1-0.1,0.2-0.2,0.3c0,0.1-0.1,0.3-0.1,0.5v1.1c0,0.1,0,0.2,0,0.3
				c0,0.1,0,0.2,0,0.2c0,0.1,0,0.1,0,0.1c-0.3,0-0.5-0.1-0.7-0.2C62,26.7,62,26.5,62,26.2L62,25.2z"/>
			<path class="st1" d="M67.7,26.3c0.1,0,0.1,0.1,0.2,0.2l0,0l0,0c-0.2,0.2-0.3,0.3-0.5,0.4C67.1,27,66.9,27,66.7,27
				c-0.2,0-0.4,0-0.6-0.1c-0.2-0.1-0.3-0.2-0.5-0.4c-0.1-0.1-0.2-0.3-0.3-0.5c-0.1-0.2-0.1-0.4-0.1-0.6c0-0.2,0-0.4,0.1-0.6
				c0.1-0.2,0.2-0.4,0.3-0.5c0.1-0.1,0.3-0.3,0.5-0.3c0.2-0.1,0.4-0.1,0.6-0.1c0.1,0,0.3,0,0.4,0.1c0.2,0,0.3,0.1,0.4,0.2
				c0.1,0.1,0.2,0.2,0.3,0.3c0.1,0.1,0.1,0.3,0.1,0.5c0,0.2,0,0.3-0.1,0.5s-0.2,0.2-0.3,0.3c-0.1,0.1-0.3,0.1-0.4,0.1
				c-0.1,0-0.3,0-0.4,0c-0.2,0-0.3,0-0.4,0c-0.1,0-0.2,0-0.3,0c0,0.2,0.1,0.3,0.1,0.4c0.1,0.1,0.1,0.2,0.2,0.2
				c0.1,0.1,0.1,0.1,0.2,0.1c0.1,0,0.1,0,0.2,0c0.1,0,0.2,0,0.3,0c0.1,0,0.2,0,0.2-0.1c0.1,0,0.1,0,0.2-0.1c0.1,0,0.1,0,0.2,0
				C67.6,26.3,67.7,26.3,67.7,26.3z M66.7,24.3c-0.1,0-0.1,0-0.2,0c-0.1,0-0.1,0.1-0.2,0.1c-0.1,0.1-0.1,0.1-0.2,0.2
				c-0.1,0.1-0.1,0.2-0.1,0.4c0.1,0,0.2,0,0.3,0.1c0.1,0,0.3,0,0.4,0c0.1,0,0.3-0.1,0.4-0.1c0.1-0.1,0.2-0.2,0.2-0.3
				c0-0.1,0-0.2-0.1-0.3C67,24.4,66.9,24.3,66.7,24.3z"/>
			<path class="st1" d="M68.8,26.9c0.2-0.1,0.4-0.1,0.7-0.1c0.2,0,0.5,0,0.7,0c0.2,0.1,0.4,0.1,0.5,0.3c0.1,0.1,0.2,0.3,0.2,0.6
				c0,0.2,0,0.4-0.1,0.5c-0.1,0.1-0.2,0.2-0.3,0.3c-0.1,0.1-0.3,0.1-0.4,0.2c-0.1,0-0.3,0.1-0.4,0.1h-0.1c-0.2,0-0.4-0.1-0.6-0.1
				c-0.2-0.1-0.3-0.2-0.5-0.3c-0.1-0.1-0.2-0.3-0.3-0.5c-0.1-0.2-0.1-0.4-0.1-0.7c0,0,0,0,0-0.1c0,0,0,0,0-0.1c0-0.3,0-0.5,0.1-0.7
				c0.1-0.2,0.2-0.4,0.4-0.5c-0.1-0.1-0.3-0.2-0.3-0.4c-0.1-0.2-0.1-0.3-0.1-0.5c0-0.2,0-0.3,0.1-0.5c0.1-0.1,0.2-0.3,0.3-0.4
				c0.1-0.1,0.3-0.2,0.4-0.3c0.2-0.1,0.3-0.1,0.5-0.1c0.2,0,0.4,0,0.6,0.1c0.2,0.1,0.3,0.1,0.4,0.3c0.3,0.2,0.4,0.5,0.4,0.8
				c0,0.2,0,0.3-0.1,0.5c-0.1,0.1-0.2,0.3-0.3,0.4c-0.1,0.1-0.3,0.2-0.4,0.2c-0.2,0.1-0.3,0.1-0.5,0.1v0h0c-0.2,0-0.3,0-0.4,0.1
				c-0.1,0-0.2,0.1-0.2,0.2c-0.1,0.1-0.1,0.2-0.1,0.3C68.8,26.7,68.8,26.8,68.8,26.9z M70,28c0,0,0.1-0.1,0.1-0.1c0-0.1,0-0.1,0-0.2
				c0,0,0-0.1,0-0.1c0-0.1,0-0.1-0.1-0.2c0,0-0.1-0.1-0.1-0.1c-0.1,0-0.1,0-0.2-0.1c-0.1,0-0.1,0-0.2,0s-0.1,0-0.2,0
				c-0.1,0-0.1,0-0.2,0c-0.1,0-0.1,0-0.2,0c0,0-0.1,0-0.1,0c0,0.1,0,0.1,0,0.2c0,0.1,0,0.1,0.1,0.2c0,0.1,0.1,0.1,0.1,0.2
				c0,0.1,0.1,0.1,0.2,0.1c0.1,0.1,0.2,0.1,0.3,0.1c0.1,0,0.2,0,0.3,0C69.9,28.1,70,28.1,70,28z M69.4,24.3c0,0-0.1,0-0.2,0
				c-0.1,0-0.1,0-0.2,0.1c-0.1,0-0.1,0.1-0.1,0.2c0,0.1-0.1,0.2-0.1,0.3c0,0.1,0,0.2,0.1,0.3c0,0.1,0.1,0.1,0.1,0.2
				c0.1,0,0.1,0.1,0.2,0.1c0.1,0,0.1,0,0.2,0c0,0,0.1,0,0.2,0c0.1,0,0.1,0,0.2-0.1c0.1,0,0.1-0.1,0.1-0.2c0-0.1,0.1-0.2,0.1-0.3
				c0-0.1,0-0.2-0.1-0.3c0-0.1-0.1-0.1-0.1-0.2c-0.1,0-0.1-0.1-0.2-0.1C69.5,24.3,69.5,24.3,69.4,24.3z"/>
			<path class="st1" d="M73.5,24.2c0.1,0.1,0.3,0.3,0.3,0.5c0.1,0.2,0.1,0.4,0.1,0.6c0,0.2,0,0.4-0.1,0.6c-0.1,0.2-0.2,0.4-0.3,0.5
				c-0.1,0.2-0.3,0.3-0.5,0.4C72.8,27,72.6,27,72.4,27c-0.2,0-0.4,0-0.6-0.1c-0.2-0.1-0.3-0.2-0.5-0.4c-0.1-0.1-0.2-0.3-0.3-0.5
				c-0.1-0.2-0.1-0.4-0.1-0.6c0-0.2,0-0.4,0.1-0.6c0.1-0.2,0.2-0.4,0.3-0.5c0.1-0.2,0.3-0.3,0.5-0.4c0.2-0.1,0.4-0.1,0.6-0.1
				c0.2,0,0.4,0,0.6,0.1C73.2,24,73.3,24.1,73.5,24.2z M72.4,26.5c0.1,0,0.1,0,0.2,0c0.1,0,0.2-0.1,0.2-0.2c0.1-0.1,0.1-0.2,0.2-0.3
				c0.1-0.1,0.1-0.3,0.1-0.5c0-0.2,0-0.4-0.1-0.5c-0.1-0.1-0.1-0.2-0.2-0.3c-0.1-0.1-0.1-0.1-0.2-0.2c-0.1,0-0.1,0-0.2,0
				c-0.1,0-0.1,0-0.2,0c-0.1,0-0.2,0.1-0.2,0.2c-0.1,0.1-0.1,0.2-0.2,0.3c0,0.1-0.1,0.3-0.1,0.5c0,0.2,0,0.4,0.1,0.5
				c0.1,0.1,0.1,0.2,0.2,0.3c0.1,0.1,0.1,0.1,0.2,0.2C72.3,26.4,72.3,26.5,72.4,26.5z"/>
			<path class="st1" d="M75.6,24.3c-0.1,0-0.1,0-0.2,0c-0.1,0-0.2,0.1-0.2,0.2c-0.1,0.1-0.1,0.2-0.2,0.3c0,0.1-0.1,0.3-0.1,0.5
				c0,0.2,0,0.4,0.1,0.5c0.1,0.1,0.1,0.2,0.2,0.3c0.1,0.1,0.1,0.1,0.2,0.2c0.1,0,0.1,0,0.2,0c0.1,0,0.2,0,0.3,0c0.1,0,0.2,0,0.2-0.1
				c0.1,0,0.1-0.1,0.2-0.1c0.1,0,0.1,0,0.2,0c0.1,0,0.1,0,0.2,0c0,0,0.1,0.1,0.2,0.2l0,0l0,0c-0.2,0.2-0.3,0.3-0.5,0.4
				C76.1,27,75.8,27,75.6,27c-0.2,0-0.4,0-0.6-0.1c-0.2-0.1-0.3-0.2-0.5-0.3c-0.1-0.1-0.2-0.3-0.3-0.5c-0.1-0.2-0.1-0.4-0.1-0.6
				c0-0.2,0-0.4,0.1-0.6c0.1-0.2,0.2-0.4,0.3-0.5c0.1-0.1,0.3-0.3,0.5-0.3c0.2-0.1,0.4-0.1,0.6-0.1c0.2,0,0.5,0,0.7,0.1
				c0.2,0.1,0.4,0.2,0.5,0.4l0,0l0,0c-0.1,0.1-0.1,0.1-0.2,0.2c-0.1,0-0.1,0.1-0.2,0c-0.1,0-0.1,0-0.2,0c-0.1,0-0.1,0-0.2-0.1
				c-0.1,0-0.1-0.1-0.2-0.1C75.8,24.3,75.7,24.3,75.6,24.3z"/>
			<path class="st1" d="M77.8,22.8c-0.1,0.2-0.2,0.2-0.4,0.2c-0.1,0-0.1,0-0.2,0c-0.1,0-0.1-0.1-0.2-0.2c0-0.1-0.1-0.1-0.1-0.2
				c0-0.1,0-0.2,0.1-0.2c0-0.1,0.1-0.1,0.2-0.2c0.1,0,0.1-0.1,0.2-0.1c0.1,0,0.1,0,0.2,0.1c0.1,0,0.1,0.1,0.2,0.2
				c0,0.1,0.1,0.1,0.1,0.2C77.9,22.7,77.9,22.7,77.8,22.8z M78.3,26.3c0,0-0.1,0.1-0.1,0.1c-0.1,0-0.1,0-0.2,0s-0.1,0-0.1-0.1
				c0,0-0.1-0.1-0.1-0.2v-1.6c0-0.1,0-0.2,0-0.3c0-0.1,0-0.2,0-0.2c0-0.1,0-0.1,0-0.1c-0.3,0-0.5,0.1-0.6,0.2
				c-0.1,0.1-0.2,0.3-0.2,0.6l0,1.6c0,0.1,0,0.2,0.1,0.3c0,0.1,0.1,0.2,0.2,0.3c0.1,0.1,0.2,0.1,0.3,0.2c0.1,0,0.2,0.1,0.4,0
				c0.1,0,0.3-0.1,0.3-0.1c0.1-0.1,0.1-0.2,0.1-0.2C78.3,26.6,78.4,26.5,78.3,26.3z"/>
			<path class="st1" d="M80.9,24.2c0.1,0.1,0.3,0.3,0.3,0.5c0.1,0.2,0.1,0.4,0.1,0.6c0,0.2,0,0.4-0.1,0.6c-0.1,0.2-0.2,0.4-0.3,0.5
				c-0.1,0.2-0.3,0.3-0.5,0.4C80.3,27,80.1,27,79.8,27c-0.2,0-0.4,0-0.6-0.1c-0.2-0.1-0.3-0.2-0.5-0.4c-0.1-0.1-0.2-0.3-0.3-0.5
				c-0.1-0.2-0.1-0.4-0.1-0.6c0-0.2,0-0.4,0.1-0.6c0.1-0.2,0.2-0.4,0.3-0.5c0.1-0.2,0.3-0.3,0.5-0.4c0.2-0.1,0.4-0.1,0.6-0.1
				c0.2,0,0.4,0,0.6,0.1C80.6,24,80.8,24.1,80.9,24.2z M79.8,26.5c0.1,0,0.1,0,0.2,0c0.1,0,0.2-0.1,0.2-0.2c0.1-0.1,0.1-0.2,0.2-0.3
				s0.1-0.3,0.1-0.5c0-0.2,0-0.4-0.1-0.5c-0.1-0.1-0.1-0.2-0.2-0.3c-0.1-0.1-0.1-0.1-0.2-0.2c-0.1,0-0.1,0-0.2,0c-0.1,0-0.1,0-0.2,0
				c-0.1,0-0.2,0.1-0.2,0.2c-0.1,0.1-0.1,0.2-0.2,0.3c0,0.1-0.1,0.3-0.1,0.5c0,0.2,0,0.4,0.1,0.5c0.1,0.1,0.1,0.2,0.2,0.3
				c0.1,0.1,0.1,0.1,0.2,0.2C79.7,26.4,79.8,26.5,79.8,26.5z"/>
			<path class="st1" d="M83.1,26.2c0-0.1,0-0.1-0.1-0.2c-0.1-0.1-0.1-0.1-0.2-0.2c-0.1,0-0.2-0.1-0.3-0.2c-0.1-0.1-0.3-0.1-0.4-0.2
				c-0.1-0.1-0.2-0.1-0.3-0.2c-0.1-0.1-0.1-0.2-0.2-0.3c0-0.1,0-0.2,0-0.3c0-0.1,0-0.2,0.1-0.3c0-0.1,0.1-0.2,0.2-0.3
				c0.1-0.1,0.2-0.1,0.2-0.2c0.1,0,0.2-0.1,0.3-0.1c0.1,0,0.2,0,0.3,0h0.1c0.2,0,0.5,0.1,0.7,0.2s0.4,0.2,0.5,0.4l0,0l0,0
				c0,0.1-0.1,0.1-0.2,0.1c-0.1,0-0.1,0-0.2,0c-0.1,0-0.1,0-0.2,0c-0.1,0-0.1-0.1-0.2-0.1c-0.1,0-0.2-0.1-0.2-0.1
				c-0.1,0-0.2,0-0.2,0c-0.1,0-0.2,0-0.2,0.1c-0.1,0-0.1,0.1-0.1,0.2c0,0.1,0,0.2,0.1,0.2c0.1,0.1,0.2,0.1,0.3,0.2
				c0.1,0.1,0.3,0.1,0.5,0.2c0.2,0.1,0.3,0.2,0.4,0.3c0.1,0.1,0.2,0.2,0.3,0.4c0.1,0.1,0.1,0.3,0,0.5c0,0.1-0.1,0.2-0.1,0.3
				c-0.1,0.1-0.1,0.2-0.2,0.2c-0.1,0.1-0.2,0.1-0.4,0.2C83.1,27,83,27,82.8,27c0,0-0.1,0-0.1,0c-0.2,0-0.4-0.1-0.6-0.2
				c-0.2-0.1-0.4-0.2-0.5-0.4l0,0l0,0c0,0,0-0.1,0.1-0.1c0,0,0.1,0,0.1-0.1c0.1,0,0.1,0,0.2,0c0.1,0,0.1,0,0.2,0
				c0.1,0,0.1,0.1,0.2,0.1c0.1,0,0.1,0.1,0.2,0.1c0.1,0,0.2,0,0.3,0c0.2,0,0.3,0,0.4-0.1C83.1,26.3,83.1,26.2,83.1,26.2z"/>
		</g>
	</g>
</g>
<rect y="240.4" class="st3" width="139.8" height="8.6"/>
</svg>
