<?xml version="1.0" encoding="utf-8"?>
<!-- Generator: Adobe Illustrator 22.1.0, SVG Export Plug-In . SVG Version: 6.00 Build 0)  -->
<svg version="1.1" id="Layer_1" xmlns="http://www.w3.org/2000/svg" xmlns:xlink="http://www.w3.org/1999/xlink" x="0px" y="0px"
	 viewBox="0 0 505.6 424.4" style="enable-background:new 0 0 505.6 424.4;" xml:space="preserve">
<style type="text/css">
	.st0{fill:#757474;}
	.st1{fill:#FFFFFF;}
	.st2{fill:#005321;}
	.st3{fill:#52AE32;}
	.st4{fill:#DCDCDC;}
	.st5{fill:#F9B041;}
	.st6{fill:#21386C;}
	.st7{fill:#144F9F;}
	.st8{fill:#F49523;}
	.st9{fill:none;stroke:#52AE32;stroke-miterlimit:10;}
	.st10{fill:none;stroke:#52AE32;stroke-miterlimit:10;stroke-dasharray:4.9052,4.9052;}
	.st11{fill:#E30613;}
	.st12{fill:#B2B2B2;}
	.st13{fill:#FFCC00;}
	.st14{fill:#9B9B9A;}
	.st15{fill:#706F6F;stroke:#706F6F;stroke-width:0.25;stroke-miterlimit:10;}
	.st16{fill:#4E4D4D;}
	.st17{fill:#706F6F;}
	.st18{fill:#FFED00;}
	.st19{fill:#E41513;}
	.st20{fill:#5AB031;}
</style>
<g>
	<path class="st2" d="M377.3,85.2l-5.5-0.9c-3.4-0.6-6.8-0.8-10.2-0.8h0c-3.6,0.1-7,0.7-10.2,1.9c-3.3,1.2-6.3,3-9,5.5
		c-1,0.9-2,2-2.9,3.2c-19.6-28.6-52.5-47.4-89.7-47.4c-59.9,0-108.7,48.8-108.7,108.7c0,59.9,48.8,108.7,108.7,108.7
		c59.9,0,108.7-48.8,108.7-108.7c0-5.8-0.5-11.5-1.3-17c5.6-14.6,11.7-30.6,18.2-47.8L377.3,85.2z"/>
	<circle class="st1" cx="249.5" cy="155.6" r="99.3"/>
	<g>
		<path class="st3" d="M354.6,95.9c-3,0.1-5.7,0.6-8.3,1.5c-2.6,0.9-5,2.3-7.1,4.3c-2.2,1.9-3.9,4.5-5.3,7.7
			c-0.2,0.5-0.9,2.1-1.9,4.7c-1,2.7-2.3,6-3.9,10c-1.5,4-3.2,8.5-5.1,13.4c-1.8,4.9-3.8,9.9-5.7,15c-4.6,12-9.7,25.3-15.4,40.1
			c-3.1-8-6.1-15.5-8.8-22.6h-23.7l22,55.2c3,1,6,1.3,9.1,0.9c2.5-0.2,5.1-1.1,8-2.6c2.8-1.5,5.3-4.2,7.4-8.1c1-1.9,2.4-5,4.3-9.3
			c1.9-4.4,4.1-9.5,6.5-15.4c2.4-5.9,5-12.3,7.8-19.2c2.8-6.9,5.5-13.9,8.2-20.9c6.4-16.3,13.4-34.2,20.9-53.8
			C360.5,96,357.5,95.8,354.6,95.9z"/>
		<g>
			<path class="st2" d="M257.1,160.5c-2.3-3.1-5.1-5.8-8.2-8c-3.1-2.2-6.6-4-10.3-5.4c2.7-2.8,4.8-5.9,6.3-9.3
				c1.5-3.4,2.2-7.1,2.2-11c0-4.2-0.8-8.2-2.3-12c-1.5-3.8-3.9-7.2-7-10.2c-3.1-3-7.1-5.3-11.7-7.1c-4.7-1.8-10.2-2.7-16.6-2.7
				c-2.2,0-4.9,0-8,0.1c-3.1,0.1-6,0.3-8.6,0.6c-4.1,0.4-7.6,1.2-10.5,2.4c-5.1,2-8.8,5.2-11.3,9.8c-2.6,4.8-3.9,11.4-3.9,19.8v30.9
				h22.8l0,0c2.4,0,4.6,0,6.9,0c2.1,0,4.2,0.1,6.9,0.1c2.6,0,5.5,0.1,8.4-0.1c3.2-0.1,6.6,0.2,10.1,0.9c3.5,0.7,6.7,2.1,9.6,4
				c2.9,1.9,5.3,4.6,7.1,8.1c1.8,3.5,2.8,8,2.8,13.4c0,3.3-0.4,6.4-1.2,9.3c-0.8,2.9-2.1,5.4-3.9,7.6c-1.8,2.2-4.1,3.9-6.9,5.2
				c-2.8,1.3-6.2,1.9-10.2,1.9c-4.8,0-9.1-0.7-12.9-2c-3.8-1.4-6.9-3.6-9.5-6.8c-2.6-3.2-4.5-7.6-5.7-13c-1-4.7-1.6-10.3-1.5-17
				h-22.6c0.3,9.3,1.5,17.4,3.6,24.2c2.5,7.7,6,14,10.5,18.9c4.6,4.9,10,8.4,16.5,10.7c6.4,2.3,13.6,3.4,21.6,3.4
				c6.9,0,13.1-1.2,18.7-3.5c5.5-2.3,10.3-5.5,14.2-9.4c3.9-3.9,7-8.4,9.2-13.5c2.2-5.1,3.2-10.4,3.2-15.9c0-4.9-0.7-9.4-2-13.5
				C261.3,167.2,259.5,163.6,257.1,160.5z M221.2,139.5c-3.8,2.5-9,3.7-15.6,3.7h-15.7v-23.5c0-2.5,0.7-4.3,2.2-5.5
				c1.5-1.2,3.3-2.1,5.4-2.7c2.1-0.6,4.3-0.8,6.5-0.8c2.2,0,4.1,0,5.5,0c2,0,4,0.3,6.1,0.9c2.1,0.6,4,1.6,5.6,2.9c1.7,1.3,3,3,4.1,5
				c1,2,1.6,4.5,1.6,7.5C226.8,132.8,224.9,137,221.2,139.5z"/>
			<path class="st2" d="M286.3,152.4c-2-5.1-3.9-10-5.7-15c-1.9-4.9-3.5-9.4-5.1-13.4c-1.5-4-2.8-7.3-3.9-10
				c-1.1-2.7-1.6-4.2-1.8-4.7c-1.4-3.2-3.1-5.8-5.3-7.7c-2.2-1.9-4.5-3.3-7.1-4.3c-2.6-0.9-5.4-1.4-8.4-1.5c-3-0.1-6,0.2-9,0.6
				l24.6,61.8h23.9C287.8,156.3,287,154.3,286.3,152.4z"/>
		</g>
	</g>
</g>
<g>
	<g>
		<path class="st2" d="M90.4,331.5c-3.1,0-6-0.5-8.5-1.3c-2.5-0.9-4.6-2.3-6.4-4.2c-1.8-1.9-3.2-4.4-4.1-7.4c-1-3-1.4-6.7-1.4-11
			v-15.1c0-3.3,0.5-5.9,1.5-7.7c1-1.8,2.4-3.1,4.4-3.8c1.2-0.5,2.5-0.8,4.1-0.9c1-0.1,2.1-0.2,3.4-0.3c1.2,0,2.3,0,3.1,0
			c2.5,0,4.7,0.3,6.5,1c1.8,0.7,3.4,1.6,4.6,2.8c1.2,1.2,2.1,2.5,2.7,4c0.6,1.5,0.9,3.1,0.9,4.7c0,1.5-0.3,3-0.9,4.3
			s-1.4,2.5-2.4,3.6c1.4,0.5,2.8,1.2,4,2.1c1.2,0.9,2.3,1.9,3.2,3.1c0.9,1.2,1.6,2.6,2.2,4.2c0.5,1.6,0.8,3.4,0.8,5.3
			c0,2.2-0.4,4.2-1.3,6.2s-2,3.7-3.6,5.3c-1.5,1.5-3.4,2.8-5.6,3.7S93.1,331.5,90.4,331.5z M90.4,324.3c1.5,0,2.9-0.3,4-0.8
			c1.1-0.5,2-1.2,2.7-2c0.7-0.8,1.2-1.8,1.5-3c0.3-1.1,0.5-2.4,0.5-3.7c0-2.1-0.4-3.9-1.1-5.2c-0.7-1.4-1.7-2.4-2.8-3.2
			c-1.1-0.7-2.4-1.3-3.8-1.6c-1.4-0.3-2.7-0.4-3.9-0.4c-1.2,0-2.2,0.1-3.3,0.1s-2,0-2.8,0c-0.9,0-1.8,0-2.6-0.1v3.1
			c-0.1,3.2,0.1,5.9,0.6,8.1c0.5,2.1,1.2,3.8,2.2,5.1c1,1.3,2.2,2.2,3.7,2.7C86.8,324.1,88.5,324.3,90.4,324.3z M78.8,298.7H85
			c2.6,0,4.6-0.5,6.1-1.5c1.5-1,2.2-2.6,2.2-4.9c0-1.2-0.2-2.1-0.6-2.9c-0.4-0.8-0.9-1.5-1.6-2c-0.7-0.5-1.4-0.9-2.2-1.1
			c-0.8-0.2-1.6-0.4-2.4-0.4c-0.6,0-1.3,0-2.2,0c-0.9,0-1.7,0.1-2.5,0.3c-0.8,0.2-1.5,0.6-2.1,1.1c-0.6,0.5-0.9,1.2-0.9,2.2V298.7z"
			/>
		<g>
			<path class="st3" d="M141.2,315.8c0,3.2-0.5,5.9-1.4,7.9c-1,2-2.2,3.6-3.7,4.8c-1.5,1.2-3.2,1.9-5.1,2.4
				c-1.9,0.4-3.7,0.7-5.6,0.7c-1.8,0-3.7-0.2-5.6-0.7c-1.9-0.4-3.6-1.2-5.1-2.4c-1.5-1.2-2.7-2.8-3.7-4.8c-0.9-2-1.4-4.7-1.4-7.9
				l0.1-10.2c0-2.9,0.8-5,2.4-6.2c1.6-1.2,3.8-1.8,6.8-1.8c-0.1,0.3-0.1,0.7-0.1,1.3c-0.1,0.5-0.1,1.3-0.1,2.2c0,0.9,0,2.1,0,3.5
				l0.1,11.2c0,2,0.2,3.6,0.6,4.9s0.9,2.2,1.6,2.9c0.7,0.7,1.4,1.1,2.2,1.4c0.8,0.2,1.6,0.4,2.4,0.4s1.6-0.1,2.4-0.4
				s1.5-0.7,2.2-1.4c0.7-0.7,1.2-1.6,1.6-2.9c0.4-1.2,0.6-2.8,0.6-4.9l0.1-10.2c0-2.9,0.8-5,2.4-6.2c1.6-1.2,3.9-1.8,6.9-1.8
				c-0.1,0.3-0.1,0.7-0.1,1.3c-0.1,0.5-0.1,1.3-0.1,2.2c0,0.9,0,2.1,0,3.5L141.2,315.8z"/>
			<path class="st3" d="M170.4,323.7c0.6,0.3,1.1,0.9,1.7,1.7l0.2,0.2l-0.2,0.2c-1.6,1.7-3.5,3.1-5.7,4.1c-2.2,1-4.6,1.5-7.1,1.5
				c-2.2,0-4.3-0.5-6.3-1.3c-2-0.9-3.7-2.1-5.2-3.7c-1.5-1.5-2.6-3.4-3.4-5.5c-0.8-2.1-1.3-4.4-1.3-6.8s0.4-4.7,1.1-6.8
				c0.7-2.1,1.8-3.9,3.2-5.5c1.4-1.5,3.1-2.8,5.1-3.7c2-0.9,4.2-1.4,6.7-1.4c1.3,0,2.8,0.2,4.4,0.6c1.6,0.4,3.1,1.1,4.5,2
				c1.4,0.9,2.6,2.1,3.5,3.5c0.9,1.4,1.4,3.2,1.4,5.2c0,2-0.5,3.6-1.5,4.8c-1,1.2-2.2,2.2-3.6,2.9c-1.4,0.7-2.9,1.2-4.4,1.4
				s-2.9,0.4-4.1,0.4c-1.8,0-3.3-0.1-4.7-0.3c-1.3-0.2-2.2-0.4-2.7-0.5c0.2,1.7,0.6,3.2,1.2,4.2c0.6,1.1,1.2,1.9,2,2.6
				c0.7,0.6,1.4,1.1,2.2,1.3c0.7,0.2,1.4,0.3,2,0.3c1,0,2-0.1,2.9-0.3c0.9-0.2,1.7-0.4,2.5-0.7c0.7-0.2,1.4-0.5,2.1-0.7
				s1.3-0.4,1.9-0.4C169.3,323.2,169.9,323.3,170.4,323.7z M159.3,302.9c-0.5,0-1.2,0.2-1.9,0.4c-0.7,0.2-1.4,0.6-2.1,1.2
				c-0.7,0.6-1.3,1.4-1.9,2.5c-0.6,1.1-1,2.4-1.2,4c0.8,0.2,1.9,0.5,3.3,0.7c1.4,0.2,2.8,0.3,4.3,0.1c1.4-0.1,2.7-0.6,3.8-1.2
				s1.7-1.8,1.8-3.4c0.1-1.2-0.4-2.2-1.4-3.1C162.8,303.2,161.3,302.8,159.3,302.9z"/>
			<path class="st3" d="M175.1,312.5c0-3.2,0.5-5.9,1.4-7.9c0.9-2.1,2.1-3.6,3.6-4.8c1.5-1.2,3.1-1.9,5-2.4c1.9-0.4,3.7-0.6,5.6-0.6
				c1.8,0,3.7,0.2,5.6,0.6c1.9,0.4,3.6,1.2,5.1,2.4c1.5,1.2,2.8,2.8,3.7,4.8c0.9,2,1.4,4.7,1.4,7.9l0.3,18.2c-2.9,0-5.2-0.6-6.8-1.9
				c-1.6-1.3-2.4-3.3-2.4-6.2l0.1-10.2c0-2-0.2-3.7-0.6-4.9s-1-2.2-1.6-2.9c-0.7-0.7-1.4-1.2-2.2-1.4c-0.8-0.2-1.6-0.4-2.5-0.4
				c-0.8,0-1.6,0.1-2.4,0.4c-0.8,0.2-1.5,0.7-2.2,1.4c-0.7,0.7-1.2,1.7-1.6,2.9c-0.4,1.2-0.6,2.9-0.6,4.9v11.2
				c0.1,1.4,0.1,2.6,0.1,3.5c0,0.9,0.1,1.6,0.1,2.2c0,0.6,0.1,1,0.1,1.3c-3,0-5.3-0.6-6.9-1.9c-1.6-1.3-2.4-3.3-2.4-6.2L175.1,312.5
				z"/>
			<path class="st3" d="M212.8,312.3c1.3-0.8,2.8-1.4,4.4-1.8c1.6-0.4,3.4-0.6,5.1-0.6c2.5,0,4.9,0.4,7.2,1.1
				c-0.1-1.5-0.5-2.8-0.9-4c-0.6-1.5-1.6-2.6-2.8-3.3c-0.5-0.2-1-0.4-1.6-0.5c-0.6-0.1-1.2-0.2-1.9-0.2h-0.8c-0.7,0-1.3,0.2-2,0.3
				c-0.7,0.2-1.3,0.4-2,0.6s-1.4,0.4-2,0.6c-0.7,0.2-1.3,0.3-1.9,0.3c-0.7,0-1.3-0.1-2-0.4c-0.6-0.3-1.1-0.9-1.5-1.7l-0.1-0.3
				l0.1-0.2c1.5-1.5,3.2-2.8,5.1-3.7c2-0.9,4.1-1.5,6.4-1.6c0.2-0.1,0.4-0.1,0.6-0.1c0.2,0,0.4,0,0.6,0c2.2,0,4.2,0.4,6.1,1.2
				c1.8,0.8,3.4,1.9,4.8,3.3c2.7,3,4.2,6.9,4.3,11.8v0.6c0,5-1.3,9.1-3.8,12.2c-1.3,1.5-2.8,2.8-4.5,3.8c-1.8,1-3.7,1.6-5.9,1.8
				c-0.3,0-0.6,0.1-0.9,0.1c-0.3,0-0.6,0-0.9,0c-1,0-2.1-0.1-3.2-0.3c-1.1-0.2-2.2-0.5-3.3-1c-1.1-0.4-2.1-1-3-1.7
				c-0.9-0.7-1.7-1.6-2.3-2.7c-0.9-1.4-1.4-3.1-1.4-5.1v-0.4c0-1.9,0.4-3.4,1.2-4.7C210.4,314.3,211.4,313.2,212.8,312.3z
				 M227.8,315.7c-0.6-0.1-1.3-0.2-2.1-0.3c-0.8-0.1-1.6-0.1-2.4-0.1c-0.7,0-1.3,0-2,0.1c-0.6,0.1-1.2,0.2-1.7,0.4
				c-1.2,0.4-2.1,1-2.7,1.8c-0.2,0.3-0.4,0.6-0.6,1c-0.1,0.4-0.2,0.8-0.3,1.2c0,0.1-0.1,0.4-0.1,0.7c0,0.5,0.1,1,0.2,1.6
				c0.1,0.6,0.4,1.1,0.9,1.6c0.4,0.5,0.9,0.9,1.7,1.2c0.7,0.3,1.7,0.5,3,0.5c0.4,0,0.7,0,0.9-0.1c1.4,0,2.5-0.4,3.5-1.2
				c0.5-0.3,0.9-0.6,1.2-1.1c0.3-0.4,0.6-0.9,0.9-1.3c0.5-0.9,0.9-1.9,1.1-2.8c0.2-1,0.3-1.9,0.3-2.7c-0.1,0-0.1,0-0.1,0
				c0,0-0.1,0-0.1,0c-0.2-0.1-0.4-0.1-0.7-0.1C228.4,315.9,228.1,315.8,227.8,315.7z"/>
			<path class="st3" d="M279.8,280.4c-2.9,7.7-5.7,14.7-8.2,21c-1.1,2.7-2.1,5.5-3.2,8.2c-1.1,2.7-2.1,5.2-3,7.5
				c-0.9,2.3-1.8,4.3-2.5,6c-0.7,1.7-1.3,2.9-1.7,3.6c-0.8,1.5-1.8,2.6-2.9,3.2c-1.1,0.6-2.1,0.9-3.1,1c-1.2,0.1-2.4,0-3.5-0.4
				l-20-50.3c1.2-0.2,2.3-0.3,3.5-0.3c1.2,0,2.3,0.2,3.3,0.6c1,0.4,1.9,0.9,2.8,1.7c0.9,0.8,1.5,1.8,2.1,3c0.1,0.2,0.3,0.8,0.7,1.8
				c0.4,1,0.9,2.3,1.5,3.9c0.6,1.6,1.3,3.3,2,5.2c0.7,1.9,1.5,3.9,2.2,5.9c1.8,4.7,3.8,9.9,6.1,15.7c2.2-5.8,4.2-11,6-15.7
				c0.8-2,1.5-3.9,2.2-5.9c0.7-1.9,1.4-3.7,2-5.2c0.6-1.6,1.1-2.9,1.5-3.9c0.4-1,0.7-1.7,0.8-1.8c0.5-1.3,1.2-2.2,2.1-3
				c0.8-0.7,1.8-1.3,2.8-1.7c1-0.4,2.1-0.5,3.3-0.6C277.5,280.2,278.7,280.2,279.8,280.4z"/>
			<path class="st3" d="M298.6,323.7c0.6,0.3,1.1,0.9,1.7,1.7l0.2,0.2l-0.2,0.2c-1.6,1.7-3.5,3.1-5.7,4.1c-2.2,1-4.6,1.5-7.1,1.5
				c-2.2,0-4.3-0.5-6.3-1.3c-2-0.9-3.7-2.1-5.2-3.7c-1.5-1.5-2.6-3.4-3.4-5.5c-0.8-2.1-1.3-4.4-1.3-6.8s0.4-4.7,1.1-6.8
				c0.7-2.1,1.8-3.9,3.2-5.5c1.4-1.5,3.1-2.8,5.1-3.7c2-0.9,4.2-1.4,6.7-1.4c1.3,0,2.8,0.2,4.4,0.6c1.6,0.4,3.1,1.1,4.5,2
				c1.4,0.9,2.6,2.1,3.5,3.5c0.9,1.4,1.4,3.2,1.4,5.2c0,2-0.5,3.6-1.5,4.8c-1,1.2-2.2,2.2-3.6,2.9c-1.4,0.7-2.9,1.2-4.4,1.4
				c-1.6,0.3-2.9,0.4-4.1,0.4c-1.8,0-3.3-0.1-4.7-0.3c-1.3-0.2-2.2-0.4-2.7-0.5c0.2,1.7,0.6,3.2,1.2,4.2s1.2,1.9,2,2.6
				c0.7,0.6,1.4,1.1,2.2,1.3c0.7,0.2,1.4,0.3,2,0.3c1,0,2-0.1,2.9-0.3c0.9-0.2,1.7-0.4,2.5-0.7c0.7-0.2,1.4-0.5,2.1-0.7
				s1.3-0.4,1.9-0.4C297.5,323.2,298.1,323.3,298.6,323.7z M287.5,302.9c-0.5,0-1.2,0.2-1.9,0.4c-0.7,0.2-1.4,0.6-2.1,1.2
				c-0.7,0.6-1.3,1.4-1.9,2.5c-0.6,1.1-1,2.4-1.2,4c0.8,0.2,1.9,0.5,3.3,0.7c1.4,0.2,2.8,0.3,4.3,0.1c1.4-0.1,2.7-0.6,3.8-1.2
				s1.7-1.8,1.8-3.4c0.1-1.2-0.4-2.2-1.4-3.1C291,303.2,289.5,302.8,287.5,302.9z"/>
			<path class="st3" d="M303.3,312.5c0-3.2,0.5-5.9,1.4-7.9c0.9-2.1,2.1-3.6,3.6-4.8c1.5-1.2,3.1-1.9,5-2.4c1.9-0.4,3.7-0.6,5.6-0.6
				c1.8,0,3.7,0.2,5.6,0.6c1.9,0.4,3.6,1.2,5.1,2.4c1.5,1.2,2.8,2.8,3.7,4.8c0.9,2,1.4,4.7,1.4,7.9l0.3,18.2c-2.9,0-5.2-0.6-6.8-1.9
				c-1.6-1.3-2.4-3.3-2.4-6.2l0.1-10.2c0-2-0.2-3.7-0.6-4.9c-0.4-1.2-1-2.2-1.6-2.9c-0.7-0.7-1.4-1.2-2.2-1.4
				c-0.8-0.2-1.6-0.4-2.5-0.4s-1.6,0.1-2.4,0.4c-0.8,0.2-1.5,0.7-2.2,1.4c-0.7,0.7-1.2,1.7-1.6,2.9s-0.6,2.9-0.6,4.9v11.2
				c0.1,1.4,0.1,2.6,0.1,3.5c0,0.9,0.1,1.6,0.1,2.2c0,0.6,0.1,1,0.1,1.3c-3,0-5.3-0.6-6.9-1.9s-2.4-3.3-2.4-6.2L303.3,312.5z"/>
			<path class="st3" d="M357,324.3c0,0.1,0,0.3,0.1,0.5c0.1,0.4,0.1,0.7,0.1,1.1c0,0.9-0.2,1.7-0.6,2.4c-0.4,0.7-0.9,1.3-1.6,1.8
				c-1.3,1-3,1.5-4.9,1.5c-1.6,0-3.2-0.4-4.7-1.1c-1.5-0.7-2.9-1.8-4.2-3.2c-1.3-1.5-2.2-3.2-3-5.4c-0.7-2.1-1.1-4.7-1.1-7.5
				l0.1-20.9c0-2.9,0.8-5,2.3-6.2c1.5-1.3,3.8-1.9,6.7-1.9c-0.1,0.3-0.1,0.8-0.1,1.4c-0.1,0.5-0.1,1.2-0.1,2.1c0,0.9,0,2.1,0,3.5
				l0.1,4.6h9.7c0,2.2-0.6,3.9-1.8,5.2s-2.9,2-5.1,2H346l-0.1,10.3c0,2,0.2,3.7,0.5,5.1c0.4,1.4,0.9,2.5,1.5,3.4
				c1.3,1.6,3,2.5,5.1,2.5c0.9,0,1.7-0.1,2.6-0.4C356.1,324.6,356.6,324.5,357,324.3z"/>
			<path class="st3" d="M388.8,315.8c0,3.2-0.5,5.9-1.4,7.9c-1,2-2.2,3.6-3.7,4.8c-1.5,1.2-3.2,1.9-5.1,2.4
				c-1.9,0.4-3.7,0.7-5.6,0.7c-1.8,0-3.7-0.2-5.6-0.7c-1.9-0.4-3.6-1.2-5.1-2.4c-1.5-1.2-2.7-2.8-3.7-4.8c-0.9-2-1.4-4.7-1.4-7.9
				l0.1-10.2c0-2.9,0.8-5,2.4-6.2c1.6-1.2,3.8-1.8,6.8-1.8c-0.1,0.3-0.1,0.7-0.1,1.3c-0.1,0.5-0.1,1.3-0.1,2.2c0,0.9,0,2.1,0,3.5
				l0.1,11.2c0,2,0.2,3.6,0.6,4.9c0.4,1.2,0.9,2.2,1.6,2.9s1.4,1.1,2.2,1.4c0.8,0.2,1.6,0.4,2.4,0.4c0.8,0,1.6-0.1,2.4-0.4
				s1.5-0.7,2.2-1.4c0.7-0.7,1.2-1.6,1.6-2.9c0.4-1.2,0.6-2.8,0.6-4.9l0.1-10.2c0-2.9,0.8-5,2.4-6.2c1.6-1.2,3.9-1.8,6.9-1.8
				c-0.1,0.3-0.1,0.7-0.1,1.3c-0.1,0.5-0.1,1.3-0.1,2.2c0,0.9,0,2.1,0,3.5L388.8,315.8z"/>
			<path class="st3" d="M391.2,313.3c0-3.2,0.5-5.9,1.4-7.9c0.9-2.1,2.2-3.6,3.7-4.8c1.5-1.2,3.2-1.9,5-2.4c1.9-0.4,3.7-0.6,5.5-0.6
				h3.5c0.2,1,0.3,1.9,0.1,2.8c-0.1,0.7-0.4,1.4-1,2.1c-0.6,0.7-1.5,1.1-2.7,1.2c-0.8,0.1-1.6,0.3-2.4,0.5c-0.8,0.3-1.5,0.7-2.1,1.4
				c-0.6,0.6-1.1,1.6-1.6,2.8c-0.4,1.2-0.6,2.8-0.6,4.8v10.5c0,1.4,0,2.6,0,3.5c0,0.9,0.1,1.6,0.1,2.1c0,0.6,0.1,1,0.1,1.3
				c-2.9,0-5.2-0.6-6.8-1.8c-1.6-1.2-2.4-3.3-2.4-6.2V313.3z"/>
			<path class="st3" d="M414.6,312.3c1.3-0.8,2.8-1.4,4.4-1.8c1.6-0.4,3.4-0.6,5.1-0.6c2.5,0,4.9,0.4,7.2,1.1
				c-0.1-1.5-0.5-2.8-0.9-4c-0.6-1.5-1.6-2.6-2.8-3.3c-0.5-0.2-1-0.4-1.6-0.5c-0.6-0.1-1.2-0.2-1.9-0.2h-0.8c-0.7,0-1.3,0.2-2,0.3
				c-0.7,0.2-1.3,0.4-2,0.6c-0.7,0.2-1.4,0.4-2,0.6c-0.7,0.2-1.3,0.3-1.9,0.3c-0.7,0-1.3-0.1-2-0.4c-0.6-0.3-1.1-0.9-1.5-1.7
				l-0.1-0.3l0.1-0.2c1.5-1.5,3.2-2.8,5.1-3.7c2-0.9,4.1-1.5,6.4-1.6c0.2-0.1,0.4-0.1,0.6-0.1c0.2,0,0.4,0,0.6,0
				c2.2,0,4.2,0.4,6.1,1.2c1.8,0.8,3.4,1.9,4.8,3.3c2.7,3,4.2,6.9,4.3,11.8v0.6c0,5-1.3,9.1-3.8,12.2c-1.3,1.5-2.8,2.8-4.5,3.8
				c-1.8,1-3.7,1.6-5.9,1.8c-0.3,0-0.6,0.1-0.9,0.1c-0.3,0-0.6,0-0.9,0c-1,0-2.1-0.1-3.2-0.3c-1.1-0.2-2.2-0.5-3.3-1
				c-1.1-0.4-2.1-1-3-1.7c-0.9-0.7-1.7-1.6-2.3-2.7c-0.9-1.4-1.4-3.1-1.4-5.1v-0.4c0-1.9,0.4-3.4,1.2-4.7
				C412.1,314.3,413.2,313.2,414.6,312.3z M429.5,315.7c-0.6-0.1-1.3-0.2-2.1-0.3c-0.8-0.1-1.6-0.1-2.4-0.1c-0.7,0-1.3,0-2,0.1
				c-0.6,0.1-1.2,0.2-1.7,0.4c-1.2,0.4-2.1,1-2.7,1.8c-0.2,0.3-0.4,0.6-0.6,1c-0.1,0.4-0.2,0.8-0.3,1.2c0,0.1-0.1,0.4-0.1,0.7
				c0,0.5,0.1,1,0.2,1.6c0.1,0.6,0.4,1.1,0.9,1.6c0.4,0.5,0.9,0.9,1.7,1.2c0.7,0.3,1.7,0.5,3,0.5c0.4,0,0.7,0,0.9-0.1
				c1.4,0,2.5-0.4,3.5-1.2c0.5-0.3,0.9-0.6,1.2-1.1c0.3-0.4,0.6-0.9,0.9-1.3c0.5-0.9,0.9-1.9,1.1-2.8c0.2-1,0.3-1.9,0.3-2.7
				c-0.1,0-0.1,0-0.1,0c0,0-0.1,0-0.1,0c-0.2-0.1-0.4-0.1-0.7-0.1C430.1,315.9,429.9,315.8,429.5,315.7z"/>
		</g>
	</g>
	<g>
		<g>
			<path class="st2" d="M203.7,358.8c0.1,0.2,0.1,0.4,0.2,0.5c0.1,0.2,0.1,0.3,0.2,0.5c0.1,0.2,0.1,0.3,0.2,0.5
				c-0.6,0.1-1.1,0.2-1.6,0.1c-0.4,0-0.9-0.2-1.3-0.4c-0.4-0.2-0.8-0.6-1-1.2c-0.1-0.3-0.3-0.8-0.6-1.5c-0.3-0.8-0.6-1.6-1.1-2.7
				h-7.9c-0.4,1-0.8,1.9-1.1,2.7c-0.3,0.8-0.5,1.3-0.6,1.5c-0.3,0.6-0.6,1-1,1.2c-0.4,0.2-0.8,0.3-1.3,0.4c-0.5,0.1-1,0-1.6-0.1
				c0.1-0.2,0.1-0.3,0.2-0.5c0.1-0.1,0.1-0.3,0.2-0.5c0.1-0.2,0.1-0.3,0.2-0.5c0.1-0.3,0.4-0.9,0.7-1.7c0.3-0.8,0.7-1.7,1.1-2.8
				c0.4-1.1,0.9-2.2,1.3-3.3c0.5-1.2,0.9-2.3,1.3-3.3c0.4-1.1,0.8-2,1.1-2.8c0.3-0.8,0.6-1.4,0.7-1.7c0.2-0.5,0.4-0.9,0.6-1.2
				c0.2-0.3,0.5-0.5,0.7-0.7c0.2-0.2,0.4-0.3,0.7-0.3c0.2,0,0.4-0.1,0.6-0.1c0.2,0,0.4,0,0.6,0.1c0.2,0,0.4,0.2,0.6,0.3
				c0.2,0.2,0.4,0.4,0.7,0.7c0.2,0.3,0.4,0.7,0.7,1.2c0.1,0.3,0.4,0.9,0.7,1.7c0.3,0.8,0.7,1.7,1.1,2.8c0.4,1.1,0.9,2.2,1.3,3.3
				c0.5,1.2,0.9,2.3,1.3,3.3c0.4,1.1,0.8,2,1.1,2.8C203.3,357.9,203.6,358.5,203.7,358.8z M197.7,351.9c-0.4-0.9-0.7-1.8-1.1-2.7
				c-0.4-0.9-0.7-1.7-0.9-2.4c-0.3-0.8-0.6-1.6-0.9-2.3c-0.3,0.7-0.6,1.5-0.9,2.3c-0.3,0.7-0.6,1.5-0.9,2.4
				c-0.3,0.9-0.7,1.8-1.1,2.7H197.7z"/>
			<path class="st2" d="M207.2,360c0.8-0.3,1.7-0.4,2.7-0.5c1-0.1,1.8-0.1,2.7,0.2c0.8,0.2,1.5,0.6,2,1.2c0.5,0.6,0.8,1.4,0.8,2.5
				c0,0.8-0.2,1.5-0.5,2.1c-0.3,0.5-0.7,1-1.3,1.4c-0.5,0.3-1.1,0.6-1.7,0.7c-0.6,0.1-1.1,0.2-1.6,0.2H210c-0.8,0-1.6-0.2-2.3-0.6
				c-0.7-0.3-1.3-0.8-1.9-1.4c-0.5-0.6-0.9-1.3-1.2-2.1c-0.3-0.8-0.5-1.7-0.5-2.7c0-0.1,0-0.1,0-0.2c0-0.1,0-0.1,0-0.2
				c0-1.1,0.2-2,0.6-2.9c0.4-0.8,0.9-1.6,1.6-2.1c-0.6-0.4-1.1-1-1.4-1.6c-0.3-0.6-0.5-1.3-0.5-2.1c0-0.7,0.1-1.3,0.4-1.9
				c0.3-0.6,0.7-1.1,1.2-1.5c0.5-0.4,1.1-0.8,1.8-1c0.7-0.2,1.4-0.4,2.2-0.4c0.9,0,1.6,0.1,2.3,0.4c0.7,0.3,1.3,0.6,1.8,1
				c1,0.9,1.6,2,1.6,3.4c0,0.6-0.1,1.3-0.4,1.9c-0.3,0.6-0.7,1.1-1.2,1.5c-0.5,0.4-1,0.8-1.7,1c-0.6,0.2-1.3,0.4-2,0.4v0H210
				c-0.6,0-1.1,0.1-1.5,0.3c-0.4,0.2-0.7,0.5-0.9,0.8c-0.2,0.3-0.3,0.7-0.4,1.1C207.2,359.5,207.2,359.8,207.2,360z M212.2,364.7
				c0.2-0.2,0.3-0.4,0.4-0.6c0.1-0.2,0.1-0.4,0.1-0.6c0-0.2,0-0.3,0-0.4c-0.1-0.3-0.2-0.5-0.3-0.7c-0.1-0.2-0.3-0.3-0.6-0.4
				c-0.2-0.1-0.5-0.2-0.8-0.2c-0.3,0-0.6-0.1-0.9-0.1c-0.3,0-0.6,0-0.9,0.1c-0.3,0-0.6,0.1-0.8,0.1c-0.3,0-0.5,0.1-0.7,0.2
				c-0.2,0.1-0.3,0.1-0.4,0.1c0,0.2,0.1,0.5,0.1,0.7c0.1,0.3,0.1,0.5,0.2,0.8c0.1,0.3,0.3,0.6,0.5,0.8c0.2,0.3,0.4,0.4,0.7,0.6
				c0.4,0.2,0.8,0.4,1.4,0.4s1-0.1,1.3-0.2C211.8,365,212,364.9,212.2,364.7z M209.9,349.5c-0.2,0-0.4,0-0.6,0.1
				c-0.2,0.1-0.5,0.2-0.7,0.4c-0.2,0.2-0.4,0.4-0.5,0.8c-0.1,0.3-0.2,0.7-0.2,1.3c0,0.5,0.1,0.9,0.2,1.3c0.1,0.3,0.3,0.6,0.5,0.7
				c0.2,0.2,0.4,0.3,0.7,0.4c0.2,0.1,0.4,0.1,0.6,0.1c0.2,0,0.4,0,0.6-0.1c0.2-0.1,0.5-0.2,0.7-0.4c0.2-0.2,0.4-0.4,0.5-0.7
				c0.1-0.3,0.2-0.7,0.2-1.3c0-0.5-0.1-0.9-0.2-1.3c-0.1-0.3-0.3-0.6-0.5-0.8c-0.2-0.2-0.4-0.3-0.7-0.4
				C210.3,349.5,210,349.5,209.9,349.5z"/>
			<path class="st2" d="M215.6,353.7c0-1.2,0.2-2.2,0.5-3c0.4-0.8,0.8-1.4,1.4-1.8c0.6-0.4,1.2-0.7,1.9-0.9c0.7-0.2,1.4-0.2,2.1-0.2
				h1.4c0.1,0.4,0.1,0.7,0.1,1.1c0,0.3-0.2,0.5-0.4,0.8c-0.2,0.3-0.6,0.4-1,0.5c-0.3,0-0.6,0.1-0.9,0.2c-0.3,0.1-0.6,0.3-0.8,0.5
				c-0.2,0.2-0.4,0.6-0.6,1.1c-0.2,0.5-0.2,1.1-0.2,1.9v4c0,0.6,0,1,0,1.3c0,0.3,0,0.6,0,0.8c0,0.2,0,0.4,0.1,0.5
				c-1.1,0-2-0.2-2.6-0.7c-0.6-0.5-0.9-1.3-0.9-2.4V353.7z"/>
			<path class="st2" d="M232.7,349.4c0.6,0.6,1,1.3,1.3,2.1c0.3,0.8,0.5,1.7,0.5,2.6s-0.1,1.8-0.4,2.6c-0.3,0.8-0.7,1.5-1.2,2.1
				c-0.5,0.6-1.2,1.1-2,1.4c-0.8,0.3-1.6,0.5-2.6,0.5c-0.8,0-1.6-0.2-2.4-0.5c-0.7-0.3-1.4-0.8-2-1.4c-0.6-0.6-1-1.3-1.3-2.1
				c-0.3-0.8-0.5-1.7-0.5-2.6s0.1-1.8,0.4-2.6c0.3-0.8,0.7-1.5,1.2-2.1c0.5-0.6,1.2-1.1,2-1.4c0.8-0.3,1.6-0.5,2.6-0.5
				c0.9,0,1.7,0.2,2.4,0.5C231.5,348.3,232.1,348.7,232.7,349.4z M228.3,358.3c0.2,0,0.5-0.1,0.8-0.2c0.3-0.1,0.6-0.3,0.9-0.6
				c0.3-0.3,0.5-0.7,0.7-1.3c0.2-0.6,0.3-1.3,0.3-2.2c0-0.9-0.1-1.6-0.3-2.2c-0.2-0.6-0.5-1-0.7-1.3s-0.6-0.5-0.9-0.6
				c-0.3-0.1-0.6-0.2-0.8-0.2c-0.2,0-0.5,0.1-0.8,0.2c-0.3,0.1-0.6,0.3-0.9,0.6c-0.3,0.3-0.5,0.7-0.7,1.3c-0.2,0.6-0.3,1.3-0.3,2.2
				c0,0.9,0.1,1.6,0.3,2.2c0.2,0.6,0.5,1,0.7,1.3c0.3,0.3,0.6,0.5,0.9,0.6S228.1,358.3,228.3,358.3z"/>
			<path class="st2" d="M235.2,353.4c0-1.2,0.2-2.2,0.5-3c0.4-0.8,0.8-1.4,1.4-1.8c0.6-0.4,1.2-0.7,1.9-0.9c0.7-0.2,1.4-0.2,2.1-0.2
				c0.7,0,1.4,0.1,2.1,0.2c0.7,0.2,1.4,0.5,2,0.9c0.6,0.4,1.1,1.1,1.4,1.8c0.4,0.8,0.5,1.8,0.5,3l0.1,7c-1.1,0-2-0.2-2.6-0.7
				c-0.6-0.5-0.9-1.3-0.9-2.4l0-3.9c0-0.8-0.1-1.4-0.2-1.9c-0.2-0.5-0.4-0.8-0.6-1.1c-0.3-0.3-0.5-0.4-0.9-0.5
				c-0.3-0.1-0.6-0.1-0.9-0.1c-0.3,0-0.6,0-0.9,0.1c-0.3,0.1-0.6,0.3-0.8,0.5c-0.2,0.3-0.5,0.6-0.6,1.1c-0.2,0.5-0.2,1.1-0.2,1.9
				v4.3c0,0.6,0,1,0,1.4c0,0.4,0,0.6,0,0.8c0,0.2,0,0.4,0.1,0.5c-1.1,0-2-0.2-2.6-0.7c-0.6-0.5-0.9-1.3-0.9-2.4L235.2,353.4z"/>
			<path class="st2" d="M258.5,357.7c0.2,0.1,0.4,0.3,0.6,0.7l0.1,0.1l-0.1,0.1c-0.6,0.7-1.3,1.2-2.2,1.6c-0.8,0.4-1.7,0.6-2.7,0.6
				c-0.8,0-1.6-0.2-2.4-0.5c-0.7-0.3-1.4-0.8-2-1.4c-0.6-0.6-1-1.3-1.3-2.1c-0.3-0.8-0.5-1.7-0.5-2.6s0.1-1.8,0.4-2.6
				c0.3-0.8,0.7-1.5,1.2-2.1c0.5-0.6,1.2-1.1,2-1.4c0.8-0.3,1.6-0.5,2.6-0.5c0.5,0,1.1,0.1,1.7,0.2c0.6,0.2,1.2,0.4,1.7,0.7
				c0.5,0.3,1,0.8,1.3,1.3c0.4,0.6,0.5,1.2,0.5,2c0,0.8-0.2,1.4-0.6,1.8c-0.4,0.5-0.8,0.8-1.4,1.1c-0.5,0.3-1.1,0.5-1.7,0.6
				c-0.6,0.1-1.1,0.2-1.6,0.2c-0.7,0-1.3,0-1.8-0.1c-0.5-0.1-0.9-0.1-1-0.2c0.1,0.7,0.2,1.2,0.4,1.6c0.2,0.4,0.5,0.7,0.7,1
				c0.3,0.2,0.6,0.4,0.8,0.5c0.3,0.1,0.5,0.1,0.7,0.1c0.4,0,0.8,0,1.1-0.1c0.4-0.1,0.7-0.2,0.9-0.2c0.3-0.1,0.5-0.2,0.8-0.3
				c0.3-0.1,0.5-0.1,0.7-0.1C258.1,357.5,258.3,357.6,258.5,357.7z M254.2,349.7c-0.2,0-0.4,0.1-0.7,0.2c-0.3,0.1-0.5,0.2-0.8,0.5
				c-0.3,0.2-0.5,0.5-0.7,0.9c-0.2,0.4-0.4,0.9-0.5,1.5c0.3,0.1,0.7,0.2,1.3,0.3c0.5,0.1,1.1,0.1,1.6,0c0.5-0.1,1-0.2,1.4-0.5
				c0.4-0.3,0.6-0.7,0.7-1.3c0-0.5-0.1-0.9-0.5-1.2S255,349.7,254.2,349.7z"/>
			<path class="st2" d="M262.8,360c0.8-0.3,1.7-0.4,2.7-0.5c1-0.1,1.8-0.1,2.7,0.2c0.8,0.2,1.5,0.6,2,1.2c0.5,0.6,0.8,1.4,0.8,2.5
				c0,0.8-0.2,1.5-0.5,2.1c-0.3,0.5-0.7,1-1.3,1.4c-0.5,0.3-1.1,0.6-1.7,0.7c-0.6,0.1-1.1,0.2-1.6,0.2h-0.2c-0.8,0-1.6-0.2-2.3-0.6
				c-0.7-0.3-1.3-0.8-1.9-1.4c-0.5-0.6-0.9-1.3-1.2-2.1c-0.3-0.8-0.5-1.7-0.5-2.7c0-0.1,0-0.1,0-0.2c0-0.1,0-0.1,0-0.2
				c0-1.1,0.2-2,0.6-2.9c0.4-0.8,0.9-1.6,1.6-2.1c-0.6-0.4-1.1-1-1.4-1.6c-0.3-0.6-0.5-1.3-0.5-2.1c0-0.7,0.1-1.3,0.4-1.9
				c0.3-0.6,0.7-1.1,1.2-1.5c0.5-0.4,1.1-0.8,1.8-1c0.7-0.2,1.4-0.4,2.2-0.4c0.9,0,1.6,0.1,2.3,0.4c0.7,0.3,1.3,0.6,1.8,1
				c1,0.9,1.6,2,1.6,3.4c0,0.6-0.1,1.3-0.4,1.9c-0.3,0.6-0.7,1.1-1.2,1.5c-0.5,0.4-1,0.8-1.7,1c-0.6,0.2-1.3,0.4-2,0.4v0h-0.2
				c-0.6,0-1.1,0.1-1.5,0.3c-0.4,0.2-0.7,0.5-0.9,0.8c-0.2,0.3-0.3,0.7-0.4,1.1C262.8,359.5,262.8,359.8,262.8,360z M267.8,364.7
				c0.2-0.2,0.3-0.4,0.4-0.6c0.1-0.2,0.1-0.4,0.1-0.6c0-0.2,0-0.3,0-0.4c-0.1-0.3-0.2-0.5-0.3-0.7c-0.1-0.2-0.3-0.3-0.6-0.4
				c-0.2-0.1-0.5-0.2-0.8-0.2c-0.3,0-0.6-0.1-0.9-0.1c-0.3,0-0.6,0-0.9,0.1c-0.3,0-0.6,0.1-0.8,0.1c-0.3,0-0.5,0.1-0.7,0.2
				c-0.2,0.1-0.3,0.1-0.4,0.1c0,0.2,0.1,0.5,0.1,0.7c0.1,0.3,0.1,0.5,0.2,0.8c0.1,0.3,0.3,0.6,0.5,0.8c0.2,0.3,0.4,0.4,0.7,0.6
				c0.4,0.2,0.8,0.4,1.4,0.4s1-0.1,1.3-0.2C267.4,365,267.6,364.9,267.8,364.7z M265.4,349.5c-0.2,0-0.4,0-0.6,0.1
				c-0.2,0.1-0.5,0.2-0.7,0.4c-0.2,0.2-0.4,0.4-0.5,0.8c-0.1,0.3-0.2,0.7-0.2,1.3c0,0.5,0.1,0.9,0.2,1.3c0.1,0.3,0.3,0.6,0.5,0.7
				c0.2,0.2,0.4,0.3,0.7,0.4c0.2,0.1,0.4,0.1,0.6,0.1c0.2,0,0.4,0,0.6-0.1c0.2-0.1,0.5-0.2,0.7-0.4c0.2-0.2,0.4-0.4,0.5-0.7
				c0.1-0.3,0.2-0.7,0.2-1.3c0-0.5-0.1-0.9-0.2-1.3c-0.1-0.3-0.3-0.6-0.5-0.8c-0.2-0.2-0.4-0.3-0.7-0.4
				C265.8,349.5,265.6,349.5,265.4,349.5z"/>
			<path class="st2" d="M281.8,349.4c0.6,0.6,1,1.3,1.3,2.1c0.3,0.8,0.5,1.7,0.5,2.6s-0.1,1.8-0.4,2.6c-0.3,0.8-0.7,1.5-1.2,2.1
				c-0.5,0.6-1.2,1.1-2,1.4c-0.8,0.3-1.6,0.5-2.6,0.5c-0.8,0-1.6-0.2-2.4-0.5c-0.7-0.3-1.4-0.8-2-1.4c-0.6-0.6-1-1.3-1.3-2.1
				c-0.3-0.8-0.5-1.7-0.5-2.6s0.1-1.8,0.4-2.6c0.3-0.8,0.7-1.5,1.2-2.1c0.5-0.6,1.2-1.1,2-1.4c0.8-0.3,1.6-0.5,2.6-0.5
				c0.9,0,1.7,0.2,2.4,0.5C280.6,348.3,281.2,348.7,281.8,349.4z M277.4,358.3c0.2,0,0.5-0.1,0.8-0.2c0.3-0.1,0.6-0.3,0.9-0.6
				c0.3-0.3,0.5-0.7,0.7-1.3c0.2-0.6,0.3-1.3,0.3-2.2c0-0.9-0.1-1.6-0.3-2.2c-0.2-0.6-0.5-1-0.7-1.3s-0.6-0.5-0.9-0.6
				c-0.3-0.1-0.6-0.2-0.8-0.2c-0.2,0-0.5,0.1-0.8,0.2c-0.3,0.1-0.6,0.3-0.9,0.6s-0.5,0.7-0.7,1.3c-0.2,0.6-0.3,1.3-0.3,2.2
				c0,0.9,0.1,1.6,0.3,2.2c0.2,0.6,0.5,1,0.7,1.3c0.3,0.3,0.6,0.5,0.9,0.6S277.2,358.3,277.4,358.3z"/>
			<path class="st2" d="M290.3,349.7c-0.2,0-0.5,0.1-0.8,0.2c-0.3,0.1-0.6,0.3-0.9,0.6s-0.5,0.7-0.7,1.3c-0.2,0.6-0.3,1.3-0.3,2.2
				c0,0.9,0.1,1.6,0.3,2.2c0.2,0.6,0.5,1,0.7,1.3s0.6,0.5,0.9,0.6c0.3,0.1,0.6,0.2,0.8,0.2c0.4,0,0.8,0,1.1-0.1s0.7-0.2,0.9-0.2
				c0.3-0.1,0.5-0.2,0.8-0.3c0.3-0.1,0.5-0.1,0.7-0.1s0.5,0.1,0.7,0.2c0.2,0.1,0.4,0.3,0.6,0.6l0.1,0.1l-0.1,0.1
				c-0.6,0.7-1.3,1.2-2.2,1.6c-0.8,0.4-1.7,0.6-2.7,0.6c-0.9,0-1.7-0.2-2.4-0.5c-0.7-0.4-1.4-0.8-2-1.4c-0.6-0.6-1-1.3-1.3-2.1
				c-0.3-0.8-0.5-1.7-0.5-2.6s0.1-1.8,0.4-2.6c0.3-0.8,0.7-1.5,1.2-2.1c0.5-0.6,1.2-1.1,1.9-1.4c0.8-0.3,1.6-0.5,2.5-0.5
				c1,0,1.9,0.2,2.7,0.6c0.8,0.4,1.6,0.9,2.2,1.6l0.1,0.1l-0.1,0.1c-0.2,0.3-0.4,0.5-0.6,0.6c-0.2,0.1-0.5,0.2-0.7,0.2
				c-0.2,0-0.5,0-0.7-0.1c-0.2-0.1-0.5-0.2-0.8-0.3c-0.3-0.1-0.6-0.2-0.9-0.3C291.1,349.8,290.7,349.7,290.3,349.7z"/>
			<path class="st2" d="M299.3,343.6c-0.4,0.6-0.9,1-1.6,1c-0.3,0-0.6-0.1-0.8-0.2c-0.3-0.2-0.5-0.4-0.6-0.6
				c-0.1-0.3-0.2-0.6-0.2-0.9c0-0.4,0.1-0.7,0.2-0.9c0.2-0.3,0.4-0.6,0.7-0.7c0.3-0.2,0.6-0.3,0.9-0.3c0.3,0,0.5,0.1,0.8,0.2
				c0.3,0.1,0.5,0.4,0.7,0.6c0.1,0.3,0.2,0.6,0.2,0.9C299.5,343,299.5,343.3,299.3,343.6z M301.4,357.9c-0.1,0.1-0.2,0.2-0.5,0.3
				c-0.2,0.1-0.4,0.1-0.7,0.1c-0.2,0-0.4-0.2-0.6-0.3c-0.2-0.2-0.3-0.5-0.3-1v-6.6c0-0.6,0-1,0-1.3c0-0.3,0-0.6,0-0.8
				c0-0.2,0-0.4,0.1-0.5c-1.1,0-2,0.2-2.6,0.7c-0.6,0.5-0.9,1.3-0.9,2.4l0,6.5c0,0.5,0.1,0.9,0.2,1.3c0.1,0.4,0.4,0.8,0.6,1.1
				c0.3,0.3,0.6,0.6,1.1,0.7c0.4,0.2,0.9,0.2,1.5,0.2c0.6,0,1-0.2,1.3-0.5c0.3-0.3,0.5-0.6,0.6-1
				C301.4,358.8,301.5,358.4,301.4,357.9z"/>
			<path class="st2" d="M311.9,349.4c0.6,0.6,1,1.3,1.3,2.1c0.3,0.8,0.5,1.7,0.5,2.6s-0.1,1.8-0.4,2.6c-0.3,0.8-0.7,1.5-1.2,2.1
				c-0.5,0.6-1.2,1.1-2,1.4c-0.8,0.3-1.6,0.5-2.6,0.5c-0.8,0-1.6-0.2-2.4-0.5c-0.7-0.3-1.4-0.8-2-1.4c-0.6-0.6-1-1.3-1.3-2.1
				c-0.3-0.8-0.5-1.7-0.5-2.6s0.1-1.8,0.4-2.6c0.3-0.8,0.7-1.5,1.2-2.1c0.5-0.6,1.2-1.1,2-1.4c0.8-0.3,1.6-0.5,2.6-0.5
				c0.9,0,1.7,0.2,2.4,0.5C310.7,348.3,311.3,348.7,311.9,349.4z M307.5,358.3c0.2,0,0.5-0.1,0.8-0.2c0.3-0.1,0.6-0.3,0.9-0.6
				c0.3-0.3,0.5-0.7,0.7-1.3c0.2-0.6,0.3-1.3,0.3-2.2c0-0.9-0.1-1.6-0.3-2.2c-0.2-0.6-0.5-1-0.7-1.3s-0.6-0.5-0.9-0.6
				c-0.3-0.1-0.6-0.2-0.8-0.2c-0.2,0-0.5,0.1-0.8,0.2c-0.3,0.1-0.6,0.3-0.9,0.6s-0.5,0.7-0.7,1.3c-0.2,0.6-0.3,1.3-0.3,2.2
				c0,0.9,0.1,1.6,0.3,2.2c0.2,0.6,0.5,1,0.7,1.3c0.3,0.3,0.6,0.5,0.9,0.6S307.3,358.3,307.5,358.3z"/>
			<path class="st2" d="M320.8,357.1c0-0.3-0.1-0.6-0.3-0.8c-0.2-0.2-0.5-0.4-0.9-0.6s-0.9-0.4-1.4-0.6c-0.5-0.2-1.1-0.5-1.7-0.9
				c-0.4-0.3-0.8-0.6-1.1-0.9c-0.3-0.4-0.5-0.7-0.6-1.2c-0.1-0.4-0.2-0.8-0.2-1.3c0-0.4,0.1-0.9,0.3-1.3c0.2-0.4,0.4-0.7,0.7-1
				c0.3-0.3,0.6-0.5,1-0.7c0.4-0.2,0.7-0.3,1.1-0.4c0.4-0.1,0.7-0.1,1-0.1h0.3c1,0.1,1.9,0.3,2.7,0.7c0.8,0.4,1.5,1,2.1,1.7l0.1,0.1
				l-0.1,0.1c-0.2,0.3-0.4,0.5-0.6,0.6c-0.2,0.1-0.4,0.2-0.7,0.2c-0.3,0-0.5-0.1-0.7-0.2c-0.2-0.1-0.5-0.2-0.8-0.3
				c-0.4-0.1-0.7-0.3-1-0.4c-0.3-0.1-0.6-0.2-0.9-0.2c-0.4,0-0.7,0.1-0.9,0.3c-0.2,0.2-0.3,0.4-0.4,0.6c0,0.4,0.1,0.6,0.3,0.9
				c0.3,0.2,0.6,0.4,1.1,0.7c0.6,0.2,1.2,0.5,1.8,0.8c0.6,0.3,1.2,0.6,1.7,1.1c0.5,0.4,0.9,0.9,1.1,1.5c0.3,0.6,0.3,1.3,0.1,2.1
				c-0.1,0.3-0.2,0.7-0.5,1s-0.5,0.7-0.9,1c-0.4,0.3-0.9,0.5-1.4,0.7c-0.6,0.2-1.2,0.3-2,0.3c-0.1,0-0.3,0-0.4,0
				c-0.9,0-1.8-0.3-2.6-0.7c-0.9-0.4-1.6-1-2.1-1.7l-0.1-0.1l0.1-0.1c0.1-0.1,0.2-0.3,0.3-0.4c0.1-0.1,0.2-0.2,0.3-0.2
				c0.2-0.1,0.4-0.2,0.7-0.2c0.3,0,0.5,0.1,0.7,0.2c0.2,0.1,0.5,0.2,0.8,0.3c0.3,0.1,0.5,0.2,0.9,0.3s0.7,0.2,1.1,0.2
				c0.7,0,1.1-0.1,1.4-0.4C320.7,357.7,320.8,357.4,320.8,357.1z"/>
		</g>
	</g>
</g>
</svg>
