<?xml version="1.0" encoding="utf-8"?>
<!-- Generator: Adobe Illustrator 22.1.0, SVG Export Plug-In . SVG Version: 6.00 Build 0)  -->
<svg version="1.1" id="Layer_1" xmlns="http://www.w3.org/2000/svg" xmlns:xlink="http://www.w3.org/1999/xlink" x="0px" y="0px"
	 viewBox="0 0 709.8 424.4" style="enable-background:new 0 0 709.8 424.4;" xml:space="preserve">
<style type="text/css">
	.st0{fill:#757474;}
	.st1{fill:#FFFFFF;}
	.st2{font-family:'Montserrat-Medium';}
	.st3{font-size:13.9213px;}
	.st4{fill:#005321;}
	.st5{fill:#52AE32;}
	.st6{fill:#DCDCDC;}
	.st7{fill:#F9B041;}
	.st8{fill:#21386C;}
	.st9{fill:#144F9F;}
	.st10{fill:#F49523;}
	.st11{fill:none;stroke:#52AE32;stroke-miterlimit:10;}
	.st12{fill:none;stroke:#52AE32;stroke-miterlimit:10;stroke-dasharray:4.9052,4.9052;}
	.st13{fill:#E30613;}
	.st14{fill:#B2B2B2;}
	.st15{fill:#FFCC00;}
	.st16{fill:#9B9B9A;}
	.st17{font-size:8.408px;}
	.st18{font-family:'Montserrat-Bold';}
	.st19{fill:#706F6F;stroke:#706F6F;stroke-width:0.25;stroke-miterlimit:10;}
	.st20{fill:#4E4D4D;}
	.st21{fill:#706F6F;}
	.st22{letter-spacing:52;}
	.st23{letter-spacing:66;}
	.st24{letter-spacing:64;}
	.st25{letter-spacing:22;}
	.st26{font-size:6.4081px;}
	.st27{letter-spacing:49;}
	.st28{letter-spacing:50;}
	.st29{letter-spacing:23;}
	.st30{letter-spacing:16;}
	.st31{letter-spacing:83;}
	.st32{fill:#FFED00;}
	.st33{fill:#E41513;}
	.st34{fill:#5AB031;}
	.st35{font-size:13.4098px;}
</style>
<path class="st0" d="M524.8,78.6H262.2c-5.1,0-9.3-4.2-9.3-9.3v-25c0-5.1,4.2-9.3,9.3-9.3h262.6c5.1,0,9.3,4.2,9.3,9.3v25
	C534,74.5,529.9,78.6,524.8,78.6z"/>
<g>
	<text transform="matrix(1 0 0 1 342.1888 68.9193)" class="st1 st2 st3">Negocios Cerrados</text>
</g>
<g>
	<path class="st1" d="M325.4,74.8c-6.1,0-11-5-11-11c0-6.1,5-11,11-11c6.1,0,11,5,11,11C336.4,69.8,331.4,74.8,325.4,74.8z"/>
</g>
<rect class="st4" width="130.9" height="48.4"/>
<rect x="130.9" class="st5" width="578.8" height="48.4"/>
<g>
	<path class="st1" d="M23.5,24.2c-0.8,0-1.5-0.1-2.1-0.3c-0.6-0.2-1.1-0.6-1.6-1c-0.4-0.5-0.8-1.1-1-1.8c-0.2-0.7-0.4-1.6-0.4-2.7
		v-3.7c0-0.8,0.1-1.4,0.4-1.9c0.2-0.4,0.6-0.8,1.1-0.9c0.3-0.1,0.6-0.2,1-0.2c0.2,0,0.5-0.1,0.8-0.1c0.3,0,0.6,0,0.8,0
		c0.6,0,1.2,0.1,1.6,0.3c0.5,0.2,0.8,0.4,1.1,0.7c0.3,0.3,0.5,0.6,0.7,1c0.1,0.4,0.2,0.8,0.2,1.2c0,0.4-0.1,0.7-0.2,1.1
		c-0.1,0.3-0.3,0.6-0.6,0.9c0.4,0.1,0.7,0.3,1,0.5c0.3,0.2,0.6,0.5,0.8,0.8c0.2,0.3,0.4,0.7,0.5,1c0.1,0.4,0.2,0.8,0.2,1.3
		c0,0.5-0.1,1.1-0.3,1.5c-0.2,0.5-0.5,0.9-0.9,1.3c-0.4,0.4-0.8,0.7-1.4,0.9C24.8,24,24.2,24.2,23.5,24.2z M23.5,22.4
		c0.4,0,0.7-0.1,1-0.2c0.3-0.1,0.5-0.3,0.7-0.5c0.2-0.2,0.3-0.5,0.4-0.7c0.1-0.3,0.1-0.6,0.1-0.9c0-0.5-0.1-1-0.3-1.3
		c-0.2-0.3-0.4-0.6-0.7-0.8c-0.3-0.2-0.6-0.3-0.9-0.4c-0.3-0.1-0.7-0.1-1-0.1c-0.3,0-0.6,0-0.8,0c-0.3,0-0.5,0-0.7,0
		c-0.2,0-0.4,0-0.6,0v0.8c0,0.8,0,1.5,0.1,2c0.1,0.5,0.3,0.9,0.6,1.3c0.2,0.3,0.6,0.5,0.9,0.7C22.7,22.3,23.1,22.4,23.5,22.4z
		 M20.7,16h1.5c0.6,0,1.1-0.1,1.5-0.4c0.4-0.2,0.5-0.6,0.5-1.2c0-0.3,0-0.5-0.2-0.7c-0.1-0.2-0.2-0.4-0.4-0.5
		c-0.2-0.1-0.3-0.2-0.5-0.3c-0.2-0.1-0.4-0.1-0.6-0.1c-0.1,0-0.3,0-0.5,0c-0.2,0-0.4,0-0.6,0.1c-0.2,0.1-0.4,0.1-0.5,0.3
		c-0.1,0.1-0.2,0.3-0.2,0.5V16z"/>
	<path class="st1" d="M36.1,20.3c0,0.8-0.1,1.4-0.4,1.9c-0.2,0.5-0.5,0.9-0.9,1.2c-0.4,0.3-0.8,0.5-1.3,0.6
		c-0.5,0.1-0.9,0.2-1.4,0.2c-0.5,0-0.9-0.1-1.4-0.2c-0.5-0.1-0.9-0.3-1.3-0.6c-0.4-0.3-0.7-0.7-0.9-1.2c-0.2-0.5-0.3-1.2-0.3-1.9
		l0-2.5c0-0.7,0.2-1.2,0.6-1.5c0.4-0.3,0.9-0.5,1.7-0.5c0,0.1,0,0.2,0,0.3c0,0.1,0,0.3,0,0.5c0,0.2,0,0.5,0,0.9l0,2.8
		c0,0.5,0,0.9,0.1,1.2c0.1,0.3,0.2,0.5,0.4,0.7c0.2,0.2,0.3,0.3,0.5,0.3c0.2,0.1,0.4,0.1,0.6,0.1c0.2,0,0.4,0,0.6-0.1
		c0.2-0.1,0.4-0.2,0.5-0.3c0.2-0.2,0.3-0.4,0.4-0.7c0.1-0.3,0.1-0.7,0.1-1.2l0-2.5c0-0.7,0.2-1.2,0.6-1.5c0.4-0.3,1-0.5,1.7-0.5
		c0,0.1,0,0.2,0,0.3c0,0.1,0,0.3,0,0.5c0,0.2,0,0.5,0,0.9L36.1,20.3z"/>
	<path class="st1" d="M43.3,22.2c0.1,0.1,0.3,0.2,0.4,0.4l0.1,0.1l-0.1,0.1c-0.4,0.4-0.9,0.8-1.4,1c-0.5,0.2-1.1,0.4-1.8,0.4
		c-0.5,0-1.1-0.1-1.5-0.3c-0.5-0.2-0.9-0.5-1.3-0.9c-0.4-0.4-0.6-0.8-0.8-1.3c-0.2-0.5-0.3-1.1-0.3-1.7c0-0.6,0.1-1.2,0.3-1.7
		c0.2-0.5,0.4-1,0.8-1.4c0.3-0.4,0.8-0.7,1.3-0.9c0.5-0.2,1-0.3,1.7-0.3c0.3,0,0.7,0,1.1,0.2c0.4,0.1,0.8,0.3,1.1,0.5
		c0.3,0.2,0.6,0.5,0.9,0.9c0.2,0.4,0.3,0.8,0.3,1.3c0,0.5-0.1,0.9-0.4,1.2c-0.2,0.3-0.5,0.5-0.9,0.7c-0.3,0.2-0.7,0.3-1.1,0.4
		c-0.4,0.1-0.7,0.1-1,0.1c-0.4,0-0.8,0-1.2-0.1c-0.3-0.1-0.6-0.1-0.7-0.1c0,0.4,0.1,0.8,0.3,1c0.1,0.3,0.3,0.5,0.5,0.6
		c0.2,0.2,0.4,0.3,0.5,0.3c0.2,0.1,0.3,0.1,0.5,0.1c0.2,0,0.5,0,0.7-0.1c0.2,0,0.4-0.1,0.6-0.2c0.2-0.1,0.3-0.1,0.5-0.2
		c0.2-0.1,0.3-0.1,0.5-0.1C43,22.1,43.2,22.1,43.3,22.2z M40.6,17.1c-0.1,0-0.3,0-0.5,0.1c-0.2,0.1-0.4,0.2-0.5,0.3
		c-0.2,0.1-0.3,0.3-0.5,0.6c-0.1,0.3-0.2,0.6-0.3,1c0.2,0.1,0.5,0.1,0.8,0.2c0.4,0.1,0.7,0.1,1.1,0c0.4,0,0.7-0.1,0.9-0.3
		c0.3-0.2,0.4-0.4,0.4-0.8c0-0.3-0.1-0.6-0.3-0.8C41.4,17.2,41.1,17.1,40.6,17.1z"/>
	<path class="st1" d="M44.5,19.5c0-0.8,0.1-1.5,0.3-2c0.2-0.5,0.5-0.9,0.9-1.2c0.4-0.3,0.8-0.5,1.2-0.6c0.5-0.1,0.9-0.2,1.4-0.2
		c0.5,0,0.9,0,1.4,0.2c0.5,0.1,0.9,0.3,1.3,0.6c0.4,0.3,0.7,0.7,0.9,1.2c0.2,0.5,0.3,1.2,0.3,2l0.1,4.5c-0.7,0-1.3-0.2-1.7-0.5
		C50.2,23.2,50,22.7,50,22l0-2.5c0-0.5,0-0.9-0.2-1.2c-0.1-0.3-0.2-0.5-0.4-0.7c-0.2-0.2-0.4-0.3-0.6-0.3c-0.2-0.1-0.4-0.1-0.6-0.1
		c-0.2,0-0.4,0-0.6,0.1c-0.2,0.1-0.4,0.2-0.5,0.3c-0.2,0.2-0.3,0.4-0.4,0.7c-0.1,0.3-0.2,0.7-0.2,1.2v2.8c0,0.4,0,0.6,0,0.9
		c0,0.2,0,0.4,0,0.5c0,0.1,0,0.2,0,0.3c-0.7,0-1.3-0.2-1.7-0.5c-0.4-0.3-0.6-0.8-0.6-1.5L44.5,19.5z"/>
	<path class="st1" d="M53.8,19.4c0.3-0.2,0.7-0.4,1.1-0.5c0.4-0.1,0.8-0.2,1.3-0.2c0.6,0,1.2,0.1,1.8,0.3c0-0.4-0.1-0.7-0.2-1
		c-0.2-0.4-0.4-0.6-0.7-0.8c-0.1-0.1-0.2-0.1-0.4-0.1c-0.1,0-0.3,0-0.5,0h-0.2c-0.2,0-0.3,0-0.5,0.1c-0.2,0-0.3,0.1-0.5,0.2
		c-0.2,0.1-0.3,0.1-0.5,0.2c-0.2,0-0.3,0.1-0.5,0.1c-0.2,0-0.3,0-0.5-0.1c-0.1-0.1-0.3-0.2-0.4-0.4l0-0.1l0-0.1
		c0.4-0.4,0.8-0.7,1.3-0.9c0.5-0.2,1-0.4,1.6-0.4c0.1,0,0.1,0,0.2,0c0,0,0.1,0,0.2,0c0.5,0,1,0.1,1.5,0.3c0.5,0.2,0.8,0.5,1.2,0.8
		c0.7,0.7,1,1.7,1.1,2.9v0.1c0,1.2-0.3,2.2-0.9,3c-0.3,0.4-0.7,0.7-1.1,0.9c-0.4,0.2-0.9,0.4-1.5,0.4c-0.1,0-0.1,0-0.2,0
		c-0.1,0-0.1,0-0.2,0c-0.3,0-0.5,0-0.8-0.1c-0.3,0-0.5-0.1-0.8-0.2c-0.3-0.1-0.5-0.2-0.8-0.4c-0.2-0.2-0.4-0.4-0.6-0.7
		c-0.2-0.3-0.3-0.8-0.4-1.3v-0.1c0-0.5,0.1-0.9,0.3-1.2C53.2,19.9,53.5,19.6,53.8,19.4z M57.5,20.3c-0.2,0-0.3,0-0.5-0.1
		c-0.2,0-0.4,0-0.6,0c-0.2,0-0.3,0-0.5,0c-0.2,0-0.3,0.1-0.4,0.1c-0.3,0.1-0.5,0.2-0.7,0.4c-0.1,0.1-0.1,0.2-0.1,0.2
		c0,0.1-0.1,0.2-0.1,0.3c0,0,0,0.1,0,0.2c0,0.1,0,0.2,0.1,0.4c0,0.1,0.1,0.3,0.2,0.4c0.1,0.1,0.2,0.2,0.4,0.3
		c0.2,0.1,0.4,0.1,0.7,0.1c0.1,0,0.2,0,0.2,0c0.3,0,0.6-0.1,0.9-0.3c0.1-0.1,0.2-0.2,0.3-0.3c0.1-0.1,0.2-0.2,0.2-0.3
		c0.1-0.2,0.2-0.5,0.3-0.7c0-0.2,0.1-0.5,0.1-0.7c0,0,0,0,0,0c0,0,0,0,0,0c0,0-0.1,0-0.2,0C57.7,20.3,57.6,20.3,57.5,20.3z"/>
	<path class="st1" d="M70.4,11.5c-0.7,1.9-1.4,3.6-2,5.2c-0.3,0.7-0.5,1.4-0.8,2c-0.3,0.7-0.5,1.3-0.8,1.9c-0.2,0.6-0.4,1.1-0.6,1.5
		c-0.2,0.4-0.3,0.7-0.4,0.9c-0.2,0.4-0.4,0.6-0.7,0.8c-0.3,0.1-0.5,0.2-0.8,0.2c-0.3,0-0.6,0-0.9-0.1l-5-12.4c0.3,0,0.6-0.1,0.9-0.1
		c0.3,0,0.6,0.1,0.8,0.1c0.2,0.1,0.5,0.2,0.7,0.4c0.2,0.2,0.4,0.4,0.5,0.7c0,0,0.1,0.2,0.2,0.5c0.1,0.3,0.2,0.6,0.4,1
		c0.2,0.4,0.3,0.8,0.5,1.3c0.2,0.5,0.4,1,0.6,1.4c0.4,1.2,0.9,2.4,1.5,3.9c0.5-1.4,1-2.7,1.5-3.9c0.2-0.5,0.4-1,0.6-1.4
		c0.2-0.5,0.3-0.9,0.5-1.3c0.1-0.4,0.3-0.7,0.4-1c0.1-0.3,0.2-0.4,0.2-0.5c0.1-0.3,0.3-0.6,0.5-0.7c0.2-0.2,0.4-0.3,0.7-0.4
		c0.3-0.1,0.5-0.1,0.8-0.1C69.8,11.5,70.1,11.5,70.4,11.5z"/>
	<path class="st1" d="M75,22.2c0.1,0.1,0.3,0.2,0.4,0.4l0.1,0.1l-0.1,0.1c-0.4,0.4-0.9,0.8-1.4,1c-0.5,0.2-1.1,0.4-1.8,0.4
		c-0.5,0-1.1-0.1-1.5-0.3c-0.5-0.2-0.9-0.5-1.3-0.9c-0.4-0.4-0.6-0.8-0.8-1.3c-0.2-0.5-0.3-1.1-0.3-1.7c0-0.6,0.1-1.2,0.3-1.7
		c0.2-0.5,0.4-1,0.8-1.4c0.3-0.4,0.8-0.7,1.3-0.9c0.5-0.2,1-0.3,1.7-0.3c0.3,0,0.7,0,1.1,0.2c0.4,0.1,0.8,0.3,1.1,0.5
		c0.3,0.2,0.6,0.5,0.9,0.9c0.2,0.4,0.3,0.8,0.3,1.3c0,0.5-0.1,0.9-0.4,1.2c-0.2,0.3-0.5,0.5-0.9,0.7c-0.3,0.2-0.7,0.3-1.1,0.4
		c-0.4,0.1-0.7,0.1-1,0.1c-0.4,0-0.8,0-1.2-0.1c-0.3-0.1-0.6-0.1-0.7-0.1c0,0.4,0.1,0.8,0.3,1c0.1,0.3,0.3,0.5,0.5,0.6
		c0.2,0.2,0.4,0.3,0.5,0.3c0.2,0.1,0.3,0.1,0.5,0.1c0.2,0,0.5,0,0.7-0.1c0.2,0,0.4-0.1,0.6-0.2c0.2-0.1,0.3-0.1,0.5-0.2
		c0.2-0.1,0.3-0.1,0.5-0.1C74.7,22.1,74.9,22.1,75,22.2z M72.3,17.1c-0.1,0-0.3,0-0.5,0.1c-0.2,0.1-0.4,0.2-0.5,0.3
		c-0.2,0.1-0.3,0.3-0.5,0.6c-0.1,0.3-0.2,0.6-0.3,1c0.2,0.1,0.5,0.1,0.8,0.2c0.4,0.1,0.7,0.1,1.1,0c0.4,0,0.7-0.1,0.9-0.3
		c0.3-0.2,0.4-0.4,0.4-0.8c0-0.3-0.1-0.6-0.3-0.8C73.1,17.2,72.8,17.1,72.3,17.1z"/>
	<path class="st1" d="M76.2,19.5c0-0.8,0.1-1.5,0.3-2c0.2-0.5,0.5-0.9,0.9-1.2c0.4-0.3,0.8-0.5,1.2-0.6c0.5-0.1,0.9-0.2,1.4-0.2
		c0.5,0,0.9,0,1.4,0.2c0.5,0.1,0.9,0.3,1.3,0.6c0.4,0.3,0.7,0.7,0.9,1.2c0.2,0.5,0.3,1.2,0.3,2L84,24c-0.7,0-1.3-0.2-1.7-0.5
		c-0.4-0.3-0.6-0.8-0.6-1.5l0-2.5c0-0.5,0-0.9-0.2-1.2c-0.1-0.3-0.2-0.5-0.4-0.7c-0.2-0.2-0.4-0.3-0.6-0.3c-0.2-0.1-0.4-0.1-0.6-0.1
		c-0.2,0-0.4,0-0.6,0.1c-0.2,0.1-0.4,0.2-0.5,0.3c-0.2,0.2-0.3,0.4-0.4,0.7c-0.1,0.3-0.2,0.7-0.2,1.2v2.8c0,0.4,0,0.6,0,0.9
		c0,0.2,0,0.4,0,0.5c0,0.1,0,0.2,0,0.3c-0.7,0-1.3-0.2-1.7-0.5c-0.4-0.3-0.6-0.8-0.6-1.5L76.2,19.5z"/>
	<path class="st1" d="M89.4,22.4c0,0,0,0.1,0,0.1c0,0.1,0,0.2,0,0.3c0,0.2,0,0.4-0.1,0.6c-0.1,0.2-0.2,0.3-0.4,0.4
		c-0.3,0.2-0.7,0.4-1.2,0.4c-0.4,0-0.8-0.1-1.2-0.3c-0.4-0.2-0.7-0.4-1-0.8c-0.3-0.4-0.6-0.8-0.7-1.3c-0.2-0.5-0.3-1.2-0.3-1.9
		l0-5.2c0-0.7,0.2-1.2,0.6-1.5c0.4-0.3,0.9-0.5,1.7-0.5c0,0.1,0,0.2,0,0.3c0,0.1,0,0.3,0,0.5c0,0.2,0,0.5,0,0.9l0,1.1h2.4
		c0,0.5-0.1,1-0.4,1.3c-0.3,0.3-0.7,0.5-1.3,0.5h-0.7l0,2.5c0,0.5,0,0.9,0.1,1.3c0.1,0.3,0.2,0.6,0.4,0.8c0.3,0.4,0.7,0.6,1.3,0.6
		c0.2,0,0.4,0,0.6-0.1C89.2,22.5,89.3,22.4,89.4,22.4z"/>
	<path class="st1" d="M97.3,20.3c0,0.8-0.1,1.4-0.4,1.9c-0.2,0.5-0.5,0.9-0.9,1.2c-0.4,0.3-0.8,0.5-1.3,0.6
		c-0.5,0.1-0.9,0.2-1.4,0.2c-0.5,0-0.9-0.1-1.4-0.2c-0.5-0.1-0.9-0.3-1.3-0.6c-0.4-0.3-0.7-0.7-0.9-1.2c-0.2-0.5-0.3-1.2-0.3-1.9
		l0-2.5c0-0.7,0.2-1.2,0.6-1.5c0.4-0.3,0.9-0.5,1.7-0.5c0,0.1,0,0.2,0,0.3c0,0.1,0,0.3,0,0.5c0,0.2,0,0.5,0,0.9l0,2.8
		c0,0.5,0,0.9,0.1,1.2s0.2,0.5,0.4,0.7c0.2,0.2,0.3,0.3,0.5,0.3c0.2,0.1,0.4,0.1,0.6,0.1s0.4,0,0.6-0.1c0.2-0.1,0.4-0.2,0.5-0.3
		c0.2-0.2,0.3-0.4,0.4-0.7c0.1-0.3,0.1-0.7,0.1-1.2l0-2.5c0-0.7,0.2-1.2,0.6-1.5c0.4-0.3,1-0.5,1.7-0.5c0,0.1,0,0.2,0,0.3
		c0,0.1,0,0.3,0,0.5c0,0.2,0,0.5,0,0.9L97.3,20.3z"/>
	<path class="st1" d="M97.9,19.7c0-0.8,0.1-1.5,0.3-2c0.2-0.5,0.5-0.9,0.9-1.2c0.4-0.3,0.8-0.5,1.2-0.6c0.5-0.1,0.9-0.2,1.4-0.2h0.9
		c0.1,0.2,0.1,0.5,0,0.7c0,0.2-0.1,0.4-0.2,0.5c-0.1,0.2-0.4,0.3-0.7,0.3c-0.2,0-0.4,0.1-0.6,0.1c-0.2,0.1-0.4,0.2-0.5,0.3
		c-0.2,0.2-0.3,0.4-0.4,0.7c-0.1,0.3-0.2,0.7-0.2,1.2v2.6c0,0.4,0,0.6,0,0.9c0,0.2,0,0.4,0,0.5c0,0.1,0,0.2,0,0.3
		c-0.7,0-1.3-0.2-1.7-0.5c-0.4-0.3-0.6-0.8-0.6-1.5V19.7z"/>
	<path class="st1" d="M103.7,19.4c0.3-0.2,0.7-0.4,1.1-0.5c0.4-0.1,0.8-0.2,1.3-0.2c0.6,0,1.2,0.1,1.8,0.3c0-0.4-0.1-0.7-0.2-1
		c-0.2-0.4-0.4-0.6-0.7-0.8c-0.1-0.1-0.2-0.1-0.4-0.1c-0.1,0-0.3,0-0.5,0h-0.2c-0.2,0-0.3,0-0.5,0.1c-0.2,0-0.3,0.1-0.5,0.2
		c-0.2,0.1-0.3,0.1-0.5,0.2c-0.2,0-0.3,0.1-0.5,0.1c-0.2,0-0.3,0-0.5-0.1c-0.1-0.1-0.3-0.2-0.4-0.4l0-0.1l0-0.1
		c0.4-0.4,0.8-0.7,1.3-0.9c0.5-0.2,1-0.4,1.6-0.4c0.1,0,0.1,0,0.2,0c0,0,0.1,0,0.2,0c0.5,0,1,0.1,1.5,0.3c0.5,0.2,0.8,0.5,1.2,0.8
		c0.7,0.7,1,1.7,1.1,2.9v0.1c0,1.2-0.3,2.2-0.9,3c-0.3,0.4-0.7,0.7-1.1,0.9c-0.4,0.2-0.9,0.4-1.5,0.4c-0.1,0-0.1,0-0.2,0
		c-0.1,0-0.1,0-0.2,0c-0.3,0-0.5,0-0.8-0.1c-0.3,0-0.5-0.1-0.8-0.2c-0.3-0.1-0.5-0.2-0.8-0.4c-0.2-0.2-0.4-0.4-0.6-0.7
		c-0.2-0.3-0.3-0.8-0.4-1.3v-0.1c0-0.5,0.1-0.9,0.3-1.2C103.1,19.9,103.3,19.6,103.7,19.4z M107.4,20.3c-0.2,0-0.3,0-0.5-0.1
		c-0.2,0-0.4,0-0.6,0c-0.2,0-0.3,0-0.5,0c-0.2,0-0.3,0.1-0.4,0.1c-0.3,0.1-0.5,0.2-0.7,0.4c-0.1,0.1-0.1,0.2-0.1,0.2
		c0,0.1-0.1,0.2-0.1,0.3c0,0,0,0.1,0,0.2c0,0.1,0,0.2,0.1,0.4s0.1,0.3,0.2,0.4c0.1,0.1,0.2,0.2,0.4,0.3c0.2,0.1,0.4,0.1,0.7,0.1
		c0.1,0,0.2,0,0.2,0c0.3,0,0.6-0.1,0.9-0.3c0.1-0.1,0.2-0.2,0.3-0.3c0.1-0.1,0.2-0.2,0.2-0.3c0.1-0.2,0.2-0.5,0.3-0.7
		c0-0.2,0.1-0.5,0.1-0.7c0,0,0,0,0,0c0,0,0,0,0,0c0,0-0.1,0-0.2,0C107.5,20.3,107.5,20.3,107.4,20.3z"/>
	<g>
		<g>
			<path class="st1" d="M51.5,30.9c0,0,0,0.1,0.1,0.1c0,0,0,0.1,0,0.1c0,0,0,0.1,0,0.1c-0.1,0-0.3,0-0.4,0c-0.1,0-0.2,0-0.3-0.1
				c-0.1-0.1-0.2-0.2-0.2-0.3c0-0.1-0.1-0.2-0.2-0.4c-0.1-0.2-0.2-0.4-0.3-0.7h-1.9c-0.1,0.3-0.2,0.5-0.3,0.7
				C48,30.7,48,30.9,48,30.9c-0.1,0.1-0.1,0.2-0.3,0.3c-0.1,0.1-0.2,0.1-0.3,0.1c-0.1,0-0.3,0-0.4,0c0,0,0-0.1,0-0.1
				c0,0,0-0.1,0-0.1c0,0,0-0.1,0.1-0.1c0-0.1,0.1-0.2,0.2-0.4c0.1-0.2,0.2-0.4,0.3-0.7c0.1-0.3,0.2-0.5,0.3-0.8
				c0.1-0.3,0.2-0.6,0.3-0.8c0.1-0.3,0.2-0.5,0.3-0.7c0.1-0.2,0.1-0.3,0.2-0.4c0-0.1,0.1-0.2,0.2-0.3c0.1-0.1,0.1-0.1,0.2-0.2
				c0.1,0,0.1-0.1,0.2-0.1c0.1,0,0.1,0,0.1,0c0,0,0.1,0,0.1,0c0.1,0,0.1,0,0.2,0.1c0.1,0,0.1,0.1,0.2,0.2c0.1,0.1,0.1,0.2,0.2,0.3
				c0,0.1,0.1,0.2,0.2,0.4c0.1,0.2,0.2,0.4,0.3,0.7c0.1,0.3,0.2,0.5,0.3,0.8c0.1,0.3,0.2,0.6,0.3,0.8c0.1,0.3,0.2,0.5,0.3,0.7
				C51.5,30.7,51.5,30.8,51.5,30.9z M50.1,29.2c-0.1-0.2-0.2-0.5-0.3-0.7c-0.1-0.2-0.2-0.4-0.2-0.6c-0.1-0.2-0.2-0.4-0.2-0.6
				c-0.1,0.2-0.1,0.4-0.2,0.6c-0.1,0.2-0.1,0.4-0.2,0.6c-0.1,0.2-0.2,0.4-0.3,0.7H50.1z"/>
			<path class="st1" d="M52.4,31.2c0.2-0.1,0.4-0.1,0.7-0.1c0.2,0,0.5,0,0.7,0c0.2,0.1,0.4,0.1,0.5,0.3c0.1,0.1,0.2,0.3,0.2,0.6
				c0,0.2,0,0.4-0.1,0.5c-0.1,0.1-0.2,0.2-0.3,0.3c-0.1,0.1-0.3,0.1-0.4,0.2c-0.1,0-0.3,0.1-0.4,0.1h-0.1c-0.2,0-0.4-0.1-0.6-0.1
				c-0.2-0.1-0.3-0.2-0.5-0.3c-0.1-0.1-0.2-0.3-0.3-0.5c-0.1-0.2-0.1-0.4-0.1-0.7c0,0,0,0,0-0.1c0,0,0,0,0-0.1c0-0.3,0-0.5,0.1-0.7
				c0.1-0.2,0.2-0.4,0.4-0.5c-0.1-0.1-0.3-0.2-0.3-0.4c-0.1-0.2-0.1-0.3-0.1-0.5c0-0.2,0-0.3,0.1-0.5c0.1-0.1,0.2-0.3,0.3-0.4
				c0.1-0.1,0.3-0.2,0.4-0.3c0.2-0.1,0.3-0.1,0.5-0.1c0.2,0,0.4,0,0.6,0.1c0.2,0.1,0.3,0.1,0.4,0.3c0.3,0.2,0.4,0.5,0.4,0.8
				c0,0.2,0,0.3-0.1,0.5c-0.1,0.1-0.2,0.3-0.3,0.4c-0.1,0.1-0.3,0.2-0.4,0.2c-0.2,0.1-0.3,0.1-0.5,0.1v0h0c-0.2,0-0.3,0-0.4,0.1
				c-0.1,0-0.2,0.1-0.2,0.2c-0.1,0.1-0.1,0.2-0.1,0.3C52.4,31.1,52.4,31.2,52.4,31.2z M53.6,32.4c0,0,0.1-0.1,0.1-0.1
				c0-0.1,0-0.1,0-0.2c0,0,0-0.1,0-0.1c0-0.1,0-0.1-0.1-0.2c0,0-0.1-0.1-0.1-0.1c-0.1,0-0.1,0-0.2-0.1c-0.1,0-0.1,0-0.2,0
				c-0.1,0-0.1,0-0.2,0c-0.1,0-0.1,0-0.2,0c-0.1,0-0.1,0-0.2,0c0,0-0.1,0-0.1,0c0,0.1,0,0.1,0,0.2c0,0.1,0,0.1,0.1,0.2
				c0,0.1,0.1,0.1,0.1,0.2c0,0.1,0.1,0.1,0.2,0.1c0.1,0.1,0.2,0.1,0.3,0.1c0.1,0,0.2,0,0.3,0C53.5,32.4,53.6,32.4,53.6,32.4z
				 M53.1,28.6c0,0-0.1,0-0.2,0c-0.1,0-0.1,0-0.2,0.1c-0.1,0-0.1,0.1-0.1,0.2c0,0.1-0.1,0.2-0.1,0.3c0,0.1,0,0.2,0.1,0.3
				c0,0.1,0.1,0.1,0.1,0.2c0.1,0,0.1,0.1,0.2,0.1c0.1,0,0.1,0,0.2,0c0,0,0.1,0,0.2,0c0.1,0,0.1,0,0.2-0.1c0.1,0,0.1-0.1,0.1-0.2
				c0-0.1,0.1-0.2,0.1-0.3c0-0.1,0-0.2-0.1-0.3c0-0.1-0.1-0.1-0.1-0.2c-0.1,0-0.1-0.1-0.2-0.1C53.2,28.6,53.1,28.6,53.1,28.6z"/>
			<path class="st1" d="M54.5,29.7c0-0.3,0-0.6,0.1-0.7c0.1-0.2,0.2-0.3,0.3-0.5c0.1-0.1,0.3-0.2,0.5-0.2c0.2,0,0.3-0.1,0.5-0.1h0.3
				c0,0.1,0,0.2,0,0.3c0,0.1,0,0.1-0.1,0.2c-0.1,0.1-0.1,0.1-0.3,0.1c-0.1,0-0.2,0-0.2,0.1c-0.1,0-0.1,0.1-0.2,0.1
				c-0.1,0.1-0.1,0.1-0.1,0.3c0,0.1-0.1,0.3-0.1,0.5v1c0,0.1,0,0.2,0,0.3c0,0.1,0,0.2,0,0.2c0,0.1,0,0.1,0,0.1
				c-0.3,0-0.5-0.1-0.6-0.2c-0.2-0.1-0.2-0.3-0.2-0.6V29.7z"/>
			<path class="st1" d="M58.7,28.6c0.1,0.1,0.3,0.3,0.3,0.5c0.1,0.2,0.1,0.4,0.1,0.6c0,0.2,0,0.4-0.1,0.6c-0.1,0.2-0.2,0.4-0.3,0.5
				c-0.1,0.2-0.3,0.3-0.5,0.4c-0.2,0.1-0.4,0.1-0.6,0.1c-0.2,0-0.4,0-0.6-0.1c-0.2-0.1-0.3-0.2-0.5-0.4c-0.1-0.1-0.2-0.3-0.3-0.5
				c-0.1-0.2-0.1-0.4-0.1-0.6c0-0.2,0-0.4,0.1-0.6c0.1-0.2,0.2-0.4,0.3-0.5c0.1-0.2,0.3-0.3,0.5-0.4c0.2-0.1,0.4-0.1,0.6-0.1
				c0.2,0,0.4,0,0.6,0.1C58.4,28.3,58.6,28.4,58.7,28.6z M57.6,30.8c0.1,0,0.1,0,0.2,0c0.1,0,0.2-0.1,0.2-0.2
				c0.1-0.1,0.1-0.2,0.2-0.3c0.1-0.1,0.1-0.3,0.1-0.5c0-0.2,0-0.4-0.1-0.5c-0.1-0.1-0.1-0.2-0.2-0.3c-0.1-0.1-0.1-0.1-0.2-0.2
				c-0.1,0-0.1,0-0.2,0c-0.1,0-0.1,0-0.2,0c-0.1,0-0.2,0.1-0.2,0.2c-0.1,0.1-0.1,0.2-0.2,0.3c0,0.1-0.1,0.3-0.1,0.5
				c0,0.2,0,0.4,0.1,0.5c0.1,0.1,0.1,0.2,0.2,0.3c0.1,0.1,0.1,0.1,0.2,0.2C57.5,30.8,57.6,30.8,57.6,30.8z"/>
			<path class="st1" d="M59.3,29.6c0-0.3,0-0.6,0.1-0.7c0.1-0.2,0.2-0.3,0.3-0.5c0.1-0.1,0.3-0.2,0.5-0.2c0.2,0,0.4-0.1,0.5-0.1
				c0.2,0,0.3,0,0.5,0.1c0.2,0,0.3,0.1,0.5,0.2c0.1,0.1,0.3,0.3,0.3,0.5c0.1,0.2,0.1,0.4,0.1,0.7l0,1.7c-0.3,0-0.5-0.1-0.6-0.2
				c-0.2-0.1-0.2-0.3-0.2-0.6l0-1c0-0.2,0-0.3-0.1-0.5c0-0.1-0.1-0.2-0.2-0.3c-0.1-0.1-0.1-0.1-0.2-0.1c-0.1,0-0.2,0-0.2,0
				c-0.1,0-0.2,0-0.2,0c-0.1,0-0.1,0.1-0.2,0.1c-0.1,0.1-0.1,0.2-0.2,0.3c0,0.1-0.1,0.3-0.1,0.5v1.1c0,0.1,0,0.2,0,0.3
				c0,0.1,0,0.2,0,0.2c0,0.1,0,0.1,0,0.1c-0.3,0-0.5-0.1-0.7-0.2c-0.2-0.1-0.2-0.3-0.2-0.6L59.3,29.6z"/>
			<path class="st1" d="M65.1,30.6c0.1,0,0.1,0.1,0.2,0.2l0,0l0,0c-0.2,0.2-0.3,0.3-0.5,0.4c-0.2,0.1-0.4,0.1-0.7,0.1
				c-0.2,0-0.4,0-0.6-0.1c-0.2-0.1-0.3-0.2-0.5-0.4c-0.1-0.1-0.2-0.3-0.3-0.5c-0.1-0.2-0.1-0.4-0.1-0.6c0-0.2,0-0.4,0.1-0.6
				c0.1-0.2,0.2-0.4,0.3-0.5c0.1-0.1,0.3-0.3,0.5-0.3c0.2-0.1,0.4-0.1,0.6-0.1c0.1,0,0.3,0,0.4,0.1c0.2,0,0.3,0.1,0.4,0.2
				c0.1,0.1,0.2,0.2,0.3,0.3c0.1,0.1,0.1,0.3,0.1,0.5c0,0.2,0,0.3-0.1,0.5c-0.1,0.1-0.2,0.2-0.3,0.3C64.7,30,64.6,30,64.4,30
				c-0.1,0-0.3,0-0.4,0c-0.2,0-0.3,0-0.4,0c-0.1,0-0.2,0-0.3,0c0,0.2,0.1,0.3,0.1,0.4c0.1,0.1,0.1,0.2,0.2,0.2
				c0.1,0.1,0.1,0.1,0.2,0.1c0.1,0,0.1,0,0.2,0c0.1,0,0.2,0,0.3,0c0.1,0,0.2,0,0.2-0.1c0.1,0,0.1,0,0.2-0.1c0.1,0,0.1,0,0.2,0
				C65,30.6,65,30.6,65.1,30.6z M64,28.7c-0.1,0-0.1,0-0.2,0c-0.1,0-0.1,0.1-0.2,0.1c-0.1,0.1-0.1,0.1-0.2,0.2
				c-0.1,0.1-0.1,0.2-0.1,0.4c0.1,0,0.2,0,0.3,0.1c0.1,0,0.3,0,0.4,0c0.1,0,0.3-0.1,0.4-0.1c0.1-0.1,0.2-0.2,0.2-0.3
				c0-0.1,0-0.2-0.1-0.3C64.4,28.7,64.2,28.7,64,28.7z"/>
			<path class="st1" d="M66.1,31.2c0.2-0.1,0.4-0.1,0.7-0.1c0.2,0,0.5,0,0.7,0c0.2,0.1,0.4,0.1,0.5,0.3c0.1,0.1,0.2,0.3,0.2,0.6
				c0,0.2,0,0.4-0.1,0.5c-0.1,0.1-0.2,0.2-0.3,0.3c-0.1,0.1-0.3,0.1-0.4,0.2c-0.1,0-0.3,0.1-0.4,0.1h-0.1c-0.2,0-0.4-0.1-0.6-0.1
				c-0.2-0.1-0.3-0.2-0.5-0.3c-0.1-0.1-0.2-0.3-0.3-0.5c-0.1-0.2-0.1-0.4-0.1-0.7c0,0,0,0,0-0.1c0,0,0,0,0-0.1c0-0.3,0-0.5,0.1-0.7
				c0.1-0.2,0.2-0.4,0.4-0.5c-0.1-0.1-0.3-0.2-0.3-0.4c-0.1-0.2-0.1-0.3-0.1-0.5c0-0.2,0-0.3,0.1-0.5c0.1-0.1,0.2-0.3,0.3-0.4
				c0.1-0.1,0.3-0.2,0.4-0.3c0.2-0.1,0.3-0.1,0.5-0.1c0.2,0,0.4,0,0.6,0.1c0.2,0.1,0.3,0.1,0.4,0.3c0.3,0.2,0.4,0.5,0.4,0.8
				c0,0.2,0,0.3-0.1,0.5c-0.1,0.1-0.2,0.3-0.3,0.4c-0.1,0.1-0.3,0.2-0.4,0.2c-0.2,0.1-0.3,0.1-0.5,0.1v0h0c-0.2,0-0.3,0-0.4,0.1
				c-0.1,0-0.2,0.1-0.2,0.2c-0.1,0.1-0.1,0.2-0.1,0.3C66.2,31.1,66.1,31.2,66.1,31.2z M67.4,32.4c0,0,0.1-0.1,0.1-0.1
				c0-0.1,0-0.1,0-0.2c0,0,0-0.1,0-0.1c0-0.1,0-0.1-0.1-0.2c0,0-0.1-0.1-0.1-0.1c-0.1,0-0.1,0-0.2-0.1c-0.1,0-0.1,0-0.2,0
				s-0.1,0-0.2,0c-0.1,0-0.1,0-0.2,0c-0.1,0-0.1,0-0.2,0c0,0-0.1,0-0.1,0c0,0.1,0,0.1,0,0.2c0,0.1,0,0.1,0.1,0.2
				c0,0.1,0.1,0.1,0.1,0.2c0,0.1,0.1,0.1,0.2,0.1c0.1,0.1,0.2,0.1,0.3,0.1c0.1,0,0.2,0,0.3,0C67.3,32.4,67.3,32.4,67.4,32.4z
				 M66.8,28.6c0,0-0.1,0-0.2,0c-0.1,0-0.1,0-0.2,0.1c-0.1,0-0.1,0.1-0.1,0.2c0,0.1-0.1,0.2-0.1,0.3c0,0.1,0,0.2,0.1,0.3
				c0,0.1,0.1,0.1,0.1,0.2c0.1,0,0.1,0.1,0.2,0.1c0.1,0,0.1,0,0.2,0c0,0,0.1,0,0.2,0c0.1,0,0.1,0,0.2-0.1c0.1,0,0.1-0.1,0.1-0.2
				c0-0.1,0.1-0.2,0.1-0.3c0-0.1,0-0.2-0.1-0.3c0-0.1-0.1-0.1-0.1-0.2c-0.1,0-0.1-0.1-0.2-0.1C66.9,28.6,66.9,28.6,66.8,28.6z"/>
			<path class="st1" d="M70.8,28.6c0.1,0.1,0.3,0.3,0.3,0.5c0.1,0.2,0.1,0.4,0.1,0.6c0,0.2,0,0.4-0.1,0.6c-0.1,0.2-0.2,0.4-0.3,0.5
				c-0.1,0.2-0.3,0.3-0.5,0.4c-0.2,0.1-0.4,0.1-0.6,0.1c-0.2,0-0.4,0-0.6-0.1c-0.2-0.1-0.3-0.2-0.5-0.4c-0.1-0.1-0.2-0.3-0.3-0.5
				c-0.1-0.2-0.1-0.4-0.1-0.6c0-0.2,0-0.4,0.1-0.6c0.1-0.2,0.2-0.4,0.3-0.5c0.1-0.2,0.3-0.3,0.5-0.4c0.2-0.1,0.4-0.1,0.6-0.1
				c0.2,0,0.4,0,0.6,0.1C70.6,28.3,70.7,28.4,70.8,28.6z M69.8,30.8c0.1,0,0.1,0,0.2,0c0.1,0,0.2-0.1,0.2-0.2
				c0.1-0.1,0.1-0.2,0.2-0.3c0.1-0.1,0.1-0.3,0.1-0.5c0-0.2,0-0.4-0.1-0.5c-0.1-0.1-0.1-0.2-0.2-0.3c-0.1-0.1-0.1-0.1-0.2-0.2
				c-0.1,0-0.1,0-0.2,0c-0.1,0-0.1,0-0.2,0c-0.1,0-0.2,0.1-0.2,0.2c-0.1,0.1-0.1,0.2-0.2,0.3c0,0.1-0.1,0.3-0.1,0.5
				c0,0.2,0,0.4,0.1,0.5c0.1,0.1,0.1,0.2,0.2,0.3c0.1,0.1,0.1,0.1,0.2,0.2C69.6,30.8,69.7,30.8,69.8,30.8z"/>
			<path class="st1" d="M73,28.7c-0.1,0-0.1,0-0.2,0c-0.1,0-0.2,0.1-0.2,0.2c-0.1,0.1-0.1,0.2-0.2,0.3c0,0.1-0.1,0.3-0.1,0.5
				c0,0.2,0,0.4,0.1,0.5c0.1,0.1,0.1,0.2,0.2,0.3c0.1,0.1,0.1,0.1,0.2,0.2c0.1,0,0.1,0,0.2,0c0.1,0,0.2,0,0.3,0c0.1,0,0.2,0,0.2-0.1
				c0.1,0,0.1-0.1,0.2-0.1c0.1,0,0.1,0,0.2,0c0.1,0,0.1,0,0.2,0c0,0,0.1,0.1,0.2,0.2l0,0l0,0c-0.2,0.2-0.3,0.3-0.5,0.4
				c-0.2,0.1-0.4,0.1-0.7,0.1c-0.2,0-0.4,0-0.6-0.1c-0.2-0.1-0.3-0.2-0.5-0.3c-0.1-0.1-0.2-0.3-0.3-0.5c-0.1-0.2-0.1-0.4-0.1-0.6
				c0-0.2,0-0.4,0.1-0.6c0.1-0.2,0.2-0.4,0.3-0.5c0.1-0.1,0.3-0.3,0.5-0.3c0.2-0.1,0.4-0.1,0.6-0.1c0.2,0,0.5,0,0.7,0.1
				c0.2,0.1,0.4,0.2,0.5,0.4l0,0l0,0c-0.1,0.1-0.1,0.1-0.2,0.2c-0.1,0-0.1,0.1-0.2,0c-0.1,0-0.1,0-0.2,0c-0.1,0-0.1,0-0.2-0.1
				c-0.1,0-0.1-0.1-0.2-0.1C73.2,28.7,73.1,28.7,73,28.7z"/>
			<path class="st1" d="M75.2,27.2c-0.1,0.2-0.2,0.2-0.4,0.2c-0.1,0-0.1,0-0.2,0c-0.1,0-0.1-0.1-0.2-0.2c0-0.1-0.1-0.1-0.1-0.2
				c0-0.1,0-0.2,0.1-0.2c0-0.1,0.1-0.1,0.2-0.2c0.1,0,0.1-0.1,0.2-0.1c0.1,0,0.1,0,0.2,0.1c0.1,0,0.1,0.1,0.2,0.2
				c0,0.1,0.1,0.1,0.1,0.2C75.2,27,75.2,27.1,75.2,27.2z M75.7,30.7c0,0-0.1,0.1-0.1,0.1c-0.1,0-0.1,0-0.2,0s-0.1,0-0.1-0.1
				c0,0-0.1-0.1-0.1-0.2v-1.6c0-0.1,0-0.2,0-0.3c0-0.1,0-0.2,0-0.2c0-0.1,0-0.1,0-0.1c-0.3,0-0.5,0.1-0.6,0.2
				c-0.1,0.1-0.2,0.3-0.2,0.6l0,1.6c0,0.1,0,0.2,0.1,0.3c0,0.1,0.1,0.2,0.2,0.3c0.1,0.1,0.2,0.1,0.3,0.2c0.1,0,0.2,0.1,0.4,0
				c0.1,0,0.3-0.1,0.3-0.1c0.1-0.1,0.1-0.2,0.1-0.2C75.7,30.9,75.7,30.8,75.7,30.7z"/>
			<path class="st1" d="M78.3,28.6c0.1,0.1,0.3,0.3,0.3,0.5c0.1,0.2,0.1,0.4,0.1,0.6c0,0.2,0,0.4-0.1,0.6c-0.1,0.2-0.2,0.4-0.3,0.5
				c-0.1,0.2-0.3,0.3-0.5,0.4c-0.2,0.1-0.4,0.1-0.6,0.1c-0.2,0-0.4,0-0.6-0.1c-0.2-0.1-0.3-0.2-0.5-0.4c-0.1-0.1-0.2-0.3-0.3-0.5
				c-0.1-0.2-0.1-0.4-0.1-0.6c0-0.2,0-0.4,0.1-0.6c0.1-0.2,0.2-0.4,0.3-0.5c0.1-0.2,0.3-0.3,0.5-0.4c0.2-0.1,0.4-0.1,0.6-0.1
				c0.2,0,0.4,0,0.6,0.1C78,28.3,78.2,28.4,78.3,28.6z M77.2,30.8c0.1,0,0.1,0,0.2,0c0.1,0,0.2-0.1,0.2-0.2c0.1-0.1,0.1-0.2,0.2-0.3
				s0.1-0.3,0.1-0.5c0-0.2,0-0.4-0.1-0.5c-0.1-0.1-0.1-0.2-0.2-0.3c-0.1-0.1-0.1-0.1-0.2-0.2c-0.1,0-0.1,0-0.2,0c-0.1,0-0.1,0-0.2,0
				c-0.1,0-0.2,0.1-0.2,0.2c-0.1,0.1-0.1,0.2-0.2,0.3c0,0.1-0.1,0.3-0.1,0.5c0,0.2,0,0.4,0.1,0.5c0.1,0.1,0.1,0.2,0.2,0.3
				c0.1,0.1,0.1,0.1,0.2,0.2C77.1,30.8,77.2,30.8,77.2,30.8z"/>
			<path class="st1" d="M80.5,30.5c0-0.1,0-0.1-0.1-0.2c-0.1-0.1-0.1-0.1-0.2-0.2c-0.1,0-0.2-0.1-0.3-0.2c-0.1-0.1-0.3-0.1-0.4-0.2
				c-0.1-0.1-0.2-0.1-0.3-0.2c-0.1-0.1-0.1-0.2-0.2-0.3c0-0.1,0-0.2,0-0.3c0-0.1,0-0.2,0.1-0.3c0-0.1,0.1-0.2,0.2-0.3
				c0.1-0.1,0.2-0.1,0.2-0.2c0.1,0,0.2-0.1,0.3-0.1c0.1,0,0.2,0,0.3,0h0.1c0.2,0,0.5,0.1,0.7,0.2s0.4,0.2,0.5,0.4l0,0l0,0
				c0,0.1-0.1,0.1-0.2,0.1c-0.1,0-0.1,0-0.2,0c-0.1,0-0.1,0-0.2,0c-0.1,0-0.1-0.1-0.2-0.1c-0.1,0-0.2-0.1-0.2-0.1
				c-0.1,0-0.2,0-0.2,0c-0.1,0-0.2,0-0.2,0.1c-0.1,0-0.1,0.1-0.1,0.2c0,0.1,0,0.2,0.1,0.2c0.1,0.1,0.2,0.1,0.3,0.2
				c0.1,0.1,0.3,0.1,0.5,0.2c0.2,0.1,0.3,0.2,0.4,0.3c0.1,0.1,0.2,0.2,0.3,0.4c0.1,0.1,0.1,0.3,0,0.5c0,0.1-0.1,0.2-0.1,0.3
				C81.2,31,81.1,31,81,31.1c-0.1,0.1-0.2,0.1-0.4,0.2c-0.1,0-0.3,0.1-0.5,0.1c0,0-0.1,0-0.1,0c-0.2,0-0.4-0.1-0.6-0.2
				c-0.2-0.1-0.4-0.2-0.5-0.4l0,0l0,0c0,0,0-0.1,0.1-0.1c0,0,0.1,0,0.1-0.1c0.1,0,0.1,0,0.2,0c0.1,0,0.1,0,0.2,0
				c0.1,0,0.1,0.1,0.2,0.1c0.1,0,0.1,0.1,0.2,0.1c0.1,0,0.2,0,0.3,0c0.2,0,0.3,0,0.4-0.1C80.5,30.6,80.5,30.6,80.5,30.5z"/>
		</g>
	</g>
</g>
<g>
	<text transform="matrix(1 0 0 1 415.3661 32.5636)" class="st1 st2 st3">Menú 1</text>
</g>
<g>
	<text transform="matrix(1 0 0 1 504.6071 32.5636)" class="st1 st2 st3">Menú 2</text>
</g>
<g>
	<text transform="matrix(1 0 0 1 583.3813 32.5636)" class="st1 st2 st3">Cerrar Sesión</text>
</g>
<text transform="matrix(1 0 0 1 12.5028 74.9648)"><tspan x="0" y="0" class="st14 st2 st17">• Presupuestos</tspan><tspan x="0" y="16.9" class="st14 st18 st17">• Negocios confirmados</tspan><tspan x="0" y="33.8" class="st14 st2 st17">• Logística</tspan><tspan x="0" y="50.7" class="st14 st2 st17">• Comprobantes</tspan><tspan x="0" y="67.6" class="st14 st2 st17">• NOTIFICACIONES</tspan></text>
<line class="st19" x1="130.9" y1="48.4" x2="130.9" y2="415.9"/>
<rect x="4.2" y="81.1" class="st14" width="3.4" height="15.6"/>
<rect x="0.4" y="407.3" class="st5" width="709.6" height="17.2"/>
<text transform="matrix(1 0 0 1 152.5073 137.1653)"><tspan x="0" y="0" class="st0 st18 st17">FECHA</tspan><tspan x="30.4" y="0" class="st0 st18 st17 st22">	</tspan><tspan x="85.4" y="0" class="st0 st18 st17">CANTIDAD</tspan><tspan x="133" y="0" class="st0 st18 st17 st23">	</tspan><tspan x="202.2" y="0" class="st0 st18 st17">EMPRESA</tspan><tspan x="245.6" y="0" class="st0 st18 st17 st24">	</tspan><tspan x="312.1" y="0" class="st0 st18 st17">CLIENTE</tspan><tspan x="349.4" y="0" class="st0 st18 st17 st25">	</tspan><tspan x="374.7" y="0" class="st0 st18 st17">VER NEGOCIACION</tspan><tspan x="0" y="21" class="st14 st2 st26">22/02/2021</tspan><tspan x="33.8" y="21" class="st14 st2 st26 st27">	</tspan><tspan x="85.4" y="21" class="st14 st2 st26">1. Glifosato Glifosato</tspan><tspan x="149.9" y="21" class="st14 st2 st26 st28">	</tspan><tspan x="202.2" y="21" class="st14 st2 st26">Tecnocampo - Juan Perez</tspan><tspan x="286.5" y="21" class="st14 st2 st26 st29">	</tspan><tspan x="312.1" y="21" class="st14 st2 st26">Matías Nuñez</tspan><tspan x="356.4" y="21" class="st14 st2 st26 st30">	</tspan><tspan x="0" y="42" class="st14 st2 st26 st31">	</tspan><tspan x="85.4" y="42" class="st14 st2 st26">2. Glifosato Glifosato</tspan><tspan x="0" y="63" class="st14 st2 st26 st31">	</tspan><tspan x="85.4" y="63" class="st14 st2 st26">3. Glifosato Glifosato</tspan><tspan x="151.2" y="63" class="st14 st2 st26 st27">	</tspan><tspan x="0" y="84" class="st14 st2 st26">22/02/2021</tspan><tspan x="33.8" y="84" class="st14 st2 st26 st27">	</tspan><tspan x="85.4" y="84" class="st14 st2 st26">1. Glifosato Glifosato</tspan><tspan x="149.9" y="84" class="st14 st2 st26 st28">	</tspan><tspan x="202.2" y="84" class="st14 st2 st26">Tecnocampo - Juan Perez</tspan><tspan x="286.5" y="84" class="st14 st2 st26 st29">	</tspan><tspan x="312.1" y="84" class="st14 st2 st26">Matías Nuñez</tspan><tspan x="356.4" y="84" class="st14 st2 st26 st30">	</tspan><tspan x="0" y="105" class="st14 st2 st26">22/02/2021</tspan><tspan x="33.8" y="105" class="st14 st2 st26 st27">	</tspan><tspan x="85.4" y="105" class="st14 st2 st26">1. Glifosato Glifosato</tspan><tspan x="149.9" y="105" class="st14 st2 st26 st28">	</tspan><tspan x="202.2" y="105" class="st14 st2 st26">Tecnocampo - Juan Perez</tspan><tspan x="286.5" y="105" class="st14 st2 st26 st29">	</tspan><tspan x="312.1" y="105" class="st14 st2 st26">Matías Nuñez</tspan><tspan x="356.4" y="105" class="st14 st2 st26 st30">	</tspan><tspan x="0" y="126" class="st14 st2 st26 st31">	</tspan><tspan x="85.4" y="126" class="st14 st2 st26">2. Glifosato Glifosato</tspan><tspan x="151.2" y="126" class="st14 st2 st26 st27">	</tspan><tspan x="202.2" y="126" class="st14 st2 st26">Tecnocampo - Juan Perez</tspan><tspan x="286.5" y="126" class="st14 st2 st26 st29">	</tspan><tspan x="312.1" y="126" class="st14 st2 st26">Matías Nuñe</tspan></text>
<line class="st19" x1="637.6" y1="208.3" x2="149.3" y2="208.3"/>
<line class="st19" x1="718" y1="145.7" x2="130.9" y2="145.7"/>
<line class="st19" x1="718" y1="334.1" x2="130.9" y2="334.1"/>
<line class="st19" x1="637.6" y1="229.5" x2="149.3" y2="229.5"/>
<g>
	<g>
		<g>
			
				<ellipse transform="matrix(0.1874 -0.9823 0.9823 0.1874 308.2084 687.7673)" class="st0" cx="569.8" cy="157.6" rx="6.5" ry="6.5"/>
		</g>
	</g>
	<path class="st1" d="M572.9,159.9l-2.1-2.1c0.5-0.8,0.4-1.9-0.3-2.6c-0.8-0.8-2.2-0.8-3,0c-0.8,0.8-0.8,2.2,0,3
		c0.7,0.7,1.8,0.8,2.6,0.3l2.1,2.1L572.9,159.9z M568,157.7c-0.6-0.6-0.6-1.5,0-2c0.6-0.6,1.5-0.6,2,0c0.6,0.6,0.6,1.5,0,2
		C569.4,158.3,568.5,158.3,568,157.7z"/>
</g>
<g>
	<g>
		<g>
			
				<ellipse transform="matrix(0.1874 -0.9823 0.9823 0.1874 227.3537 754.6572)" class="st0" cx="569.8" cy="239.9" rx="6.5" ry="6.5"/>
		</g>
	</g>
	<path class="st1" d="M572.9,242.2l-2.1-2.1c0.5-0.8,0.4-1.9-0.3-2.6c-0.8-0.8-2.2-0.8-3,0c-0.8,0.8-0.8,2.2,0,3
		c0.7,0.7,1.8,0.8,2.6,0.3l2.1,2.1L572.9,242.2z M568,240c-0.6-0.6-0.6-1.5,0-2c0.6-0.6,1.5-0.6,2,0c0.6,0.6,0.6,1.5,0,2
		C569.4,240.6,568.5,240.6,568,240z"/>
</g>
<g>
	<g>
		<g>
			
				<ellipse transform="matrix(0.1874 -0.9823 0.9823 0.1874 247.8569 737.6953)" class="st0" cx="569.8" cy="219" rx="6.5" ry="6.5"/>
		</g>
	</g>
	<path class="st1" d="M572.9,221.3l-2.1-2.1c0.5-0.8,0.4-1.9-0.3-2.6c-0.8-0.8-2.2-0.8-3,0c-0.8,0.8-0.8,2.2,0,3
		c0.7,0.7,1.8,0.8,2.6,0.3l2.1,2.1L572.9,221.3z M568,219.2c-0.6-0.6-0.6-1.5,0-2c0.6-0.6,1.5-0.6,2,0c0.6,0.6,0.6,1.5,0,2
		C569.4,219.7,568.5,219.7,568,219.2z"/>
</g>
<text transform="matrix(1 0 0 1 152.5072 327.3818)"><tspan x="0" y="0" class="st0 st18 st17">FECHA</tspan><tspan x="30.4" y="0" class="st0 st18 st17 st22">	</tspan><tspan x="85.4" y="0" class="st0 st18 st17">CANTIDAD</tspan><tspan x="133" y="0" class="st0 st18 st17 st23">	</tspan><tspan x="202.2" y="0" class="st0 st18 st17">EMPRESA</tspan><tspan x="245.6" y="0" class="st0 st18 st17 st24">	</tspan><tspan x="312.1" y="0" class="st0 st18 st17">CLIENTE</tspan><tspan x="349.4" y="0" class="st0 st18 st17 st25">	</tspan><tspan x="374.7" y="0" class="st0 st18 st17">VER NEGOCIACION</tspan><tspan x="0" y="21" class="st14 st2 st26">22/02/2021</tspan><tspan x="33.8" y="21" class="st14 st2 st26 st27">	</tspan><tspan x="85.4" y="21" class="st14 st2 st26">1. Glifosato Glifosato</tspan><tspan x="149.9" y="21" class="st14 st2 st26 st28">	</tspan><tspan x="202.2" y="21" class="st14 st2 st26">Tecnocampo - Juan Perez</tspan><tspan x="286.5" y="21" class="st14 st2 st26 st29">	</tspan><tspan x="312.1" y="21" class="st14 st2 st26">Matías Nuñez</tspan><tspan x="356.4" y="21" class="st14 st2 st26 st30">	</tspan><tspan x="0" y="42" class="st14 st2 st26 st31">	</tspan><tspan x="85.4" y="42" class="st14 st2 st26">2. Glifosato Glifosato</tspan><tspan x="0" y="63" class="st14 st2 st26 st31">	</tspan><tspan x="85.4" y="63" class="st14 st2 st26">3. Glifosato Glifosato</tspan></text>
<g>
	<g>
		<g>
			
				<ellipse transform="matrix(0.1874 -0.9823 0.9823 0.1874 121.3606 842.3437)" class="st0" cx="569.8" cy="347.8" rx="6.5" ry="6.5"/>
		</g>
	</g>
	<path class="st1" d="M572.9,350.1l-2.1-2.1c0.5-0.8,0.4-1.9-0.3-2.6c-0.8-0.8-2.2-0.8-3,0c-0.8,0.8-0.8,2.2,0,3
		c0.7,0.7,1.8,0.8,2.6,0.3l2.1,2.1L572.9,350.1z M568,347.9c-0.6-0.6-0.6-1.5,0-2c0.6-0.6,1.5-0.6,2,0c0.6,0.6,0.6,1.5,0,2
		C569.4,348.5,568.5,348.5,568,347.9z"/>
</g>
<rect x="130.9" y="97.7" class="st5" width="578.8" height="20.1"/>
<g>
	<text transform="matrix(1 0 0 1 338.1924 112.737)" class="st1 st2 st35">CONFIRMADOS</text>
</g>
<rect x="130.9" y="289.3" class="st13" width="578.8" height="20.1"/>
<g>
	<text transform="matrix(1 0 0 1 338.1924 304.2379)" class="st1 st2 st35"> NO CONFIRMADOS</text>
</g>
<g>
	<g>
		<polygon class="st0" points="322.5,70.3 318,61.5 320.6,60.1 324,66.7 330.3,57.2 332.8,58.9 325.2,70.3 		"/>
	</g>
</g>
</svg>
