<?xml version="1.0" encoding="utf-8"?>
<!-- Generator: Adobe Illustrator 22.1.0, SVG Export Plug-In . SVG Version: 6.00 Build 0)  -->
<svg version="1.1" id="Layer_1" xmlns="http://www.w3.org/2000/svg" xmlns:xlink="http://www.w3.org/1999/xlink" x="0px" y="0px"
	 viewBox="0 0 709.8 424.4" style="enable-background:new 0 0 709.8 424.4;" xml:space="preserve">
<style type="text/css">
	.st0{fill:#757474;}
	.st1{fill:#FFFFFF;}
	.st2{fill:#005321;}
	.st3{fill:#52AE32;}
	.st4{fill:#DCDCDC;}
	.st5{fill:#F9B041;}
	.st6{fill:#21386C;}
	.st7{fill:#144F9F;}
	.st8{fill:#F49523;}
	.st9{fill:none;stroke:#52AE32;stroke-miterlimit:10;}
	.st10{fill:none;stroke:#52AE32;stroke-miterlimit:10;stroke-dasharray:4.9052,4.9052;}
	.st11{fill:#E30613;}
	.st12{fill:#B2B2B2;}
	.st13{fill:#FFCC00;}
	.st14{fill:#9B9B9A;}
	.st15{fill:#706F6F;stroke:#706F6F;stroke-width:0.25;stroke-miterlimit:10;}
	.st16{fill:#4E4D4D;}
	.st17{fill:#706F6F;}
	.st18{font-family:'Montserrat-Medium';}
	.st19{font-size:13.9213px;}
	.st20{fill:#FFED00;}
	.st21{fill:#E41513;}
	.st22{fill:#5AB031;}
	.st23{font-size:8.408px;}
	.st24{font-family:'Montserrat-Bold';}
	.st25{letter-spacing:16;}
	.st26{letter-spacing:26;}
	.st27{letter-spacing:83;}
	.st28{letter-spacing:15;}
	.st29{letter-spacing:46;}
	.st30{font-size:6.4081px;}
	.st31{letter-spacing:43;}
	.st32{letter-spacing:47;}
	.st33{letter-spacing:52;}
	.st34{letter-spacing:49;}
	.st35{letter-spacing:39;}
	.st36{letter-spacing:41;}
	.st37{letter-spacing:36;}
</style>
<path class="st0" d="M527.7,78.6H265.1c-5.1,0-9.3-4.2-9.3-9.3v-25c0-5.1,4.2-9.3,9.3-9.3h262.6c5.1,0,9.3,4.2,9.3,9.3v25
	C536.9,74.5,532.8,78.6,527.7,78.6z"/>
<g>
	<text transform="matrix(1 0 0 1 372.9231 68.9193)" class="st1 st18 st19">Logística</text>
</g>
<rect x="148.4" y="146.5" class="st20" width="442.4" height="15.4"/>
<rect x="148.4" y="229.1" class="st20" width="442.4" height="15.4"/>
<rect x="148.4" y="249.6" class="st21" width="442.4" height="15.4"/>
<rect x="148.4" y="208.2" class="st22" width="442.4" height="15.4"/>
<rect x="148.4" y="270" class="st21" width="442.4" height="15.4"/>
<rect class="st2" width="130.9" height="48.4"/>
<rect x="130.9" class="st3" width="578.8" height="48.4"/>
<g>
	<path class="st1" d="M23.5,24.2c-0.8,0-1.5-0.1-2.1-0.3c-0.6-0.2-1.1-0.6-1.6-1c-0.4-0.5-0.8-1.1-1-1.8c-0.2-0.7-0.4-1.6-0.4-2.7
		v-3.7c0-0.8,0.1-1.4,0.4-1.9c0.2-0.4,0.6-0.8,1.1-0.9c0.3-0.1,0.6-0.2,1-0.2c0.2,0,0.5-0.1,0.8-0.1c0.3,0,0.6,0,0.8,0
		c0.6,0,1.2,0.1,1.6,0.3c0.5,0.2,0.8,0.4,1.1,0.7c0.3,0.3,0.5,0.6,0.7,1c0.1,0.4,0.2,0.8,0.2,1.2c0,0.4-0.1,0.7-0.2,1.1
		c-0.1,0.3-0.3,0.6-0.6,0.9c0.4,0.1,0.7,0.3,1,0.5c0.3,0.2,0.6,0.5,0.8,0.8c0.2,0.3,0.4,0.7,0.5,1c0.1,0.4,0.2,0.8,0.2,1.3
		c0,0.5-0.1,1.1-0.3,1.5c-0.2,0.5-0.5,0.9-0.9,1.3c-0.4,0.4-0.8,0.7-1.4,0.9C24.8,24,24.2,24.2,23.5,24.2z M23.5,22.4
		c0.4,0,0.7-0.1,1-0.2c0.3-0.1,0.5-0.3,0.7-0.5c0.2-0.2,0.3-0.5,0.4-0.7c0.1-0.3,0.1-0.6,0.1-0.9c0-0.5-0.1-1-0.3-1.3
		c-0.2-0.3-0.4-0.6-0.7-0.8c-0.3-0.2-0.6-0.3-0.9-0.4c-0.3-0.1-0.7-0.1-1-0.1c-0.3,0-0.6,0-0.8,0c-0.3,0-0.5,0-0.7,0
		c-0.2,0-0.4,0-0.6,0v0.8c0,0.8,0,1.5,0.1,2c0.1,0.5,0.3,0.9,0.6,1.3c0.2,0.3,0.6,0.5,0.9,0.7C22.7,22.3,23.1,22.4,23.5,22.4z
		 M20.7,16h1.5c0.6,0,1.1-0.1,1.5-0.4c0.4-0.2,0.5-0.6,0.5-1.2c0-0.3,0-0.5-0.2-0.7c-0.1-0.2-0.2-0.4-0.4-0.5
		c-0.2-0.1-0.3-0.2-0.5-0.3c-0.2-0.1-0.4-0.1-0.6-0.1c-0.1,0-0.3,0-0.5,0c-0.2,0-0.4,0-0.6,0.1c-0.2,0.1-0.4,0.1-0.5,0.3
		c-0.1,0.1-0.2,0.3-0.2,0.5V16z"/>
	<path class="st1" d="M36.1,20.3c0,0.8-0.1,1.4-0.4,1.9c-0.2,0.5-0.5,0.9-0.9,1.2c-0.4,0.3-0.8,0.5-1.3,0.6
		c-0.5,0.1-0.9,0.2-1.4,0.2c-0.5,0-0.9-0.1-1.4-0.2c-0.5-0.1-0.9-0.3-1.3-0.6c-0.4-0.3-0.7-0.7-0.9-1.2c-0.2-0.5-0.3-1.2-0.3-1.9
		l0-2.5c0-0.7,0.2-1.2,0.6-1.5c0.4-0.3,0.9-0.5,1.7-0.5c0,0.1,0,0.2,0,0.3c0,0.1,0,0.3,0,0.5c0,0.2,0,0.5,0,0.9l0,2.8
		c0,0.5,0,0.9,0.1,1.2c0.1,0.3,0.2,0.5,0.4,0.7c0.2,0.2,0.3,0.3,0.5,0.3c0.2,0.1,0.4,0.1,0.6,0.1c0.2,0,0.4,0,0.6-0.1
		c0.2-0.1,0.4-0.2,0.5-0.3c0.2-0.2,0.3-0.4,0.4-0.7c0.1-0.3,0.1-0.7,0.1-1.2l0-2.5c0-0.7,0.2-1.2,0.6-1.5c0.4-0.3,1-0.5,1.7-0.5
		c0,0.1,0,0.2,0,0.3c0,0.1,0,0.3,0,0.5c0,0.2,0,0.5,0,0.9L36.1,20.3z"/>
	<path class="st1" d="M43.3,22.2c0.1,0.1,0.3,0.2,0.4,0.4l0.1,0.1l-0.1,0.1c-0.4,0.4-0.9,0.8-1.4,1c-0.5,0.2-1.1,0.4-1.8,0.4
		c-0.5,0-1.1-0.1-1.5-0.3c-0.5-0.2-0.9-0.5-1.3-0.9c-0.4-0.4-0.6-0.8-0.8-1.3c-0.2-0.5-0.3-1.1-0.3-1.7c0-0.6,0.1-1.2,0.3-1.7
		c0.2-0.5,0.4-1,0.8-1.4c0.3-0.4,0.8-0.7,1.3-0.9c0.5-0.2,1-0.3,1.7-0.3c0.3,0,0.7,0,1.1,0.2c0.4,0.1,0.8,0.3,1.1,0.5
		c0.3,0.2,0.6,0.5,0.9,0.9c0.2,0.4,0.3,0.8,0.3,1.3c0,0.5-0.1,0.9-0.4,1.2c-0.2,0.3-0.5,0.5-0.9,0.7c-0.3,0.2-0.7,0.3-1.1,0.4
		c-0.4,0.1-0.7,0.1-1,0.1c-0.4,0-0.8,0-1.2-0.1c-0.3-0.1-0.6-0.1-0.7-0.1c0,0.4,0.1,0.8,0.3,1c0.1,0.3,0.3,0.5,0.5,0.6
		c0.2,0.2,0.4,0.3,0.5,0.3c0.2,0.1,0.3,0.1,0.5,0.1c0.2,0,0.5,0,0.7-0.1c0.2,0,0.4-0.1,0.6-0.2c0.2-0.1,0.3-0.1,0.5-0.2
		c0.2-0.1,0.3-0.1,0.5-0.1C43,22.1,43.2,22.1,43.3,22.2z M40.6,17.1c-0.1,0-0.3,0-0.5,0.1c-0.2,0.1-0.4,0.2-0.5,0.3
		c-0.2,0.1-0.3,0.3-0.5,0.6c-0.1,0.3-0.2,0.6-0.3,1c0.2,0.1,0.5,0.1,0.8,0.2c0.4,0.1,0.7,0.1,1.1,0c0.4,0,0.7-0.1,0.9-0.3
		c0.3-0.2,0.4-0.4,0.4-0.8c0-0.3-0.1-0.6-0.3-0.8C41.4,17.2,41.1,17.1,40.6,17.1z"/>
	<path class="st1" d="M44.5,19.5c0-0.8,0.1-1.5,0.3-2c0.2-0.5,0.5-0.9,0.9-1.2c0.4-0.3,0.8-0.5,1.2-0.6c0.5-0.1,0.9-0.2,1.4-0.2
		c0.5,0,0.9,0,1.4,0.2c0.5,0.1,0.9,0.3,1.3,0.6c0.4,0.3,0.7,0.7,0.9,1.2c0.2,0.5,0.3,1.2,0.3,2l0.1,4.5c-0.7,0-1.3-0.2-1.7-0.5
		C50.2,23.2,50,22.7,50,22l0-2.5c0-0.5,0-0.9-0.2-1.2c-0.1-0.3-0.2-0.5-0.4-0.7c-0.2-0.2-0.4-0.3-0.6-0.3c-0.2-0.1-0.4-0.1-0.6-0.1
		c-0.2,0-0.4,0-0.6,0.1c-0.2,0.1-0.4,0.2-0.5,0.3c-0.2,0.2-0.3,0.4-0.4,0.7c-0.1,0.3-0.2,0.7-0.2,1.2v2.8c0,0.4,0,0.6,0,0.9
		c0,0.2,0,0.4,0,0.5c0,0.1,0,0.2,0,0.3c-0.7,0-1.3-0.2-1.7-0.5c-0.4-0.3-0.6-0.8-0.6-1.5L44.5,19.5z"/>
	<path class="st1" d="M53.8,19.4c0.3-0.2,0.7-0.4,1.1-0.5c0.4-0.1,0.8-0.2,1.3-0.2c0.6,0,1.2,0.1,1.8,0.3c0-0.4-0.1-0.7-0.2-1
		c-0.2-0.4-0.4-0.6-0.7-0.8c-0.1-0.1-0.2-0.1-0.4-0.1c-0.1,0-0.3,0-0.5,0h-0.2c-0.2,0-0.3,0-0.5,0.1c-0.2,0-0.3,0.1-0.5,0.2
		c-0.2,0.1-0.3,0.1-0.5,0.2c-0.2,0-0.3,0.1-0.5,0.1c-0.2,0-0.3,0-0.5-0.1c-0.1-0.1-0.3-0.2-0.4-0.4l0-0.1l0-0.1
		c0.4-0.4,0.8-0.7,1.3-0.9c0.5-0.2,1-0.4,1.6-0.4c0.1,0,0.1,0,0.2,0c0,0,0.1,0,0.2,0c0.5,0,1,0.1,1.5,0.3c0.5,0.2,0.8,0.5,1.2,0.8
		c0.7,0.7,1,1.7,1.1,2.9v0.1c0,1.2-0.3,2.2-0.9,3c-0.3,0.4-0.7,0.7-1.1,0.9c-0.4,0.2-0.9,0.4-1.5,0.4c-0.1,0-0.1,0-0.2,0
		c-0.1,0-0.1,0-0.2,0c-0.3,0-0.5,0-0.8-0.1c-0.3,0-0.5-0.1-0.8-0.2c-0.3-0.1-0.5-0.2-0.8-0.4c-0.2-0.2-0.4-0.4-0.6-0.7
		c-0.2-0.3-0.3-0.8-0.4-1.3v-0.1c0-0.5,0.1-0.9,0.3-1.2C53.2,19.9,53.5,19.6,53.8,19.4z M57.5,20.3c-0.2,0-0.3,0-0.5-0.1
		c-0.2,0-0.4,0-0.6,0c-0.2,0-0.3,0-0.5,0c-0.2,0-0.3,0.1-0.4,0.1c-0.3,0.1-0.5,0.2-0.7,0.4c-0.1,0.1-0.1,0.2-0.1,0.2
		c0,0.1-0.1,0.2-0.1,0.3c0,0,0,0.1,0,0.2c0,0.1,0,0.2,0.1,0.4c0,0.1,0.1,0.3,0.2,0.4c0.1,0.1,0.2,0.2,0.4,0.3
		c0.2,0.1,0.4,0.1,0.7,0.1c0.1,0,0.2,0,0.2,0c0.3,0,0.6-0.1,0.9-0.3c0.1-0.1,0.2-0.2,0.3-0.3c0.1-0.1,0.2-0.2,0.2-0.3
		c0.1-0.2,0.2-0.5,0.3-0.7c0-0.2,0.1-0.5,0.1-0.7c0,0,0,0,0,0c0,0,0,0,0,0c0,0-0.1,0-0.2,0C57.7,20.3,57.6,20.3,57.5,20.3z"/>
	<path class="st1" d="M70.4,11.5c-0.7,1.9-1.4,3.6-2,5.2c-0.3,0.7-0.5,1.4-0.8,2c-0.3,0.7-0.5,1.3-0.8,1.9c-0.2,0.6-0.4,1.1-0.6,1.5
		c-0.2,0.4-0.3,0.7-0.4,0.9c-0.2,0.4-0.4,0.6-0.7,0.8c-0.3,0.1-0.5,0.2-0.8,0.2c-0.3,0-0.6,0-0.9-0.1l-5-12.4c0.3,0,0.6-0.1,0.9-0.1
		c0.3,0,0.6,0.1,0.8,0.1c0.2,0.1,0.5,0.2,0.7,0.4c0.2,0.2,0.4,0.4,0.5,0.7c0,0,0.1,0.2,0.2,0.5c0.1,0.3,0.2,0.6,0.4,1
		c0.2,0.4,0.3,0.8,0.5,1.3c0.2,0.5,0.4,1,0.6,1.4c0.4,1.2,0.9,2.4,1.5,3.9c0.5-1.4,1-2.7,1.5-3.9c0.2-0.5,0.4-1,0.6-1.4
		c0.2-0.5,0.3-0.9,0.5-1.3c0.1-0.4,0.3-0.7,0.4-1c0.1-0.3,0.2-0.4,0.2-0.5c0.1-0.3,0.3-0.6,0.5-0.7c0.2-0.2,0.4-0.3,0.7-0.4
		c0.3-0.1,0.5-0.1,0.8-0.1C69.8,11.5,70.1,11.5,70.4,11.5z"/>
	<path class="st1" d="M75,22.2c0.1,0.1,0.3,0.2,0.4,0.4l0.1,0.1l-0.1,0.1c-0.4,0.4-0.9,0.8-1.4,1c-0.5,0.2-1.1,0.4-1.8,0.4
		c-0.5,0-1.1-0.1-1.5-0.3c-0.5-0.2-0.9-0.5-1.3-0.9c-0.4-0.4-0.6-0.8-0.8-1.3c-0.2-0.5-0.3-1.1-0.3-1.7c0-0.6,0.1-1.2,0.3-1.7
		c0.2-0.5,0.4-1,0.8-1.4c0.3-0.4,0.8-0.7,1.3-0.9c0.5-0.2,1-0.3,1.7-0.3c0.3,0,0.7,0,1.1,0.2c0.4,0.1,0.8,0.3,1.1,0.5
		c0.3,0.2,0.6,0.5,0.9,0.9c0.2,0.4,0.3,0.8,0.3,1.3c0,0.5-0.1,0.9-0.4,1.2c-0.2,0.3-0.5,0.5-0.9,0.7c-0.3,0.2-0.7,0.3-1.1,0.4
		c-0.4,0.1-0.7,0.1-1,0.1c-0.4,0-0.8,0-1.2-0.1c-0.3-0.1-0.6-0.1-0.7-0.1c0,0.4,0.1,0.8,0.3,1c0.1,0.3,0.3,0.5,0.5,0.6
		c0.2,0.2,0.4,0.3,0.5,0.3c0.2,0.1,0.3,0.1,0.5,0.1c0.2,0,0.5,0,0.7-0.1c0.2,0,0.4-0.1,0.6-0.2c0.2-0.1,0.3-0.1,0.5-0.2
		c0.2-0.1,0.3-0.1,0.5-0.1C74.7,22.1,74.9,22.1,75,22.2z M72.3,17.1c-0.1,0-0.3,0-0.5,0.1c-0.2,0.1-0.4,0.2-0.5,0.3
		c-0.2,0.1-0.3,0.3-0.5,0.6c-0.1,0.3-0.2,0.6-0.3,1c0.2,0.1,0.5,0.1,0.8,0.2c0.4,0.1,0.7,0.1,1.1,0c0.4,0,0.7-0.1,0.9-0.3
		c0.3-0.2,0.4-0.4,0.4-0.8c0-0.3-0.1-0.6-0.3-0.8C73.1,17.2,72.8,17.1,72.3,17.1z"/>
	<path class="st1" d="M76.2,19.5c0-0.8,0.1-1.5,0.3-2c0.2-0.5,0.5-0.9,0.9-1.2c0.4-0.3,0.8-0.5,1.2-0.6c0.5-0.1,0.9-0.2,1.4-0.2
		c0.5,0,0.9,0,1.4,0.2c0.5,0.1,0.9,0.3,1.3,0.6c0.4,0.3,0.7,0.7,0.9,1.2c0.2,0.5,0.3,1.2,0.3,2L84,24c-0.7,0-1.3-0.2-1.7-0.5
		c-0.4-0.3-0.6-0.8-0.6-1.5l0-2.5c0-0.5,0-0.9-0.2-1.2c-0.1-0.3-0.2-0.5-0.4-0.7c-0.2-0.2-0.4-0.3-0.6-0.3c-0.2-0.1-0.4-0.1-0.6-0.1
		c-0.2,0-0.4,0-0.6,0.1c-0.2,0.1-0.4,0.2-0.5,0.3c-0.2,0.2-0.3,0.4-0.4,0.7c-0.1,0.3-0.2,0.7-0.2,1.2v2.8c0,0.4,0,0.6,0,0.9
		c0,0.2,0,0.4,0,0.5c0,0.1,0,0.2,0,0.3c-0.7,0-1.3-0.2-1.7-0.5c-0.4-0.3-0.6-0.8-0.6-1.5L76.2,19.5z"/>
	<path class="st1" d="M89.4,22.4c0,0,0,0.1,0,0.1c0,0.1,0,0.2,0,0.3c0,0.2,0,0.4-0.1,0.6c-0.1,0.2-0.2,0.3-0.4,0.4
		c-0.3,0.2-0.7,0.4-1.2,0.4c-0.4,0-0.8-0.1-1.2-0.3c-0.4-0.2-0.7-0.4-1-0.8c-0.3-0.4-0.6-0.8-0.7-1.3c-0.2-0.5-0.3-1.2-0.3-1.9
		l0-5.2c0-0.7,0.2-1.2,0.6-1.5c0.4-0.3,0.9-0.5,1.7-0.5c0,0.1,0,0.2,0,0.3c0,0.1,0,0.3,0,0.5c0,0.2,0,0.5,0,0.9l0,1.1h2.4
		c0,0.5-0.1,1-0.4,1.3c-0.3,0.3-0.7,0.5-1.3,0.5h-0.7l0,2.5c0,0.5,0,0.9,0.1,1.3c0.1,0.3,0.2,0.6,0.4,0.8c0.3,0.4,0.7,0.6,1.3,0.6
		c0.2,0,0.4,0,0.6-0.1C89.2,22.5,89.3,22.4,89.4,22.4z"/>
	<path class="st1" d="M97.3,20.3c0,0.8-0.1,1.4-0.4,1.9c-0.2,0.5-0.5,0.9-0.9,1.2c-0.4,0.3-0.8,0.5-1.3,0.6
		c-0.5,0.1-0.9,0.2-1.4,0.2c-0.5,0-0.9-0.1-1.4-0.2c-0.5-0.1-0.9-0.3-1.3-0.6c-0.4-0.3-0.7-0.7-0.9-1.2c-0.2-0.5-0.3-1.2-0.3-1.9
		l0-2.5c0-0.7,0.2-1.2,0.6-1.5c0.4-0.3,0.9-0.5,1.7-0.5c0,0.1,0,0.2,0,0.3c0,0.1,0,0.3,0,0.5c0,0.2,0,0.5,0,0.9l0,2.8
		c0,0.5,0,0.9,0.1,1.2s0.2,0.5,0.4,0.7c0.2,0.2,0.3,0.3,0.5,0.3c0.2,0.1,0.4,0.1,0.6,0.1s0.4,0,0.6-0.1c0.2-0.1,0.4-0.2,0.5-0.3
		c0.2-0.2,0.3-0.4,0.4-0.7c0.1-0.3,0.1-0.7,0.1-1.2l0-2.5c0-0.7,0.2-1.2,0.6-1.5c0.4-0.3,1-0.5,1.7-0.5c0,0.1,0,0.2,0,0.3
		c0,0.1,0,0.3,0,0.5c0,0.2,0,0.5,0,0.9L97.3,20.3z"/>
	<path class="st1" d="M97.9,19.7c0-0.8,0.1-1.5,0.3-2c0.2-0.5,0.5-0.9,0.9-1.2c0.4-0.3,0.8-0.5,1.2-0.6c0.5-0.1,0.9-0.2,1.4-0.2h0.9
		c0.1,0.2,0.1,0.5,0,0.7c0,0.2-0.1,0.4-0.2,0.5c-0.1,0.2-0.4,0.3-0.7,0.3c-0.2,0-0.4,0.1-0.6,0.1c-0.2,0.1-0.4,0.2-0.5,0.3
		c-0.2,0.2-0.3,0.4-0.4,0.7c-0.1,0.3-0.2,0.7-0.2,1.2v2.6c0,0.4,0,0.6,0,0.9c0,0.2,0,0.4,0,0.5c0,0.1,0,0.2,0,0.3
		c-0.7,0-1.3-0.2-1.7-0.5c-0.4-0.3-0.6-0.8-0.6-1.5V19.7z"/>
	<path class="st1" d="M103.7,19.4c0.3-0.2,0.7-0.4,1.1-0.5c0.4-0.1,0.8-0.2,1.3-0.2c0.6,0,1.2,0.1,1.8,0.3c0-0.4-0.1-0.7-0.2-1
		c-0.2-0.4-0.4-0.6-0.7-0.8c-0.1-0.1-0.2-0.1-0.4-0.1c-0.1,0-0.3,0-0.5,0h-0.2c-0.2,0-0.3,0-0.5,0.1c-0.2,0-0.3,0.1-0.5,0.2
		c-0.2,0.1-0.3,0.1-0.5,0.2c-0.2,0-0.3,0.1-0.5,0.1c-0.2,0-0.3,0-0.5-0.1c-0.1-0.1-0.3-0.2-0.4-0.4l0-0.1l0-0.1
		c0.4-0.4,0.8-0.7,1.3-0.9c0.5-0.2,1-0.4,1.6-0.4c0.1,0,0.1,0,0.2,0c0,0,0.1,0,0.2,0c0.5,0,1,0.1,1.5,0.3c0.5,0.2,0.8,0.5,1.2,0.8
		c0.7,0.7,1,1.7,1.1,2.9v0.1c0,1.2-0.3,2.2-0.9,3c-0.3,0.4-0.7,0.7-1.1,0.9c-0.4,0.2-0.9,0.4-1.5,0.4c-0.1,0-0.1,0-0.2,0
		c-0.1,0-0.1,0-0.2,0c-0.3,0-0.5,0-0.8-0.1c-0.3,0-0.5-0.1-0.8-0.2c-0.3-0.1-0.5-0.2-0.8-0.4c-0.2-0.2-0.4-0.4-0.6-0.7
		c-0.2-0.3-0.3-0.8-0.4-1.3v-0.1c0-0.5,0.1-0.9,0.3-1.2C103.1,19.9,103.3,19.6,103.7,19.4z M107.4,20.3c-0.2,0-0.3,0-0.5-0.1
		c-0.2,0-0.4,0-0.6,0c-0.2,0-0.3,0-0.5,0c-0.2,0-0.3,0.1-0.4,0.1c-0.3,0.1-0.5,0.2-0.7,0.4c-0.1,0.1-0.1,0.2-0.1,0.2
		c0,0.1-0.1,0.2-0.1,0.3c0,0,0,0.1,0,0.2c0,0.1,0,0.2,0.1,0.4s0.1,0.3,0.2,0.4c0.1,0.1,0.2,0.2,0.4,0.3c0.2,0.1,0.4,0.1,0.7,0.1
		c0.1,0,0.2,0,0.2,0c0.3,0,0.6-0.1,0.9-0.3c0.1-0.1,0.2-0.2,0.3-0.3c0.1-0.1,0.2-0.2,0.2-0.3c0.1-0.2,0.2-0.5,0.3-0.7
		c0-0.2,0.1-0.5,0.1-0.7c0,0,0,0,0,0c0,0,0,0,0,0c0,0-0.1,0-0.2,0C107.5,20.3,107.5,20.3,107.4,20.3z"/>
	<g>
		<g>
			<path class="st1" d="M51.5,30.9c0,0,0,0.1,0.1,0.1c0,0,0,0.1,0,0.1c0,0,0,0.1,0,0.1c-0.1,0-0.3,0-0.4,0c-0.1,0-0.2,0-0.3-0.1
				c-0.1-0.1-0.2-0.2-0.2-0.3c0-0.1-0.1-0.2-0.2-0.4c-0.1-0.2-0.2-0.4-0.3-0.7h-1.9c-0.1,0.3-0.2,0.5-0.3,0.7
				C48,30.7,48,30.9,48,30.9c-0.1,0.1-0.1,0.2-0.3,0.3c-0.1,0.1-0.2,0.1-0.3,0.1c-0.1,0-0.3,0-0.4,0c0,0,0-0.1,0-0.1
				c0,0,0-0.1,0-0.1c0,0,0-0.1,0.1-0.1c0-0.1,0.1-0.2,0.2-0.4c0.1-0.2,0.2-0.4,0.3-0.7c0.1-0.3,0.2-0.5,0.3-0.8
				c0.1-0.3,0.2-0.6,0.3-0.8c0.1-0.3,0.2-0.5,0.3-0.7c0.1-0.2,0.1-0.3,0.2-0.4c0-0.1,0.1-0.2,0.2-0.3c0.1-0.1,0.1-0.1,0.2-0.2
				c0.1,0,0.1-0.1,0.2-0.1c0.1,0,0.1,0,0.1,0c0,0,0.1,0,0.1,0c0.1,0,0.1,0,0.2,0.1c0.1,0,0.1,0.1,0.2,0.2c0.1,0.1,0.1,0.2,0.2,0.3
				c0,0.1,0.1,0.2,0.2,0.4c0.1,0.2,0.2,0.4,0.3,0.7c0.1,0.3,0.2,0.5,0.3,0.8c0.1,0.3,0.2,0.6,0.3,0.8c0.1,0.3,0.2,0.5,0.3,0.7
				C51.5,30.7,51.5,30.8,51.5,30.9z M50.1,29.2c-0.1-0.2-0.2-0.5-0.3-0.7c-0.1-0.2-0.2-0.4-0.2-0.6c-0.1-0.2-0.2-0.4-0.2-0.6
				c-0.1,0.2-0.1,0.4-0.2,0.6c-0.1,0.2-0.1,0.4-0.2,0.6c-0.1,0.2-0.2,0.4-0.3,0.7H50.1z"/>
			<path class="st1" d="M52.4,31.2c0.2-0.1,0.4-0.1,0.7-0.1c0.2,0,0.5,0,0.7,0c0.2,0.1,0.4,0.1,0.5,0.3c0.1,0.1,0.2,0.3,0.2,0.6
				c0,0.2,0,0.4-0.1,0.5c-0.1,0.1-0.2,0.2-0.3,0.3c-0.1,0.1-0.3,0.1-0.4,0.2c-0.1,0-0.3,0.1-0.4,0.1h-0.1c-0.2,0-0.4-0.1-0.6-0.1
				c-0.2-0.1-0.3-0.2-0.5-0.3c-0.1-0.1-0.2-0.3-0.3-0.5c-0.1-0.2-0.1-0.4-0.1-0.7c0,0,0,0,0-0.1c0,0,0,0,0-0.1c0-0.3,0-0.5,0.1-0.7
				c0.1-0.2,0.2-0.4,0.4-0.5c-0.1-0.1-0.3-0.2-0.3-0.4c-0.1-0.2-0.1-0.3-0.1-0.5c0-0.2,0-0.3,0.1-0.5c0.1-0.1,0.2-0.3,0.3-0.4
				c0.1-0.1,0.3-0.2,0.4-0.3c0.2-0.1,0.3-0.1,0.5-0.1c0.2,0,0.4,0,0.6,0.1c0.2,0.1,0.3,0.1,0.4,0.3c0.3,0.2,0.4,0.5,0.4,0.8
				c0,0.2,0,0.3-0.1,0.5c-0.1,0.1-0.2,0.3-0.3,0.4c-0.1,0.1-0.3,0.2-0.4,0.2c-0.2,0.1-0.3,0.1-0.5,0.1v0h0c-0.2,0-0.3,0-0.4,0.1
				c-0.1,0-0.2,0.1-0.2,0.2c-0.1,0.1-0.1,0.2-0.1,0.3C52.4,31.1,52.4,31.2,52.4,31.2z M53.6,32.4c0,0,0.1-0.1,0.1-0.1
				c0-0.1,0-0.1,0-0.2c0,0,0-0.1,0-0.1c0-0.1,0-0.1-0.1-0.2c0,0-0.1-0.1-0.1-0.1c-0.1,0-0.1,0-0.2-0.1c-0.1,0-0.1,0-0.2,0
				c-0.1,0-0.1,0-0.2,0c-0.1,0-0.1,0-0.2,0c-0.1,0-0.1,0-0.2,0c0,0-0.1,0-0.1,0c0,0.1,0,0.1,0,0.2c0,0.1,0,0.1,0.1,0.2
				c0,0.1,0.1,0.1,0.1,0.2c0,0.1,0.1,0.1,0.2,0.1c0.1,0.1,0.2,0.1,0.3,0.1c0.1,0,0.2,0,0.3,0C53.5,32.4,53.6,32.4,53.6,32.4z
				 M53.1,28.6c0,0-0.1,0-0.2,0c-0.1,0-0.1,0-0.2,0.1c-0.1,0-0.1,0.1-0.1,0.2c0,0.1-0.1,0.2-0.1,0.3c0,0.1,0,0.2,0.1,0.3
				c0,0.1,0.1,0.1,0.1,0.2c0.1,0,0.1,0.1,0.2,0.1c0.1,0,0.1,0,0.2,0c0,0,0.1,0,0.2,0c0.1,0,0.1,0,0.2-0.1c0.1,0,0.1-0.1,0.1-0.2
				c0-0.1,0.1-0.2,0.1-0.3c0-0.1,0-0.2-0.1-0.3c0-0.1-0.1-0.1-0.1-0.2c-0.1,0-0.1-0.1-0.2-0.1C53.2,28.6,53.1,28.6,53.1,28.6z"/>
			<path class="st1" d="M54.5,29.7c0-0.3,0-0.6,0.1-0.7c0.1-0.2,0.2-0.3,0.3-0.5c0.1-0.1,0.3-0.2,0.5-0.2c0.2,0,0.3-0.1,0.5-0.1h0.3
				c0,0.1,0,0.2,0,0.3c0,0.1,0,0.1-0.1,0.2c-0.1,0.1-0.1,0.1-0.3,0.1c-0.1,0-0.2,0-0.2,0.1c-0.1,0-0.1,0.1-0.2,0.1
				c-0.1,0.1-0.1,0.1-0.1,0.3c0,0.1-0.1,0.3-0.1,0.5v1c0,0.1,0,0.2,0,0.3c0,0.1,0,0.2,0,0.2c0,0.1,0,0.1,0,0.1
				c-0.3,0-0.5-0.1-0.6-0.2c-0.2-0.1-0.2-0.3-0.2-0.6V29.7z"/>
			<path class="st1" d="M58.7,28.6c0.1,0.1,0.3,0.3,0.3,0.5c0.1,0.2,0.1,0.4,0.1,0.6c0,0.2,0,0.4-0.1,0.6c-0.1,0.2-0.2,0.4-0.3,0.5
				c-0.1,0.2-0.3,0.3-0.5,0.4c-0.2,0.1-0.4,0.1-0.6,0.1c-0.2,0-0.4,0-0.6-0.1c-0.2-0.1-0.3-0.2-0.5-0.4c-0.1-0.1-0.2-0.3-0.3-0.5
				c-0.1-0.2-0.1-0.4-0.1-0.6c0-0.2,0-0.4,0.1-0.6c0.1-0.2,0.2-0.4,0.3-0.5c0.1-0.2,0.3-0.3,0.5-0.4c0.2-0.1,0.4-0.1,0.6-0.1
				c0.2,0,0.4,0,0.6,0.1C58.4,28.3,58.6,28.4,58.7,28.6z M57.6,30.8c0.1,0,0.1,0,0.2,0c0.1,0,0.2-0.1,0.2-0.2
				c0.1-0.1,0.1-0.2,0.2-0.3c0.1-0.1,0.1-0.3,0.1-0.5c0-0.2,0-0.4-0.1-0.5c-0.1-0.1-0.1-0.2-0.2-0.3c-0.1-0.1-0.1-0.1-0.2-0.2
				c-0.1,0-0.1,0-0.2,0c-0.1,0-0.1,0-0.2,0c-0.1,0-0.2,0.1-0.2,0.2c-0.1,0.1-0.1,0.2-0.2,0.3c0,0.1-0.1,0.3-0.1,0.5
				c0,0.2,0,0.4,0.1,0.5c0.1,0.1,0.1,0.2,0.2,0.3c0.1,0.1,0.1,0.1,0.2,0.2C57.5,30.8,57.6,30.8,57.6,30.8z"/>
			<path class="st1" d="M59.3,29.6c0-0.3,0-0.6,0.1-0.7c0.1-0.2,0.2-0.3,0.3-0.5c0.1-0.1,0.3-0.2,0.5-0.2c0.2,0,0.4-0.1,0.5-0.1
				c0.2,0,0.3,0,0.5,0.1c0.2,0,0.3,0.1,0.5,0.2c0.1,0.1,0.3,0.3,0.3,0.5c0.1,0.2,0.1,0.4,0.1,0.7l0,1.7c-0.3,0-0.5-0.1-0.6-0.2
				c-0.2-0.1-0.2-0.3-0.2-0.6l0-1c0-0.2,0-0.3-0.1-0.5c0-0.1-0.1-0.2-0.2-0.3c-0.1-0.1-0.1-0.1-0.2-0.1c-0.1,0-0.2,0-0.2,0
				c-0.1,0-0.2,0-0.2,0c-0.1,0-0.1,0.1-0.2,0.1c-0.1,0.1-0.1,0.2-0.2,0.3c0,0.1-0.1,0.3-0.1,0.5v1.1c0,0.1,0,0.2,0,0.3
				c0,0.1,0,0.2,0,0.2c0,0.1,0,0.1,0,0.1c-0.3,0-0.5-0.1-0.7-0.2c-0.2-0.1-0.2-0.3-0.2-0.6L59.3,29.6z"/>
			<path class="st1" d="M65.1,30.6c0.1,0,0.1,0.1,0.2,0.2l0,0l0,0c-0.2,0.2-0.3,0.3-0.5,0.4c-0.2,0.1-0.4,0.1-0.7,0.1
				c-0.2,0-0.4,0-0.6-0.1c-0.2-0.1-0.3-0.2-0.5-0.4c-0.1-0.1-0.2-0.3-0.3-0.5c-0.1-0.2-0.1-0.4-0.1-0.6c0-0.2,0-0.4,0.1-0.6
				c0.1-0.2,0.2-0.4,0.3-0.5c0.1-0.1,0.3-0.3,0.5-0.3c0.2-0.1,0.4-0.1,0.6-0.1c0.1,0,0.3,0,0.4,0.1c0.2,0,0.3,0.1,0.4,0.2
				c0.1,0.1,0.2,0.2,0.3,0.3c0.1,0.1,0.1,0.3,0.1,0.5c0,0.2,0,0.3-0.1,0.5c-0.1,0.1-0.2,0.2-0.3,0.3C64.7,30,64.6,30,64.4,30
				c-0.1,0-0.3,0-0.4,0c-0.2,0-0.3,0-0.4,0c-0.1,0-0.2,0-0.3,0c0,0.2,0.1,0.3,0.1,0.4c0.1,0.1,0.1,0.2,0.2,0.2
				c0.1,0.1,0.1,0.1,0.2,0.1c0.1,0,0.1,0,0.2,0c0.1,0,0.2,0,0.3,0c0.1,0,0.2,0,0.2-0.1c0.1,0,0.1,0,0.2-0.1c0.1,0,0.1,0,0.2,0
				C65,30.6,65,30.6,65.1,30.6z M64,28.7c-0.1,0-0.1,0-0.2,0c-0.1,0-0.1,0.1-0.2,0.1c-0.1,0.1-0.1,0.1-0.2,0.2
				c-0.1,0.1-0.1,0.2-0.1,0.4c0.1,0,0.2,0,0.3,0.1c0.1,0,0.3,0,0.4,0c0.1,0,0.3-0.1,0.4-0.1c0.1-0.1,0.2-0.2,0.2-0.3
				c0-0.1,0-0.2-0.1-0.3C64.4,28.7,64.2,28.7,64,28.7z"/>
			<path class="st1" d="M66.1,31.2c0.2-0.1,0.4-0.1,0.7-0.1c0.2,0,0.5,0,0.7,0c0.2,0.1,0.4,0.1,0.5,0.3c0.1,0.1,0.2,0.3,0.2,0.6
				c0,0.2,0,0.4-0.1,0.5c-0.1,0.1-0.2,0.2-0.3,0.3c-0.1,0.1-0.3,0.1-0.4,0.2c-0.1,0-0.3,0.1-0.4,0.1h-0.1c-0.2,0-0.4-0.1-0.6-0.1
				c-0.2-0.1-0.3-0.2-0.5-0.3c-0.1-0.1-0.2-0.3-0.3-0.5c-0.1-0.2-0.1-0.4-0.1-0.7c0,0,0,0,0-0.1c0,0,0,0,0-0.1c0-0.3,0-0.5,0.1-0.7
				c0.1-0.2,0.2-0.4,0.4-0.5c-0.1-0.1-0.3-0.2-0.3-0.4c-0.1-0.2-0.1-0.3-0.1-0.5c0-0.2,0-0.3,0.1-0.5c0.1-0.1,0.2-0.3,0.3-0.4
				c0.1-0.1,0.3-0.2,0.4-0.3c0.2-0.1,0.3-0.1,0.5-0.1c0.2,0,0.4,0,0.6,0.1c0.2,0.1,0.3,0.1,0.4,0.3c0.3,0.2,0.4,0.5,0.4,0.8
				c0,0.2,0,0.3-0.1,0.5c-0.1,0.1-0.2,0.3-0.3,0.4c-0.1,0.1-0.3,0.2-0.4,0.2c-0.2,0.1-0.3,0.1-0.5,0.1v0h0c-0.2,0-0.3,0-0.4,0.1
				c-0.1,0-0.2,0.1-0.2,0.2c-0.1,0.1-0.1,0.2-0.1,0.3C66.2,31.1,66.1,31.2,66.1,31.2z M67.4,32.4c0,0,0.1-0.1,0.1-0.1
				c0-0.1,0-0.1,0-0.2c0,0,0-0.1,0-0.1c0-0.1,0-0.1-0.1-0.2c0,0-0.1-0.1-0.1-0.1c-0.1,0-0.1,0-0.2-0.1c-0.1,0-0.1,0-0.2,0
				s-0.1,0-0.2,0c-0.1,0-0.1,0-0.2,0c-0.1,0-0.1,0-0.2,0c0,0-0.1,0-0.1,0c0,0.1,0,0.1,0,0.2c0,0.1,0,0.1,0.1,0.2
				c0,0.1,0.1,0.1,0.1,0.2c0,0.1,0.1,0.1,0.2,0.1c0.1,0.1,0.2,0.1,0.3,0.1c0.1,0,0.2,0,0.3,0C67.3,32.4,67.3,32.4,67.4,32.4z
				 M66.8,28.6c0,0-0.1,0-0.2,0c-0.1,0-0.1,0-0.2,0.1c-0.1,0-0.1,0.1-0.1,0.2c0,0.1-0.1,0.2-0.1,0.3c0,0.1,0,0.2,0.1,0.3
				c0,0.1,0.1,0.1,0.1,0.2c0.1,0,0.1,0.1,0.2,0.1c0.1,0,0.1,0,0.2,0c0,0,0.1,0,0.2,0c0.1,0,0.1,0,0.2-0.1c0.1,0,0.1-0.1,0.1-0.2
				c0-0.1,0.1-0.2,0.1-0.3c0-0.1,0-0.2-0.1-0.3c0-0.1-0.1-0.1-0.1-0.2c-0.1,0-0.1-0.1-0.2-0.1C66.9,28.6,66.9,28.6,66.8,28.6z"/>
			<path class="st1" d="M70.8,28.6c0.1,0.1,0.3,0.3,0.3,0.5c0.1,0.2,0.1,0.4,0.1,0.6c0,0.2,0,0.4-0.1,0.6c-0.1,0.2-0.2,0.4-0.3,0.5
				c-0.1,0.2-0.3,0.3-0.5,0.4c-0.2,0.1-0.4,0.1-0.6,0.1c-0.2,0-0.4,0-0.6-0.1c-0.2-0.1-0.3-0.2-0.5-0.4c-0.1-0.1-0.2-0.3-0.3-0.5
				c-0.1-0.2-0.1-0.4-0.1-0.6c0-0.2,0-0.4,0.1-0.6c0.1-0.2,0.2-0.4,0.3-0.5c0.1-0.2,0.3-0.3,0.5-0.4c0.2-0.1,0.4-0.1,0.6-0.1
				c0.2,0,0.4,0,0.6,0.1C70.6,28.3,70.7,28.4,70.8,28.6z M69.8,30.8c0.1,0,0.1,0,0.2,0c0.1,0,0.2-0.1,0.2-0.2
				c0.1-0.1,0.1-0.2,0.2-0.3c0.1-0.1,0.1-0.3,0.1-0.5c0-0.2,0-0.4-0.1-0.5c-0.1-0.1-0.1-0.2-0.2-0.3c-0.1-0.1-0.1-0.1-0.2-0.2
				c-0.1,0-0.1,0-0.2,0c-0.1,0-0.1,0-0.2,0c-0.1,0-0.2,0.1-0.2,0.2c-0.1,0.1-0.1,0.2-0.2,0.3c0,0.1-0.1,0.3-0.1,0.5
				c0,0.2,0,0.4,0.1,0.5c0.1,0.1,0.1,0.2,0.2,0.3c0.1,0.1,0.1,0.1,0.2,0.2C69.6,30.8,69.7,30.8,69.8,30.8z"/>
			<path class="st1" d="M73,28.7c-0.1,0-0.1,0-0.2,0c-0.1,0-0.2,0.1-0.2,0.2c-0.1,0.1-0.1,0.2-0.2,0.3c0,0.1-0.1,0.3-0.1,0.5
				c0,0.2,0,0.4,0.1,0.5c0.1,0.1,0.1,0.2,0.2,0.3c0.1,0.1,0.1,0.1,0.2,0.2c0.1,0,0.1,0,0.2,0c0.1,0,0.2,0,0.3,0c0.1,0,0.2,0,0.2-0.1
				c0.1,0,0.1-0.1,0.2-0.1c0.1,0,0.1,0,0.2,0c0.1,0,0.1,0,0.2,0c0,0,0.1,0.1,0.2,0.2l0,0l0,0c-0.2,0.2-0.3,0.3-0.5,0.4
				c-0.2,0.1-0.4,0.1-0.7,0.1c-0.2,0-0.4,0-0.6-0.1c-0.2-0.1-0.3-0.2-0.5-0.3c-0.1-0.1-0.2-0.3-0.3-0.5c-0.1-0.2-0.1-0.4-0.1-0.6
				c0-0.2,0-0.4,0.1-0.6c0.1-0.2,0.2-0.4,0.3-0.5c0.1-0.1,0.3-0.3,0.5-0.3c0.2-0.1,0.4-0.1,0.6-0.1c0.2,0,0.5,0,0.7,0.1
				c0.2,0.1,0.4,0.2,0.5,0.4l0,0l0,0c-0.1,0.1-0.1,0.1-0.2,0.2c-0.1,0-0.1,0.1-0.2,0c-0.1,0-0.1,0-0.2,0c-0.1,0-0.1,0-0.2-0.1
				c-0.1,0-0.1-0.1-0.2-0.1C73.2,28.7,73.1,28.7,73,28.7z"/>
			<path class="st1" d="M75.2,27.2c-0.1,0.2-0.2,0.2-0.4,0.2c-0.1,0-0.1,0-0.2,0c-0.1,0-0.1-0.1-0.2-0.2c0-0.1-0.1-0.1-0.1-0.2
				c0-0.1,0-0.2,0.1-0.2c0-0.1,0.1-0.1,0.2-0.2c0.1,0,0.1-0.1,0.2-0.1c0.1,0,0.1,0,0.2,0.1c0.1,0,0.1,0.1,0.2,0.2
				c0,0.1,0.1,0.1,0.1,0.2C75.2,27,75.2,27.1,75.2,27.2z M75.7,30.7c0,0-0.1,0.1-0.1,0.1c-0.1,0-0.1,0-0.2,0s-0.1,0-0.1-0.1
				c0,0-0.1-0.1-0.1-0.2v-1.6c0-0.1,0-0.2,0-0.3c0-0.1,0-0.2,0-0.2c0-0.1,0-0.1,0-0.1c-0.3,0-0.5,0.1-0.6,0.2
				c-0.1,0.1-0.2,0.3-0.2,0.6l0,1.6c0,0.1,0,0.2,0.1,0.3c0,0.1,0.1,0.2,0.2,0.3c0.1,0.1,0.2,0.1,0.3,0.2c0.1,0,0.2,0.1,0.4,0
				c0.1,0,0.3-0.1,0.3-0.1c0.1-0.1,0.1-0.2,0.1-0.2C75.7,30.9,75.7,30.8,75.7,30.7z"/>
			<path class="st1" d="M78.3,28.6c0.1,0.1,0.3,0.3,0.3,0.5c0.1,0.2,0.1,0.4,0.1,0.6c0,0.2,0,0.4-0.1,0.6c-0.1,0.2-0.2,0.4-0.3,0.5
				c-0.1,0.2-0.3,0.3-0.5,0.4c-0.2,0.1-0.4,0.1-0.6,0.1c-0.2,0-0.4,0-0.6-0.1c-0.2-0.1-0.3-0.2-0.5-0.4c-0.1-0.1-0.2-0.3-0.3-0.5
				c-0.1-0.2-0.1-0.4-0.1-0.6c0-0.2,0-0.4,0.1-0.6c0.1-0.2,0.2-0.4,0.3-0.5c0.1-0.2,0.3-0.3,0.5-0.4c0.2-0.1,0.4-0.1,0.6-0.1
				c0.2,0,0.4,0,0.6,0.1C78,28.3,78.2,28.4,78.3,28.6z M77.2,30.8c0.1,0,0.1,0,0.2,0c0.1,0,0.2-0.1,0.2-0.2c0.1-0.1,0.1-0.2,0.2-0.3
				s0.1-0.3,0.1-0.5c0-0.2,0-0.4-0.1-0.5c-0.1-0.1-0.1-0.2-0.2-0.3c-0.1-0.1-0.1-0.1-0.2-0.2c-0.1,0-0.1,0-0.2,0c-0.1,0-0.1,0-0.2,0
				c-0.1,0-0.2,0.1-0.2,0.2c-0.1,0.1-0.1,0.2-0.2,0.3c0,0.1-0.1,0.3-0.1,0.5c0,0.2,0,0.4,0.1,0.5c0.1,0.1,0.1,0.2,0.2,0.3
				c0.1,0.1,0.1,0.1,0.2,0.2C77.1,30.8,77.2,30.8,77.2,30.8z"/>
			<path class="st1" d="M80.5,30.5c0-0.1,0-0.1-0.1-0.2c-0.1-0.1-0.1-0.1-0.2-0.2c-0.1,0-0.2-0.1-0.3-0.2c-0.1-0.1-0.3-0.1-0.4-0.2
				c-0.1-0.1-0.2-0.1-0.3-0.2c-0.1-0.1-0.1-0.2-0.2-0.3c0-0.1,0-0.2,0-0.3c0-0.1,0-0.2,0.1-0.3c0-0.1,0.1-0.2,0.2-0.3
				c0.1-0.1,0.2-0.1,0.2-0.2c0.1,0,0.2-0.1,0.3-0.1c0.1,0,0.2,0,0.3,0h0.1c0.2,0,0.5,0.1,0.7,0.2s0.4,0.2,0.5,0.4l0,0l0,0
				c0,0.1-0.1,0.1-0.2,0.1c-0.1,0-0.1,0-0.2,0c-0.1,0-0.1,0-0.2,0c-0.1,0-0.1-0.1-0.2-0.1c-0.1,0-0.2-0.1-0.2-0.1
				c-0.1,0-0.2,0-0.2,0c-0.1,0-0.2,0-0.2,0.1c-0.1,0-0.1,0.1-0.1,0.2c0,0.1,0,0.2,0.1,0.2c0.1,0.1,0.2,0.1,0.3,0.2
				c0.1,0.1,0.3,0.1,0.5,0.2c0.2,0.1,0.3,0.2,0.4,0.3c0.1,0.1,0.2,0.2,0.3,0.4c0.1,0.1,0.1,0.3,0,0.5c0,0.1-0.1,0.2-0.1,0.3
				C81.2,31,81.1,31,81,31.1c-0.1,0.1-0.2,0.1-0.4,0.2c-0.1,0-0.3,0.1-0.5,0.1c0,0-0.1,0-0.1,0c-0.2,0-0.4-0.1-0.6-0.2
				c-0.2-0.1-0.4-0.2-0.5-0.4l0,0l0,0c0,0,0-0.1,0.1-0.1c0,0,0.1,0,0.1-0.1c0.1,0,0.1,0,0.2,0c0.1,0,0.1,0,0.2,0
				c0.1,0,0.1,0.1,0.2,0.1c0.1,0,0.1,0.1,0.2,0.1c0.1,0,0.2,0,0.3,0c0.2,0,0.3,0,0.4-0.1C80.5,30.6,80.5,30.6,80.5,30.5z"/>
		</g>
	</g>
</g>
<g>
	<text transform="matrix(1 0 0 1 415.3662 32.5636)" class="st1 st18 st19">Menú 1</text>
</g>
<g>
	<text transform="matrix(1 0 0 1 504.6071 32.5636)" class="st1 st18 st19">Menú 2</text>
</g>
<g>
	<text transform="matrix(1 0 0 1 583.3813 32.5636)" class="st1 st18 st19">Cerrar Sesión</text>
</g>
<g>
	<g>
		<path class="st1" d="M359.2,74.8c-6.1,0-11-5-11-11c0-6.1,5-11,11-11c6.1,0,11,5,11,11C370.2,69.8,365.2,74.8,359.2,74.8z"/>
	</g>
	<g>
		<g>
			<path class="st0" d="M357.3,65.4c-0.8,0-1.4,0.6-1.4,1.4c0,0.8,0.6,1.4,1.4,1.4c0.8,0,1.4-0.6,1.4-1.4
				C358.8,66.1,358.1,65.4,357.3,65.4z M357.3,67.4c-0.3,0-0.6-0.3-0.6-0.6c0-0.3,0.3-0.6,0.6-0.6c0.3,0,0.6,0.3,0.6,0.6
				C357.9,67.2,357.7,67.4,357.3,67.4z"/>
			<path class="st0" d="M362.5,65.4c-0.8,0-1.4,0.6-1.4,1.4c0,0.8,0.6,1.4,1.4,1.4c0.8,0,1.4-0.6,1.4-1.4
				C363.9,66.1,363.3,65.4,362.5,65.4z M362.5,67.4c-0.3,0-0.6-0.3-0.6-0.6c0-0.3,0.3-0.6,0.6-0.6c0.3,0,0.6,0.3,0.6,0.6
				C363.1,67.2,362.8,67.4,362.5,67.4z"/>
			<path class="st0" d="M359.7,60.1h-5.9v5.6h-0.3c-0.2,0-0.3,0.1-0.3,0.3v0.6c0,0.2,0.1,0.3,0.3,0.3h0.3h1h0.8
				c0-0.9,0.7-1.6,1.6-1.6c0.9,0,1.6,0.7,1.6,1.6h1.8c0-0.9,0.7-1.6,1.6-1.6c0.9,0,1.6,0.7,1.6,1.6h0.6h1.1h0.2
				c0.2,0,0.3-0.1,0.3-0.3V66c0-0.2-0.1-0.3-0.3-0.3h-0.2v-0.6c0.1-0.1,0.2-0.2,0.2-0.4c0-0.2-0.1-0.3-0.2-0.4c0,0,0,0,0,0
				c0-0.1,0-0.1,0-0.2c0-0.1-0.1-0.2-0.1-0.3l-1.5-3.2c-0.1-0.1-0.1-0.2-0.3-0.3c-0.1-0.1-0.3-0.1-0.4-0.1h-3.2v4.6h-0.5L359.7,60.1
				z M361.7,63.9c-0.1,0-0.1,0-0.2-0.1c-0.1-0.1-0.1-0.1-0.1-0.2v-2.3c0-0.1,0-0.1,0.1-0.2c0.1,0,0.1-0.1,0.2-0.1h1.5
				c0.1,0,0.2,0,0.3,0.1c0.1,0.1,0.2,0.1,0.2,0.2l0.9,2c0,0.1,0,0.2,0,0.3c-0.1,0.1-0.2,0.2-0.3,0.2H361.7z"/>
		</g>
	</g>
</g>
<text transform="matrix(1 0 0 1 12.5029 74.9648)"><tspan x="0" y="0" class="st12 st18 st23">• Presupuestos</tspan><tspan x="0" y="16.9" class="st12 st18 st23">• Negocios confirmados</tspan><tspan x="0" y="33.8" class="st12 st18 st23">• Logística</tspan><tspan x="0" y="50.7" class="st12 st18 st23">• Comprobantes</tspan><tspan x="0" y="67.6" class="st12 st24 st23">• NOTIFICACIONES</tspan></text>
<line class="st15" x1="130.9" y1="48.4" x2="130.9" y2="415.9"/>
<rect x="4.2" y="132" class="st12" width="3.4" height="15.6"/>
<rect x="0.4" y="407.3" class="st3" width="709.6" height="17.2"/>
<text transform="matrix(1 0 0 1 152.5073 132.0779)"><tspan x="0" y="0" class="st0 st24 st23">DESTINATARIO</tspan><tspan x="66.8" y="0" class="st0 st24 st23 st25">	</tspan><tspan x="85.4" y="0" class="st0 st24 st23">EMPRESA</tspan><tspan x="128.8" y="0" class="st0 st24 st23 st26">	</tspan><tspan x="157.9" y="0" class="st0 st24 st23">DESTINO</tspan><tspan x="197.7" y="0" class="st0 st24 st23 st27">	</tspan><tspan x="283.2" y="0" class="st0 st24 st23">FECHA DE HOY</tspan><tspan x="350.5" y="0" class="st0 st24 st23 st28">	</tspan><tspan x="368.7" y="0" class="st0 st24 st23">ESTADO</tspan><tspan x="405.3" y="0" class="st0 st24 st23 st29">	</tspan><tspan x="454.7" y="0" class="st0 st24 st23">VER DETALLES</tspan><tspan x="0" y="24" class="st12 st18 st30">Carlos Perez</tspan><tspan x="40.3" y="24" class="st12 st18 st30 st31">	</tspan><tspan x="85.4" y="24" class="st12 st18 st30">Adema</tspan><tspan x="108.9" y="24" class="st12 st18 st30 st32">	</tspan><tspan x="157.9" y="24" class="st12 st18 st30">Pilar Bs As Colón 1546</tspan><tspan x="228.6" y="24" class="st12 st18 st30 st33">	</tspan><tspan x="283.2" y="24" class="st12 st18 st30">27/02/2021</tspan><tspan x="317.1" y="24" class="st12 st18 st30 st34">	</tspan><tspan x="368.7" y="24" class="st12 st18 st30">EN TIEMPO</tspan><tspan x="406" y="24" class="st12 st18 st30 st29">	</tspan><tspan x="0" y="45" class="st12 st18 st30">Carlos Perez</tspan><tspan x="40.3" y="45" class="st12 st18 st30 st31">	</tspan><tspan x="85.4" y="45" class="st12 st18 st30">Adema</tspan><tspan x="108.9" y="45" class="st12 st18 st30 st32">	</tspan><tspan x="157.9" y="45" class="st12 st18 st30">Pilar Bs As Colón 1546</tspan><tspan x="228.6" y="45" class="st12 st18 st30 st33">	</tspan><tspan x="283.2" y="45" class="st12 st18 st30">27/02/2021</tspan><tspan x="317.1" y="45" class="st12 st18 st30 st34">	</tspan><tspan x="368.7" y="45" class="st12 st18 st30">EN TRANSITO</tspan><tspan x="413.3" y="45" class="st12 st18 st30 st35">	</tspan><tspan x="0" y="66" class="st12 st18 st30">Carlos Perez</tspan><tspan x="40.3" y="66" class="st12 st18 st30 st31">	</tspan><tspan x="85.4" y="66" class="st12 st18 st30">Adema</tspan><tspan x="108.9" y="66" class="st12 st18 st30 st32">	</tspan><tspan x="157.9" y="66" class="st12 st18 st30">Pilar Bs As Colón 1546</tspan><tspan x="228.6" y="66" class="st12 st18 st30 st33">	</tspan><tspan x="283.2" y="66" class="st12 st18 st30">27/02/2021</tspan><tspan x="317.1" y="66" class="st12 st18 st30 st34">	</tspan><tspan x="368.7" y="66" class="st12 st18 st30">EN TIEMPO</tspan><tspan x="406" y="66" class="st12 st18 st30 st29">	</tspan><tspan x="0" y="87" class="st12 st18 st30">Carlos Perez</tspan><tspan x="40.3" y="87" class="st12 st18 st30 st31">	</tspan><tspan x="85.4" y="87" class="st12 st18 st30">Adema</tspan><tspan x="108.9" y="87" class="st12 st18 st30 st32">	</tspan><tspan x="157.9" y="87" class="st12 st18 st30">Pilar Bs As Colón 1546</tspan><tspan x="228.6" y="87" class="st12 st18 st30 st33">	</tspan><tspan x="283.2" y="87" class="st12 st18 st30">27/02/2021</tspan><tspan x="317.1" y="87" class="st12 st18 st30 st34">	</tspan><tspan x="368.7" y="87" class="st12 st18 st30">ENTREGADO</tspan><tspan x="411.2" y="87" class="st12 st18 st30 st36">	</tspan><tspan x="0" y="108" class="st12 st18 st30">Carlos Perez</tspan><tspan x="40.3" y="108" class="st12 st18 st30 st31">	</tspan><tspan x="85.4" y="108" class="st12 st18 st30">Adema</tspan><tspan x="108.9" y="108" class="st12 st18 st30 st32">	</tspan><tspan x="157.9" y="108" class="st12 st18 st30">Pilar Bs As Colón 1546</tspan><tspan x="228.6" y="108" class="st12 st18 st30 st33">	</tspan><tspan x="283.2" y="108" class="st12 st18 st30">27/02/2021</tspan><tspan x="317.1" y="108" class="st12 st18 st30 st34">	</tspan><tspan x="368.7" y="108" class="st12 st18 st30">EN TIEMPO</tspan><tspan x="406" y="108" class="st12 st18 st30 st29">	</tspan><tspan x="0" y="129" class="st12 st18 st30">Carlos Perez</tspan><tspan x="40.3" y="129" class="st12 st18 st30 st31">	</tspan><tspan x="85.4" y="129" class="st12 st18 st30">Adema</tspan><tspan x="108.9" y="129" class="st12 st18 st30 st32">	</tspan><tspan x="157.9" y="129" class="st12 st18 st30">Pilar Bs As Colón 1546</tspan><tspan x="228.6" y="129" class="st12 st18 st30 st33">	</tspan><tspan x="283.2" y="129" class="st12 st18 st30">27/02/2021</tspan><tspan x="317.1" y="129" class="st12 st18 st30 st34">	</tspan><tspan x="368.7" y="129" class="st12 st18 st30">CON DEMORA</tspan><tspan x="416" y="129" class="st12 st18 st30 st37">	</tspan><tspan x="0" y="150" class="st12 st18 st30">Carlos Perez</tspan><tspan x="40.3" y="150" class="st12 st18 st30 st31">	</tspan><tspan x="85.4" y="150" class="st12 st18 st30">Adema</tspan><tspan x="108.9" y="150" class="st12 st18 st30 st32">	</tspan><tspan x="157.9" y="150" class="st12 st18 st30">Pilar Bs As Colón 1546</tspan><tspan x="228.6" y="150" class="st12 st18 st30 st33">	</tspan><tspan x="283.2" y="150" class="st12 st18 st30">27/02/2021</tspan><tspan x="317.1" y="150" class="st12 st18 st30 st34">	</tspan><tspan x="368.7" y="150" class="st12 st18 st30">CON DEMORA</tspan><tspan x="416" y="150" class="st12 st18 st30 st37">	</tspan></text>
<g>
	<g>
		<g>
			
				<ellipse transform="matrix(0.1874 -0.9823 0.9823 0.1874 367.2001 752.8999)" class="st0" cx="638.6" cy="154.5" rx="6.5" ry="6.5"/>
		</g>
	</g>
	<path class="st1" d="M641.7,156.8l-2.1-2.1c0.5-0.8,0.4-1.9-0.3-2.6c-0.8-0.8-2.2-0.8-3,0c-0.8,0.8-0.8,2.2,0,3
		c0.7,0.7,1.8,0.8,2.6,0.3l2.1,2.1L641.7,156.8z M636.8,154.6c-0.6-0.6-0.6-1.5,0-2c0.6-0.6,1.5-0.6,2,0c0.6,0.6,0.6,1.5,0,2
		C638.3,155.2,637.4,155.2,636.8,154.6z"/>
</g>
<g>
	<g>
		<g>
			
				<ellipse transform="matrix(0.1874 -0.9823 0.9823 0.1874 266.2583 836.4075)" class="st0" cx="638.6" cy="257.3" rx="6.5" ry="6.5"/>
		</g>
	</g>
	<path class="st1" d="M641.7,259.5l-2.1-2.1c0.5-0.8,0.4-1.9-0.3-2.6c-0.8-0.8-2.2-0.8-3,0c-0.8,0.8-0.8,2.2,0,3
		c0.7,0.7,1.8,0.8,2.6,0.3l2.1,2.1L641.7,259.5z M636.8,257.4c-0.6-0.6-0.6-1.5,0-2c0.6-0.6,1.5-0.6,2,0c0.6,0.6,0.6,1.5,0,2
		C638.3,258,637.4,258,636.8,257.4z"/>
</g>
<g>
	<g>
		<g>
			
				<ellipse transform="matrix(0.1874 -0.9823 0.9823 0.1874 286.3453 819.7898)" class="st0" cx="638.6" cy="236.8" rx="6.5" ry="6.5"/>
		</g>
	</g>
	<path class="st1" d="M641.7,239.1l-2.1-2.1c0.5-0.8,0.4-1.9-0.3-2.6c-0.8-0.8-2.2-0.8-3,0c-0.8,0.8-0.8,2.2,0,3
		c0.7,0.7,1.8,0.8,2.6,0.3l2.1,2.1L641.7,239.1z M636.8,237c-0.6-0.6-0.6-1.5,0-2c0.6-0.6,1.5-0.6,2,0c0.6,0.6,0.6,1.5,0,2
		C638.3,237.5,637.4,237.5,636.8,237z"/>
</g>
<g>
	<g>
		<g>
			
				<ellipse transform="matrix(0.1874 -0.9823 0.9823 0.1874 306.8485 802.8278)" class="st0" cx="638.6" cy="216" rx="6.5" ry="6.5"/>
		</g>
	</g>
	<path class="st1" d="M641.7,218.2l-2.1-2.1c0.5-0.8,0.4-1.9-0.3-2.6c-0.8-0.8-2.2-0.8-3,0c-0.8,0.8-0.8,2.2,0,3
		c0.7,0.7,1.8,0.8,2.6,0.3l2.1,2.1L641.7,218.2z M636.8,216.1c-0.6-0.6-0.6-1.5,0-2c0.6-0.6,1.5-0.6,2,0c0.6,0.6,0.6,1.5,0,2
		C638.3,216.6,637.4,216.6,636.8,216.1z"/>
</g>
<g>
	<g>
		<g>
			
				<ellipse transform="matrix(0.1874 -0.9823 0.9823 0.1874 326.7727 786.3448)" class="st0" cx="638.6" cy="195.7" rx="6.5" ry="6.5"/>
		</g>
	</g>
	<path class="st1" d="M641.7,197.9l-2.1-2.1c0.5-0.8,0.4-1.9-0.3-2.6c-0.8-0.8-2.2-0.8-3,0c-0.8,0.8-0.8,2.2,0,3
		c0.7,0.7,1.8,0.8,2.6,0.3l2.1,2.1L641.7,197.9z M636.8,195.8c-0.6-0.6-0.6-1.5,0-2c0.6-0.6,1.5-0.6,2,0c0.6,0.6,0.6,1.5,0,2
		C638.3,196.4,637.4,196.4,636.8,195.8z"/>
</g>
<g>
	<g>
		<g>
			
				<ellipse transform="matrix(0.1874 -0.9823 0.9823 0.1874 346.9864 769.6224)" class="st0" cx="638.6" cy="175.1" rx="6.5" ry="6.5"/>
		</g>
	</g>
	<path class="st1" d="M641.7,177.4l-2.1-2.1c0.5-0.8,0.4-1.9-0.3-2.6c-0.8-0.8-2.2-0.8-3,0c-0.8,0.8-0.8,2.2,0,3
		c0.7,0.7,1.8,0.8,2.6,0.3l2.1,2.1L641.7,177.4z M636.8,175.2c-0.6-0.6-0.6-1.5,0-2c0.6-0.6,1.5-0.6,2,0c0.6,0.6,0.6,1.5,0,2
		C638.3,175.8,637.4,175.8,636.8,175.2z"/>
</g>
<g>
	<g>
		<g>
			
				<ellipse transform="matrix(0.1874 -0.9823 0.9823 0.1874 246.1712 853.0253)" class="st0" cx="638.6" cy="277.7" rx="6.5" ry="6.5"/>
		</g>
	</g>
	<path class="st1" d="M641.7,280l-2.1-2.1c0.5-0.8,0.4-1.9-0.3-2.6c-0.8-0.8-2.2-0.8-3,0c-0.8,0.8-0.8,2.2,0,3
		c0.7,0.7,1.8,0.8,2.6,0.3l2.1,2.1L641.7,280z M636.8,277.9c-0.6-0.6-0.6-1.5,0-2c0.6-0.6,1.5-0.6,2,0c0.6,0.6,0.6,1.5,0,2
		C638.3,278.4,637.4,278.4,636.8,277.9z"/>
</g>
<line class="st15" x1="709.8" y1="139.3" x2="130.5" y2="139.3"/>
</svg>
