<?xml version="1.0" encoding="utf-8"?>
<!-- Generator: Adobe Illustrator 22.1.0, SVG Export Plug-In . SVG Version: 6.00 Build 0)  -->
<svg version="1.1" id="Layer_1" xmlns="http://www.w3.org/2000/svg" xmlns:xlink="http://www.w3.org/1999/xlink" x="0px" y="0px"
	 viewBox="0 0 459.8 550.7" style="enable-background:new 0 0 459.8 550.7;" xml:space="preserve">
<style type="text/css">
	.st0{fill:#757474;}
	.st1{fill:#FFFFFF;}
	.st2{fill:#005321;}
	.st3{fill:#52AE32;}
	.st4{font-family:'Montserrat-Medium';}
	.st5{font-size:24.8117px;}
	.st6{font-size:17.9696px;}
	.st7{font-family:'Montserrat-Bold';}
	.st8{fill:#DCDCDC;}
	.st9{fill:#F9B041;}
	.st10{fill:#21386C;}
	.st11{fill:#144F9F;}
	.st12{fill:#F49523;}
	.st13{fill:none;stroke:#52AE32;stroke-miterlimit:10;}
	.st14{fill:none;stroke:#52AE32;stroke-miterlimit:10;stroke-dasharray:4.9052,4.9052;}
	.st15{fill:#E30613;}
	.st16{fill:#B2B2B2;}
	.st17{fill:#FFCC00;}
	.st18{fill:#9B9B9A;}
	.st19{fill:#706F6F;stroke:#706F6F;stroke-width:0.25;stroke-miterlimit:10;}
	.st20{fill:#4E4D4D;}
	.st21{fill:#706F6F;}
	.st22{fill:#FFED00;}
	.st23{fill:#E41513;}
	.st24{fill:#5AB031;}
</style>
<text transform="matrix(1 0 0 1 224.4268 374.6961)" class="st0 st4 st5">100/0/100/60</text>
<text transform="matrix(1 0 0 1 224.4272 271.3069)"><tspan x="0" y="0" class="st0 st4 st5">#4dff00</tspan><tspan x="0" y="29.8" class="st0 st4 st5">70/0/100/0</tspan></text>
<text transform="matrix(1 0 0 1 67.3965 144.4799)"><tspan x="0" y="0" class="st0 st4 st6">Tipografía Montserrat</tspan><tspan x="0" y="43.1" class="st0 st4 st6">Montserrat Regular</tspan><tspan x="0" y="64.7" class="st0 st7 st6">Montserrat Bold</tspan></text>
<text transform="matrix(1 0 0 1 224.4268 348.6502)" class="st0 st4 st5">#006600</text>
<rect x="67.4" y="254.9" class="st3" width="131.2" height="46.6"/>
<rect x="67.4" y="330.8" class="st2" width="131.2" height="46.6"/>
<text transform="matrix(1 0 0 1 224.4272 454.7586)" class="st0 st4 st5">0/0/0/68</text>
<text transform="matrix(1 0 0 1 224.4268 424.3709)" class="st0 st4 st5">#525252</text>
<rect x="67.4" y="412.8" class="st0" width="131.2" height="46.6"/>
</svg>
