<?xml version="1.0" encoding="utf-8"?>
<!-- Generator: Adobe Illustrator 22.1.0, SVG Export Plug-In . SVG Version: 6.00 Build 0)  -->
<svg version="1.1" id="Layer_1" xmlns="http://www.w3.org/2000/svg" xmlns:xlink="http://www.w3.org/1999/xlink" x="0px" y="0px"
	 viewBox="0 0 709.8 424.4" style="enable-background:new 0 0 709.8 424.4;" xml:space="preserve">
<style type="text/css">
	.st0{fill:#757474;}
	.st1{fill:#FFFFFF;}
	.st2{fill:#005321;}
	.st3{fill:#52AE32;}
	.st4{fill:#DCDCDC;}
	.st5{fill:#F9B041;}
	.st6{fill:#21386C;}
	.st7{fill:#144F9F;}
	.st8{fill:#F49523;}
	.st9{fill:none;stroke:#52AE32;stroke-miterlimit:10;}
	.st10{fill:none;stroke:#52AE32;stroke-miterlimit:10;stroke-dasharray:4.9052,4.9052;}
	.st11{fill:#E30613;}
	.st12{fill:#B2B2B2;}
	.st13{fill:#FFCC00;}
	.st14{fill:#9B9B9A;}
	.st15{fill:#706F6F;stroke:#706F6F;stroke-width:0.25;stroke-miterlimit:10;}
	.st16{fill:#4E4D4D;}
	.st17{fill:#706F6F;}
	.st18{fill:#FFED00;}
	.st19{fill:#E41513;}
	.st20{fill:#5AB031;}
</style>
<circle class="st3" cx="167.4" cy="144.2" r="41.7"/>
<circle class="st4" cx="344.4" cy="144.2" r="41.7"/>
<circle class="st4" cx="523.2" cy="144.2" r="41.7"/>
<rect class="st2" width="709.8" height="63.4"/>
<g>
	<path class="st1" d="M285.4,37.7c-1,0-2-0.2-2.8-0.4c-0.8-0.3-1.5-0.8-2.1-1.4c-0.6-0.6-1.1-1.5-1.4-2.5c-0.3-1-0.5-2.2-0.5-3.7v-5
		c0-1.1,0.2-2,0.5-2.6c0.3-0.6,0.8-1,1.5-1.3c0.4-0.2,0.8-0.3,1.4-0.3c0.3,0,0.7-0.1,1.1-0.1c0.4,0,0.8,0,1,0c0.8,0,1.6,0.1,2.2,0.3
		c0.6,0.2,1.1,0.5,1.5,0.9c0.4,0.4,0.7,0.8,0.9,1.3c0.2,0.5,0.3,1,0.3,1.6c0,0.5-0.1,1-0.3,1.4c-0.2,0.4-0.5,0.8-0.8,1.2
		c0.5,0.2,0.9,0.4,1.3,0.7c0.4,0.3,0.8,0.6,1.1,1c0.3,0.4,0.5,0.9,0.7,1.4c0.2,0.5,0.3,1.1,0.3,1.8c0,0.7-0.1,1.4-0.4,2.1
		c-0.3,0.7-0.7,1.2-1.2,1.8c-0.5,0.5-1.1,0.9-1.9,1.2C287.2,37.5,286.3,37.7,285.4,37.7z M285.4,35.3c0.5,0,1-0.1,1.3-0.3
		c0.4-0.2,0.7-0.4,0.9-0.7c0.2-0.3,0.4-0.6,0.5-1c0.1-0.4,0.2-0.8,0.2-1.2c0-0.7-0.1-1.3-0.4-1.7c-0.2-0.5-0.6-0.8-0.9-1.1
		c-0.4-0.2-0.8-0.4-1.3-0.5c-0.5-0.1-0.9-0.1-1.3-0.1c-0.4,0-0.7,0-1.1,0c-0.3,0-0.7,0-0.9,0c-0.3,0-0.6,0-0.9,0v1
		c0,1.1,0,2,0.2,2.7c0.2,0.7,0.4,1.3,0.7,1.7c0.3,0.4,0.7,0.7,1.2,0.9C284.3,35.2,284.8,35.3,285.4,35.3z M281.6,26.7h2
		c0.9,0,1.5-0.2,2-0.5c0.5-0.3,0.7-0.9,0.7-1.6c0-0.4-0.1-0.7-0.2-1c-0.1-0.3-0.3-0.5-0.5-0.7c-0.2-0.2-0.5-0.3-0.7-0.4
		c-0.3-0.1-0.5-0.1-0.8-0.1c-0.2,0-0.4,0-0.7,0c-0.3,0-0.6,0-0.8,0.1c-0.3,0.1-0.5,0.2-0.7,0.4c-0.2,0.2-0.3,0.4-0.3,0.7V26.7z"/>
	<path class="st1" d="M302.4,32.4c0,1.1-0.2,2-0.5,2.6c-0.3,0.7-0.7,1.2-1.2,1.6c-0.5,0.4-1.1,0.6-1.7,0.8c-0.6,0.1-1.2,0.2-1.9,0.2
		c-0.6,0-1.2-0.1-1.9-0.2c-0.6-0.1-1.2-0.4-1.7-0.8c-0.5-0.4-0.9-0.9-1.2-1.6c-0.3-0.7-0.5-1.6-0.5-2.6l0-3.4c0-1,0.3-1.7,0.8-2.1
		s1.3-0.6,2.3-0.6c0,0.1,0,0.2,0,0.4c0,0.2,0,0.4,0,0.7c0,0.3,0,0.7,0,1.2l0,3.7c0,0.7,0.1,1.2,0.2,1.6c0.1,0.4,0.3,0.7,0.5,1
		c0.2,0.2,0.5,0.4,0.7,0.5c0.3,0.1,0.5,0.1,0.8,0.1s0.5,0,0.8-0.1c0.3-0.1,0.5-0.2,0.7-0.5c0.2-0.2,0.4-0.5,0.5-1
		c0.1-0.4,0.2-0.9,0.2-1.6l0-3.4c0-1,0.3-1.7,0.8-2.1c0.5-0.4,1.3-0.6,2.3-0.6c0,0.1,0,0.2,0,0.4c0,0.2,0,0.4,0,0.7
		c0,0.3,0,0.7,0,1.2L302.4,32.4z"/>
	<path class="st1" d="M312.1,35.1c0.2,0.1,0.4,0.3,0.6,0.6l0.1,0.1l-0.1,0.1c-0.5,0.6-1.2,1-1.9,1.4c-0.7,0.3-1.5,0.5-2.4,0.5
		c-0.7,0-1.4-0.2-2.1-0.4c-0.7-0.3-1.2-0.7-1.7-1.2c-0.5-0.5-0.9-1.1-1.1-1.8c-0.3-0.7-0.4-1.5-0.4-2.3s0.1-1.6,0.4-2.3
		c0.2-0.7,0.6-1.3,1.1-1.8c0.5-0.5,1-0.9,1.7-1.2c0.7-0.3,1.4-0.5,2.2-0.5c0.4,0,0.9,0.1,1.5,0.2c0.5,0.1,1,0.4,1.5,0.7
		c0.5,0.3,0.9,0.7,1.2,1.2c0.3,0.5,0.5,1.1,0.5,1.7c0,0.7-0.2,1.2-0.5,1.6c-0.3,0.4-0.7,0.7-1.2,1c-0.5,0.2-1,0.4-1.5,0.5
		c-0.5,0.1-1,0.1-1.4,0.1c-0.6,0-1.1,0-1.6-0.1c-0.4-0.1-0.7-0.1-0.9-0.2c0.1,0.6,0.2,1.1,0.4,1.4c0.2,0.4,0.4,0.6,0.7,0.9
		c0.2,0.2,0.5,0.4,0.7,0.4c0.2,0.1,0.5,0.1,0.7,0.1c0.3,0,0.7,0,1-0.1c0.3-0.1,0.6-0.1,0.8-0.2c0.2-0.1,0.5-0.2,0.7-0.2
		c0.2-0.1,0.4-0.1,0.6-0.1C311.8,34.9,312,35,312.1,35.1z M308.4,28.2c-0.2,0-0.4,0.1-0.6,0.1c-0.2,0.1-0.5,0.2-0.7,0.4
		c-0.2,0.2-0.4,0.5-0.6,0.8c-0.2,0.4-0.3,0.8-0.4,1.3c0.3,0.1,0.6,0.2,1.1,0.2c0.5,0.1,0.9,0.1,1.4,0c0.5,0,0.9-0.2,1.3-0.4
		c0.4-0.2,0.6-0.6,0.6-1.1c0-0.4-0.1-0.7-0.5-1C309.6,28.3,309.1,28.1,308.4,28.2z"/>
	<path class="st1" d="M313.7,31.3c0-1.1,0.2-2,0.5-2.6c0.3-0.7,0.7-1.2,1.2-1.6c0.5-0.4,1-0.6,1.7-0.8c0.6-0.1,1.2-0.2,1.9-0.2
		c0.6,0,1.2,0.1,1.9,0.2c0.6,0.1,1.2,0.4,1.7,0.8c0.5,0.4,0.9,0.9,1.2,1.6c0.3,0.7,0.5,1.6,0.5,2.6l0.1,6.1c-1,0-1.7-0.2-2.3-0.6
		c-0.5-0.4-0.8-1.1-0.8-2.1l0-3.4c0-0.7-0.1-1.2-0.2-1.6c-0.1-0.4-0.3-0.7-0.5-1c-0.2-0.2-0.5-0.4-0.7-0.5c-0.3-0.1-0.5-0.1-0.8-0.1
		s-0.5,0-0.8,0.1c-0.3,0.1-0.5,0.2-0.7,0.5c-0.2,0.2-0.4,0.6-0.5,1s-0.2,1-0.2,1.6v3.7c0,0.5,0,0.9,0,1.2c0,0.3,0,0.5,0,0.7
		c0,0.2,0,0.3,0,0.4c-1,0-1.8-0.2-2.3-0.6c-0.5-0.4-0.8-1.1-0.8-2.1L313.7,31.3z"/>
	<path class="st1" d="M326.3,31.3c0.4-0.3,0.9-0.5,1.5-0.6c0.5-0.1,1.1-0.2,1.7-0.2c0.8,0,1.6,0.1,2.4,0.4c0-0.5-0.2-0.9-0.3-1.3
		c-0.2-0.5-0.5-0.9-0.9-1.1c-0.2-0.1-0.3-0.1-0.5-0.2c-0.2,0-0.4-0.1-0.6-0.1h-0.3c-0.2,0-0.4,0.1-0.7,0.1c-0.2,0.1-0.4,0.1-0.7,0.2
		c-0.2,0.1-0.5,0.1-0.7,0.2c-0.2,0.1-0.4,0.1-0.6,0.1c-0.2,0-0.4,0-0.7-0.1c-0.2-0.1-0.4-0.3-0.5-0.6l0-0.1l0-0.1
		c0.5-0.5,1.1-0.9,1.7-1.2c0.7-0.3,1.4-0.5,2.1-0.5c0.1,0,0.1,0,0.2,0c0.1,0,0.1,0,0.2,0c0.7,0,1.4,0.1,2,0.4
		c0.6,0.3,1.1,0.6,1.6,1.1c0.9,1,1.4,2.3,1.4,3.9v0.2c0,1.7-0.4,3-1.3,4.1c-0.4,0.5-0.9,0.9-1.5,1.3c-0.6,0.3-1.2,0.5-2,0.6
		c-0.1,0-0.2,0-0.3,0c-0.1,0-0.2,0-0.3,0c-0.3,0-0.7,0-1.1-0.1c-0.4-0.1-0.7-0.2-1.1-0.3c-0.4-0.1-0.7-0.3-1-0.6
		c-0.3-0.2-0.6-0.5-0.8-0.9c-0.3-0.5-0.5-1-0.5-1.7v-0.1c0-0.6,0.1-1.1,0.4-1.6C325.4,31.9,325.8,31.6,326.3,31.3z M331.2,32.4
		c-0.2,0-0.4-0.1-0.7-0.1c-0.3,0-0.5,0-0.8,0c-0.2,0-0.4,0-0.7,0c-0.2,0-0.4,0.1-0.6,0.1c-0.4,0.1-0.7,0.3-0.9,0.6
		c-0.1,0.1-0.1,0.2-0.2,0.3c0,0.1-0.1,0.3-0.1,0.4c0,0,0,0.1,0,0.2c0,0.2,0,0.3,0.1,0.5c0,0.2,0.1,0.4,0.3,0.5
		c0.1,0.2,0.3,0.3,0.6,0.4c0.2,0.1,0.6,0.2,1,0.2c0.1,0,0.2,0,0.3,0c0.5,0,0.8-0.1,1.2-0.4c0.2-0.1,0.3-0.2,0.4-0.4
		c0.1-0.1,0.2-0.3,0.3-0.4c0.2-0.3,0.3-0.6,0.4-0.9c0.1-0.3,0.1-0.6,0.1-0.9c0,0,0,0,0,0c0,0,0,0,0,0c-0.1,0-0.1,0-0.2,0
		C331.5,32.5,331.4,32.5,331.2,32.4z"/>
	<path class="st1" d="M348.6,20.7c-1,2.6-1.9,4.9-2.7,7c-0.4,0.9-0.7,1.8-1.1,2.7c-0.4,0.9-0.7,1.7-1,2.5c-0.3,0.8-0.6,1.4-0.8,2
		c-0.2,0.6-0.4,1-0.6,1.2c-0.3,0.5-0.6,0.9-1,1.1c-0.4,0.2-0.7,0.3-1,0.3c-0.4,0-0.8,0-1.2-0.1l-6.7-16.8c0.4-0.1,0.8-0.1,1.2-0.1
		c0.4,0,0.8,0.1,1.1,0.2c0.3,0.1,0.6,0.3,0.9,0.6c0.3,0.3,0.5,0.6,0.7,1c0,0.1,0.1,0.3,0.2,0.6c0.1,0.3,0.3,0.8,0.5,1.3
		c0.2,0.5,0.4,1.1,0.7,1.7c0.2,0.6,0.5,1.3,0.7,2c0.6,1.6,1.3,3.3,2,5.2c0.7-1.9,1.4-3.7,2-5.2c0.3-0.7,0.5-1.3,0.7-2
		c0.2-0.6,0.5-1.2,0.7-1.7c0.2-0.5,0.4-1,0.5-1.3c0.1-0.3,0.2-0.6,0.3-0.6c0.2-0.4,0.4-0.7,0.7-1c0.3-0.2,0.6-0.4,0.9-0.6
		c0.3-0.1,0.7-0.2,1.1-0.2C347.8,20.6,348.2,20.6,348.6,20.7z"/>
	<path class="st1" d="M354.9,35.1c0.2,0.1,0.4,0.3,0.6,0.6l0.1,0.1l-0.1,0.1c-0.5,0.6-1.2,1-1.9,1.4c-0.7,0.3-1.5,0.5-2.4,0.5
		c-0.7,0-1.4-0.2-2.1-0.4c-0.7-0.3-1.2-0.7-1.7-1.2c-0.5-0.5-0.9-1.1-1.1-1.8c-0.3-0.7-0.4-1.5-0.4-2.3s0.1-1.6,0.4-2.3
		c0.2-0.7,0.6-1.3,1.1-1.8c0.5-0.5,1-0.9,1.7-1.2c0.7-0.3,1.4-0.5,2.2-0.5c0.4,0,0.9,0.1,1.5,0.2c0.5,0.1,1,0.4,1.5,0.7
		c0.5,0.3,0.9,0.7,1.2,1.2c0.3,0.5,0.5,1.1,0.5,1.7c0,0.7-0.2,1.2-0.5,1.6c-0.3,0.4-0.7,0.7-1.2,1c-0.5,0.2-1,0.4-1.5,0.5
		c-0.5,0.1-1,0.1-1.4,0.1c-0.6,0-1.1,0-1.6-0.1c-0.4-0.1-0.7-0.1-0.9-0.2c0.1,0.6,0.2,1.1,0.4,1.4c0.2,0.4,0.4,0.6,0.7,0.9
		c0.2,0.2,0.5,0.4,0.7,0.4c0.2,0.1,0.5,0.1,0.7,0.1c0.3,0,0.7,0,1-0.1c0.3-0.1,0.6-0.1,0.8-0.2c0.2-0.1,0.5-0.2,0.7-0.2
		c0.2-0.1,0.4-0.1,0.6-0.1C354.5,34.9,354.7,35,354.9,35.1z M351.2,28.2c-0.2,0-0.4,0.1-0.6,0.1c-0.2,0.1-0.5,0.2-0.7,0.4
		c-0.2,0.2-0.4,0.5-0.6,0.8c-0.2,0.4-0.3,0.8-0.4,1.3c0.3,0.1,0.6,0.2,1.1,0.2c0.5,0.1,0.9,0.1,1.4,0c0.5,0,0.9-0.2,1.3-0.4
		c0.4-0.2,0.6-0.6,0.6-1.1c0-0.4-0.1-0.7-0.5-1C352.3,28.3,351.8,28.1,351.2,28.2z"/>
	<path class="st1" d="M356.4,31.3c0-1.1,0.2-2,0.5-2.6c0.3-0.7,0.7-1.2,1.2-1.6c0.5-0.4,1-0.6,1.7-0.8c0.6-0.1,1.2-0.2,1.9-0.2
		c0.6,0,1.2,0.1,1.9,0.2c0.6,0.1,1.2,0.4,1.7,0.8c0.5,0.4,0.9,0.9,1.2,1.6c0.3,0.7,0.5,1.6,0.5,2.6l0.1,6.1c-1,0-1.7-0.2-2.3-0.6
		c-0.5-0.4-0.8-1.1-0.8-2.1l0-3.4c0-0.7-0.1-1.2-0.2-1.6c-0.1-0.4-0.3-0.7-0.5-1c-0.2-0.2-0.5-0.4-0.7-0.5c-0.3-0.1-0.5-0.1-0.8-0.1
		s-0.5,0-0.8,0.1c-0.3,0.1-0.5,0.2-0.7,0.5c-0.2,0.2-0.4,0.6-0.5,1c-0.1,0.4-0.2,1-0.2,1.6v3.7c0,0.5,0,0.9,0,1.2c0,0.3,0,0.5,0,0.7
		c0,0.2,0,0.3,0,0.4c-1,0-1.8-0.2-2.3-0.6c-0.5-0.4-0.8-1.1-0.8-2.1L356.4,31.3z"/>
	<path class="st1" d="M374.3,35.3c0,0,0,0.1,0,0.2c0,0.1,0,0.2,0,0.4c0,0.3-0.1,0.6-0.2,0.8c-0.1,0.2-0.3,0.4-0.5,0.6
		c-0.4,0.3-1,0.5-1.6,0.5c-0.5,0-1.1-0.1-1.6-0.4c-0.5-0.2-1-0.6-1.4-1.1c-0.4-0.5-0.7-1.1-1-1.8c-0.2-0.7-0.4-1.6-0.4-2.5l0-7
		c0-1,0.3-1.7,0.8-2.1c0.5-0.4,1.3-0.6,2.2-0.6c0,0.1,0,0.3,0,0.5c0,0.2,0,0.4,0,0.7c0,0.3,0,0.7,0,1.2l0,1.5h3.2
		c0,0.7-0.2,1.3-0.6,1.7s-1,0.7-1.7,0.7h-0.9l0,3.4c0,0.7,0.1,1.2,0.2,1.7c0.1,0.5,0.3,0.8,0.5,1.1c0.4,0.5,1,0.8,1.7,0.8
		c0.3,0,0.6,0,0.9-0.1C374,35.4,374.2,35.3,374.3,35.3z"/>
	<path class="st1" d="M384.9,32.4c0,1.1-0.2,2-0.5,2.6c-0.3,0.7-0.7,1.2-1.2,1.6c-0.5,0.4-1.1,0.6-1.7,0.8c-0.6,0.1-1.2,0.2-1.9,0.2
		c-0.6,0-1.2-0.1-1.9-0.2c-0.6-0.1-1.2-0.4-1.7-0.8c-0.5-0.4-0.9-0.9-1.2-1.6c-0.3-0.7-0.5-1.6-0.5-2.6l0-3.4c0-1,0.3-1.7,0.8-2.1
		s1.3-0.6,2.3-0.6c0,0.1,0,0.2,0,0.4c0,0.2,0,0.4,0,0.7c0,0.3,0,0.7,0,1.2l0,3.7c0,0.7,0.1,1.2,0.2,1.6c0.1,0.4,0.3,0.7,0.5,1
		c0.2,0.2,0.5,0.4,0.7,0.5c0.3,0.1,0.5,0.1,0.8,0.1s0.5,0,0.8-0.1c0.3-0.1,0.5-0.2,0.7-0.5c0.2-0.2,0.4-0.5,0.5-1
		c0.1-0.4,0.2-0.9,0.2-1.6l0-3.4c0-1,0.3-1.7,0.8-2.1c0.5-0.4,1.3-0.6,2.3-0.6c0,0.1,0,0.2,0,0.4c0,0.2,0,0.4,0,0.7
		c0,0.3,0,0.7,0,1.2L384.9,32.4z"/>
	<path class="st1" d="M385.7,31.6c0-1.1,0.2-2,0.5-2.6c0.3-0.7,0.7-1.2,1.2-1.6c0.5-0.4,1.1-0.6,1.7-0.8c0.6-0.1,1.2-0.2,1.8-0.2
		h1.2c0.1,0.3,0.1,0.6,0,0.9c0,0.2-0.1,0.5-0.3,0.7c-0.2,0.2-0.5,0.4-0.9,0.4c-0.3,0-0.5,0.1-0.8,0.2c-0.3,0.1-0.5,0.2-0.7,0.5
		c-0.2,0.2-0.4,0.5-0.5,0.9c-0.1,0.4-0.2,0.9-0.2,1.6v3.5c0,0.5,0,0.9,0,1.2c0,0.3,0,0.5,0,0.7c0,0.2,0,0.3,0,0.4
		c-1,0-1.7-0.2-2.3-0.6c-0.5-0.4-0.8-1.1-0.8-2.1V31.6z"/>
	<path class="st1" d="M393.5,31.3c0.4-0.3,0.9-0.5,1.5-0.6c0.5-0.1,1.1-0.2,1.7-0.2c0.8,0,1.6,0.1,2.4,0.4c0-0.5-0.2-0.9-0.3-1.3
		c-0.2-0.5-0.5-0.9-0.9-1.1c-0.2-0.1-0.3-0.1-0.5-0.2c-0.2,0-0.4-0.1-0.6-0.1h-0.3c-0.2,0-0.4,0.1-0.7,0.1c-0.2,0.1-0.4,0.1-0.7,0.2
		c-0.2,0.1-0.5,0.1-0.7,0.2c-0.2,0.1-0.4,0.1-0.6,0.1c-0.2,0-0.4,0-0.7-0.1c-0.2-0.1-0.4-0.3-0.5-0.6l0-0.1l0-0.1
		c0.5-0.5,1.1-0.9,1.7-1.2c0.7-0.3,1.4-0.5,2.1-0.5c0.1,0,0.1,0,0.2,0c0.1,0,0.1,0,0.2,0c0.7,0,1.4,0.1,2,0.4
		c0.6,0.3,1.1,0.6,1.6,1.1c0.9,1,1.4,2.3,1.4,3.9v0.2c0,1.7-0.4,3-1.3,4.1c-0.4,0.5-0.9,0.9-1.5,1.3c-0.6,0.3-1.2,0.5-2,0.6
		c-0.1,0-0.2,0-0.3,0c-0.1,0-0.2,0-0.3,0c-0.3,0-0.7,0-1.1-0.1c-0.4-0.1-0.7-0.2-1.1-0.3c-0.4-0.1-0.7-0.3-1-0.6
		c-0.3-0.2-0.6-0.5-0.8-0.9c-0.3-0.5-0.5-1-0.5-1.7v-0.1c0-0.6,0.1-1.1,0.4-1.6C392.7,31.9,393,31.6,393.5,31.3z M398.5,32.4
		c-0.2,0-0.4-0.1-0.7-0.1c-0.3,0-0.5,0-0.8,0c-0.2,0-0.4,0-0.7,0c-0.2,0-0.4,0.1-0.6,0.1c-0.4,0.1-0.7,0.3-0.9,0.6
		c-0.1,0.1-0.1,0.2-0.2,0.3c0,0.1-0.1,0.3-0.1,0.4c0,0,0,0.1,0,0.2c0,0.2,0,0.3,0.1,0.5c0,0.2,0.1,0.4,0.3,0.5
		c0.1,0.2,0.3,0.3,0.6,0.4c0.2,0.1,0.6,0.2,1,0.2c0.1,0,0.2,0,0.3,0c0.5,0,0.8-0.1,1.2-0.4c0.2-0.1,0.3-0.2,0.4-0.4
		c0.1-0.1,0.2-0.3,0.3-0.4c0.2-0.3,0.3-0.6,0.4-0.9c0.1-0.3,0.1-0.6,0.1-0.9c0,0,0,0,0,0c0,0,0,0,0,0c-0.1,0-0.1,0-0.2,0
		C398.7,32.5,398.6,32.5,398.5,32.4z"/>
	<g>
		<g>
			<path class="st1" d="M323.2,46.8c0,0.1,0,0.1,0.1,0.2c0,0.1,0,0.1,0.1,0.2c0,0.1,0,0.1,0.1,0.2c-0.2,0-0.4,0.1-0.5,0
				c-0.1,0-0.3-0.1-0.4-0.1c-0.1-0.1-0.3-0.2-0.3-0.4c0-0.1-0.1-0.3-0.2-0.5c-0.1-0.3-0.2-0.5-0.4-0.9H319c-0.1,0.3-0.3,0.6-0.4,0.9
				c-0.1,0.3-0.2,0.4-0.2,0.5c-0.1,0.2-0.2,0.3-0.3,0.4c-0.1,0.1-0.3,0.1-0.4,0.1c-0.2,0-0.3,0-0.5,0c0-0.1,0-0.1,0.1-0.2
				c0,0,0-0.1,0.1-0.2c0-0.1,0-0.1,0.1-0.2c0-0.1,0.1-0.3,0.2-0.6c0.1-0.3,0.2-0.6,0.4-0.9c0.1-0.4,0.3-0.7,0.4-1.1
				c0.2-0.4,0.3-0.8,0.4-1.1c0.1-0.4,0.3-0.7,0.4-0.9c0.1-0.3,0.2-0.5,0.2-0.6c0.1-0.2,0.1-0.3,0.2-0.4c0.1-0.1,0.2-0.2,0.2-0.2
				c0.1-0.1,0.1-0.1,0.2-0.1c0.1,0,0.1,0,0.2,0c0.1,0,0.1,0,0.2,0c0.1,0,0.1,0.1,0.2,0.1c0.1,0.1,0.1,0.1,0.2,0.2
				c0.1,0.1,0.1,0.2,0.2,0.4c0,0.1,0.1,0.3,0.2,0.6c0.1,0.3,0.2,0.6,0.4,0.9c0.1,0.4,0.3,0.7,0.4,1.1c0.2,0.4,0.3,0.8,0.4,1.1
				c0.1,0.4,0.3,0.7,0.4,0.9C323.1,46.5,323.2,46.7,323.2,46.8z M321.2,44.5c-0.1-0.3-0.2-0.6-0.4-0.9c-0.1-0.3-0.2-0.6-0.3-0.8
				c-0.1-0.3-0.2-0.5-0.3-0.8c-0.1,0.2-0.2,0.5-0.3,0.8c-0.1,0.2-0.2,0.5-0.3,0.8c-0.1,0.3-0.2,0.6-0.4,0.9H321.2z"/>
			<path class="st1" d="M324.4,47.2c0.3-0.1,0.6-0.1,0.9-0.2c0.3,0,0.6,0,0.9,0.1c0.3,0.1,0.5,0.2,0.7,0.4c0.2,0.2,0.3,0.5,0.3,0.8
				c0,0.3-0.1,0.5-0.2,0.7c-0.1,0.2-0.2,0.3-0.4,0.5c-0.2,0.1-0.4,0.2-0.6,0.2c-0.2,0-0.4,0.1-0.5,0.1h-0.1c-0.3,0-0.5-0.1-0.8-0.2
				c-0.2-0.1-0.4-0.3-0.6-0.5c-0.2-0.2-0.3-0.4-0.4-0.7s-0.2-0.6-0.2-0.9c0,0,0,0,0-0.1c0,0,0,0,0-0.1c0-0.4,0.1-0.7,0.2-1
				c0.1-0.3,0.3-0.5,0.5-0.7c-0.2-0.1-0.4-0.3-0.5-0.5c-0.1-0.2-0.2-0.4-0.2-0.7c0-0.2,0-0.4,0.1-0.6c0.1-0.2,0.2-0.4,0.4-0.5
				c0.2-0.1,0.4-0.3,0.6-0.3c0.2-0.1,0.5-0.1,0.7-0.1c0.3,0,0.5,0,0.8,0.1c0.2,0.1,0.4,0.2,0.6,0.3c0.3,0.3,0.5,0.7,0.5,1.1
				c0,0.2,0,0.4-0.1,0.6c-0.1,0.2-0.2,0.4-0.4,0.5c-0.2,0.1-0.3,0.3-0.6,0.3c-0.2,0.1-0.4,0.1-0.7,0.1v0h-0.1c-0.2,0-0.4,0-0.5,0.1
				c-0.1,0.1-0.2,0.2-0.3,0.3c-0.1,0.1-0.1,0.2-0.1,0.4C324.4,47,324.4,47.1,324.4,47.2z M326,48.7c0.1-0.1,0.1-0.1,0.1-0.2
				c0-0.1,0-0.1,0-0.2c0-0.1,0-0.1,0-0.1c0-0.1-0.1-0.2-0.1-0.2c0-0.1-0.1-0.1-0.2-0.1c-0.1,0-0.2-0.1-0.3-0.1c-0.1,0-0.2,0-0.3,0
				s-0.2,0-0.3,0c-0.1,0-0.2,0-0.3,0c-0.1,0-0.2,0-0.2,0.1c-0.1,0-0.1,0-0.1,0c0,0.1,0,0.2,0,0.2c0,0.1,0,0.2,0.1,0.3
				c0,0.1,0.1,0.2,0.2,0.3c0.1,0.1,0.1,0.1,0.2,0.2c0.1,0.1,0.3,0.1,0.5,0.1s0.3,0,0.4-0.1C325.9,48.8,326,48.8,326,48.7z
				 M325.3,43.7c-0.1,0-0.1,0-0.2,0c-0.1,0-0.2,0.1-0.2,0.1c-0.1,0.1-0.1,0.1-0.2,0.3s-0.1,0.2-0.1,0.4c0,0.2,0,0.3,0.1,0.4
				c0,0.1,0.1,0.2,0.2,0.2c0.1,0.1,0.1,0.1,0.2,0.1c0.1,0,0.1,0,0.2,0c0.1,0,0.1,0,0.2,0c0.1,0,0.2-0.1,0.2-0.1
				c0.1-0.1,0.1-0.1,0.2-0.2c0-0.1,0.1-0.2,0.1-0.4c0-0.2,0-0.3-0.1-0.4c0-0.1-0.1-0.2-0.2-0.3c-0.1-0.1-0.1-0.1-0.2-0.1
				C325.4,43.7,325.3,43.7,325.3,43.7z"/>
			<path class="st1" d="M327.2,45.1c0-0.4,0.1-0.7,0.2-1c0.1-0.3,0.3-0.5,0.5-0.6c0.2-0.1,0.4-0.2,0.6-0.3c0.2-0.1,0.5-0.1,0.7-0.1
				h0.5c0,0.1,0,0.2,0,0.4c0,0.1-0.1,0.2-0.1,0.3c-0.1,0.1-0.2,0.1-0.3,0.2c-0.1,0-0.2,0-0.3,0.1c-0.1,0-0.2,0.1-0.3,0.2
				c-0.1,0.1-0.1,0.2-0.2,0.4c-0.1,0.2-0.1,0.4-0.1,0.6v1.3c0,0.2,0,0.3,0,0.4c0,0.1,0,0.2,0,0.3c0,0.1,0,0.1,0,0.2
				c-0.4,0-0.7-0.1-0.9-0.2c-0.2-0.2-0.3-0.4-0.3-0.8V45.1z"/>
			<path class="st1" d="M332.9,43.6c0.2,0.2,0.3,0.4,0.4,0.7c0.1,0.3,0.2,0.6,0.2,0.9c0,0.3,0,0.6-0.1,0.9c-0.1,0.3-0.2,0.5-0.4,0.7
				c-0.2,0.2-0.4,0.4-0.7,0.5c-0.3,0.1-0.5,0.2-0.9,0.2c-0.3,0-0.5-0.1-0.8-0.2c-0.2-0.1-0.5-0.3-0.7-0.5c-0.2-0.2-0.3-0.4-0.4-0.7
				c-0.1-0.3-0.2-0.6-0.2-0.9c0-0.3,0-0.6,0.1-0.9c0.1-0.3,0.2-0.5,0.4-0.7c0.2-0.2,0.4-0.4,0.7-0.5c0.3-0.1,0.5-0.2,0.9-0.2
				c0.3,0,0.6,0.1,0.8,0.2C332.5,43.3,332.7,43.4,332.9,43.6z M331.4,46.6c0.1,0,0.2,0,0.3-0.1c0.1,0,0.2-0.1,0.3-0.2
				c0.1-0.1,0.2-0.2,0.2-0.4c0.1-0.2,0.1-0.4,0.1-0.7c0-0.3,0-0.5-0.1-0.7c-0.1-0.2-0.2-0.3-0.2-0.4c-0.1-0.1-0.2-0.2-0.3-0.2
				c-0.1,0-0.2-0.1-0.3-0.1c-0.1,0-0.2,0-0.3,0.1c-0.1,0-0.2,0.1-0.3,0.2c-0.1,0.1-0.2,0.2-0.2,0.4c-0.1,0.2-0.1,0.4-0.1,0.7
				c0,0.3,0,0.5,0.1,0.7c0.1,0.2,0.2,0.3,0.2,0.4c0.1,0.1,0.2,0.2,0.3,0.2C331.3,46.6,331.3,46.6,331.4,46.6z"/>
			<path class="st1" d="M333.7,45c0-0.4,0.1-0.7,0.2-1c0.1-0.3,0.3-0.5,0.5-0.6c0.2-0.1,0.4-0.2,0.6-0.3c0.2-0.1,0.5-0.1,0.7-0.1
				c0.2,0,0.5,0,0.7,0.1c0.2,0.1,0.5,0.2,0.7,0.3c0.2,0.1,0.4,0.4,0.5,0.6s0.2,0.6,0.2,1l0,2.3c-0.4,0-0.7-0.1-0.9-0.2
				c-0.2-0.2-0.3-0.4-0.3-0.8l0-1.3c0-0.3,0-0.5-0.1-0.6c-0.1-0.2-0.1-0.3-0.2-0.4c-0.1-0.1-0.2-0.1-0.3-0.2c-0.1,0-0.2,0-0.3,0
				c-0.1,0-0.2,0-0.3,0c-0.1,0-0.2,0.1-0.3,0.2c-0.1,0.1-0.2,0.2-0.2,0.4c-0.1,0.2-0.1,0.4-0.1,0.6v1.4c0,0.2,0,0.3,0,0.5
				c0,0.1,0,0.2,0,0.3c0,0.1,0,0.1,0,0.2c-0.4,0-0.7-0.1-0.9-0.2c-0.2-0.2-0.3-0.4-0.3-0.8L333.7,45z"/>
			<path class="st1" d="M341.5,46.4c0.1,0,0.1,0.1,0.2,0.2l0,0l0,0c-0.2,0.2-0.4,0.4-0.7,0.5c-0.3,0.1-0.6,0.2-0.9,0.2
				c-0.3,0-0.5-0.1-0.8-0.2c-0.2-0.1-0.5-0.3-0.7-0.5c-0.2-0.2-0.3-0.4-0.4-0.7c-0.1-0.3-0.2-0.6-0.2-0.9c0-0.3,0-0.6,0.1-0.9
				c0.1-0.3,0.2-0.5,0.4-0.7c0.2-0.2,0.4-0.4,0.7-0.5c0.3-0.1,0.5-0.2,0.9-0.2c0.2,0,0.4,0,0.6,0.1c0.2,0.1,0.4,0.1,0.6,0.2
				c0.2,0.1,0.3,0.3,0.4,0.4c0.1,0.2,0.2,0.4,0.2,0.7c0,0.3-0.1,0.5-0.2,0.6c-0.1,0.2-0.3,0.3-0.5,0.4c-0.2,0.1-0.4,0.2-0.6,0.2
				c-0.2,0-0.4,0.1-0.5,0.1c-0.2,0-0.4,0-0.6,0c-0.2,0-0.3,0-0.3-0.1c0,0.2,0.1,0.4,0.1,0.5c0.1,0.1,0.2,0.2,0.2,0.3
				c0.1,0.1,0.2,0.1,0.3,0.2c0.1,0,0.2,0,0.2,0c0.1,0,0.3,0,0.4,0c0.1,0,0.2-0.1,0.3-0.1c0.1,0,0.2-0.1,0.3-0.1c0.1,0,0.2,0,0.2,0
				C341.3,46.3,341.4,46.4,341.5,46.4z M340.1,43.8c-0.1,0-0.1,0-0.2,0.1c-0.1,0-0.2,0.1-0.3,0.2c-0.1,0.1-0.2,0.2-0.2,0.3
				c-0.1,0.1-0.1,0.3-0.2,0.5c0.1,0,0.2,0.1,0.4,0.1c0.2,0,0.4,0,0.5,0c0.2,0,0.3-0.1,0.5-0.2c0.1-0.1,0.2-0.2,0.2-0.4
				c0-0.2,0-0.3-0.2-0.4C340.5,43.8,340.3,43.7,340.1,43.8z"/>
			<path class="st1" d="M342.9,47.2c0.3-0.1,0.6-0.1,0.9-0.2c0.3,0,0.6,0,0.9,0.1c0.3,0.1,0.5,0.2,0.7,0.4c0.2,0.2,0.3,0.5,0.3,0.8
				c0,0.3-0.1,0.5-0.2,0.7c-0.1,0.2-0.2,0.3-0.4,0.5c-0.2,0.1-0.4,0.2-0.6,0.2c-0.2,0-0.4,0.1-0.5,0.1h-0.1c-0.3,0-0.5-0.1-0.8-0.2
				c-0.2-0.1-0.4-0.3-0.6-0.5c-0.2-0.2-0.3-0.4-0.4-0.7s-0.2-0.6-0.2-0.9c0,0,0,0,0-0.1c0,0,0,0,0-0.1c0-0.4,0.1-0.7,0.2-1
				c0.1-0.3,0.3-0.5,0.5-0.7c-0.2-0.1-0.4-0.3-0.5-0.5c-0.1-0.2-0.2-0.4-0.2-0.7c0-0.2,0-0.4,0.1-0.6c0.1-0.2,0.2-0.4,0.4-0.5
				c0.2-0.1,0.4-0.3,0.6-0.3c0.2-0.1,0.5-0.1,0.7-0.1c0.3,0,0.5,0,0.8,0.1c0.2,0.1,0.4,0.2,0.6,0.3c0.3,0.3,0.5,0.7,0.5,1.1
				c0,0.2,0,0.4-0.1,0.6c-0.1,0.2-0.2,0.4-0.4,0.5c-0.2,0.1-0.3,0.3-0.6,0.3c-0.2,0.1-0.4,0.1-0.7,0.1v0h-0.1c-0.2,0-0.4,0-0.5,0.1
				c-0.1,0.1-0.2,0.2-0.3,0.3c-0.1,0.1-0.1,0.2-0.1,0.4C342.9,47,342.9,47.1,342.9,47.2z M344.6,48.7c0.1-0.1,0.1-0.1,0.1-0.2
				c0-0.1,0-0.1,0-0.2c0-0.1,0-0.1,0-0.1c0-0.1-0.1-0.2-0.1-0.2c0-0.1-0.1-0.1-0.2-0.1c-0.1,0-0.2-0.1-0.3-0.1c-0.1,0-0.2,0-0.3,0
				s-0.2,0-0.3,0c-0.1,0-0.2,0-0.3,0c-0.1,0-0.2,0-0.2,0.1c-0.1,0-0.1,0-0.1,0c0,0.1,0,0.2,0,0.2c0,0.1,0,0.2,0.1,0.3
				c0,0.1,0.1,0.2,0.2,0.3c0.1,0.1,0.1,0.1,0.2,0.2c0.1,0.1,0.3,0.1,0.5,0.1c0.2,0,0.3,0,0.4-0.1C344.4,48.8,344.5,48.8,344.6,48.7z
				 M343.8,43.7c-0.1,0-0.1,0-0.2,0c-0.1,0-0.2,0.1-0.2,0.1c-0.1,0.1-0.1,0.1-0.2,0.3s-0.1,0.2-0.1,0.4c0,0.2,0,0.3,0.1,0.4
				c0,0.1,0.1,0.2,0.2,0.2c0.1,0.1,0.1,0.1,0.2,0.1c0.1,0,0.1,0,0.2,0c0.1,0,0.1,0,0.2,0c0.1,0,0.2-0.1,0.2-0.1
				c0.1-0.1,0.1-0.1,0.2-0.2c0-0.1,0.1-0.2,0.1-0.4c0-0.2,0-0.3-0.1-0.4c0-0.1-0.1-0.2-0.2-0.3c-0.1-0.1-0.1-0.1-0.2-0.1
				C343.9,43.7,343.9,43.7,343.8,43.7z"/>
			<path class="st1" d="M349.2,43.6c0.2,0.2,0.3,0.4,0.4,0.7c0.1,0.3,0.2,0.6,0.2,0.9c0,0.3,0,0.6-0.1,0.9c-0.1,0.3-0.2,0.5-0.4,0.7
				c-0.2,0.2-0.4,0.4-0.7,0.5c-0.3,0.1-0.5,0.2-0.9,0.2c-0.3,0-0.5-0.1-0.8-0.2c-0.2-0.1-0.5-0.3-0.7-0.5c-0.2-0.2-0.3-0.4-0.4-0.7
				c-0.1-0.3-0.2-0.6-0.2-0.9c0-0.3,0-0.6,0.1-0.9c0.1-0.3,0.2-0.5,0.4-0.7c0.2-0.2,0.4-0.4,0.7-0.5c0.3-0.1,0.5-0.2,0.9-0.2
				c0.3,0,0.6,0.1,0.8,0.2C348.8,43.3,349.1,43.4,349.2,43.6z M347.8,46.6c0.1,0,0.2,0,0.3-0.1c0.1,0,0.2-0.1,0.3-0.2
				c0.1-0.1,0.2-0.2,0.2-0.4c0.1-0.2,0.1-0.4,0.1-0.7c0-0.3,0-0.5-0.1-0.7c-0.1-0.2-0.2-0.3-0.2-0.4c-0.1-0.1-0.2-0.2-0.3-0.2
				c-0.1,0-0.2-0.1-0.3-0.1c-0.1,0-0.2,0-0.3,0.1c-0.1,0-0.2,0.1-0.3,0.2c-0.1,0.1-0.2,0.2-0.2,0.4c-0.1,0.2-0.1,0.4-0.1,0.7
				c0,0.3,0,0.5,0.1,0.7c0.1,0.2,0.2,0.3,0.2,0.4c0.1,0.1,0.2,0.2,0.3,0.2C347.6,46.6,347.7,46.6,347.8,46.6z"/>
			<path class="st1" d="M352.1,43.8c-0.1,0-0.2,0-0.3,0.1c-0.1,0-0.2,0.1-0.3,0.2c-0.1,0.1-0.2,0.2-0.2,0.4
				c-0.1,0.2-0.1,0.4-0.1,0.7c0,0.3,0,0.5,0.1,0.7c0.1,0.2,0.2,0.3,0.2,0.4c0.1,0.1,0.2,0.2,0.3,0.2c0.1,0,0.2,0.1,0.3,0.1
				c0.1,0,0.3,0,0.4,0c0.1,0,0.2-0.1,0.3-0.1c0.1,0,0.2-0.1,0.3-0.1c0.1,0,0.2,0,0.2,0c0.1,0,0.2,0,0.2,0.1c0.1,0,0.1,0.1,0.2,0.2
				l0,0l0,0c-0.2,0.2-0.4,0.4-0.7,0.5c-0.3,0.1-0.6,0.2-0.9,0.2c-0.3,0-0.6-0.1-0.8-0.2c-0.2-0.1-0.5-0.3-0.7-0.5
				c-0.2-0.2-0.3-0.4-0.4-0.7c-0.1-0.3-0.2-0.6-0.2-0.9c0-0.3,0-0.6,0.1-0.9c0.1-0.3,0.2-0.5,0.4-0.7c0.2-0.2,0.4-0.4,0.6-0.5
				c0.3-0.1,0.5-0.2,0.8-0.2c0.3,0,0.6,0.1,0.9,0.2c0.3,0.1,0.5,0.3,0.7,0.5l0,0l0,0c-0.1,0.1-0.1,0.2-0.2,0.2
				c-0.1,0-0.2,0.1-0.2,0.1c-0.1,0-0.2,0-0.2,0c-0.1,0-0.2-0.1-0.3-0.1c-0.1,0-0.2-0.1-0.3-0.1C352.3,43.8,352.2,43.8,352.1,43.8z"
				/>
			<path class="st1" d="M355.1,41.7c-0.1,0.2-0.3,0.3-0.5,0.3c-0.1,0-0.2,0-0.3-0.1c-0.1-0.1-0.2-0.1-0.2-0.2c0-0.1-0.1-0.2-0.1-0.3
				c0-0.1,0-0.2,0.1-0.3c0.1-0.1,0.1-0.2,0.2-0.2c0.1-0.1,0.2-0.1,0.3-0.1c0.1,0,0.2,0,0.3,0.1c0.1,0,0.2,0.1,0.2,0.2
				c0,0.1,0.1,0.2,0.1,0.3C355.2,41.5,355.1,41.6,355.1,41.7z M355.8,46.5c0,0-0.1,0.1-0.2,0.1c-0.1,0-0.1,0-0.2,0s-0.1-0.1-0.2-0.1
				c-0.1-0.1-0.1-0.2-0.1-0.3V44c0-0.2,0-0.3,0-0.4c0-0.1,0-0.2,0-0.3c0-0.1,0-0.1,0-0.2c-0.4,0-0.7,0.1-0.9,0.2
				c-0.2,0.2-0.3,0.4-0.3,0.8l0,2.2c0,0.2,0,0.3,0.1,0.4c0,0.1,0.1,0.3,0.2,0.4c0.1,0.1,0.2,0.2,0.4,0.2c0.1,0.1,0.3,0.1,0.5,0.1
				c0.2,0,0.3-0.1,0.4-0.2c0.1-0.1,0.2-0.2,0.2-0.3C355.8,46.8,355.8,46.6,355.8,46.5z"/>
			<path class="st1" d="M359.3,43.6c0.2,0.2,0.3,0.4,0.4,0.7c0.1,0.3,0.2,0.6,0.2,0.9c0,0.3,0,0.6-0.1,0.9c-0.1,0.3-0.2,0.5-0.4,0.7
				c-0.2,0.2-0.4,0.4-0.7,0.5c-0.3,0.1-0.5,0.2-0.9,0.2c-0.3,0-0.5-0.1-0.8-0.2c-0.2-0.1-0.5-0.3-0.7-0.5c-0.2-0.2-0.3-0.4-0.4-0.7
				c-0.1-0.3-0.2-0.6-0.2-0.9c0-0.3,0-0.6,0.1-0.9c0.1-0.3,0.2-0.5,0.4-0.7c0.2-0.2,0.4-0.4,0.7-0.5c0.3-0.1,0.5-0.2,0.9-0.2
				c0.3,0,0.6,0.1,0.8,0.2C358.9,43.3,359.1,43.4,359.3,43.6z M357.8,46.6c0.1,0,0.2,0,0.3-0.1c0.1,0,0.2-0.1,0.3-0.2
				c0.1-0.1,0.2-0.2,0.2-0.4c0.1-0.2,0.1-0.4,0.1-0.7c0-0.3,0-0.5-0.1-0.7c-0.1-0.2-0.2-0.3-0.2-0.4c-0.1-0.1-0.2-0.2-0.3-0.2
				c-0.1,0-0.2-0.1-0.3-0.1c-0.1,0-0.2,0-0.3,0.1c-0.1,0-0.2,0.1-0.3,0.2c-0.1,0.1-0.2,0.2-0.2,0.4c-0.1,0.2-0.1,0.4-0.1,0.7
				c0,0.3,0,0.5,0.1,0.7c0.1,0.2,0.2,0.3,0.2,0.4c0.1,0.1,0.2,0.2,0.3,0.2C357.6,46.6,357.7,46.6,357.8,46.6z"/>
			<path class="st1" d="M362.3,46.2c0-0.1,0-0.2-0.1-0.3c-0.1-0.1-0.2-0.1-0.3-0.2c-0.1-0.1-0.3-0.1-0.5-0.2
				c-0.2-0.1-0.4-0.2-0.6-0.3c-0.1-0.1-0.3-0.2-0.4-0.3c-0.1-0.1-0.2-0.2-0.2-0.4c0-0.1-0.1-0.3-0.1-0.4c0-0.1,0-0.3,0.1-0.4
				c0.1-0.1,0.1-0.2,0.2-0.3c0.1-0.1,0.2-0.2,0.3-0.2c0.1-0.1,0.2-0.1,0.4-0.1c0.1,0,0.2,0,0.3,0h0.1c0.3,0,0.6,0.1,0.9,0.2
				c0.3,0.1,0.5,0.3,0.7,0.6l0,0l0,0c-0.1,0.1-0.1,0.2-0.2,0.2c-0.1,0-0.1,0.1-0.2,0.1c-0.1,0-0.2,0-0.2-0.1c-0.1,0-0.2-0.1-0.3-0.1
				c-0.1,0-0.2-0.1-0.3-0.1c-0.1,0-0.2-0.1-0.3-0.1c-0.1,0-0.2,0-0.3,0.1c-0.1,0.1-0.1,0.1-0.1,0.2c0,0.1,0,0.2,0.1,0.3
				c0.1,0.1,0.2,0.1,0.4,0.2c0.2,0.1,0.4,0.2,0.6,0.3c0.2,0.1,0.4,0.2,0.6,0.4c0.2,0.1,0.3,0.3,0.4,0.5c0.1,0.2,0.1,0.4,0,0.7
				c0,0.1-0.1,0.2-0.2,0.3c-0.1,0.1-0.2,0.2-0.3,0.3c-0.1,0.1-0.3,0.2-0.5,0.2c-0.2,0.1-0.4,0.1-0.7,0.1c0,0-0.1,0-0.1,0
				c-0.3,0-0.6-0.1-0.9-0.2c-0.3-0.1-0.5-0.3-0.7-0.6l0,0l0,0c0,0,0.1-0.1,0.1-0.1c0,0,0.1-0.1,0.1-0.1c0.1,0,0.1-0.1,0.2-0.1
				c0.1,0,0.2,0,0.2,0.1c0.1,0,0.2,0.1,0.3,0.1c0.1,0,0.2,0.1,0.3,0.1c0.1,0,0.2,0.1,0.4,0.1c0.2,0,0.4,0,0.5-0.1
				C362.2,46.4,362.3,46.3,362.3,46.2z"/>
		</g>
	</g>
</g>
<g>
	<path class="st5" d="M371,144.9l-0.1-0.2c-3.3-3.8-8.2-6-13.2-6c-0.4,0-0.6,0.3-0.6,0.6l-0.2,12.9h-35c-0.4,0-0.6,0.3-0.6,0.6v5.2
		c0,0.4,0.3,0.6,0.6,0.6h50.8c0.4,0,0.6-0.3,0.6-0.6V151C373.3,148.8,372.5,146.6,371,144.9z"/>
	<path class="st6" d="M349.9,126.6h-26.6c-2.8,0-5.1,2.3-5.1,5.1v16.9c0,2.8,2.3,5.1,5.1,5.1h26.6c2.8,0,5.1-2.3,5.1-5.1v-16.9
		C355,128.9,352.7,126.6,349.9,126.6z"/>
	<g>
		<path class="st6" d="M368.2,159.1c0,2.2-1.8,4-4,4c-2.2,0-4-1.8-4-4c0-2.2,1.8-4,4-4C366.4,155.1,368.2,156.9,368.2,159.1z"/>
		<path class="st6" d="M364.2,163.9c-2.7,0-4.8-2.2-4.8-4.8c0-2.7,2.2-4.8,4.8-4.8c2.7,0,4.8,2.2,4.8,4.8
			C369,161.7,366.9,163.9,364.2,163.9z M364.2,156c-1.7,0-3.1,1.4-3.1,3.1c0,1.7,1.4,3.1,3.1,3.1c1.7,0,3.1-1.4,3.1-3.1
			C367.3,157.4,365.9,156,364.2,156z"/>
	</g>
	<path class="st7" d="M349.9,126.7h-26.5c-2.8,0-5.1,2.2-5.1,4.9v9.3H355v-9.3C355,128.9,352.7,126.7,349.9,126.7z"/>
	<path class="st5" d="M348.5,140.4l-8.3-7.1c-0.3-0.2-0.6-0.3-0.9-0.1c-0.3,0.1-0.5,0.4-0.5,0.8v3.3h-13.5c-0.5,0-0.9,0.4-0.9,0.9
		v5.4c0,0.5,0.4,0.9,0.9,0.9h13.5v3.3c0,0.3,0.2,0.6,0.5,0.8c0.1,0.1,0.2,0.1,0.4,0.1c0.2,0,0.4-0.1,0.5-0.2l8.3-6.7
		c0.2-0.2,0.3-0.4,0.3-0.7C348.8,140.8,348.7,140.6,348.5,140.4z"/>
	<path class="st6" d="M373,148.7c-0.4-1.4-1-2.7-2-3.7l-0.1-0.2c-2.3-2.6-5.2-4.4-8.5-5.3c-0.2-0.1-0.4,0-0.6,0.1
		c-0.2,0.1-0.3,0.3-0.3,0.5v8.8c0,0.4,0.3,0.6,0.6,0.6h10.2c0.2,0,0.4-0.1,0.5-0.3C373,149.1,373.1,148.9,373,148.7z"/>
	<path class="st6" d="M329.1,154.3c-2.7,0-4.8,2.2-4.8,4.8c0,2.7,2.2,4.8,4.8,4.8c2.7,0,4.8-2.2,4.8-4.8
		C333.9,156.4,331.8,154.3,329.1,154.3z"/>
	<path class="st6" d="M364.2,154.3c-2.7,0-4.8,2.2-4.8,4.8c0,2.7,2.2,4.8,4.8,4.8c2.7,0,4.8-2.2,4.8-4.8
		C369,156.4,366.9,154.3,364.2,154.3z"/>
	<path class="st8" d="M324.5,140.8v2.7c0,0.5,0.4,0.9,0.9,0.9h13.5v3.3c0,0.3,0.2,0.6,0.5,0.8c0.1,0.1,0.2,0.1,0.4,0.1
		c0.2,0,0.4-0.1,0.5-0.2l8.3-6.7c0.2-0.2,0.3-0.4,0.3-0.7c0-0.1,0-0.1,0-0.2H324.5z"/>
	<path class="st7" d="M329.1,155.7c-1.9,0-3.4,1.5-3.4,3.4c0,1.9,1.5,3.4,3.4,3.4c1.9,0,3.4-1.5,3.4-3.4
		C332.5,157.2,331,155.7,329.1,155.7z"/>
	<path class="st7" d="M364.2,155.7c-1.9,0-3.4,1.5-3.4,3.4c0,1.9,1.5,3.4,3.4,3.4c1.9,0,3.4-1.5,3.4-3.4
		C367.6,157.2,366.1,155.7,364.2,155.7z"/>
</g>
<g>
	<path class="st8" d="M183,130.1c-0.1-0.2-0.2-0.3-0.3-0.4l-11.6-4.9c-0.3-0.1-0.7,0-0.8,0.3l-4,9.4c-0.1,0.2-0.1,0.3,0,0.5
		c0.1,0.2,0.2,0.3,0.3,0.4l11.6,4.9c0.1,0,0.2,0.1,0.3,0.1c0.3,0,0.5-0.1,0.6-0.4l4-9.4C183,130.4,183,130.2,183,130.1z"/>
	<path class="st5" d="M179,139.5c-0.1-0.2-0.2-0.3-0.3-0.4l-20.6-8.7c-0.3-0.1-0.7,0-0.8,0.3l-6.4,15c-0.1,0.3,0,0.7,0.3,0.8
		l20.6,8.7c0.1,0,0.2,0.1,0.3,0.1c0.1,0,0.2,0,0.2,0c0.2-0.1,0.3-0.2,0.4-0.3l6.4-15C179,139.8,179,139.6,179,139.5z"/>
	
		<rect x="166.4" y="129.4" transform="matrix(0.3903 -0.9207 0.9207 0.3903 -16.1321 238.7578)" class="st5" width="11.5" height="4.4"/>
	<g>
		<path class="st6" d="M169.7,160.1l15.9-37.6L169.7,160.1z"/>
		<path class="st6" d="M169.7,160.8c-0.1,0-0.2,0-0.3-0.1c-0.3-0.1-0.5-0.5-0.3-0.8l15.9-37.6c0.1-0.3,0.5-0.5,0.8-0.3
			c0.3,0.1,0.5,0.5,0.3,0.8l-15.9,37.6C170.2,160.6,170,160.8,169.7,160.8z"/>
	</g>
	<path class="st7" d="M198.2,127.2l-12.3-5.2c-0.2-0.1-0.3-0.1-0.5,0c-0.2,0.1-0.3,0.2-0.4,0.3l-1.3,3c-0.1,0.3,0,0.7,0.3,0.8
		l12.3,5.2c0.1,0,0.2,0.1,0.3,0.1c0.1,0,0.2,0,0.2,0c0.2-0.1,0.3-0.2,0.4-0.3l1.3-3C198.7,127.7,198.5,127.3,198.2,127.2z"/>
	
		<rect x="151.5" y="138.7" transform="matrix(0.3902 -0.9207 0.9207 0.3902 -32.004 233.4895)" class="st8" width="17.6" height="4.4"/>
	<path class="st7" d="M172.3,154.1l-25.9-11c-0.2-0.1-0.3-0.1-0.5,0c-0.2,0.1-0.3,0.2-0.4,0.3l-2.3,5.4c-0.1,0.2-0.1,0.3,0,0.5
		c0.1,0.2,0.2,0.3,0.3,0.4l25.9,11c0.1,0,0.2,0.1,0.3,0.1c0.1,0,0.2,0,0.2,0c0.2-0.1,0.3-0.2,0.4-0.3l2.3-5.4
		C172.7,154.7,172.6,154.3,172.3,154.1z"/>
	<path class="st6" d="M172.9,152.5c-4.2-1.8-9,0.2-10.8,4.4c-1.8,4.2,0.2,9,4.4,10.8c1,0.4,2.1,0.7,3.2,0.7c3.2,0,6.3-1.9,7.6-5
		C179.1,159.1,177.1,154.3,172.9,152.5z"/>
	<path class="st7" d="M170.9,157.4c-1.5-0.6-3.2,0.1-3.8,1.6c-0.6,1.5,0.1,3.2,1.6,3.8c0.4,0.2,0.8,0.2,1.1,0.2
		c1.1,0,2.2-0.7,2.7-1.8C173.1,159.8,172.4,158,170.9,157.4z"/>
</g>
<g>
	<path class="st7" d="M537.1,129.5h-25.6c-2.3,0-4.2,1.9-4.2,4.2V164c0,0.4,0.3,0.6,0.6,0.6h32.8c0.4,0,0.6-0.3,0.6-0.6v-30.3
		C541.3,131.4,539.4,129.5,537.1,129.5z"/>
	<g>
		<path class="st6" d="M512.2,130.8c-0.5,0-0.9-0.4-0.9-0.9v-4.8c0-0.5,0.4-0.9,0.9-0.9c0.5,0,0.9,0.4,0.9,0.9v4.8
			C513.1,130.4,512.7,130.8,512.2,130.8z"/>
	</g>
	<g>
		<path class="st6" d="M536.5,130.8c-0.5,0-0.9-0.4-0.9-0.9v-4.8c0-0.5,0.4-0.9,0.9-0.9c0.5,0,0.9,0.4,0.9,0.9v4.8
			C537.4,130.4,537,130.8,536.5,130.8z"/>
	</g>
	<rect x="518.5" y="147.4" class="st1" width="11.4" height="8.6"/>
	<rect x="507.1" y="147.4" class="st6" width="11.4" height="8.6"/>
	<rect x="518.6" y="138.8" class="st6" width="11.4" height="8.6"/>
	<rect x="518.6" y="156" class="st6" width="11.4" height="8.6"/>
	<rect x="529.9" y="147.4" class="st6" width="11.4" height="8.6"/>
	<g>
		<path class="st5" d="M530.4,144.1l-3.8-3.8c-0.1-0.1-0.3-0.2-0.5-0.2c-0.2,0-0.3,0.1-0.5,0.2l-12.8,12.8l-5.8-5.8
			c-0.3-0.3-0.7-0.3-0.9,0l-3.5,3.5c-0.1,0.1-0.2,0.3-0.2,0.5c0,0.2,0.1,0.3,0.2,0.5l10.1,10.1c0.1,0.1,0.3,0.2,0.5,0.2
			c0.2,0,0.3-0.1,0.5-0.2l16.8-16.8C530.7,144.8,530.7,144.4,530.4,144.1z"/>
		<path class="st8" d="M513,153.1c0,0-0.1,0-0.1,0l-5.8-5.8c-0.3-0.3-0.7-0.3-0.9,0l-3.5,3.5c-0.3,0.3-0.3,0.7,0,0.9l10.1,10.1
			c0.1,0.1,0.2,0.2,0.3,0.2V153.1z"/>
	</g>
	<path class="st5" d="M537.1,129.5h-25.6c-2.3,0-4.2,1.9-4.2,4.2v4.6c0,0.4,0.3,0.6,0.6,0.6h32.8c0.4,0,0.6-0.3,0.6-0.6v-4.6
		C541.3,131.4,539.4,129.5,537.1,129.5z"/>
</g>
<g>
	<g>
		<line class="st9" x1="216.4" y1="144.5" x2="218.9" y2="144.5"/>
		<line class="st10" x1="223.8" y1="144.5" x2="290.1" y2="144.5"/>
		<line class="st9" x1="292.5" y1="144.5" x2="295" y2="144.5"/>
	</g>
</g>
<g>
	<g>
		<line class="st9" x1="391.2" y1="144.5" x2="393.7" y2="144.5"/>
		<line class="st10" x1="398.6" y1="144.5" x2="464.8" y2="144.5"/>
		<line class="st9" x1="467.3" y1="144.5" x2="469.8" y2="144.5"/>
	</g>
</g>
<circle class="st3" cx="167.4" cy="245.2" r="41.7"/>
<circle class="st3" cx="344.4" cy="245.2" r="41.7"/>
<circle class="st4" cx="523.2" cy="245.2" r="41.7"/>
<g>
	<path class="st5" d="M371,245.9l-0.1-0.2c-3.3-3.8-8.2-6-13.2-6c-0.4,0-0.6,0.3-0.6,0.6l-0.2,12.9h-35c-0.4,0-0.6,0.3-0.6,0.6v5.2
		c0,0.4,0.3,0.6,0.6,0.6h50.8c0.4,0,0.6-0.3,0.6-0.6V252C373.3,249.8,372.5,247.6,371,245.9z"/>
	<path class="st6" d="M349.9,227.6h-26.6c-2.8,0-5.1,2.3-5.1,5.1v16.9c0,2.8,2.3,5.1,5.1,5.1h26.6c2.8,0,5.1-2.3,5.1-5.1v-16.9
		C355,229.9,352.7,227.6,349.9,227.6z"/>
	<g>
		<path class="st6" d="M368.2,260.1c0,2.2-1.8,4-4,4c-2.2,0-4-1.8-4-4c0-2.2,1.8-4,4-4C366.4,256.1,368.2,257.9,368.2,260.1z"/>
		<path class="st6" d="M364.2,264.9c-2.7,0-4.8-2.2-4.8-4.8c0-2.7,2.2-4.8,4.8-4.8c2.7,0,4.8,2.2,4.8,4.8
			C369,262.7,366.9,264.9,364.2,264.9z M364.2,257c-1.7,0-3.1,1.4-3.1,3.1c0,1.7,1.4,3.1,3.1,3.1c1.7,0,3.1-1.4,3.1-3.1
			C367.3,258.4,365.9,257,364.2,257z"/>
	</g>
	<path class="st7" d="M349.9,227.7h-26.5c-2.8,0-5.1,2.2-5.1,4.9v9.3H355v-9.3C355,229.9,352.7,227.7,349.9,227.7z"/>
	<path class="st5" d="M348.5,241.4l-8.3-7.1c-0.3-0.2-0.6-0.3-0.9-0.1c-0.3,0.1-0.5,0.4-0.5,0.8v3.3h-13.5c-0.5,0-0.9,0.4-0.9,0.9
		v5.4c0,0.5,0.4,0.9,0.9,0.9h13.5v3.3c0,0.3,0.2,0.6,0.5,0.8c0.1,0.1,0.2,0.1,0.4,0.1c0.2,0,0.4-0.1,0.5-0.2l8.3-6.7
		c0.2-0.2,0.3-0.4,0.3-0.7C348.8,241.8,348.7,241.6,348.5,241.4z"/>
	<path class="st6" d="M373,249.7c-0.4-1.4-1-2.7-2-3.7l-0.1-0.2c-2.3-2.6-5.2-4.4-8.5-5.3c-0.2-0.1-0.4,0-0.6,0.1
		c-0.2,0.1-0.3,0.3-0.3,0.5v8.8c0,0.4,0.3,0.6,0.6,0.6h10.2c0.2,0,0.4-0.1,0.5-0.3C373,250.1,373.1,249.9,373,249.7z"/>
	<path class="st6" d="M329.1,255.3c-2.7,0-4.8,2.2-4.8,4.8c0,2.7,2.2,4.8,4.8,4.8c2.7,0,4.8-2.2,4.8-4.8
		C333.9,257.4,331.8,255.3,329.1,255.3z"/>
	<path class="st6" d="M364.2,255.3c-2.7,0-4.8,2.2-4.8,4.8c0,2.7,2.2,4.8,4.8,4.8c2.7,0,4.8-2.2,4.8-4.8
		C369,257.4,366.9,255.3,364.2,255.3z"/>
	<path class="st8" d="M324.5,241.8v2.7c0,0.5,0.4,0.9,0.9,0.9h13.5v3.3c0,0.3,0.2,0.6,0.5,0.8c0.1,0.1,0.2,0.1,0.4,0.1
		c0.2,0,0.4-0.1,0.5-0.2l8.3-6.7c0.2-0.2,0.3-0.4,0.3-0.7c0-0.1,0-0.1,0-0.2H324.5z"/>
	<path class="st7" d="M329.1,256.7c-1.9,0-3.4,1.5-3.4,3.4c0,1.9,1.5,3.4,3.4,3.4c1.9,0,3.4-1.5,3.4-3.4
		C332.5,258.2,331,256.7,329.1,256.7z"/>
	<path class="st7" d="M364.2,256.7c-1.9,0-3.4,1.5-3.4,3.4c0,1.9,1.5,3.4,3.4,3.4c1.9,0,3.4-1.5,3.4-3.4
		C367.6,258.2,366.1,256.7,364.2,256.7z"/>
</g>
<g>
	<path class="st8" d="M183,231.1c-0.1-0.2-0.2-0.3-0.3-0.4l-11.6-4.9c-0.3-0.1-0.7,0-0.8,0.3l-4,9.4c-0.1,0.2-0.1,0.3,0,0.5
		c0.1,0.2,0.2,0.3,0.3,0.4l11.6,4.9c0.1,0,0.2,0.1,0.3,0.1c0.3,0,0.5-0.1,0.6-0.4l4-9.4C183,231.4,183,231.2,183,231.1z"/>
	<path class="st5" d="M179,240.5c-0.1-0.2-0.2-0.3-0.3-0.4l-20.6-8.7c-0.3-0.1-0.7,0-0.8,0.3l-6.4,15c-0.1,0.3,0,0.7,0.3,0.8
		l20.6,8.7c0.1,0,0.2,0.1,0.3,0.1c0.1,0,0.2,0,0.2,0c0.2-0.1,0.3-0.2,0.4-0.3l6.4-15C179,240.8,179,240.6,179,240.5z"/>
	
		<rect x="166.4" y="230.4" transform="matrix(0.3903 -0.9207 0.9207 0.3903 -109.1233 300.3416)" class="st5" width="11.5" height="4.4"/>
	<g>
		<path class="st6" d="M169.7,261.1l15.9-37.6L169.7,261.1z"/>
		<path class="st6" d="M169.7,261.8c-0.1,0-0.2,0-0.3-0.1c-0.3-0.1-0.5-0.5-0.3-0.8l15.9-37.6c0.1-0.3,0.5-0.5,0.8-0.3
			c0.3,0.1,0.5,0.5,0.3,0.8l-15.9,37.6C170.2,261.6,170,261.8,169.7,261.8z"/>
	</g>
	<path class="st7" d="M198.2,228.2l-12.3-5.2c-0.2-0.1-0.3-0.1-0.5,0c-0.2,0.1-0.3,0.2-0.4,0.3l-1.3,3c-0.1,0.3,0,0.7,0.3,0.8
		l12.3,5.2c0.1,0,0.2,0.1,0.3,0.1c0.1,0,0.2,0,0.2,0c0.2-0.1,0.3-0.2,0.4-0.3l1.3-3C198.7,228.7,198.5,228.3,198.2,228.2z"/>
	
		<rect x="151.5" y="239.7" transform="matrix(0.3902 -0.9207 0.9207 0.3902 -124.9961 295.0754)" class="st8" width="17.6" height="4.4"/>
	<path class="st7" d="M172.3,255.1l-25.9-11c-0.2-0.1-0.3-0.1-0.5,0c-0.2,0.1-0.3,0.2-0.4,0.3l-2.3,5.4c-0.1,0.2-0.1,0.3,0,0.5
		c0.1,0.2,0.2,0.3,0.3,0.4l25.9,11c0.1,0,0.2,0.1,0.3,0.1c0.1,0,0.2,0,0.2,0c0.2-0.1,0.3-0.2,0.4-0.3l2.3-5.4
		C172.7,255.7,172.6,255.3,172.3,255.1z"/>
	<path class="st6" d="M172.9,253.5c-4.2-1.8-9,0.2-10.8,4.4c-1.8,4.2,0.2,9,4.4,10.8c1,0.4,2.1,0.7,3.2,0.7c3.2,0,6.3-1.9,7.6-5
		C179.1,260.1,177.1,255.3,172.9,253.5z"/>
	<path class="st7" d="M170.9,258.4c-1.5-0.6-3.2,0.1-3.8,1.6c-0.6,1.5,0.1,3.2,1.6,3.8c0.4,0.2,0.8,0.2,1.1,0.2
		c1.1,0,2.2-0.7,2.7-1.8C173.1,260.8,172.4,259,170.9,258.4z"/>
</g>
<g>
	<path class="st7" d="M537.1,230.5h-25.6c-2.3,0-4.2,1.9-4.2,4.2V265c0,0.4,0.3,0.6,0.6,0.6h32.8c0.4,0,0.6-0.3,0.6-0.6v-30.3
		C541.3,232.4,539.4,230.5,537.1,230.5z"/>
	<g>
		<path class="st6" d="M512.2,231.8c-0.5,0-0.9-0.4-0.9-0.9v-4.8c0-0.5,0.4-0.9,0.9-0.9c0.5,0,0.9,0.4,0.9,0.9v4.8
			C513.1,231.4,512.7,231.8,512.2,231.8z"/>
	</g>
	<g>
		<path class="st6" d="M536.5,231.8c-0.5,0-0.9-0.4-0.9-0.9v-4.8c0-0.5,0.4-0.9,0.9-0.9c0.5,0,0.9,0.4,0.9,0.9v4.8
			C537.4,231.4,537,231.8,536.5,231.8z"/>
	</g>
	<rect x="518.5" y="248.4" class="st1" width="11.4" height="8.6"/>
	<rect x="507.1" y="248.4" class="st6" width="11.4" height="8.6"/>
	<rect x="518.6" y="239.8" class="st6" width="11.4" height="8.6"/>
	<rect x="518.6" y="257" class="st6" width="11.4" height="8.6"/>
	<rect x="529.9" y="248.4" class="st6" width="11.4" height="8.6"/>
	<g>
		<path class="st5" d="M530.4,245.1l-3.8-3.8c-0.1-0.1-0.3-0.2-0.5-0.2c-0.2,0-0.3,0.1-0.5,0.2l-12.8,12.8l-5.8-5.8
			c-0.3-0.3-0.7-0.3-0.9,0l-3.5,3.5c-0.1,0.1-0.2,0.3-0.2,0.5c0,0.2,0.1,0.3,0.2,0.5l10.1,10.1c0.1,0.1,0.3,0.2,0.5,0.2
			c0.2,0,0.3-0.1,0.5-0.2l16.8-16.8C530.7,245.8,530.7,245.4,530.4,245.1z"/>
		<path class="st8" d="M513,254.1c0,0-0.1,0-0.1,0l-5.8-5.8c-0.3-0.3-0.7-0.3-0.9,0l-3.5,3.5c-0.3,0.3-0.3,0.7,0,0.9l10.1,10.1
			c0.1,0.1,0.2,0.2,0.3,0.2V254.1z"/>
	</g>
	<path class="st5" d="M537.1,230.5h-25.6c-2.3,0-4.2,1.9-4.2,4.2v4.6c0,0.4,0.3,0.6,0.6,0.6h32.8c0.4,0,0.6-0.3,0.6-0.6v-4.6
		C541.3,232.4,539.4,230.5,537.1,230.5z"/>
</g>
<g>
	<g>
		<line class="st9" x1="216.4" y1="245.5" x2="218.9" y2="245.5"/>
		<line class="st10" x1="223.8" y1="245.5" x2="290.1" y2="245.5"/>
		<line class="st9" x1="292.5" y1="245.5" x2="295" y2="245.5"/>
	</g>
</g>
<g>
	<g>
		<line class="st9" x1="391.2" y1="245.5" x2="393.7" y2="245.5"/>
		<line class="st10" x1="398.6" y1="245.5" x2="464.8" y2="245.5"/>
		<line class="st9" x1="467.3" y1="245.5" x2="469.8" y2="245.5"/>
	</g>
</g>
<circle class="st3" cx="167.4" cy="354.2" r="41.7"/>
<circle class="st3" cx="344.4" cy="354.2" r="41.7"/>
<circle class="st3" cx="523.2" cy="354.2" r="41.7"/>
<g>
	<path class="st5" d="M371,355l-0.1-0.2c-3.3-3.8-8.2-6-13.2-6c-0.4,0-0.6,0.3-0.6,0.6l-0.2,12.9h-35c-0.4,0-0.6,0.3-0.6,0.6v5.2
		c0,0.4,0.3,0.6,0.6,0.6h50.8c0.4,0,0.6-0.3,0.6-0.6V361C373.3,358.8,372.5,356.7,371,355z"/>
	<path class="st6" d="M349.9,336.7h-26.6c-2.8,0-5.1,2.3-5.1,5.1v16.9c0,2.8,2.3,5.1,5.1,5.1h26.6c2.8,0,5.1-2.3,5.1-5.1v-16.9
		C355,339,352.7,336.7,349.9,336.7z"/>
	<g>
		<path class="st6" d="M368.2,369.1c0,2.2-1.8,4-4,4c-2.2,0-4-1.8-4-4c0-2.2,1.8-4,4-4C366.4,365.2,368.2,366.9,368.2,369.1z"/>
		<path class="st6" d="M364.2,374c-2.7,0-4.8-2.2-4.8-4.8c0-2.7,2.2-4.8,4.8-4.8c2.7,0,4.8,2.2,4.8,4.8
			C369,371.8,366.9,374,364.2,374z M364.2,366c-1.7,0-3.1,1.4-3.1,3.1c0,1.7,1.4,3.1,3.1,3.1c1.7,0,3.1-1.4,3.1-3.1
			C367.3,367.4,365.9,366,364.2,366z"/>
	</g>
	<path class="st7" d="M349.9,336.8h-26.5c-2.8,0-5.1,2.2-5.1,4.9v9.3H355v-9.3C355,339,352.7,336.8,349.9,336.8z"/>
	<path class="st5" d="M348.5,350.4l-8.3-7.1c-0.3-0.2-0.6-0.3-0.9-0.1c-0.3,0.1-0.5,0.4-0.5,0.8v3.3h-13.5c-0.5,0-0.9,0.4-0.9,0.9
		v5.4c0,0.5,0.4,0.9,0.9,0.9h13.5v3.3c0,0.3,0.2,0.6,0.5,0.8c0.1,0.1,0.2,0.1,0.4,0.1c0.2,0,0.4-0.1,0.5-0.2l8.3-6.7
		c0.2-0.2,0.3-0.4,0.3-0.7C348.8,350.9,348.7,350.6,348.5,350.4z"/>
	<path class="st6" d="M373,358.7c-0.4-1.4-1-2.7-2-3.7l-0.1-0.2c-2.3-2.6-5.2-4.4-8.5-5.3c-0.2-0.1-0.4,0-0.6,0.1
		c-0.2,0.1-0.3,0.3-0.3,0.5v8.8c0,0.4,0.3,0.6,0.6,0.6h10.2c0.2,0,0.4-0.1,0.5-0.3C373,359.1,373.1,358.9,373,358.7z"/>
	<path class="st6" d="M329.1,364.3c-2.7,0-4.8,2.2-4.8,4.8c0,2.7,2.2,4.8,4.8,4.8c2.7,0,4.8-2.2,4.8-4.8
		C333.9,366.5,331.8,364.3,329.1,364.3z"/>
	<path class="st6" d="M364.2,364.3c-2.7,0-4.8,2.2-4.8,4.8c0,2.7,2.2,4.8,4.8,4.8c2.7,0,4.8-2.2,4.8-4.8
		C369,366.5,366.9,364.3,364.2,364.3z"/>
	<path class="st8" d="M324.5,350.9v2.7c0,0.5,0.4,0.9,0.9,0.9h13.5v3.3c0,0.3,0.2,0.6,0.5,0.8c0.1,0.1,0.2,0.1,0.4,0.1
		c0.2,0,0.4-0.1,0.5-0.2l8.3-6.7c0.2-0.2,0.3-0.4,0.3-0.7c0-0.1,0-0.1,0-0.2H324.5z"/>
	<path class="st7" d="M329.1,365.7c-1.9,0-3.4,1.5-3.4,3.4c0,1.9,1.5,3.4,3.4,3.4c1.9,0,3.4-1.5,3.4-3.4
		C332.5,367.3,331,365.7,329.1,365.7z"/>
	<path class="st7" d="M364.2,365.7c-1.9,0-3.4,1.5-3.4,3.4c0,1.9,1.5,3.4,3.4,3.4c1.9,0,3.4-1.5,3.4-3.4
		C367.6,367.3,366.1,365.7,364.2,365.7z"/>
</g>
<g>
	<path class="st8" d="M183,340.1c-0.1-0.2-0.2-0.3-0.3-0.4l-11.6-4.9c-0.3-0.1-0.7,0-0.8,0.3l-4,9.4c-0.1,0.2-0.1,0.3,0,0.5
		c0.1,0.2,0.2,0.3,0.3,0.4l11.6,4.9c0.1,0,0.2,0.1,0.3,0.1c0.3,0,0.5-0.1,0.6-0.4l4-9.4C183,340.5,183,340.3,183,340.1z"/>
	<path class="st5" d="M179,349.5c-0.1-0.2-0.2-0.3-0.3-0.4l-20.6-8.7c-0.3-0.1-0.7,0-0.8,0.3l-6.4,15c-0.1,0.3,0,0.7,0.3,0.8
		l20.6,8.7c0.1,0,0.2,0.1,0.3,0.1c0.1,0,0.2,0,0.2,0c0.2-0.1,0.3-0.2,0.4-0.3l6.4-15C179,349.9,179,349.7,179,349.5z"/>
	
		<rect x="166.4" y="339.4" transform="matrix(0.3903 -0.9207 0.9207 0.3903 -209.5344 366.8393)" class="st5" width="11.5" height="4.4"/>
	<g>
		<path class="st6" d="M169.7,370.2l15.9-37.6L169.7,370.2z"/>
		<path class="st6" d="M169.7,370.8c-0.1,0-0.2,0-0.3-0.1c-0.3-0.1-0.5-0.5-0.3-0.8l15.9-37.6c0.1-0.3,0.5-0.5,0.8-0.3
			c0.3,0.1,0.5,0.5,0.3,0.8l-15.9,37.6C170.2,370.7,170,370.8,169.7,370.8z"/>
	</g>
	<path class="st7" d="M198.2,337.2l-12.3-5.2c-0.2-0.1-0.3-0.1-0.5,0c-0.2,0.1-0.3,0.2-0.4,0.3l-1.3,3c-0.1,0.3,0,0.7,0.3,0.8
		l12.3,5.2c0.1,0,0.2,0.1,0.3,0.1c0.1,0,0.2,0,0.2,0c0.2-0.1,0.3-0.2,0.4-0.3l1.3-3C198.7,337.8,198.5,337.4,198.2,337.2z"/>
	
		<rect x="151.5" y="348.8" transform="matrix(0.3902 -0.9207 0.9207 0.3902 -225.4082 361.5755)" class="st8" width="17.6" height="4.4"/>
	<path class="st7" d="M172.3,364.2l-25.9-11c-0.2-0.1-0.3-0.1-0.5,0c-0.2,0.1-0.3,0.2-0.4,0.3l-2.3,5.4c-0.1,0.2-0.1,0.3,0,0.5
		c0.1,0.2,0.2,0.3,0.3,0.4l25.9,11c0.1,0,0.2,0.1,0.3,0.1c0.1,0,0.2,0,0.2,0c0.2-0.1,0.3-0.2,0.4-0.3l2.3-5.4
		C172.7,364.7,172.6,364.3,172.3,364.2z"/>
	<path class="st6" d="M172.9,362.6c-4.2-1.8-9,0.2-10.8,4.4c-1.8,4.2,0.2,9,4.4,10.8c1,0.4,2.1,0.7,3.2,0.7c3.2,0,6.3-1.9,7.6-5
		C179.1,369.2,177.1,364.3,172.9,362.6z"/>
	<path class="st7" d="M170.9,367.5c-1.5-0.6-3.2,0.1-3.8,1.6c-0.6,1.5,0.1,3.2,1.6,3.8c0.4,0.2,0.8,0.2,1.1,0.2
		c1.1,0,2.2-0.7,2.7-1.8C173.1,369.8,172.4,368.1,170.9,367.5z"/>
</g>
<g>
	<path class="st7" d="M537.1,339.6h-25.6c-2.3,0-4.2,1.9-4.2,4.2v30.3c0,0.4,0.3,0.6,0.6,0.6h32.8c0.4,0,0.6-0.3,0.6-0.6v-30.3
		C541.3,341.5,539.4,339.6,537.1,339.6z"/>
	<g>
		<path class="st6" d="M512.2,340.8c-0.5,0-0.9-0.4-0.9-0.9v-4.8c0-0.5,0.4-0.9,0.9-0.9c0.5,0,0.9,0.4,0.9,0.9v4.8
			C513.1,340.5,512.7,340.8,512.2,340.8z"/>
	</g>
	<g>
		<path class="st6" d="M536.5,340.8c-0.5,0-0.9-0.4-0.9-0.9v-4.8c0-0.5,0.4-0.9,0.9-0.9c0.5,0,0.9,0.4,0.9,0.9v4.8
			C537.4,340.5,537,340.8,536.5,340.8z"/>
	</g>
	<rect x="518.5" y="357.5" class="st1" width="11.4" height="8.6"/>
	<rect x="507.1" y="357.5" class="st6" width="11.4" height="8.6"/>
	<rect x="518.6" y="348.8" class="st6" width="11.4" height="8.6"/>
	<rect x="518.6" y="366.1" class="st6" width="11.4" height="8.6"/>
	<rect x="529.9" y="357.5" class="st6" width="11.4" height="8.6"/>
	<g>
		<path class="st5" d="M530.4,354.2l-3.8-3.8c-0.1-0.1-0.3-0.2-0.5-0.2c-0.2,0-0.3,0.1-0.5,0.2l-12.8,12.8l-5.8-5.8
			c-0.3-0.3-0.7-0.3-0.9,0l-3.5,3.5c-0.1,0.1-0.2,0.3-0.2,0.5c0,0.2,0.1,0.3,0.2,0.5l10.1,10.1c0.1,0.1,0.3,0.2,0.5,0.2
			c0.2,0,0.3-0.1,0.5-0.2l16.8-16.8C530.7,354.9,530.7,354.5,530.4,354.2z"/>
		<path class="st8" d="M513,363.2c0,0-0.1,0-0.1,0l-5.8-5.8c-0.3-0.3-0.7-0.3-0.9,0l-3.5,3.5c-0.3,0.3-0.3,0.7,0,0.9l10.1,10.1
			c0.1,0.1,0.2,0.2,0.3,0.2V363.2z"/>
	</g>
	<path class="st5" d="M537.1,339.6h-25.6c-2.3,0-4.2,1.9-4.2,4.2v4.6c0,0.4,0.3,0.6,0.6,0.6h32.8c0.4,0,0.6-0.3,0.6-0.6v-4.6
		C541.3,341.5,539.4,339.6,537.1,339.6z"/>
</g>
<g>
	<g>
		<line class="st9" x1="216.4" y1="354.5" x2="218.9" y2="354.5"/>
		<line class="st10" x1="223.8" y1="354.5" x2="290.1" y2="354.5"/>
		<line class="st9" x1="292.5" y1="354.5" x2="295" y2="354.5"/>
	</g>
</g>
<g>
	<g>
		<line class="st9" x1="391.2" y1="354.5" x2="393.7" y2="354.5"/>
		<line class="st10" x1="398.6" y1="354.5" x2="464.8" y2="354.5"/>
		<line class="st9" x1="467.3" y1="354.5" x2="469.8" y2="354.5"/>
	</g>
</g>
</svg>
