<?xml version="1.0" encoding="utf-8"?>
<!-- Generator: Adobe Illustrator 22.1.0, SVG Export Plug-In . SVG Version: 6.00 Build 0)  -->
<svg version="1.1" id="Layer_1" xmlns="http://www.w3.org/2000/svg" xmlns:xlink="http://www.w3.org/1999/xlink" x="0px" y="0px"
	 viewBox="0 0 709.8 424.4" style="enable-background:new 0 0 709.8 424.4;" xml:space="preserve">
<style type="text/css">
	.st0{fill:#757474;}
	.st1{fill:#FFFFFF;}
	.st2{fill:#005321;}
	.st3{fill:#52AE32;}
	.st4{fill:#DCDCDC;}
	.st5{fill:#F9B041;}
	.st6{fill:#21386C;}
	.st7{fill:#144F9F;}
	.st8{fill:#F49523;}
	.st9{fill:none;stroke:#52AE32;stroke-miterlimit:10;}
	.st10{fill:none;stroke:#52AE32;stroke-miterlimit:10;stroke-dasharray:4.9052,4.9052;}
	.st11{fill:#E30613;}
	.st12{fill:#B2B2B2;}
	.st13{fill:#FFCC00;}
	.st14{fill:#9B9B9A;}
	.st15{fill:#706F6F;stroke:#706F6F;stroke-width:0.25;stroke-miterlimit:10;}
	.st16{fill:#4E4D4D;}
	.st17{fill:#706F6F;}
	.st18{fill:#FFED00;}
	.st19{fill:#E41513;}
	.st20{fill:#5AB031;}
</style>
<rect class="st2" width="709.8" height="63.4"/>
<g>
	<path class="st1" d="M85.6,39.4c-0.8,0-1.6-0.1-2.3-0.4c-0.7-0.2-1.2-0.6-1.7-1.1c-0.5-0.5-0.8-1.2-1.1-2c-0.3-0.8-0.4-1.8-0.4-2.9
		v-4c0-0.9,0.1-1.6,0.4-2.1c0.3-0.5,0.6-0.8,1.2-1c0.3-0.1,0.7-0.2,1.1-0.2c0.3,0,0.6-0.1,0.9-0.1c0.3,0,0.6,0,0.8,0
		c0.7,0,1.2,0.1,1.7,0.3c0.5,0.2,0.9,0.4,1.2,0.7c0.3,0.3,0.6,0.7,0.7,1.1c0.2,0.4,0.2,0.8,0.2,1.3c0,0.4-0.1,0.8-0.2,1.1
		c-0.2,0.4-0.4,0.7-0.7,1c0.4,0.1,0.7,0.3,1.1,0.6c0.3,0.2,0.6,0.5,0.9,0.8c0.2,0.3,0.4,0.7,0.6,1.1c0.1,0.4,0.2,0.9,0.2,1.4
		c0,0.6-0.1,1.1-0.3,1.7c-0.2,0.5-0.5,1-1,1.4c-0.4,0.4-0.9,0.7-1.5,1C86.9,39.3,86.3,39.4,85.6,39.4z M85.6,37.5
		c0.4,0,0.8-0.1,1.1-0.2c0.3-0.1,0.5-0.3,0.7-0.5c0.2-0.2,0.3-0.5,0.4-0.8c0.1-0.3,0.1-0.6,0.1-1c0-0.6-0.1-1-0.3-1.4
		c-0.2-0.4-0.4-0.6-0.7-0.8c-0.3-0.2-0.6-0.3-1-0.4c-0.4-0.1-0.7-0.1-1-0.1c-0.3,0-0.6,0-0.9,0s-0.5,0-0.7,0c-0.2,0-0.5,0-0.7,0v0.8
		c0,0.9,0,1.6,0.2,2.1c0.1,0.6,0.3,1,0.6,1.4c0.3,0.3,0.6,0.6,1,0.7C84.6,37.4,85.1,37.5,85.6,37.5z M82.5,30.7h1.6
		c0.7,0,1.2-0.1,1.6-0.4c0.4-0.3,0.6-0.7,0.6-1.3c0-0.3-0.1-0.6-0.2-0.8c-0.1-0.2-0.3-0.4-0.4-0.5c-0.2-0.1-0.4-0.2-0.6-0.3
		c-0.2-0.1-0.4-0.1-0.6-0.1c-0.2,0-0.3,0-0.6,0c-0.2,0-0.5,0-0.7,0.1c-0.2,0.1-0.4,0.2-0.6,0.3c-0.2,0.1-0.2,0.3-0.2,0.6V30.7z"/>
	<path class="st1" d="M99.1,35.2c0,0.9-0.1,1.6-0.4,2.1c-0.3,0.5-0.6,1-1,1.3c-0.4,0.3-0.9,0.5-1.4,0.6c-0.5,0.1-1,0.2-1.5,0.2
		c-0.5,0-1-0.1-1.5-0.2c-0.5-0.1-1-0.3-1.4-0.6c-0.4-0.3-0.7-0.7-1-1.3c-0.2-0.5-0.4-1.2-0.4-2.1l0-2.7c0-0.8,0.2-1.3,0.6-1.6
		s1-0.5,1.8-0.5c0,0.1,0,0.2,0,0.3c0,0.1,0,0.3,0,0.6c0,0.2,0,0.6,0,0.9l0,3c0,0.5,0.1,1,0.2,1.3c0.1,0.3,0.2,0.6,0.4,0.8
		c0.2,0.2,0.4,0.3,0.6,0.4c0.2,0.1,0.4,0.1,0.6,0.1c0.2,0,0.4,0,0.6-0.1c0.2-0.1,0.4-0.2,0.6-0.4c0.2-0.2,0.3-0.4,0.4-0.8
		c0.1-0.3,0.2-0.8,0.2-1.3l0-2.7c0-0.8,0.2-1.3,0.6-1.6c0.4-0.3,1-0.5,1.8-0.5c0,0.1,0,0.2,0,0.3c0,0.1,0,0.3,0,0.6
		c0,0.2,0,0.6,0,0.9L99.1,35.2z"/>
	<path class="st1" d="M106.9,37.3c0.2,0.1,0.3,0.2,0.4,0.5l0.1,0.1l-0.1,0.1c-0.4,0.5-0.9,0.8-1.5,1.1c-0.6,0.3-1.2,0.4-1.9,0.4
		c-0.6,0-1.1-0.1-1.7-0.4c-0.5-0.2-1-0.6-1.4-1c-0.4-0.4-0.7-0.9-0.9-1.5c-0.2-0.6-0.3-1.2-0.3-1.8s0.1-1.2,0.3-1.8
		c0.2-0.6,0.5-1,0.9-1.5c0.4-0.4,0.8-0.7,1.4-1c0.5-0.2,1.1-0.4,1.8-0.4c0.4,0,0.8,0.1,1.2,0.2c0.4,0.1,0.8,0.3,1.2,0.5
		c0.4,0.2,0.7,0.5,0.9,0.9c0.2,0.4,0.4,0.8,0.4,1.4c0,0.5-0.1,1-0.4,1.3c-0.3,0.3-0.6,0.6-1,0.8c-0.4,0.2-0.8,0.3-1.2,0.4
		c-0.4,0.1-0.8,0.1-1.1,0.1c-0.5,0-0.9,0-1.2-0.1c-0.4-0.1-0.6-0.1-0.7-0.1c0.1,0.5,0.2,0.8,0.3,1.1c0.2,0.3,0.3,0.5,0.5,0.7
		c0.2,0.2,0.4,0.3,0.6,0.3c0.2,0.1,0.4,0.1,0.5,0.1c0.3,0,0.5,0,0.8-0.1c0.2-0.1,0.5-0.1,0.7-0.2c0.2-0.1,0.4-0.1,0.5-0.2
		c0.2-0.1,0.3-0.1,0.5-0.1C106.5,37.2,106.7,37.3,106.9,37.3z M103.9,31.8c-0.1,0-0.3,0-0.5,0.1c-0.2,0.1-0.4,0.2-0.6,0.3
		c-0.2,0.2-0.4,0.4-0.5,0.7c-0.2,0.3-0.3,0.6-0.3,1.1c0.2,0.1,0.5,0.1,0.9,0.2c0.4,0.1,0.8,0.1,1.1,0c0.4,0,0.7-0.1,1-0.3
		c0.3-0.2,0.4-0.5,0.5-0.9c0-0.3-0.1-0.6-0.4-0.8C104.8,31.9,104.4,31.8,103.9,31.8z"/>
	<path class="st1" d="M108.1,34.4c0-0.9,0.1-1.6,0.4-2.1c0.3-0.5,0.6-1,1-1.3c0.4-0.3,0.8-0.5,1.3-0.6c0.5-0.1,1-0.2,1.5-0.2
		c0.5,0,1,0.1,1.5,0.2c0.5,0.1,1,0.3,1.4,0.6c0.4,0.3,0.7,0.7,1,1.3c0.3,0.5,0.4,1.2,0.4,2.1l0.1,4.8c-0.8,0-1.4-0.2-1.8-0.5
		c-0.4-0.3-0.6-0.9-0.6-1.6l0-2.7c0-0.5-0.1-1-0.2-1.3c-0.1-0.3-0.3-0.6-0.4-0.8c-0.2-0.2-0.4-0.3-0.6-0.4c-0.2-0.1-0.4-0.1-0.7-0.1
		s-0.4,0-0.6,0.1c-0.2,0.1-0.4,0.2-0.6,0.4c-0.2,0.2-0.3,0.4-0.4,0.8c-0.1,0.3-0.2,0.8-0.2,1.3v3c0,0.4,0,0.7,0,0.9
		c0,0.2,0,0.4,0,0.6c0,0.2,0,0.3,0,0.3c-0.8,0-1.4-0.2-1.8-0.5c-0.4-0.3-0.6-0.9-0.6-1.6L108.1,34.4z"/>
	<path class="st1" d="M118.1,34.3c0.3-0.2,0.7-0.4,1.2-0.5c0.4-0.1,0.9-0.2,1.4-0.2c0.7,0,1.3,0.1,1.9,0.3c0-0.4-0.1-0.7-0.3-1.1
		c-0.2-0.4-0.4-0.7-0.7-0.9c-0.1-0.1-0.3-0.1-0.4-0.1c-0.1,0-0.3,0-0.5,0h-0.2c-0.2,0-0.4,0-0.5,0.1c-0.2,0-0.4,0.1-0.5,0.2
		c-0.2,0.1-0.4,0.1-0.5,0.2c-0.2,0-0.4,0.1-0.5,0.1c-0.2,0-0.4,0-0.5-0.1c-0.2-0.1-0.3-0.2-0.4-0.4l0-0.1l0-0.1
		c0.4-0.4,0.8-0.7,1.4-1c0.5-0.3,1.1-0.4,1.7-0.4c0.1,0,0.1,0,0.2,0c0,0,0.1,0,0.2,0c0.6,0,1.1,0.1,1.6,0.3c0.5,0.2,0.9,0.5,1.3,0.9
		c0.7,0.8,1.1,1.8,1.1,3.1v0.2c0,1.3-0.3,2.4-1,3.3c-0.3,0.4-0.7,0.7-1.2,1c-0.5,0.3-1,0.4-1.6,0.5c-0.1,0-0.2,0-0.2,0
		c-0.1,0-0.2,0-0.2,0c-0.3,0-0.6,0-0.8-0.1c-0.3,0-0.6-0.1-0.9-0.3c-0.3-0.1-0.6-0.3-0.8-0.5c-0.2-0.2-0.4-0.4-0.6-0.7
		c-0.2-0.4-0.4-0.8-0.4-1.4v-0.1c0-0.5,0.1-0.9,0.3-1.3C117.5,34.8,117.8,34.5,118.1,34.3z M122.1,35.2c-0.2,0-0.4-0.1-0.6-0.1
		c-0.2,0-0.4,0-0.6,0c-0.2,0-0.4,0-0.5,0c-0.2,0-0.3,0.1-0.5,0.1c-0.3,0.1-0.6,0.3-0.7,0.5c-0.1,0.1-0.1,0.2-0.2,0.3
		c0,0.1-0.1,0.2-0.1,0.3c0,0,0,0.1,0,0.2c0,0.1,0,0.3,0.1,0.4c0,0.1,0.1,0.3,0.2,0.4c0.1,0.1,0.3,0.2,0.5,0.3
		c0.2,0.1,0.5,0.1,0.8,0.1c0.1,0,0.2,0,0.2,0c0.4,0,0.7-0.1,0.9-0.3c0.1-0.1,0.2-0.2,0.3-0.3c0.1-0.1,0.2-0.2,0.2-0.4
		c0.1-0.2,0.2-0.5,0.3-0.7s0.1-0.5,0.1-0.7c0,0,0,0,0,0c0,0,0,0,0,0c-0.1,0-0.1,0-0.2,0C122.3,35.3,122.2,35.3,122.1,35.2z"/>
	<path class="st1" d="M136,25.8c-0.8,2-1.5,3.9-2.2,5.6c-0.3,0.7-0.6,1.5-0.9,2.2c-0.3,0.7-0.6,1.4-0.8,2c-0.3,0.6-0.5,1.1-0.7,1.6
		c-0.2,0.5-0.3,0.8-0.5,1c-0.2,0.4-0.5,0.7-0.8,0.8c-0.3,0.2-0.6,0.2-0.8,0.3c-0.3,0-0.6,0-0.9-0.1l-5.3-13.4
		c0.3-0.1,0.6-0.1,0.9-0.1c0.3,0,0.6,0.1,0.9,0.2c0.3,0.1,0.5,0.2,0.7,0.4c0.2,0.2,0.4,0.5,0.5,0.8c0,0.1,0.1,0.2,0.2,0.5
		c0.1,0.3,0.2,0.6,0.4,1c0.2,0.4,0.3,0.9,0.5,1.4c0.2,0.5,0.4,1,0.6,1.6c0.5,1.2,1,2.6,1.6,4.2c0.6-1.5,1.1-2.9,1.6-4.2
		c0.2-0.5,0.4-1,0.6-1.6c0.2-0.5,0.4-1,0.5-1.4c0.2-0.4,0.3-0.8,0.4-1c0.1-0.3,0.2-0.4,0.2-0.5c0.1-0.3,0.3-0.6,0.6-0.8
		c0.2-0.2,0.5-0.3,0.7-0.4c0.3-0.1,0.6-0.1,0.9-0.2C135.3,25.8,135.6,25.8,136,25.8z"/>
	<path class="st1" d="M141,37.3c0.2,0.1,0.3,0.2,0.4,0.5l0.1,0.1l-0.1,0.1c-0.4,0.5-0.9,0.8-1.5,1.1c-0.6,0.3-1.2,0.4-1.9,0.4
		c-0.6,0-1.1-0.1-1.7-0.4c-0.5-0.2-1-0.6-1.4-1c-0.4-0.4-0.7-0.9-0.9-1.5c-0.2-0.6-0.3-1.2-0.3-1.8s0.1-1.2,0.3-1.8
		c0.2-0.6,0.5-1,0.9-1.5c0.4-0.4,0.8-0.7,1.4-1c0.5-0.2,1.1-0.4,1.8-0.4c0.4,0,0.8,0.1,1.2,0.2c0.4,0.1,0.8,0.3,1.2,0.5
		c0.4,0.2,0.7,0.5,0.9,0.9c0.2,0.4,0.4,0.8,0.4,1.4c0,0.5-0.1,1-0.4,1.3c-0.3,0.3-0.6,0.6-1,0.8c-0.4,0.2-0.8,0.3-1.2,0.4
		c-0.4,0.1-0.8,0.1-1.1,0.1c-0.5,0-0.9,0-1.2-0.1c-0.4-0.1-0.6-0.1-0.7-0.1c0.1,0.5,0.2,0.8,0.3,1.1s0.3,0.5,0.5,0.7
		c0.2,0.2,0.4,0.3,0.6,0.3c0.2,0.1,0.4,0.1,0.5,0.1c0.3,0,0.5,0,0.8-0.1c0.2-0.1,0.5-0.1,0.7-0.2c0.2-0.1,0.4-0.1,0.5-0.2
		c0.2-0.1,0.3-0.1,0.5-0.1C140.7,37.2,140.8,37.3,141,37.3z M138,31.8c-0.1,0-0.3,0-0.5,0.1c-0.2,0.1-0.4,0.2-0.6,0.3
		c-0.2,0.2-0.4,0.4-0.5,0.7c-0.2,0.3-0.3,0.6-0.3,1.1c0.2,0.1,0.5,0.1,0.9,0.2c0.4,0.1,0.8,0.1,1.1,0c0.4,0,0.7-0.1,1-0.3
		c0.3-0.2,0.4-0.5,0.5-0.9c0-0.3-0.1-0.6-0.4-0.8C138.9,31.9,138.5,31.8,138,31.8z"/>
	<path class="st1" d="M142.2,34.4c0-0.9,0.1-1.6,0.4-2.1c0.3-0.5,0.6-1,1-1.3c0.4-0.3,0.8-0.5,1.3-0.6c0.5-0.1,1-0.2,1.5-0.2
		c0.5,0,1,0.1,1.5,0.2c0.5,0.1,1,0.3,1.4,0.6c0.4,0.3,0.7,0.7,1,1.3c0.3,0.5,0.4,1.2,0.4,2.1l0.1,4.8c-0.8,0-1.4-0.2-1.8-0.5
		c-0.4-0.3-0.6-0.9-0.6-1.6l0-2.7c0-0.5-0.1-1-0.2-1.3c-0.1-0.3-0.3-0.6-0.4-0.8c-0.2-0.2-0.4-0.3-0.6-0.4c-0.2-0.1-0.4-0.1-0.7-0.1
		c-0.2,0-0.4,0-0.6,0.1c-0.2,0.1-0.4,0.2-0.6,0.4c-0.2,0.2-0.3,0.4-0.4,0.8c-0.1,0.3-0.2,0.8-0.2,1.3v3c0,0.4,0,0.7,0,0.9
		c0,0.2,0,0.4,0,0.6c0,0.2,0,0.3,0,0.3c-0.8,0-1.4-0.2-1.8-0.5c-0.4-0.3-0.6-0.9-0.6-1.6L142.2,34.4z"/>
	<path class="st1" d="M156.5,37.5c0,0,0,0.1,0,0.1c0,0.1,0,0.2,0,0.3c0,0.2-0.1,0.4-0.2,0.6c-0.1,0.2-0.2,0.3-0.4,0.5
		c-0.4,0.3-0.8,0.4-1.3,0.4c-0.4,0-0.8-0.1-1.3-0.3c-0.4-0.2-0.8-0.5-1.1-0.9c-0.3-0.4-0.6-0.9-0.8-1.4c-0.2-0.6-0.3-1.2-0.3-2
		l0-5.6c0-0.8,0.2-1.3,0.6-1.7c0.4-0.3,1-0.5,1.8-0.5c0,0.1,0,0.2,0,0.4c0,0.1,0,0.3,0,0.6c0,0.2,0,0.5,0,0.9l0,1.2h2.6
		c0,0.6-0.2,1-0.5,1.4c-0.3,0.3-0.8,0.5-1.4,0.5h-0.7l0,2.7c0,0.5,0.1,1,0.1,1.4c0.1,0.4,0.2,0.7,0.4,0.9c0.3,0.4,0.8,0.7,1.3,0.7
		c0.2,0,0.5,0,0.7-0.1C156.2,37.6,156.4,37.6,156.5,37.5z"/>
	<path class="st1" d="M164.9,35.2c0,0.9-0.1,1.6-0.4,2.1c-0.3,0.5-0.6,1-1,1.3c-0.4,0.3-0.9,0.5-1.4,0.6c-0.5,0.1-1,0.2-1.5,0.2
		c-0.5,0-1-0.1-1.5-0.2c-0.5-0.1-1-0.3-1.4-0.6c-0.4-0.3-0.7-0.7-1-1.3c-0.2-0.5-0.4-1.2-0.4-2.1l0-2.7c0-0.8,0.2-1.3,0.6-1.6
		s1-0.5,1.8-0.5c0,0.1,0,0.2,0,0.3c0,0.1,0,0.3,0,0.6c0,0.2,0,0.6,0,0.9l0,3c0,0.5,0.1,1,0.2,1.3c0.1,0.3,0.2,0.6,0.4,0.8
		c0.2,0.2,0.4,0.3,0.6,0.4c0.2,0.1,0.4,0.1,0.6,0.1c0.2,0,0.4,0,0.6-0.1c0.2-0.1,0.4-0.2,0.6-0.4c0.2-0.2,0.3-0.4,0.4-0.8
		c0.1-0.3,0.2-0.8,0.2-1.3l0-2.7c0-0.8,0.2-1.3,0.6-1.6c0.4-0.3,1-0.5,1.8-0.5c0,0.1,0,0.2,0,0.3c0,0.1,0,0.3,0,0.6
		c0,0.2,0,0.6,0,0.9L164.9,35.2z"/>
	<path class="st1" d="M165.6,34.6c0-0.9,0.1-1.6,0.4-2.1c0.3-0.5,0.6-1,1-1.3c0.4-0.3,0.8-0.5,1.3-0.6c0.5-0.1,1-0.2,1.5-0.2h0.9
		c0.1,0.3,0.1,0.5,0,0.7c0,0.2-0.1,0.4-0.3,0.6c-0.1,0.2-0.4,0.3-0.7,0.3c-0.2,0-0.4,0.1-0.6,0.1c-0.2,0.1-0.4,0.2-0.6,0.4
		c-0.2,0.2-0.3,0.4-0.4,0.7c-0.1,0.3-0.2,0.8-0.2,1.3v2.8c0,0.4,0,0.7,0,0.9c0,0.2,0,0.4,0,0.6c0,0.2,0,0.3,0,0.3
		c-0.8,0-1.4-0.2-1.8-0.5c-0.4-0.3-0.6-0.9-0.6-1.6V34.6z"/>
	<path class="st1" d="M171.8,34.3c0.3-0.2,0.7-0.4,1.2-0.5c0.4-0.1,0.9-0.2,1.4-0.2c0.7,0,1.3,0.1,1.9,0.3c0-0.4-0.1-0.7-0.3-1.1
		c-0.2-0.4-0.4-0.7-0.7-0.9c-0.1-0.1-0.3-0.1-0.4-0.1c-0.1,0-0.3,0-0.5,0h-0.2c-0.2,0-0.4,0-0.5,0.1c-0.2,0-0.4,0.1-0.5,0.2
		c-0.2,0.1-0.4,0.1-0.5,0.2c-0.2,0-0.4,0.1-0.5,0.1c-0.2,0-0.4,0-0.5-0.1c-0.2-0.1-0.3-0.2-0.4-0.4l0-0.1l0-0.1
		c0.4-0.4,0.8-0.7,1.4-1c0.5-0.3,1.1-0.4,1.7-0.4c0.1,0,0.1,0,0.2,0c0,0,0.1,0,0.2,0c0.6,0,1.1,0.1,1.6,0.3c0.5,0.2,0.9,0.5,1.3,0.9
		c0.7,0.8,1.1,1.8,1.1,3.1v0.2c0,1.3-0.3,2.4-1,3.3c-0.3,0.4-0.7,0.7-1.2,1c-0.5,0.3-1,0.4-1.6,0.5c-0.1,0-0.2,0-0.2,0
		c-0.1,0-0.2,0-0.2,0c-0.3,0-0.6,0-0.8-0.1c-0.3,0-0.6-0.1-0.9-0.3c-0.3-0.1-0.6-0.3-0.8-0.5c-0.2-0.2-0.4-0.4-0.6-0.7
		c-0.2-0.4-0.4-0.8-0.4-1.4v-0.1c0-0.5,0.1-0.9,0.3-1.3C171.1,34.8,171.4,34.5,171.8,34.3z M175.8,35.2c-0.2,0-0.4-0.1-0.6-0.1
		c-0.2,0-0.4,0-0.6,0c-0.2,0-0.4,0-0.5,0c-0.2,0-0.3,0.1-0.5,0.1c-0.3,0.1-0.6,0.3-0.7,0.5c-0.1,0.1-0.1,0.2-0.2,0.3
		c0,0.1-0.1,0.2-0.1,0.3c0,0,0,0.1,0,0.2c0,0.1,0,0.3,0.1,0.4c0,0.1,0.1,0.3,0.2,0.4c0.1,0.1,0.3,0.2,0.5,0.3
		c0.2,0.1,0.5,0.1,0.8,0.1c0.1,0,0.2,0,0.2,0c0.4,0,0.7-0.1,0.9-0.3c0.1-0.1,0.2-0.2,0.3-0.3c0.1-0.1,0.2-0.2,0.2-0.4
		c0.1-0.2,0.2-0.5,0.3-0.7c0.1-0.3,0.1-0.5,0.1-0.7c0,0,0,0,0,0c0,0,0,0,0,0c-0.1,0-0.1,0-0.2,0C175.9,35.3,175.9,35.3,175.8,35.2z"
		/>
	<g>
		<g>
			<path class="st1" d="M115.7,46.7c0,0,0,0.1,0.1,0.1c0,0,0,0.1,0.1,0.1c0,0,0,0.1,0.1,0.1c-0.1,0-0.3,0.1-0.4,0
				c-0.1,0-0.2,0-0.3-0.1c-0.1-0.1-0.2-0.2-0.3-0.3c0-0.1-0.1-0.2-0.2-0.4c-0.1-0.2-0.2-0.4-0.3-0.7h-2.1c-0.1,0.3-0.2,0.5-0.3,0.7
				c-0.1,0.2-0.1,0.3-0.2,0.4c-0.1,0.2-0.2,0.3-0.3,0.3c-0.1,0.1-0.2,0.1-0.3,0.1c-0.1,0-0.3,0-0.4,0c0,0,0-0.1,0.1-0.1
				c0,0,0-0.1,0-0.1c0,0,0-0.1,0.1-0.1c0-0.1,0.1-0.2,0.2-0.5c0.1-0.2,0.2-0.5,0.3-0.7c0.1-0.3,0.2-0.6,0.4-0.9
				c0.1-0.3,0.2-0.6,0.4-0.9c0.1-0.3,0.2-0.5,0.3-0.7c0.1-0.2,0.1-0.4,0.2-0.5c0.1-0.1,0.1-0.2,0.2-0.3c0.1-0.1,0.1-0.1,0.2-0.2
				c0.1,0,0.1-0.1,0.2-0.1c0.1,0,0.1,0,0.2,0c0,0,0.1,0,0.2,0c0.1,0,0.1,0,0.2,0.1c0.1,0,0.1,0.1,0.2,0.2c0.1,0.1,0.1,0.2,0.2,0.3
				c0,0.1,0.1,0.2,0.2,0.5c0.1,0.2,0.2,0.5,0.3,0.7c0.1,0.3,0.2,0.6,0.4,0.9c0.1,0.3,0.2,0.6,0.4,0.9c0.1,0.3,0.2,0.5,0.3,0.7
				C115.6,46.5,115.7,46.6,115.7,46.7z M114.1,44.9c-0.1-0.2-0.2-0.5-0.3-0.7c-0.1-0.2-0.2-0.4-0.2-0.6c-0.1-0.2-0.2-0.4-0.2-0.6
				c-0.1,0.2-0.2,0.4-0.2,0.6c-0.1,0.2-0.2,0.4-0.2,0.6c-0.1,0.2-0.2,0.5-0.3,0.7H114.1z"/>
			<path class="st1" d="M116.6,47c0.2-0.1,0.5-0.1,0.7-0.1c0.3,0,0.5,0,0.7,0c0.2,0.1,0.4,0.2,0.5,0.3c0.1,0.2,0.2,0.4,0.2,0.7
				c0,0.2,0,0.4-0.1,0.6c-0.1,0.1-0.2,0.3-0.3,0.4c-0.1,0.1-0.3,0.2-0.4,0.2c-0.2,0-0.3,0.1-0.4,0.1h-0.1c-0.2,0-0.4-0.1-0.6-0.1
				c-0.2-0.1-0.4-0.2-0.5-0.4c-0.1-0.2-0.2-0.3-0.3-0.5c-0.1-0.2-0.1-0.4-0.1-0.7c0,0,0,0,0-0.1c0,0,0,0,0-0.1c0-0.3,0-0.5,0.1-0.8
				c0.1-0.2,0.2-0.4,0.4-0.6c-0.2-0.1-0.3-0.3-0.4-0.4c-0.1-0.2-0.1-0.4-0.1-0.6c0-0.2,0-0.4,0.1-0.5c0.1-0.2,0.2-0.3,0.3-0.4
				c0.1-0.1,0.3-0.2,0.5-0.3c0.2-0.1,0.4-0.1,0.6-0.1c0.2,0,0.4,0,0.6,0.1c0.2,0.1,0.3,0.2,0.5,0.3c0.3,0.2,0.4,0.5,0.4,0.9
				c0,0.2,0,0.3-0.1,0.5c-0.1,0.2-0.2,0.3-0.3,0.4c-0.1,0.1-0.3,0.2-0.4,0.3c-0.2,0.1-0.4,0.1-0.5,0.1v0h0c-0.2,0-0.3,0-0.4,0.1
				c-0.1,0-0.2,0.1-0.2,0.2c-0.1,0.1-0.1,0.2-0.1,0.3C116.6,46.9,116.6,47,116.6,47z M118,48.2c0,0,0.1-0.1,0.1-0.2
				c0-0.1,0-0.1,0-0.2c0,0,0-0.1,0-0.1c0-0.1,0-0.1-0.1-0.2c0,0-0.1-0.1-0.1-0.1c-0.1,0-0.1-0.1-0.2-0.1c-0.1,0-0.2,0-0.2,0
				s-0.2,0-0.2,0c-0.1,0-0.2,0-0.2,0c-0.1,0-0.1,0-0.2,0c-0.1,0-0.1,0-0.1,0c0,0.1,0,0.1,0,0.2c0,0.1,0,0.1,0.1,0.2
				c0,0.1,0.1,0.2,0.1,0.2c0,0.1,0.1,0.1,0.2,0.2c0.1,0.1,0.2,0.1,0.4,0.1c0.1,0,0.3,0,0.3-0.1C117.8,48.3,117.9,48.3,118,48.2z
				 M117.3,44.2c0,0-0.1,0-0.2,0c-0.1,0-0.1,0.1-0.2,0.1c-0.1,0-0.1,0.1-0.1,0.2c0,0.1-0.1,0.2-0.1,0.3c0,0.1,0,0.2,0.1,0.3
				c0,0.1,0.1,0.2,0.1,0.2c0.1,0,0.1,0.1,0.2,0.1c0.1,0,0.1,0,0.2,0c0,0,0.1,0,0.2,0c0.1,0,0.1,0,0.2-0.1c0.1,0,0.1-0.1,0.1-0.2
				c0-0.1,0.1-0.2,0.1-0.3c0-0.1,0-0.2-0.1-0.3c0-0.1-0.1-0.2-0.1-0.2c-0.1,0-0.1-0.1-0.2-0.1C117.4,44.2,117.4,44.2,117.3,44.2z"/>
			<path class="st1" d="M118.9,45.3c0-0.3,0-0.6,0.1-0.8c0.1-0.2,0.2-0.4,0.4-0.5c0.2-0.1,0.3-0.2,0.5-0.2c0.2,0,0.4-0.1,0.6-0.1
				h0.4c0,0.1,0,0.2,0,0.3c0,0.1,0,0.1-0.1,0.2c-0.1,0.1-0.1,0.1-0.3,0.1c-0.1,0-0.2,0-0.2,0.1c-0.1,0-0.2,0.1-0.2,0.1
				c-0.1,0.1-0.1,0.2-0.2,0.3c0,0.1-0.1,0.3-0.1,0.5v1.1c0,0.1,0,0.3,0,0.4c0,0.1,0,0.2,0,0.2c0,0.1,0,0.1,0,0.1
				c-0.3,0-0.5-0.1-0.7-0.2s-0.2-0.3-0.2-0.6V45.3z"/>
			<path class="st1" d="M123.4,44.2c0.2,0.2,0.3,0.3,0.4,0.6c0.1,0.2,0.1,0.4,0.1,0.7c0,0.2,0,0.5-0.1,0.7c-0.1,0.2-0.2,0.4-0.3,0.6
				c-0.1,0.2-0.3,0.3-0.5,0.4c-0.2,0.1-0.4,0.1-0.7,0.1c-0.2,0-0.4,0-0.6-0.1c-0.2-0.1-0.4-0.2-0.5-0.4c-0.1-0.2-0.3-0.3-0.4-0.6
				c-0.1-0.2-0.1-0.4-0.1-0.7c0-0.2,0-0.5,0.1-0.7c0.1-0.2,0.2-0.4,0.3-0.6c0.1-0.2,0.3-0.3,0.5-0.4c0.2-0.1,0.4-0.1,0.7-0.1
				c0.2,0,0.4,0,0.6,0.1C123.1,43.9,123.3,44,123.4,44.2z M122.2,46.6c0.1,0,0.1,0,0.2,0c0.1,0,0.2-0.1,0.2-0.2
				c0.1-0.1,0.1-0.2,0.2-0.3c0.1-0.1,0.1-0.3,0.1-0.6c0-0.2,0-0.4-0.1-0.6c-0.1-0.1-0.1-0.3-0.2-0.3c-0.1-0.1-0.2-0.1-0.2-0.2
				c-0.1,0-0.2,0-0.2,0c-0.1,0-0.1,0-0.2,0c-0.1,0-0.2,0.1-0.2,0.2c-0.1,0.1-0.1,0.2-0.2,0.3c-0.1,0.2-0.1,0.3-0.1,0.6
				c0,0.2,0,0.4,0.1,0.6c0.1,0.1,0.1,0.3,0.2,0.3c0.1,0.1,0.2,0.1,0.2,0.2C122.1,46.5,122.2,46.6,122.2,46.6z"/>
			<path class="st1" d="M124.1,45.2c0-0.3,0-0.6,0.1-0.8c0.1-0.2,0.2-0.4,0.4-0.5c0.1-0.1,0.3-0.2,0.5-0.2c0.2,0,0.4-0.1,0.6-0.1
				c0.2,0,0.4,0,0.6,0.1c0.2,0,0.4,0.1,0.5,0.2c0.2,0.1,0.3,0.3,0.4,0.5c0.1,0.2,0.1,0.5,0.1,0.8l0,1.9c-0.3,0-0.5-0.1-0.7-0.2
				c-0.2-0.1-0.2-0.3-0.2-0.6l0-1c0-0.2,0-0.4-0.1-0.5c0-0.1-0.1-0.2-0.2-0.3c-0.1-0.1-0.1-0.1-0.2-0.1c-0.1,0-0.2,0-0.3,0
				c-0.1,0-0.2,0-0.2,0c-0.1,0-0.2,0.1-0.2,0.1c-0.1,0.1-0.1,0.2-0.2,0.3c0,0.1-0.1,0.3-0.1,0.5v1.1c0,0.1,0,0.3,0,0.4
				c0,0.1,0,0.2,0,0.2c0,0.1,0,0.1,0,0.1c-0.3,0-0.5-0.1-0.7-0.2c-0.2-0.1-0.2-0.3-0.2-0.6L124.1,45.2z"/>
			<path class="st1" d="M130.3,46.4c0.1,0,0.1,0.1,0.2,0.2l0,0l0,0c-0.2,0.2-0.4,0.3-0.6,0.4c-0.2,0.1-0.5,0.2-0.7,0.2
				c-0.2,0-0.4,0-0.6-0.1c-0.2-0.1-0.4-0.2-0.5-0.4c-0.1-0.2-0.3-0.3-0.4-0.6c-0.1-0.2-0.1-0.4-0.1-0.7c0-0.2,0-0.5,0.1-0.7
				c0.1-0.2,0.2-0.4,0.3-0.6c0.1-0.2,0.3-0.3,0.5-0.4c0.2-0.1,0.4-0.1,0.7-0.1c0.1,0,0.3,0,0.5,0.1c0.2,0,0.3,0.1,0.5,0.2
				c0.1,0.1,0.3,0.2,0.4,0.4c0.1,0.1,0.1,0.3,0.1,0.5c0,0.2-0.1,0.4-0.2,0.5c-0.1,0.1-0.2,0.2-0.4,0.3c-0.1,0.1-0.3,0.1-0.5,0.1
				c-0.2,0-0.3,0-0.4,0c-0.2,0-0.3,0-0.5,0s-0.2,0-0.3,0c0,0.2,0.1,0.3,0.1,0.4c0.1,0.1,0.1,0.2,0.2,0.3c0.1,0.1,0.1,0.1,0.2,0.1
				c0.1,0,0.1,0,0.2,0c0.1,0,0.2,0,0.3,0c0.1,0,0.2,0,0.3-0.1c0.1,0,0.1,0,0.2-0.1c0.1,0,0.1,0,0.2,0
				C130.2,46.3,130.2,46.4,130.3,46.4z M129.1,44.3c-0.1,0-0.1,0-0.2,0c-0.1,0-0.1,0.1-0.2,0.1c-0.1,0.1-0.1,0.1-0.2,0.3
				c-0.1,0.1-0.1,0.2-0.1,0.4c0.1,0,0.2,0,0.3,0.1c0.1,0,0.3,0,0.4,0c0.1,0,0.3-0.1,0.4-0.1c0.1-0.1,0.2-0.2,0.2-0.3
				c0-0.1,0-0.2-0.1-0.3C129.5,44.3,129.3,44.3,129.1,44.3z"/>
			<path class="st1" d="M131.4,47c0.2-0.1,0.5-0.1,0.7-0.1c0.3,0,0.5,0,0.7,0c0.2,0.1,0.4,0.2,0.5,0.3c0.1,0.2,0.2,0.4,0.2,0.7
				c0,0.2,0,0.4-0.1,0.6c-0.1,0.1-0.2,0.3-0.3,0.4c-0.1,0.1-0.3,0.2-0.4,0.2c-0.2,0-0.3,0.1-0.4,0.1h-0.1c-0.2,0-0.4-0.1-0.6-0.1
				c-0.2-0.1-0.4-0.2-0.5-0.4c-0.1-0.2-0.2-0.3-0.3-0.5c-0.1-0.2-0.1-0.4-0.1-0.7c0,0,0,0,0-0.1c0,0,0,0,0-0.1c0-0.3,0-0.5,0.1-0.8
				c0.1-0.2,0.2-0.4,0.4-0.6c-0.2-0.1-0.3-0.3-0.4-0.4c-0.1-0.2-0.1-0.4-0.1-0.6c0-0.2,0-0.4,0.1-0.5c0.1-0.2,0.2-0.3,0.3-0.4
				c0.1-0.1,0.3-0.2,0.5-0.3c0.2-0.1,0.4-0.1,0.6-0.1c0.2,0,0.4,0,0.6,0.1c0.2,0.1,0.3,0.2,0.5,0.3c0.3,0.2,0.4,0.5,0.4,0.9
				c0,0.2,0,0.3-0.1,0.5c-0.1,0.2-0.2,0.3-0.3,0.4c-0.1,0.1-0.3,0.2-0.4,0.3c-0.2,0.1-0.4,0.1-0.5,0.1v0h0c-0.2,0-0.3,0-0.4,0.1
				c-0.1,0-0.2,0.1-0.2,0.2c-0.1,0.1-0.1,0.2-0.1,0.3C131.4,46.9,131.4,47,131.4,47z M132.7,48.2c0,0,0.1-0.1,0.1-0.2
				c0-0.1,0-0.1,0-0.2c0,0,0-0.1,0-0.1c0-0.1,0-0.1-0.1-0.2c0,0-0.1-0.1-0.1-0.1c-0.1,0-0.1-0.1-0.2-0.1c-0.1,0-0.2,0-0.2,0
				c-0.1,0-0.2,0-0.2,0c-0.1,0-0.2,0-0.2,0c-0.1,0-0.1,0-0.2,0c-0.1,0-0.1,0-0.1,0c0,0.1,0,0.1,0,0.2c0,0.1,0,0.1,0.1,0.2
				c0,0.1,0.1,0.2,0.1,0.2c0,0.1,0.1,0.1,0.2,0.2c0.1,0.1,0.2,0.1,0.4,0.1c0.1,0,0.3,0,0.3-0.1C132.6,48.3,132.7,48.3,132.7,48.2z
				 M132.1,44.2c0,0-0.1,0-0.2,0c-0.1,0-0.1,0.1-0.2,0.1c-0.1,0-0.1,0.1-0.1,0.2s-0.1,0.2-0.1,0.3c0,0.1,0,0.2,0.1,0.3
				c0,0.1,0.1,0.2,0.1,0.2c0.1,0,0.1,0.1,0.2,0.1c0.1,0,0.1,0,0.2,0c0,0,0.1,0,0.2,0c0.1,0,0.1,0,0.2-0.1c0.1,0,0.1-0.1,0.1-0.2
				c0-0.1,0.1-0.2,0.1-0.3c0-0.1,0-0.2-0.1-0.3s-0.1-0.2-0.1-0.2c-0.1,0-0.1-0.1-0.2-0.1C132.2,44.2,132.2,44.2,132.1,44.2z"/>
			<path class="st1" d="M136.5,44.2c0.2,0.2,0.3,0.3,0.4,0.6c0.1,0.2,0.1,0.4,0.1,0.7c0,0.2,0,0.5-0.1,0.7c-0.1,0.2-0.2,0.4-0.3,0.6
				c-0.1,0.2-0.3,0.3-0.5,0.4c-0.2,0.1-0.4,0.1-0.7,0.1c-0.2,0-0.4,0-0.6-0.1c-0.2-0.1-0.4-0.2-0.5-0.4c-0.1-0.2-0.3-0.3-0.4-0.6
				c-0.1-0.2-0.1-0.4-0.1-0.7c0-0.2,0-0.5,0.1-0.7c0.1-0.2,0.2-0.4,0.3-0.6c0.1-0.2,0.3-0.3,0.5-0.4c0.2-0.1,0.4-0.1,0.7-0.1
				c0.2,0,0.4,0,0.6,0.1C136.1,43.9,136.3,44,136.5,44.2z M135.3,46.6c0.1,0,0.1,0,0.2,0c0.1,0,0.2-0.1,0.2-0.2
				c0.1-0.1,0.1-0.2,0.2-0.3s0.1-0.3,0.1-0.6c0-0.2,0-0.4-0.1-0.6c-0.1-0.1-0.1-0.3-0.2-0.3c-0.1-0.1-0.2-0.1-0.2-0.2
				c-0.1,0-0.2,0-0.2,0c-0.1,0-0.1,0-0.2,0c-0.1,0-0.2,0.1-0.2,0.2c-0.1,0.1-0.1,0.2-0.2,0.3c-0.1,0.2-0.1,0.3-0.1,0.6
				c0,0.2,0,0.4,0.1,0.6c0.1,0.1,0.1,0.3,0.2,0.3c0.1,0.1,0.2,0.1,0.2,0.2C135.2,46.5,135.2,46.6,135.3,46.6z"/>
			<path class="st1" d="M138.7,44.3c-0.1,0-0.1,0-0.2,0c-0.1,0-0.2,0.1-0.2,0.2c-0.1,0.1-0.1,0.2-0.2,0.3c-0.1,0.2-0.1,0.3-0.1,0.6
				c0,0.2,0,0.4,0.1,0.6c0.1,0.1,0.1,0.3,0.2,0.3c0.1,0.1,0.2,0.1,0.2,0.2c0.1,0,0.2,0,0.2,0c0.1,0,0.2,0,0.3,0c0.1,0,0.2,0,0.3-0.1
				c0.1,0,0.1-0.1,0.2-0.1c0.1,0,0.1,0,0.2,0c0.1,0,0.1,0,0.2,0.1c0.1,0,0.1,0.1,0.2,0.2l0,0l0,0c-0.2,0.2-0.4,0.3-0.6,0.4
				c-0.2,0.1-0.5,0.2-0.7,0.2c-0.2,0-0.4,0-0.6-0.1c-0.2-0.1-0.4-0.2-0.5-0.4c-0.1-0.2-0.3-0.3-0.4-0.6c-0.1-0.2-0.1-0.4-0.1-0.7
				c0-0.2,0-0.5,0.1-0.7c0.1-0.2,0.2-0.4,0.3-0.6c0.1-0.2,0.3-0.3,0.5-0.4c0.2-0.1,0.4-0.1,0.7-0.1c0.3,0,0.5,0.1,0.7,0.2
				c0.2,0.1,0.4,0.2,0.6,0.4l0,0l0,0c-0.1,0.1-0.1,0.1-0.2,0.2c-0.1,0-0.1,0.1-0.2,0.1c-0.1,0-0.1,0-0.2,0c-0.1,0-0.1,0-0.2-0.1
				c-0.1,0-0.2-0.1-0.3-0.1C138.9,44.3,138.8,44.3,138.7,44.3z"/>
			<path class="st1" d="M141.1,42.6c-0.1,0.2-0.2,0.3-0.4,0.3c-0.1,0-0.2,0-0.2-0.1c-0.1,0-0.1-0.1-0.2-0.2c0-0.1-0.1-0.1-0.1-0.2
				c0-0.1,0-0.2,0.1-0.3c0-0.1,0.1-0.1,0.2-0.2c0.1,0,0.2-0.1,0.2-0.1c0.1,0,0.1,0,0.2,0.1c0.1,0,0.1,0.1,0.2,0.2
				c0,0.1,0.1,0.2,0.1,0.2C141.2,42.5,141.2,42.6,141.1,42.6z M141.7,46.4c0,0-0.1,0.1-0.1,0.1c-0.1,0-0.1,0-0.2,0
				c-0.1,0-0.1,0-0.2-0.1c0-0.1-0.1-0.1-0.1-0.3v-1.8c0-0.1,0-0.3,0-0.4c0-0.1,0-0.2,0-0.2c0-0.1,0-0.1,0-0.1
				c-0.3,0-0.5,0.1-0.7,0.2c-0.2,0.1-0.2,0.3-0.2,0.6l0,1.7c0,0.1,0,0.2,0.1,0.4s0.1,0.2,0.2,0.3c0.1,0.1,0.2,0.1,0.3,0.2
				c0.1,0,0.2,0.1,0.4,0c0.2,0,0.3-0.1,0.3-0.1c0.1-0.1,0.1-0.2,0.1-0.3C141.7,46.7,141.7,46.6,141.7,46.4z"/>
			<path class="st1" d="M144.5,44.2c0.2,0.2,0.3,0.3,0.4,0.6c0.1,0.2,0.1,0.4,0.1,0.7c0,0.2,0,0.5-0.1,0.7c-0.1,0.2-0.2,0.4-0.3,0.6
				c-0.1,0.2-0.3,0.3-0.5,0.4c-0.2,0.1-0.4,0.1-0.7,0.1c-0.2,0-0.4,0-0.6-0.1c-0.2-0.1-0.4-0.2-0.5-0.4c-0.1-0.2-0.3-0.3-0.4-0.6
				c-0.1-0.2-0.1-0.4-0.1-0.7c0-0.2,0-0.5,0.1-0.7c0.1-0.2,0.2-0.4,0.3-0.6c0.1-0.2,0.3-0.3,0.5-0.4c0.2-0.1,0.4-0.1,0.7-0.1
				c0.2,0,0.4,0,0.6,0.1C144.2,43.9,144.3,44,144.5,44.2z M143.3,46.6c0.1,0,0.1,0,0.2,0c0.1,0,0.2-0.1,0.2-0.2
				c0.1-0.1,0.1-0.2,0.2-0.3c0.1-0.1,0.1-0.3,0.1-0.6c0-0.2,0-0.4-0.1-0.6c-0.1-0.1-0.1-0.3-0.2-0.3c-0.1-0.1-0.2-0.1-0.2-0.2
				c-0.1,0-0.2,0-0.2,0c-0.1,0-0.1,0-0.2,0c-0.1,0-0.2,0.1-0.2,0.2c-0.1,0.1-0.1,0.2-0.2,0.3c-0.1,0.2-0.1,0.3-0.1,0.6
				c0,0.2,0,0.4,0.1,0.6c0.1,0.1,0.1,0.3,0.2,0.3c0.1,0.1,0.2,0.1,0.2,0.2C143.2,46.5,143.3,46.6,143.3,46.6z"/>
			<path class="st1" d="M146.9,46.2c0-0.1,0-0.2-0.1-0.2c-0.1-0.1-0.1-0.1-0.2-0.2c-0.1-0.1-0.2-0.1-0.4-0.2
				c-0.1-0.1-0.3-0.1-0.4-0.2c-0.1-0.1-0.2-0.2-0.3-0.2c-0.1-0.1-0.1-0.2-0.2-0.3c0-0.1,0-0.2,0-0.3c0-0.1,0-0.2,0.1-0.3
				c0-0.1,0.1-0.2,0.2-0.3c0.1-0.1,0.2-0.1,0.3-0.2c0.1,0,0.2-0.1,0.3-0.1c0.1,0,0.2,0,0.3,0h0.1c0.3,0,0.5,0.1,0.7,0.2
				c0.2,0.1,0.4,0.3,0.6,0.4l0,0l0,0c0,0.1-0.1,0.1-0.2,0.2c-0.1,0-0.1,0.1-0.2,0.1c-0.1,0-0.1,0-0.2,0c-0.1,0-0.1-0.1-0.2-0.1
				c-0.1,0-0.2-0.1-0.3-0.1c-0.1,0-0.2,0-0.2,0c-0.1,0-0.2,0-0.2,0.1c-0.1,0-0.1,0.1-0.1,0.2c0,0.1,0,0.2,0.1,0.2
				c0.1,0.1,0.2,0.1,0.3,0.2c0.2,0.1,0.3,0.1,0.5,0.2c0.2,0.1,0.3,0.2,0.5,0.3c0.1,0.1,0.2,0.2,0.3,0.4c0.1,0.2,0.1,0.3,0,0.6
				c0,0.1-0.1,0.2-0.1,0.3c-0.1,0.1-0.1,0.2-0.2,0.3c-0.1,0.1-0.2,0.1-0.4,0.2c-0.2,0.1-0.3,0.1-0.5,0.1c0,0-0.1,0-0.1,0
				c-0.2,0-0.5-0.1-0.7-0.2c-0.2-0.1-0.4-0.3-0.6-0.4l0,0l0,0c0,0,0.1-0.1,0.1-0.1c0,0,0.1,0,0.1-0.1c0.1,0,0.1,0,0.2,0
				c0.1,0,0.1,0,0.2,0c0.1,0,0.1,0.1,0.2,0.1c0.1,0,0.1,0.1,0.2,0.1c0.1,0,0.2,0,0.3,0.1c0.2,0,0.3,0,0.4-0.1
				C146.8,46.4,146.9,46.3,146.9,46.2z"/>
		</g>
	</g>
</g>
<g>
	<path class="st1" d="M37.4,25.4c-0.3-0.3-0.7-0.4-1.1-0.6c-0.4-0.1-0.8-0.2-1.2-0.2c-0.3,0-0.7,0-1.1,0c-0.4,0-0.9,0.1-1.3,0.2
		c-0.4,0.1-0.8,0.3-1.1,0.5c-0.3,0.2-0.4,0.6-0.4,1.1v4.6h3.1c1.3,0,2.3-0.2,3.1-0.7c0.7-0.5,1.1-1.3,1.1-2.5c0-0.6-0.1-1.1-0.3-1.5
		C38,26,37.8,25.7,37.4,25.4z"/>
	<g>
		<path class="st1" d="M37.4,25.4c-0.3-0.3-0.7-0.4-1.1-0.6c-0.4-0.1-0.8-0.2-1.2-0.2c-0.3,0-0.7,0-1.1,0c-0.4,0-0.9,0.1-1.3,0.2
			c-0.4,0.1-0.8,0.3-1.1,0.5c-0.3,0.2-0.4,0.6-0.4,1.1v4.6h3.1c1.3,0,2.3-0.2,3.1-0.7c0.7-0.5,1.1-1.3,1.1-2.5
			c0-0.6-0.1-1.1-0.3-1.5C38,26,37.8,25.7,37.4,25.4z"/>
		<path class="st1" d="M68.3,19.6l-1.1-0.2c-0.7-0.1-1.3-0.2-2-0.1h0c-0.7,0-1.4,0.1-2,0.4c-0.6,0.2-1.2,0.6-1.8,1.1
			c-0.2,0.2-0.4,0.4-0.6,0.6C57,15.7,50.5,12,43.1,12c-11.9,0-21.5,9.6-21.5,21.5c0,11.9,9.6,21.5,21.5,21.5s21.5-9.6,21.5-21.5
			c0-1.1-0.1-2.3-0.3-3.4c1.1-2.9,2.3-6.1,3.6-9.5L68.3,19.6z M42.9,21.7c0.6,0,1.2,0.1,1.7,0.3c0.5,0.2,1,0.5,1.4,0.8
			c0.4,0.4,0.8,0.9,1,1.5c0,0.1,0.1,0.4,0.3,0.9c0.2,0.5,0.5,1.2,0.8,2c0.3,0.8,0.6,1.7,1,2.7c0.4,1,0.7,2,1.1,3
			c0.1,0.4,0.3,0.8,0.4,1.2H46l-4.9-12.2C41.8,21.8,42.3,21.7,42.9,21.7z M45.4,42.5c-0.4,1-1,1.9-1.8,2.7c-0.8,0.8-1.7,1.4-2.8,1.9
			c-1.1,0.5-2.3,0.7-3.7,0.7c-1.6,0-3-0.2-4.3-0.7c-1.3-0.5-2.4-1.2-3.3-2.1c-0.9-1-1.6-2.2-2.1-3.7c-0.4-1.3-0.7-2.9-0.7-4.8h4.5
			c0,1.3,0.1,2.4,0.3,3.4c0.2,1.1,0.6,1.9,1.1,2.6c0.5,0.6,1.1,1.1,1.9,1.4c0.7,0.3,1.6,0.4,2.5,0.4c0.8,0,1.5-0.1,2-0.4
			c0.6-0.3,1-0.6,1.4-1c0.4-0.4,0.6-0.9,0.8-1.5c0.2-0.6,0.2-1.2,0.2-1.8c0-1.1-0.2-2-0.5-2.7c-0.4-0.7-0.8-1.2-1.4-1.6
			c-0.6-0.4-1.2-0.6-1.9-0.8c-0.7-0.1-1.4-0.2-2-0.2c-0.6,0-1.1,0-1.7,0c-0.5,0-0.9,0-1.4,0c-0.5,0-0.9,0-1.4,0l0,0h-4.5V28
			c0-1.7,0.3-3,0.8-3.9c0.5-0.9,1.2-1.5,2.2-1.9c0.6-0.2,1.3-0.4,2.1-0.5c0.5-0.1,1.1-0.1,1.7-0.1c0.6,0,1.2,0,1.6,0
			c1.3,0,2.4,0.2,3.3,0.5c0.9,0.4,1.7,0.8,2.3,1.4c0.6,0.6,1.1,1.3,1.4,2c0.3,0.8,0.5,1.5,0.5,2.4c0,0.8-0.1,1.5-0.4,2.2
			c-0.3,0.7-0.7,1.3-1.2,1.8c0.7,0.3,1.4,0.6,2,1.1c0.6,0.4,1.2,1,1.6,1.6c0.5,0.6,0.8,1.3,1.1,2.1c0.3,0.8,0.4,1.7,0.4,2.7
			C46.1,40.4,45.8,41.5,45.4,42.5z M61.4,32.5c-0.5,1.4-1.1,2.8-1.6,4.1c-0.5,1.4-1.1,2.6-1.5,3.8c-0.5,1.2-0.9,2.2-1.3,3.1
			c-0.4,0.9-0.7,1.5-0.9,1.8c-0.4,0.8-0.9,1.3-1.5,1.6c-0.6,0.3-1.1,0.5-1.6,0.5c-0.6,0.1-1.2,0-1.8-0.2L47,36.4h4.7
			c0.5,1.4,1.1,2.9,1.7,4.5c1.1-2.9,2.1-5.6,3-7.9c0.4-1,0.8-2,1.1-3c0.4-1,0.7-1.9,1-2.7c0.3-0.8,0.6-1.5,0.8-2
			c0.2-0.5,0.3-0.8,0.4-0.9c0.3-0.6,0.6-1.1,1-1.5c0.4-0.4,0.9-0.7,1.4-0.8c0.5-0.2,1.1-0.3,1.6-0.3c0.6,0,1.2,0,1.8,0.1
			C64.1,25.7,62.7,29.3,61.4,32.5z"/>
	</g>
</g>
<rect x="71.1" y="256" class="st11" width="157.3" height="23.2"/>
<rect x="80.1" y="354.2" class="st12" width="138.9" height="14.1"/>
<rect x="267.3" y="354.2" class="st12" width="138.9" height="14.1"/>
<rect x="453.3" y="354.2" class="st12" width="138.9" height="14.1"/>
<rect x="258.1" y="256" class="st13" width="157.3" height="23.2"/>
<rect x="444.1" y="256" class="st3" width="157.3" height="23.2"/>
<circle class="st3" cx="130.6" cy="144.2" r="41.7"/>
<g>
	<g>
		<polygon class="st1" points="156.6,167.5 104.6,167.5 104.6,149 112.4,149 112.4,159.7 148.7,159.7 148.7,149 156.6,149 		"/>
	</g>
	<g>
		<polygon id="XMLID_2_" class="st1" points="139.3,139.8 139.3,120.4 121.8,120.4 121.8,139.8 114.3,139.8 130.6,156.1 
			146.8,139.8 		"/>
		<path class="st1" d="M146.8,139.8c-4.8,3.1-13.4,8.1-21.7,10.8l5.4,5.4L146.8,139.8L146.8,139.8z"/>
		<path class="st1" d="M122.5,128.7V121h5.9C128.4,121,123.3,122,122.5,128.7z"/>
	</g>
	<path class="st1" d="M115.5,167.5c0,0,31.7-1.1,41.1-11.5v11.5H115.5z"/>
</g>
</svg>
