<?xml version="1.0" encoding="utf-8"?>
<!-- Generator: Adobe Illustrator 22.1.0, SVG Export Plug-In . SVG Version: 6.00 Build 0)  -->
<svg version="1.1" id="Layer_1" xmlns="http://www.w3.org/2000/svg" xmlns:xlink="http://www.w3.org/1999/xlink" x="0px" y="0px"
	 viewBox="0 0 709.8 424.4" style="enable-background:new 0 0 709.8 424.4;" xml:space="preserve">
<style type="text/css">
	.st0{fill:#757474;}
	.st1{fill:#FFFFFF;}
	.st2{fill:#005321;}
	.st3{fill:#52AE32;}
	.st4{fill:#DCDCDC;}
	.st5{fill:#F9B041;}
	.st6{fill:#21386C;}
	.st7{fill:#144F9F;}
	.st8{fill:#F49523;}
	.st9{fill:none;stroke:#52AE32;stroke-miterlimit:10;}
	.st10{fill:none;stroke:#52AE32;stroke-miterlimit:10;stroke-dasharray:4.9052,4.9052;}
	.st11{font-family:'Montserrat-Bold';}
	.st12{font-size:32.7602px;}
	.st13{font-family:'Montserrat-Italic';}
	.st14{font-size:15.7637px;}
	.st15{fill:#E30613;}
	.st16{fill:#B2B2B2;}
	.st17{fill:#FFCC00;}
	.st18{font-family:'Montserrat-Medium';}
	.st19{font-size:24.0634px;}
	.st20{fill:#9B9B9A;}
	.st21{fill:#706F6F;stroke:#706F6F;stroke-width:0.25;stroke-miterlimit:10;}
	.st22{fill:#4E4D4D;}
	.st23{fill:#706F6F;}
	.st24{fill:#FFED00;}
	.st25{fill:#E41513;}
	.st26{fill:#5AB031;}
</style>
<rect class="st2" width="709.8" height="63.4"/>
<rect y="63.4" class="st3" width="709.8" height="361"/>
<g>
	<path class="st2" d="M328.2,121.5c-0.5-0.4-1.2-0.7-1.8-0.9c-0.7-0.2-1.3-0.3-2-0.3c-0.5,0-1.1,0-1.8,0s-1.4,0.1-2.1,0.3
		c-0.7,0.2-1.3,0.5-1.7,0.9c-0.5,0.4-0.7,1-0.7,1.8v7.7h5.1c2.2,0,3.9-0.4,5.1-1.2c1.2-0.8,1.8-2.2,1.8-4.1c0-1-0.2-1.8-0.5-2.4
		C329.1,122.5,328.7,122,328.2,121.5z"/>
	<g>
		<path class="st2" d="M328.2,121.5c-0.5-0.4-1.2-0.7-1.8-0.9c-0.7-0.2-1.3-0.3-2-0.3c-0.5,0-1.1,0-1.8,0c-0.7,0-1.4,0.1-2.1,0.3
			c-0.7,0.2-1.3,0.5-1.7,0.9c-0.5,0.4-0.7,1-0.7,1.8v7.7h5.1c2.2,0,3.9-0.4,5.1-1.2c1.2-0.8,1.8-2.2,1.8-4.1c0-1-0.2-1.8-0.5-2.4
			C329.1,122.5,328.7,122,328.2,121.5z"/>
		<path class="st2" d="M379.1,112l-1.8-0.3c-1.1-0.2-2.2-0.3-3.3-0.2h0c-1.2,0-2.3,0.2-3.3,0.6c-1.1,0.4-2,1-2.9,1.8
			c-0.3,0.3-0.7,0.7-0.9,1c-6.4-9.3-17.1-15.5-29.3-15.5c-19.6,0-35.5,15.9-35.5,35.5c0,19.6,15.9,35.5,35.5,35.5
			s35.5-15.9,35.5-35.5c0-1.9-0.2-3.7-0.4-5.6c1.8-4.8,3.8-10,5.9-15.6L379.1,112z M337.2,115.5c1,0,1.9,0.2,2.7,0.5
			c0.8,0.3,1.6,0.8,2.3,1.4c0.7,0.6,1.3,1.5,1.7,2.5c0,0.2,0.2,0.7,0.6,1.5c0.3,0.9,0.8,2,1.3,3.3c0.5,1.3,1.1,2.8,1.7,4.4
			c0.6,1.6,1.2,3.2,1.9,4.9c0.2,0.6,0.5,1.3,0.7,1.9h-7.8l-8-20.1C335.3,115.6,336.3,115.5,337.2,115.5z M341.3,149.7
			c-0.7,1.7-1.7,3.1-3,4.4c-1.3,1.3-2.8,2.3-4.6,3.1c-1.8,0.8-3.8,1.1-6.1,1.1c-2.6,0-5-0.4-7.1-1.1c-2.1-0.7-3.9-1.9-5.4-3.5
			c-1.5-1.6-2.6-3.6-3.4-6.2c-0.7-2.2-1.1-4.8-1.2-7.9h7.4c0,2.2,0.2,4,0.5,5.5c0.4,1.8,1,3.2,1.9,4.3c0.8,1,1.9,1.8,3.1,2.2
			c1.2,0.4,2.6,0.7,4.2,0.7c1.3,0,2.4-0.2,3.3-0.6c0.9-0.4,1.7-1,2.3-1.7c0.6-0.7,1-1.5,1.3-2.5c0.3-0.9,0.4-2,0.4-3
			c0-1.8-0.3-3.2-0.9-4.4c-0.6-1.1-1.4-2-2.3-2.7c-0.9-0.6-2-1.1-3.1-1.3c-1.1-0.2-2.2-0.3-3.3-0.3c-1,0-1.9,0-2.7,0
			c-0.9,0-1.6,0-2.2,0c-0.8,0-1.5,0-2.3,0l0,0h-7.4v-10.1c0-2.7,0.4-4.9,1.3-6.5c0.8-1.5,2-2.6,3.7-3.2c1-0.4,2.1-0.7,3.4-0.8
			c0.8-0.1,1.8-0.2,2.8-0.2c1,0,1.9,0,2.6,0c2.1,0,3.9,0.3,5.4,0.9c1.5,0.6,2.8,1.4,3.8,2.3c1,1,1.8,2.1,2.3,3.3
			c0.5,1.2,0.8,2.6,0.8,3.9c0,1.3-0.2,2.5-0.7,3.6c-0.5,1.1-1.2,2.1-2.1,3c1.2,0.4,2.3,1,3.3,1.7c1,0.7,1.9,1.6,2.7,2.6
			c0.8,1,1.4,2.2,1.8,3.5c0.4,1.3,0.7,2.8,0.7,4.4C342.4,146.3,342,148,341.3,149.7z M367.8,133.3c-0.9,2.3-1.8,4.6-2.7,6.8
			c-0.9,2.3-1.7,4.3-2.5,6.3c-0.8,1.9-1.5,3.6-2.1,5c-0.6,1.4-1.1,2.4-1.4,3c-0.7,1.3-1.5,2.2-2.4,2.7c-0.9,0.5-1.8,0.8-2.6,0.8
			c-1,0.1-2,0-3-0.3l-7.2-18h7.7c0.9,2.3,1.9,4.8,2.9,7.4c1.8-4.8,3.5-9.2,5-13.1c0.6-1.6,1.3-3.3,1.9-4.9c0.6-1.6,1.2-3.1,1.7-4.4
			c0.5-1.3,0.9-2.4,1.3-3.3c0.3-0.9,0.6-1.4,0.6-1.5c0.4-1,1-1.9,1.7-2.5c0.7-0.6,1.5-1.1,2.3-1.4c0.8-0.3,1.7-0.5,2.7-0.5
			c1,0,1.9,0.1,2.9,0.2C372.1,122.1,369.8,128,367.8,133.3z"/>
	</g>
</g>
<g>
	<path class="st1" d="M285.4,37.7c-1,0-2-0.2-2.8-0.4c-0.8-0.3-1.5-0.8-2.1-1.4c-0.6-0.6-1.1-1.5-1.4-2.5c-0.3-1-0.5-2.2-0.5-3.7v-5
		c0-1.1,0.2-2,0.5-2.6c0.3-0.6,0.8-1,1.5-1.3c0.4-0.2,0.8-0.3,1.4-0.3c0.3,0,0.7-0.1,1.1-0.1c0.4,0,0.8,0,1,0c0.8,0,1.6,0.1,2.2,0.3
		c0.6,0.2,1.1,0.5,1.5,0.9c0.4,0.4,0.7,0.8,0.9,1.3c0.2,0.5,0.3,1,0.3,1.6c0,0.5-0.1,1-0.3,1.4c-0.2,0.4-0.5,0.8-0.8,1.2
		c0.5,0.2,0.9,0.4,1.3,0.7c0.4,0.3,0.8,0.6,1.1,1c0.3,0.4,0.5,0.9,0.7,1.4c0.2,0.5,0.3,1.1,0.3,1.8c0,0.7-0.1,1.4-0.4,2.1
		c-0.3,0.7-0.7,1.2-1.2,1.8c-0.5,0.5-1.1,0.9-1.9,1.2C287.2,37.5,286.3,37.7,285.4,37.7z M285.4,35.3c0.5,0,1-0.1,1.3-0.3
		c0.4-0.2,0.7-0.4,0.9-0.7c0.2-0.3,0.4-0.6,0.5-1c0.1-0.4,0.2-0.8,0.2-1.2c0-0.7-0.1-1.3-0.4-1.7c-0.2-0.5-0.6-0.8-0.9-1.1
		c-0.4-0.2-0.8-0.4-1.3-0.5c-0.5-0.1-0.9-0.1-1.3-0.1c-0.4,0-0.7,0-1.1,0c-0.3,0-0.7,0-0.9,0c-0.3,0-0.6,0-0.9,0v1
		c0,1.1,0,2,0.2,2.7c0.2,0.7,0.4,1.3,0.7,1.7c0.3,0.4,0.7,0.7,1.2,0.9C284.3,35.2,284.8,35.3,285.4,35.3z M281.6,26.7h2
		c0.9,0,1.5-0.2,2-0.5c0.5-0.3,0.7-0.9,0.7-1.6c0-0.4-0.1-0.7-0.2-1c-0.1-0.3-0.3-0.5-0.5-0.7c-0.2-0.2-0.5-0.3-0.7-0.4
		c-0.3-0.1-0.5-0.1-0.8-0.1c-0.2,0-0.4,0-0.7,0c-0.3,0-0.6,0-0.8,0.1c-0.3,0.1-0.5,0.2-0.7,0.4c-0.2,0.2-0.3,0.4-0.3,0.7V26.7z"/>
	<path class="st1" d="M302.4,32.4c0,1.1-0.2,2-0.5,2.6c-0.3,0.7-0.7,1.2-1.2,1.6c-0.5,0.4-1.1,0.6-1.7,0.8c-0.6,0.1-1.2,0.2-1.9,0.2
		c-0.6,0-1.2-0.1-1.9-0.2c-0.6-0.1-1.2-0.4-1.7-0.8c-0.5-0.4-0.9-0.9-1.2-1.6c-0.3-0.7-0.5-1.6-0.5-2.6l0-3.4c0-1,0.3-1.7,0.8-2.1
		s1.3-0.6,2.3-0.6c0,0.1,0,0.2,0,0.4c0,0.2,0,0.4,0,0.7c0,0.3,0,0.7,0,1.2l0,3.7c0,0.7,0.1,1.2,0.2,1.6c0.1,0.4,0.3,0.7,0.5,1
		c0.2,0.2,0.5,0.4,0.7,0.5c0.3,0.1,0.5,0.1,0.8,0.1s0.5,0,0.8-0.1c0.3-0.1,0.5-0.2,0.7-0.5c0.2-0.2,0.4-0.5,0.5-1
		c0.1-0.4,0.2-0.9,0.2-1.6l0-3.4c0-1,0.3-1.7,0.8-2.1c0.5-0.4,1.3-0.6,2.3-0.6c0,0.1,0,0.2,0,0.4c0,0.2,0,0.4,0,0.7
		c0,0.3,0,0.7,0,1.2L302.4,32.4z"/>
	<path class="st1" d="M312.1,35.1c0.2,0.1,0.4,0.3,0.6,0.6l0.1,0.1l-0.1,0.1c-0.5,0.6-1.2,1-1.9,1.4c-0.7,0.3-1.5,0.5-2.4,0.5
		c-0.7,0-1.4-0.2-2.1-0.4c-0.7-0.3-1.2-0.7-1.7-1.2c-0.5-0.5-0.9-1.1-1.1-1.8c-0.3-0.7-0.4-1.5-0.4-2.3s0.1-1.6,0.4-2.3
		c0.2-0.7,0.6-1.3,1.1-1.8c0.5-0.5,1-0.9,1.7-1.2c0.7-0.3,1.4-0.5,2.2-0.5c0.4,0,0.9,0.1,1.5,0.2c0.5,0.1,1,0.4,1.5,0.7
		c0.5,0.3,0.9,0.7,1.2,1.2c0.3,0.5,0.5,1.1,0.5,1.7c0,0.7-0.2,1.2-0.5,1.6c-0.3,0.4-0.7,0.7-1.2,1c-0.5,0.2-1,0.4-1.5,0.5
		c-0.5,0.1-1,0.1-1.4,0.1c-0.6,0-1.1,0-1.6-0.1c-0.4-0.1-0.7-0.1-0.9-0.2c0.1,0.6,0.2,1.1,0.4,1.4c0.2,0.4,0.4,0.6,0.7,0.9
		c0.2,0.2,0.5,0.4,0.7,0.4c0.2,0.1,0.5,0.1,0.7,0.1c0.3,0,0.7,0,1-0.1c0.3-0.1,0.6-0.1,0.8-0.2c0.2-0.1,0.5-0.2,0.7-0.2
		c0.2-0.1,0.4-0.1,0.6-0.1C311.8,34.9,312,35,312.1,35.1z M308.4,28.2c-0.2,0-0.4,0.1-0.6,0.1c-0.2,0.1-0.5,0.2-0.7,0.4
		c-0.2,0.2-0.4,0.5-0.6,0.8c-0.2,0.4-0.3,0.8-0.4,1.3c0.3,0.1,0.6,0.2,1.1,0.2c0.5,0.1,0.9,0.1,1.4,0c0.5,0,0.9-0.2,1.3-0.4
		c0.4-0.2,0.6-0.6,0.6-1.1c0-0.4-0.1-0.7-0.5-1C309.6,28.3,309.1,28.1,308.4,28.2z"/>
	<path class="st1" d="M313.7,31.3c0-1.1,0.2-2,0.5-2.6c0.3-0.7,0.7-1.2,1.2-1.6c0.5-0.4,1-0.6,1.7-0.8c0.6-0.1,1.2-0.2,1.9-0.2
		c0.6,0,1.2,0.1,1.9,0.2c0.6,0.1,1.2,0.4,1.7,0.8c0.5,0.4,0.9,0.9,1.2,1.6c0.3,0.7,0.5,1.6,0.5,2.6l0.1,6.1c-1,0-1.7-0.2-2.3-0.6
		c-0.5-0.4-0.8-1.1-0.8-2.1l0-3.4c0-0.7-0.1-1.2-0.2-1.6c-0.1-0.4-0.3-0.7-0.5-1c-0.2-0.2-0.5-0.4-0.7-0.5c-0.3-0.1-0.5-0.1-0.8-0.1
		s-0.5,0-0.8,0.1c-0.3,0.1-0.5,0.2-0.7,0.5c-0.2,0.2-0.4,0.6-0.5,1s-0.2,1-0.2,1.6v3.7c0,0.5,0,0.9,0,1.2c0,0.3,0,0.5,0,0.7
		c0,0.2,0,0.3,0,0.4c-1,0-1.8-0.2-2.3-0.6c-0.5-0.4-0.8-1.1-0.8-2.1L313.7,31.3z"/>
	<path class="st1" d="M326.3,31.3c0.4-0.3,0.9-0.5,1.5-0.6c0.5-0.1,1.1-0.2,1.7-0.2c0.8,0,1.6,0.1,2.4,0.4c0-0.5-0.2-0.9-0.3-1.3
		c-0.2-0.5-0.5-0.9-0.9-1.1c-0.2-0.1-0.3-0.1-0.5-0.2c-0.2,0-0.4-0.1-0.6-0.1h-0.3c-0.2,0-0.4,0.1-0.7,0.1c-0.2,0.1-0.4,0.1-0.7,0.2
		c-0.2,0.1-0.5,0.1-0.7,0.2c-0.2,0.1-0.4,0.1-0.6,0.1c-0.2,0-0.4,0-0.7-0.1c-0.2-0.1-0.4-0.3-0.5-0.6l0-0.1l0-0.1
		c0.5-0.5,1.1-0.9,1.7-1.2c0.7-0.3,1.4-0.5,2.1-0.5c0.1,0,0.1,0,0.2,0c0.1,0,0.1,0,0.2,0c0.7,0,1.4,0.1,2,0.4
		c0.6,0.3,1.1,0.6,1.6,1.1c0.9,1,1.4,2.3,1.4,3.9v0.2c0,1.7-0.4,3-1.3,4.1c-0.4,0.5-0.9,0.9-1.5,1.3c-0.6,0.3-1.2,0.5-2,0.6
		c-0.1,0-0.2,0-0.3,0c-0.1,0-0.2,0-0.3,0c-0.3,0-0.7,0-1.1-0.1c-0.4-0.1-0.7-0.2-1.1-0.3c-0.4-0.1-0.7-0.3-1-0.6
		c-0.3-0.2-0.6-0.5-0.8-0.9c-0.3-0.5-0.5-1-0.5-1.7v-0.1c0-0.6,0.1-1.1,0.4-1.6C325.4,31.9,325.8,31.6,326.3,31.3z M331.2,32.4
		c-0.2,0-0.4-0.1-0.7-0.1c-0.3,0-0.5,0-0.8,0c-0.2,0-0.4,0-0.7,0c-0.2,0-0.4,0.1-0.6,0.1c-0.4,0.1-0.7,0.3-0.9,0.6
		c-0.1,0.1-0.1,0.2-0.2,0.3c0,0.1-0.1,0.3-0.1,0.4c0,0,0,0.1,0,0.2c0,0.2,0,0.3,0.1,0.5c0,0.2,0.1,0.4,0.3,0.5
		c0.1,0.2,0.3,0.3,0.6,0.4c0.2,0.1,0.6,0.2,1,0.2c0.1,0,0.2,0,0.3,0c0.5,0,0.8-0.1,1.2-0.4c0.2-0.1,0.3-0.2,0.4-0.4
		c0.1-0.1,0.2-0.3,0.3-0.4c0.2-0.3,0.3-0.6,0.4-0.9c0.1-0.3,0.1-0.6,0.1-0.9c0,0,0,0,0,0c0,0,0,0,0,0c-0.1,0-0.1,0-0.2,0
		C331.5,32.5,331.4,32.5,331.2,32.4z"/>
	<path class="st1" d="M348.6,20.7c-1,2.6-1.9,4.9-2.7,7c-0.4,0.9-0.7,1.8-1.1,2.7c-0.4,0.9-0.7,1.7-1,2.5c-0.3,0.8-0.6,1.4-0.8,2
		c-0.2,0.6-0.4,1-0.6,1.2c-0.3,0.5-0.6,0.9-1,1.1c-0.4,0.2-0.7,0.3-1,0.3c-0.4,0-0.8,0-1.2-0.1l-6.7-16.8c0.4-0.1,0.8-0.1,1.2-0.1
		c0.4,0,0.8,0.1,1.1,0.2c0.3,0.1,0.6,0.3,0.9,0.6c0.3,0.3,0.5,0.6,0.7,1c0,0.1,0.1,0.3,0.2,0.6c0.1,0.3,0.3,0.8,0.5,1.3
		c0.2,0.5,0.4,1.1,0.7,1.7c0.2,0.6,0.5,1.3,0.7,2c0.6,1.6,1.3,3.3,2,5.2c0.7-1.9,1.4-3.7,2-5.2c0.3-0.7,0.5-1.3,0.7-2
		c0.2-0.6,0.5-1.2,0.7-1.7c0.2-0.5,0.4-1,0.5-1.3c0.1-0.3,0.2-0.6,0.3-0.6c0.2-0.4,0.4-0.7,0.7-1c0.3-0.2,0.6-0.4,0.9-0.6
		c0.3-0.1,0.7-0.2,1.1-0.2C347.8,20.6,348.2,20.6,348.6,20.7z"/>
	<path class="st1" d="M354.9,35.1c0.2,0.1,0.4,0.3,0.6,0.6l0.1,0.1l-0.1,0.1c-0.5,0.6-1.2,1-1.9,1.4c-0.7,0.3-1.5,0.5-2.4,0.5
		c-0.7,0-1.4-0.2-2.1-0.4c-0.7-0.3-1.2-0.7-1.7-1.2c-0.5-0.5-0.9-1.1-1.1-1.8c-0.3-0.7-0.4-1.5-0.4-2.3s0.1-1.6,0.4-2.3
		c0.2-0.7,0.6-1.3,1.1-1.8c0.5-0.5,1-0.9,1.7-1.2c0.7-0.3,1.4-0.5,2.2-0.5c0.4,0,0.9,0.1,1.5,0.2c0.5,0.1,1,0.4,1.5,0.7
		c0.5,0.3,0.9,0.7,1.2,1.2c0.3,0.5,0.5,1.1,0.5,1.7c0,0.7-0.2,1.2-0.5,1.6c-0.3,0.4-0.7,0.7-1.2,1c-0.5,0.2-1,0.4-1.5,0.5
		c-0.5,0.1-1,0.1-1.4,0.1c-0.6,0-1.1,0-1.6-0.1c-0.4-0.1-0.7-0.1-0.9-0.2c0.1,0.6,0.2,1.1,0.4,1.4c0.2,0.4,0.4,0.6,0.7,0.9
		c0.2,0.2,0.5,0.4,0.7,0.4c0.2,0.1,0.5,0.1,0.7,0.1c0.3,0,0.7,0,1-0.1c0.3-0.1,0.6-0.1,0.8-0.2c0.2-0.1,0.5-0.2,0.7-0.2
		c0.2-0.1,0.4-0.1,0.6-0.1C354.5,34.9,354.7,35,354.9,35.1z M351.2,28.2c-0.2,0-0.4,0.1-0.6,0.1c-0.2,0.1-0.5,0.2-0.7,0.4
		c-0.2,0.2-0.4,0.5-0.6,0.8c-0.2,0.4-0.3,0.8-0.4,1.3c0.3,0.1,0.6,0.2,1.1,0.2c0.5,0.1,0.9,0.1,1.4,0c0.5,0,0.9-0.2,1.3-0.4
		c0.4-0.2,0.6-0.6,0.6-1.1c0-0.4-0.1-0.7-0.5-1C352.3,28.3,351.8,28.1,351.2,28.2z"/>
	<path class="st1" d="M356.4,31.3c0-1.1,0.2-2,0.5-2.6c0.3-0.7,0.7-1.2,1.2-1.6c0.5-0.4,1-0.6,1.7-0.8c0.6-0.1,1.2-0.2,1.9-0.2
		c0.6,0,1.2,0.1,1.9,0.2c0.6,0.1,1.2,0.4,1.7,0.8c0.5,0.4,0.9,0.9,1.2,1.6c0.3,0.7,0.5,1.6,0.5,2.6l0.1,6.1c-1,0-1.7-0.2-2.3-0.6
		c-0.5-0.4-0.8-1.1-0.8-2.1l0-3.4c0-0.7-0.1-1.2-0.2-1.6c-0.1-0.4-0.3-0.7-0.5-1c-0.2-0.2-0.5-0.4-0.7-0.5c-0.3-0.1-0.5-0.1-0.8-0.1
		s-0.5,0-0.8,0.1c-0.3,0.1-0.5,0.2-0.7,0.5c-0.2,0.2-0.4,0.6-0.5,1c-0.1,0.4-0.2,1-0.2,1.6v3.7c0,0.5,0,0.9,0,1.2c0,0.3,0,0.5,0,0.7
		c0,0.2,0,0.3,0,0.4c-1,0-1.8-0.2-2.3-0.6c-0.5-0.4-0.8-1.1-0.8-2.1L356.4,31.3z"/>
	<path class="st1" d="M374.3,35.3c0,0,0,0.1,0,0.2c0,0.1,0,0.2,0,0.4c0,0.3-0.1,0.6-0.2,0.8c-0.1,0.2-0.3,0.4-0.5,0.6
		c-0.4,0.3-1,0.5-1.6,0.5c-0.5,0-1.1-0.1-1.6-0.4c-0.5-0.2-1-0.6-1.4-1.1c-0.4-0.5-0.7-1.1-1-1.8c-0.2-0.7-0.4-1.6-0.4-2.5l0-7
		c0-1,0.3-1.7,0.8-2.1c0.5-0.4,1.3-0.6,2.2-0.6c0,0.1,0,0.3,0,0.5c0,0.2,0,0.4,0,0.7c0,0.3,0,0.7,0,1.2l0,1.5h3.2
		c0,0.7-0.2,1.3-0.6,1.7s-1,0.7-1.7,0.7h-0.9l0,3.4c0,0.7,0.1,1.2,0.2,1.7c0.1,0.5,0.3,0.8,0.5,1.1c0.4,0.5,1,0.8,1.7,0.8
		c0.3,0,0.6,0,0.9-0.1C374,35.4,374.2,35.3,374.3,35.3z"/>
	<path class="st1" d="M384.9,32.4c0,1.1-0.2,2-0.5,2.6c-0.3,0.7-0.7,1.2-1.2,1.6c-0.5,0.4-1.1,0.6-1.7,0.8c-0.6,0.1-1.2,0.2-1.9,0.2
		c-0.6,0-1.2-0.1-1.9-0.2c-0.6-0.1-1.2-0.4-1.7-0.8c-0.5-0.4-0.9-0.9-1.2-1.6c-0.3-0.7-0.5-1.6-0.5-2.6l0-3.4c0-1,0.3-1.7,0.8-2.1
		s1.3-0.6,2.3-0.6c0,0.1,0,0.2,0,0.4c0,0.2,0,0.4,0,0.7c0,0.3,0,0.7,0,1.2l0,3.7c0,0.7,0.1,1.2,0.2,1.6c0.1,0.4,0.3,0.7,0.5,1
		c0.2,0.2,0.5,0.4,0.7,0.5c0.3,0.1,0.5,0.1,0.8,0.1s0.5,0,0.8-0.1c0.3-0.1,0.5-0.2,0.7-0.5c0.2-0.2,0.4-0.5,0.5-1
		c0.1-0.4,0.2-0.9,0.2-1.6l0-3.4c0-1,0.3-1.7,0.8-2.1c0.5-0.4,1.3-0.6,2.3-0.6c0,0.1,0,0.2,0,0.4c0,0.2,0,0.4,0,0.7
		c0,0.3,0,0.7,0,1.2L384.9,32.4z"/>
	<path class="st1" d="M385.7,31.6c0-1.1,0.2-2,0.5-2.6c0.3-0.7,0.7-1.2,1.2-1.6c0.5-0.4,1.1-0.6,1.7-0.8c0.6-0.1,1.2-0.2,1.8-0.2
		h1.2c0.1,0.3,0.1,0.6,0,0.9c0,0.2-0.1,0.5-0.3,0.7c-0.2,0.2-0.5,0.4-0.9,0.4c-0.3,0-0.5,0.1-0.8,0.2c-0.3,0.1-0.5,0.2-0.7,0.5
		c-0.2,0.2-0.4,0.5-0.5,0.9c-0.1,0.4-0.2,0.9-0.2,1.6v3.5c0,0.5,0,0.9,0,1.2c0,0.3,0,0.5,0,0.7c0,0.2,0,0.3,0,0.4
		c-1,0-1.7-0.2-2.3-0.6c-0.5-0.4-0.8-1.1-0.8-2.1V31.6z"/>
	<path class="st1" d="M393.5,31.3c0.4-0.3,0.9-0.5,1.5-0.6c0.5-0.1,1.1-0.2,1.7-0.2c0.8,0,1.6,0.1,2.4,0.4c0-0.5-0.2-0.9-0.3-1.3
		c-0.2-0.5-0.5-0.9-0.9-1.1c-0.2-0.1-0.3-0.1-0.5-0.2c-0.2,0-0.4-0.1-0.6-0.1h-0.3c-0.2,0-0.4,0.1-0.7,0.1c-0.2,0.1-0.4,0.1-0.7,0.2
		c-0.2,0.1-0.5,0.1-0.7,0.2c-0.2,0.1-0.4,0.1-0.6,0.1c-0.2,0-0.4,0-0.7-0.1c-0.2-0.1-0.4-0.3-0.5-0.6l0-0.1l0-0.1
		c0.5-0.5,1.1-0.9,1.7-1.2c0.7-0.3,1.4-0.5,2.1-0.5c0.1,0,0.1,0,0.2,0c0.1,0,0.1,0,0.2,0c0.7,0,1.4,0.1,2,0.4
		c0.6,0.3,1.1,0.6,1.6,1.1c0.9,1,1.4,2.3,1.4,3.9v0.2c0,1.7-0.4,3-1.3,4.1c-0.4,0.5-0.9,0.9-1.5,1.3c-0.6,0.3-1.2,0.5-2,0.6
		c-0.1,0-0.2,0-0.3,0c-0.1,0-0.2,0-0.3,0c-0.3,0-0.7,0-1.1-0.1c-0.4-0.1-0.7-0.2-1.1-0.3c-0.4-0.1-0.7-0.3-1-0.6
		c-0.3-0.2-0.6-0.5-0.8-0.9c-0.3-0.5-0.5-1-0.5-1.7v-0.1c0-0.6,0.1-1.1,0.4-1.6C392.7,31.9,393,31.6,393.5,31.3z M398.5,32.4
		c-0.2,0-0.4-0.1-0.7-0.1c-0.3,0-0.5,0-0.8,0c-0.2,0-0.4,0-0.7,0c-0.2,0-0.4,0.1-0.6,0.1c-0.4,0.1-0.7,0.3-0.9,0.6
		c-0.1,0.1-0.1,0.2-0.2,0.3c0,0.1-0.1,0.3-0.1,0.4c0,0,0,0.1,0,0.2c0,0.2,0,0.3,0.1,0.5c0,0.2,0.1,0.4,0.3,0.5
		c0.1,0.2,0.3,0.3,0.6,0.4c0.2,0.1,0.6,0.2,1,0.2c0.1,0,0.2,0,0.3,0c0.5,0,0.8-0.1,1.2-0.4c0.2-0.1,0.3-0.2,0.4-0.4
		c0.1-0.1,0.2-0.3,0.3-0.4c0.2-0.3,0.3-0.6,0.4-0.9c0.1-0.3,0.1-0.6,0.1-0.9c0,0,0,0,0,0c0,0,0,0,0,0c-0.1,0-0.1,0-0.2,0
		C398.7,32.5,398.6,32.5,398.5,32.4z"/>
	<g>
		<g>
			<path class="st1" d="M323.2,46.8c0,0.1,0,0.1,0.1,0.2c0,0.1,0,0.1,0.1,0.2c0,0.1,0,0.1,0.1,0.2c-0.2,0-0.4,0.1-0.5,0
				c-0.1,0-0.3-0.1-0.4-0.1c-0.1-0.1-0.3-0.2-0.3-0.4c0-0.1-0.1-0.3-0.2-0.5c-0.1-0.3-0.2-0.5-0.4-0.9H319c-0.1,0.3-0.3,0.6-0.4,0.9
				c-0.1,0.3-0.2,0.4-0.2,0.5c-0.1,0.2-0.2,0.3-0.3,0.4c-0.1,0.1-0.3,0.1-0.4,0.1c-0.2,0-0.3,0-0.5,0c0-0.1,0-0.1,0.1-0.2
				c0,0,0-0.1,0.1-0.2c0-0.1,0-0.1,0.1-0.2c0-0.1,0.1-0.3,0.2-0.6c0.1-0.3,0.2-0.6,0.4-0.9c0.1-0.4,0.3-0.7,0.4-1.1
				c0.2-0.4,0.3-0.8,0.4-1.1c0.1-0.4,0.3-0.7,0.4-0.9c0.1-0.3,0.2-0.5,0.2-0.6c0.1-0.2,0.1-0.3,0.2-0.4c0.1-0.1,0.2-0.2,0.2-0.2
				c0.1-0.1,0.1-0.1,0.2-0.1c0.1,0,0.1,0,0.2,0c0.1,0,0.1,0,0.2,0c0.1,0,0.1,0.1,0.2,0.1c0.1,0.1,0.1,0.1,0.2,0.2
				c0.1,0.1,0.1,0.2,0.2,0.4c0,0.1,0.1,0.3,0.2,0.6c0.1,0.3,0.2,0.6,0.4,0.9c0.1,0.4,0.3,0.7,0.4,1.1c0.2,0.4,0.3,0.8,0.4,1.1
				c0.1,0.4,0.3,0.7,0.4,0.9C323.1,46.5,323.2,46.7,323.2,46.8z M321.2,44.5c-0.1-0.3-0.2-0.6-0.4-0.9c-0.1-0.3-0.2-0.6-0.3-0.8
				c-0.1-0.3-0.2-0.5-0.3-0.8c-0.1,0.2-0.2,0.5-0.3,0.8c-0.1,0.2-0.2,0.5-0.3,0.8c-0.1,0.3-0.2,0.6-0.4,0.9H321.2z"/>
			<path class="st1" d="M324.4,47.2c0.3-0.1,0.6-0.1,0.9-0.2c0.3,0,0.6,0,0.9,0.1c0.3,0.1,0.5,0.2,0.7,0.4c0.2,0.2,0.3,0.5,0.3,0.8
				c0,0.3-0.1,0.5-0.2,0.7c-0.1,0.2-0.2,0.3-0.4,0.5c-0.2,0.1-0.4,0.2-0.6,0.2c-0.2,0-0.4,0.1-0.5,0.1h-0.1c-0.3,0-0.5-0.1-0.8-0.2
				c-0.2-0.1-0.4-0.3-0.6-0.5c-0.2-0.2-0.3-0.4-0.4-0.7s-0.2-0.6-0.2-0.9c0,0,0,0,0-0.1c0,0,0,0,0-0.1c0-0.4,0.1-0.7,0.2-1
				c0.1-0.3,0.3-0.5,0.5-0.7c-0.2-0.1-0.4-0.3-0.5-0.5c-0.1-0.2-0.2-0.4-0.2-0.7c0-0.2,0-0.4,0.1-0.6c0.1-0.2,0.2-0.4,0.4-0.5
				c0.2-0.1,0.4-0.3,0.6-0.3c0.2-0.1,0.5-0.1,0.7-0.1c0.3,0,0.5,0,0.8,0.1c0.2,0.1,0.4,0.2,0.6,0.3c0.3,0.3,0.5,0.7,0.5,1.1
				c0,0.2,0,0.4-0.1,0.6c-0.1,0.2-0.2,0.4-0.4,0.5c-0.2,0.1-0.3,0.3-0.6,0.3c-0.2,0.1-0.4,0.1-0.7,0.1v0h-0.1c-0.2,0-0.4,0-0.5,0.1
				c-0.1,0.1-0.2,0.2-0.3,0.3c-0.1,0.1-0.1,0.2-0.1,0.4C324.4,47,324.4,47.1,324.4,47.2z M326,48.7c0.1-0.1,0.1-0.1,0.1-0.2
				c0-0.1,0-0.1,0-0.2c0-0.1,0-0.1,0-0.1c0-0.1-0.1-0.2-0.1-0.2c0-0.1-0.1-0.1-0.2-0.1c-0.1,0-0.2-0.1-0.3-0.1c-0.1,0-0.2,0-0.3,0
				s-0.2,0-0.3,0c-0.1,0-0.2,0-0.3,0c-0.1,0-0.2,0-0.2,0.1c-0.1,0-0.1,0-0.1,0c0,0.1,0,0.2,0,0.2c0,0.1,0,0.2,0.1,0.3
				c0,0.1,0.1,0.2,0.2,0.3c0.1,0.1,0.1,0.1,0.2,0.2c0.1,0.1,0.3,0.1,0.5,0.1s0.3,0,0.4-0.1C325.9,48.8,326,48.8,326,48.7z
				 M325.3,43.7c-0.1,0-0.1,0-0.2,0c-0.1,0-0.2,0.1-0.2,0.1c-0.1,0.1-0.1,0.1-0.2,0.3s-0.1,0.2-0.1,0.4c0,0.2,0,0.3,0.1,0.4
				c0,0.1,0.1,0.2,0.2,0.2c0.1,0.1,0.1,0.1,0.2,0.1c0.1,0,0.1,0,0.2,0c0.1,0,0.1,0,0.2,0c0.1,0,0.2-0.1,0.2-0.1
				c0.1-0.1,0.1-0.1,0.2-0.2c0-0.1,0.1-0.2,0.1-0.4c0-0.2,0-0.3-0.1-0.4c0-0.1-0.1-0.2-0.2-0.3c-0.1-0.1-0.1-0.1-0.2-0.1
				C325.4,43.7,325.3,43.7,325.3,43.7z"/>
			<path class="st1" d="M327.2,45.1c0-0.4,0.1-0.7,0.2-1c0.1-0.3,0.3-0.5,0.5-0.6c0.2-0.1,0.4-0.2,0.6-0.3c0.2-0.1,0.5-0.1,0.7-0.1
				h0.5c0,0.1,0,0.2,0,0.4c0,0.1-0.1,0.2-0.1,0.3c-0.1,0.1-0.2,0.1-0.3,0.2c-0.1,0-0.2,0-0.3,0.1c-0.1,0-0.2,0.1-0.3,0.2
				c-0.1,0.1-0.1,0.2-0.2,0.4c-0.1,0.2-0.1,0.4-0.1,0.6v1.3c0,0.2,0,0.3,0,0.4c0,0.1,0,0.2,0,0.3c0,0.1,0,0.1,0,0.2
				c-0.4,0-0.7-0.1-0.9-0.2c-0.2-0.2-0.3-0.4-0.3-0.8V45.1z"/>
			<path class="st1" d="M332.9,43.6c0.2,0.2,0.3,0.4,0.4,0.7c0.1,0.3,0.2,0.6,0.2,0.9c0,0.3,0,0.6-0.1,0.9c-0.1,0.3-0.2,0.5-0.4,0.7
				c-0.2,0.2-0.4,0.4-0.7,0.5c-0.3,0.1-0.5,0.2-0.9,0.2c-0.3,0-0.5-0.1-0.8-0.2c-0.2-0.1-0.5-0.3-0.7-0.5c-0.2-0.2-0.3-0.4-0.4-0.7
				c-0.1-0.3-0.2-0.6-0.2-0.9c0-0.3,0-0.6,0.1-0.9c0.1-0.3,0.2-0.5,0.4-0.7c0.2-0.2,0.4-0.4,0.7-0.5c0.3-0.1,0.5-0.2,0.9-0.2
				c0.3,0,0.6,0.1,0.8,0.2C332.5,43.3,332.7,43.4,332.9,43.6z M331.4,46.6c0.1,0,0.2,0,0.3-0.1c0.1,0,0.2-0.1,0.3-0.2
				c0.1-0.1,0.2-0.2,0.2-0.4c0.1-0.2,0.1-0.4,0.1-0.7c0-0.3,0-0.5-0.1-0.7c-0.1-0.2-0.2-0.3-0.2-0.4c-0.1-0.1-0.2-0.2-0.3-0.2
				c-0.1,0-0.2-0.1-0.3-0.1c-0.1,0-0.2,0-0.3,0.1c-0.1,0-0.2,0.1-0.3,0.2c-0.1,0.1-0.2,0.2-0.2,0.4c-0.1,0.2-0.1,0.4-0.1,0.7
				c0,0.3,0,0.5,0.1,0.7c0.1,0.2,0.2,0.3,0.2,0.4c0.1,0.1,0.2,0.2,0.3,0.2C331.3,46.6,331.3,46.6,331.4,46.6z"/>
			<path class="st1" d="M333.7,45c0-0.4,0.1-0.7,0.2-1c0.1-0.3,0.3-0.5,0.5-0.6c0.2-0.1,0.4-0.2,0.6-0.3c0.2-0.1,0.5-0.1,0.7-0.1
				c0.2,0,0.5,0,0.7,0.1c0.2,0.1,0.5,0.2,0.7,0.3c0.2,0.1,0.4,0.4,0.5,0.6s0.2,0.6,0.2,1l0,2.3c-0.4,0-0.7-0.1-0.9-0.2
				c-0.2-0.2-0.3-0.4-0.3-0.8l0-1.3c0-0.3,0-0.5-0.1-0.6c-0.1-0.2-0.1-0.3-0.2-0.4c-0.1-0.1-0.2-0.1-0.3-0.2c-0.1,0-0.2,0-0.3,0
				c-0.1,0-0.2,0-0.3,0c-0.1,0-0.2,0.1-0.3,0.2c-0.1,0.1-0.2,0.2-0.2,0.4c-0.1,0.2-0.1,0.4-0.1,0.6v1.4c0,0.2,0,0.3,0,0.5
				c0,0.1,0,0.2,0,0.3c0,0.1,0,0.1,0,0.2c-0.4,0-0.7-0.1-0.9-0.2c-0.2-0.2-0.3-0.4-0.3-0.8L333.7,45z"/>
			<path class="st1" d="M341.5,46.4c0.1,0,0.1,0.1,0.2,0.2l0,0l0,0c-0.2,0.2-0.4,0.4-0.7,0.5c-0.3,0.1-0.6,0.2-0.9,0.2
				c-0.3,0-0.5-0.1-0.8-0.2c-0.2-0.1-0.5-0.3-0.7-0.5c-0.2-0.2-0.3-0.4-0.4-0.7c-0.1-0.3-0.2-0.6-0.2-0.9c0-0.3,0-0.6,0.1-0.9
				c0.1-0.3,0.2-0.5,0.4-0.7c0.2-0.2,0.4-0.4,0.7-0.5c0.3-0.1,0.5-0.2,0.9-0.2c0.2,0,0.4,0,0.6,0.1c0.2,0.1,0.4,0.1,0.6,0.2
				c0.2,0.1,0.3,0.3,0.4,0.4c0.1,0.2,0.2,0.4,0.2,0.7c0,0.3-0.1,0.5-0.2,0.6c-0.1,0.2-0.3,0.3-0.5,0.4c-0.2,0.1-0.4,0.2-0.6,0.2
				c-0.2,0-0.4,0.1-0.5,0.1c-0.2,0-0.4,0-0.6,0c-0.2,0-0.3,0-0.3-0.1c0,0.2,0.1,0.4,0.1,0.5c0.1,0.1,0.2,0.2,0.2,0.3
				c0.1,0.1,0.2,0.1,0.3,0.2c0.1,0,0.2,0,0.2,0c0.1,0,0.3,0,0.4,0c0.1,0,0.2-0.1,0.3-0.1c0.1,0,0.2-0.1,0.3-0.1c0.1,0,0.2,0,0.2,0
				C341.3,46.3,341.4,46.4,341.5,46.4z M340.1,43.8c-0.1,0-0.1,0-0.2,0.1c-0.1,0-0.2,0.1-0.3,0.2c-0.1,0.1-0.2,0.2-0.2,0.3
				c-0.1,0.1-0.1,0.3-0.2,0.5c0.1,0,0.2,0.1,0.4,0.1c0.2,0,0.4,0,0.5,0c0.2,0,0.3-0.1,0.5-0.2c0.1-0.1,0.2-0.2,0.2-0.4
				c0-0.2,0-0.3-0.2-0.4C340.5,43.8,340.3,43.7,340.1,43.8z"/>
			<path class="st1" d="M342.9,47.2c0.3-0.1,0.6-0.1,0.9-0.2c0.3,0,0.6,0,0.9,0.1c0.3,0.1,0.5,0.2,0.7,0.4c0.2,0.2,0.3,0.5,0.3,0.8
				c0,0.3-0.1,0.5-0.2,0.7c-0.1,0.2-0.2,0.3-0.4,0.5c-0.2,0.1-0.4,0.2-0.6,0.2c-0.2,0-0.4,0.1-0.5,0.1h-0.1c-0.3,0-0.5-0.1-0.8-0.2
				c-0.2-0.1-0.4-0.3-0.6-0.5c-0.2-0.2-0.3-0.4-0.4-0.7s-0.2-0.6-0.2-0.9c0,0,0,0,0-0.1c0,0,0,0,0-0.1c0-0.4,0.1-0.7,0.2-1
				c0.1-0.3,0.3-0.5,0.5-0.7c-0.2-0.1-0.4-0.3-0.5-0.5c-0.1-0.2-0.2-0.4-0.2-0.7c0-0.2,0-0.4,0.1-0.6c0.1-0.2,0.2-0.4,0.4-0.5
				c0.2-0.1,0.4-0.3,0.6-0.3c0.2-0.1,0.5-0.1,0.7-0.1c0.3,0,0.5,0,0.8,0.1c0.2,0.1,0.4,0.2,0.6,0.3c0.3,0.3,0.5,0.7,0.5,1.1
				c0,0.2,0,0.4-0.1,0.6c-0.1,0.2-0.2,0.4-0.4,0.5c-0.2,0.1-0.3,0.3-0.6,0.3c-0.2,0.1-0.4,0.1-0.7,0.1v0h-0.1c-0.2,0-0.4,0-0.5,0.1
				c-0.1,0.1-0.2,0.2-0.3,0.3c-0.1,0.1-0.1,0.2-0.1,0.4C342.9,47,342.9,47.1,342.9,47.2z M344.6,48.7c0.1-0.1,0.1-0.1,0.1-0.2
				c0-0.1,0-0.1,0-0.2c0-0.1,0-0.1,0-0.1c0-0.1-0.1-0.2-0.1-0.2c0-0.1-0.1-0.1-0.2-0.1c-0.1,0-0.2-0.1-0.3-0.1c-0.1,0-0.2,0-0.3,0
				s-0.2,0-0.3,0c-0.1,0-0.2,0-0.3,0c-0.1,0-0.2,0-0.2,0.1c-0.1,0-0.1,0-0.1,0c0,0.1,0,0.2,0,0.2c0,0.1,0,0.2,0.1,0.3
				c0,0.1,0.1,0.2,0.2,0.3c0.1,0.1,0.1,0.1,0.2,0.2c0.1,0.1,0.3,0.1,0.5,0.1c0.2,0,0.3,0,0.4-0.1C344.4,48.8,344.5,48.8,344.6,48.7z
				 M343.8,43.7c-0.1,0-0.1,0-0.2,0c-0.1,0-0.2,0.1-0.2,0.1c-0.1,0.1-0.1,0.1-0.2,0.3s-0.1,0.2-0.1,0.4c0,0.2,0,0.3,0.1,0.4
				c0,0.1,0.1,0.2,0.2,0.2c0.1,0.1,0.1,0.1,0.2,0.1c0.1,0,0.1,0,0.2,0c0.1,0,0.1,0,0.2,0c0.1,0,0.2-0.1,0.2-0.1
				c0.1-0.1,0.1-0.1,0.2-0.2c0-0.1,0.1-0.2,0.1-0.4c0-0.2,0-0.3-0.1-0.4c0-0.1-0.1-0.2-0.2-0.3c-0.1-0.1-0.1-0.1-0.2-0.1
				C343.9,43.7,343.9,43.7,343.8,43.7z"/>
			<path class="st1" d="M349.2,43.6c0.2,0.2,0.3,0.4,0.4,0.7c0.1,0.3,0.2,0.6,0.2,0.9c0,0.3,0,0.6-0.1,0.9c-0.1,0.3-0.2,0.5-0.4,0.7
				c-0.2,0.2-0.4,0.4-0.7,0.5c-0.3,0.1-0.5,0.2-0.9,0.2c-0.3,0-0.5-0.1-0.8-0.2c-0.2-0.1-0.5-0.3-0.7-0.5c-0.2-0.2-0.3-0.4-0.4-0.7
				c-0.1-0.3-0.2-0.6-0.2-0.9c0-0.3,0-0.6,0.1-0.9c0.1-0.3,0.2-0.5,0.4-0.7c0.2-0.2,0.4-0.4,0.7-0.5c0.3-0.1,0.5-0.2,0.9-0.2
				c0.3,0,0.6,0.1,0.8,0.2C348.8,43.3,349.1,43.4,349.2,43.6z M347.8,46.6c0.1,0,0.2,0,0.3-0.1c0.1,0,0.2-0.1,0.3-0.2
				c0.1-0.1,0.2-0.2,0.2-0.4c0.1-0.2,0.1-0.4,0.1-0.7c0-0.3,0-0.5-0.1-0.7c-0.1-0.2-0.2-0.3-0.2-0.4c-0.1-0.1-0.2-0.2-0.3-0.2
				c-0.1,0-0.2-0.1-0.3-0.1c-0.1,0-0.2,0-0.3,0.1c-0.1,0-0.2,0.1-0.3,0.2c-0.1,0.1-0.2,0.2-0.2,0.4c-0.1,0.2-0.1,0.4-0.1,0.7
				c0,0.3,0,0.5,0.1,0.7c0.1,0.2,0.2,0.3,0.2,0.4c0.1,0.1,0.2,0.2,0.3,0.2C347.6,46.6,347.7,46.6,347.8,46.6z"/>
			<path class="st1" d="M352.1,43.8c-0.1,0-0.2,0-0.3,0.1c-0.1,0-0.2,0.1-0.3,0.2c-0.1,0.1-0.2,0.2-0.2,0.4
				c-0.1,0.2-0.1,0.4-0.1,0.7c0,0.3,0,0.5,0.1,0.7c0.1,0.2,0.2,0.3,0.2,0.4c0.1,0.1,0.2,0.2,0.3,0.2c0.1,0,0.2,0.1,0.3,0.1
				c0.1,0,0.3,0,0.4,0c0.1,0,0.2-0.1,0.3-0.1c0.1,0,0.2-0.1,0.3-0.1c0.1,0,0.2,0,0.2,0c0.1,0,0.2,0,0.2,0.1c0.1,0,0.1,0.1,0.2,0.2
				l0,0l0,0c-0.2,0.2-0.4,0.4-0.7,0.5c-0.3,0.1-0.6,0.2-0.9,0.2c-0.3,0-0.6-0.1-0.8-0.2c-0.2-0.1-0.5-0.3-0.7-0.5
				c-0.2-0.2-0.3-0.4-0.4-0.7c-0.1-0.3-0.2-0.6-0.2-0.9c0-0.3,0-0.6,0.1-0.9c0.1-0.3,0.2-0.5,0.4-0.7c0.2-0.2,0.4-0.4,0.6-0.5
				c0.3-0.1,0.5-0.2,0.8-0.2c0.3,0,0.6,0.1,0.9,0.2c0.3,0.1,0.5,0.3,0.7,0.5l0,0l0,0c-0.1,0.1-0.1,0.2-0.2,0.2
				c-0.1,0-0.2,0.1-0.2,0.1c-0.1,0-0.2,0-0.2,0c-0.1,0-0.2-0.1-0.3-0.1c-0.1,0-0.2-0.1-0.3-0.1C352.3,43.8,352.2,43.8,352.1,43.8z"
				/>
			<path class="st1" d="M355.1,41.7c-0.1,0.2-0.3,0.3-0.5,0.3c-0.1,0-0.2,0-0.3-0.1c-0.1-0.1-0.2-0.1-0.2-0.2c0-0.1-0.1-0.2-0.1-0.3
				c0-0.1,0-0.2,0.1-0.3c0.1-0.1,0.1-0.2,0.2-0.2c0.1-0.1,0.2-0.1,0.3-0.1c0.1,0,0.2,0,0.3,0.1c0.1,0,0.2,0.1,0.2,0.2
				c0,0.1,0.1,0.2,0.1,0.3C355.2,41.5,355.1,41.6,355.1,41.7z M355.8,46.5c0,0-0.1,0.1-0.2,0.1c-0.1,0-0.1,0-0.2,0s-0.1-0.1-0.2-0.1
				c-0.1-0.1-0.1-0.2-0.1-0.3V44c0-0.2,0-0.3,0-0.4c0-0.1,0-0.2,0-0.3c0-0.1,0-0.1,0-0.2c-0.4,0-0.7,0.1-0.9,0.2
				c-0.2,0.2-0.3,0.4-0.3,0.8l0,2.2c0,0.2,0,0.3,0.1,0.4c0,0.1,0.1,0.3,0.2,0.4c0.1,0.1,0.2,0.2,0.4,0.2c0.1,0.1,0.3,0.1,0.5,0.1
				c0.2,0,0.3-0.1,0.4-0.2c0.1-0.1,0.2-0.2,0.2-0.3C355.8,46.8,355.8,46.6,355.8,46.5z"/>
			<path class="st1" d="M359.3,43.6c0.2,0.2,0.3,0.4,0.4,0.7c0.1,0.3,0.2,0.6,0.2,0.9c0,0.3,0,0.6-0.1,0.9c-0.1,0.3-0.2,0.5-0.4,0.7
				c-0.2,0.2-0.4,0.4-0.7,0.5c-0.3,0.1-0.5,0.2-0.9,0.2c-0.3,0-0.5-0.1-0.8-0.2c-0.2-0.1-0.5-0.3-0.7-0.5c-0.2-0.2-0.3-0.4-0.4-0.7
				c-0.1-0.3-0.2-0.6-0.2-0.9c0-0.3,0-0.6,0.1-0.9c0.1-0.3,0.2-0.5,0.4-0.7c0.2-0.2,0.4-0.4,0.7-0.5c0.3-0.1,0.5-0.2,0.9-0.2
				c0.3,0,0.6,0.1,0.8,0.2C358.9,43.3,359.1,43.4,359.3,43.6z M357.8,46.6c0.1,0,0.2,0,0.3-0.1c0.1,0,0.2-0.1,0.3-0.2
				c0.1-0.1,0.2-0.2,0.2-0.4c0.1-0.2,0.1-0.4,0.1-0.7c0-0.3,0-0.5-0.1-0.7c-0.1-0.2-0.2-0.3-0.2-0.4c-0.1-0.1-0.2-0.2-0.3-0.2
				c-0.1,0-0.2-0.1-0.3-0.1c-0.1,0-0.2,0-0.3,0.1c-0.1,0-0.2,0.1-0.3,0.2c-0.1,0.1-0.2,0.2-0.2,0.4c-0.1,0.2-0.1,0.4-0.1,0.7
				c0,0.3,0,0.5,0.1,0.7c0.1,0.2,0.2,0.3,0.2,0.4c0.1,0.1,0.2,0.2,0.3,0.2C357.6,46.6,357.7,46.6,357.8,46.6z"/>
			<path class="st1" d="M362.3,46.2c0-0.1,0-0.2-0.1-0.3c-0.1-0.1-0.2-0.1-0.3-0.2c-0.1-0.1-0.3-0.1-0.5-0.2
				c-0.2-0.1-0.4-0.2-0.6-0.3c-0.1-0.1-0.3-0.2-0.4-0.3c-0.1-0.1-0.2-0.2-0.2-0.4c0-0.1-0.1-0.3-0.1-0.4c0-0.1,0-0.3,0.1-0.4
				c0.1-0.1,0.1-0.2,0.2-0.3c0.1-0.1,0.2-0.2,0.3-0.2c0.1-0.1,0.2-0.1,0.4-0.1c0.1,0,0.2,0,0.3,0h0.1c0.3,0,0.6,0.1,0.9,0.2
				c0.3,0.1,0.5,0.3,0.7,0.6l0,0l0,0c-0.1,0.1-0.1,0.2-0.2,0.2c-0.1,0-0.1,0.1-0.2,0.1c-0.1,0-0.2,0-0.2-0.1c-0.1,0-0.2-0.1-0.3-0.1
				c-0.1,0-0.2-0.1-0.3-0.1c-0.1,0-0.2-0.1-0.3-0.1c-0.1,0-0.2,0-0.3,0.1c-0.1,0.1-0.1,0.1-0.1,0.2c0,0.1,0,0.2,0.1,0.3
				c0.1,0.1,0.2,0.1,0.4,0.2c0.2,0.1,0.4,0.2,0.6,0.3c0.2,0.1,0.4,0.2,0.6,0.4c0.2,0.1,0.3,0.3,0.4,0.5c0.1,0.2,0.1,0.4,0,0.7
				c0,0.1-0.1,0.2-0.2,0.3c-0.1,0.1-0.2,0.2-0.3,0.3c-0.1,0.1-0.3,0.2-0.5,0.2c-0.2,0.1-0.4,0.1-0.7,0.1c0,0-0.1,0-0.1,0
				c-0.3,0-0.6-0.1-0.9-0.2c-0.3-0.1-0.5-0.3-0.7-0.6l0,0l0,0c0,0,0.1-0.1,0.1-0.1c0,0,0.1-0.1,0.1-0.1c0.1,0,0.1-0.1,0.2-0.1
				c0.1,0,0.2,0,0.2,0.1c0.1,0,0.2,0.1,0.3,0.1c0.1,0,0.2,0.1,0.3,0.1c0.1,0,0.2,0.1,0.4,0.1c0.2,0,0.4,0,0.5-0.1
				C362.2,46.4,362.3,46.3,362.3,46.2z"/>
		</g>
	</g>
</g>
<text transform="matrix(1 0 0 1 230.1362 221.005)" class="st1 st11 st12">Crear cuenta</text>
<path class="st1" d="M441.8,268.3H243.6c-6.6,0-12-5.4-12-12v-4c0-6.6,5.4-12,12-12h198.1c6.6,0,12,5.4,12,12v4
	C453.8,262.9,448.4,268.3,441.8,268.3z"/>
<path class="st1" d="M441.8,308.9H243.6c-6.6,0-12-5.4-12-12v-4c0-6.6,5.4-12,12-12h198.1c6.6,0,12,5.4,12,12v4
	C453.8,303.5,448.4,308.9,441.8,308.9z"/>
<path class="st2" d="M443.8,375.5H245.7c-6.6,0-12-5.4-12-12v-13.2c0-6.6,5.4-12,12-12h198.1c6.6,0,12,5.4,12,12v13.2
	C455.8,370.1,450.4,375.5,443.8,375.5z"/>
<text transform="matrix(1 0 0 1 245.0821 260.1282)" class="st4 st13 st14">Tu email</text>
<text transform="matrix(1 0 0 1 246.8555 300.5543)" class="st4 st13 st14">Tu clave</text>
<text transform="matrix(1 0 0 1 179.2852 260.1282)" class="st2 st18 st14">Email</text>
<text transform="matrix(1 0 0 1 180.167 300.5544)" class="st2 st18 st14">Clave</text>
<text transform="matrix(1 0 0 1 257.9008 365.3116)" class="st1 st11 st19">Crear Cuenta</text>
<g>
	<path class="st20" d="M421.5,295.1c0,0,11.5-17.4,25.5,0C447,295.1,435.1,312.5,421.5,295.1z"/>
	<circle class="st1" cx="434.2" cy="295.1" r="5"/>
	<circle class="st20" cx="434.2" cy="295.1" r="3.1"/>
	<circle class="st1" cx="432.6" cy="293.3" r="2.1"/>
</g>
</svg>
