<svg id="Layer_1" data-name="Layer 1" xmlns="http://www.w3.org/2000/svg" viewBox="0 0 375.34 355.11"><defs><style>.cls-1{fill:#fafafa;}</style></defs><title>logo-16</title><path class="cls-1" d="M145.29,124.3a22.87,22.87,0,0,0-7.65-3.89,29.54,29.54,0,0,0-8.28-1.26h-7.52a33.84,33.84,0,0,0-8.78,1.14,18.62,18.62,0,0,0-7.28,3.63q-3,2.51-3,7.53v31.86h21.32q13.54,0,21.2-5t7.65-17.06a22,22,0,0,0-2.13-10.16A20,20,0,0,0,145.29,124.3Z"/><path class="cls-1" d="M145.29,124.3a22.87,22.87,0,0,0-7.65-3.89,29.54,29.54,0,0,0-8.28-1.26h-7.52a34,34,0,0,0-8.79,1.14,18.64,18.64,0,0,0-7.27,3.63q-3,2.51-3,7.53v31.86h21.32q13.54,0,21.2-5t7.65-17.06a22,22,0,0,0-2.13-10.16A20,20,0,0,0,145.29,124.3Z"/><path class="cls-1" d="M357,84.67,349.5,83.4a72.69,72.69,0,0,0-13.78-1h0a43.42,43.42,0,0,0-13.83,2.52,37,37,0,0,0-12.15,7.39,31.34,31.34,0,0,0-4,4.31A147.33,147.33,0,0,0,184.09,32.25c-81.28,0-147.4,66.12-147.4,147.39S102.81,327,184.09,327s147.39-66.12,147.39-147.4a147.83,147.83,0,0,0-1.82-23.09c7.6-19.76,15.85-41.47,24.64-64.8ZM183.07,99.21a35.94,35.94,0,0,1,11.42,2,29.42,29.42,0,0,1,9.66,5.77,28.58,28.58,0,0,1,7.15,10.41q.24,1,2.38,6.4T219,137.34q3.13,8.16,6.89,18.19t7.78,20.32l3.06,8H204.29l-33.38-83.75A65.87,65.87,0,0,1,183.07,99.21ZM200,241.32a57.82,57.82,0,0,1-12.42,18.32,59.84,59.84,0,0,1-19.31,12.79,64.56,64.56,0,0,1-25.34,4.76,87,87,0,0,1-29.35-4.64A55.6,55.6,0,0,1,91.23,258q-9.28-9.91-14.3-25.59Q72.51,218.59,72,199.6h30.7a105.84,105.84,0,0,0,2.09,23q2.5,11.16,7.78,17.68a28.91,28.91,0,0,0,12.91,9.28,51,51,0,0,0,17.44,2.76,33.18,33.18,0,0,0,13.8-2.63,26,26,0,0,0,9.4-7,27.35,27.35,0,0,0,5.27-10.28A47.22,47.22,0,0,0,173,219.75q0-11-3.76-18.19a29.23,29.23,0,0,0-9.66-11,37.87,37.87,0,0,0-13-5.39,56,56,0,0,0-13.68-1.25c-4,.17-7.81.08-11.41.08s-6.46-.07-9.3-.07c-3.18,0-6-.1-9.36,0H71.91V142q0-17,5.27-26.84a28.59,28.59,0,0,1,15.31-13.29,48.59,48.59,0,0,1,14.29-3.26,94.14,94.14,0,0,1,11.67-.88c4.27-.09,7.9-.13,10.91-.13q13,0,22.58,3.64a47.74,47.74,0,0,1,15.93,9.66,38.68,38.68,0,0,1,9.53,13.79A43.27,43.27,0,0,1,180.54,141a37,37,0,0,1-3,14.93A43.43,43.43,0,0,1,169,168.58a59.84,59.84,0,0,1,13.92,7.27,49.55,49.55,0,0,1,11.16,10.91,51.78,51.78,0,0,1,7.53,14.68,57.62,57.62,0,0,1,2.76,18.31A54.45,54.45,0,0,1,200,241.32Zm109.91-68.23q-5.53,14.29-11.17,28.35t-10.53,26.09q-4.9,12-8.79,20.94t-5.89,12.67q-4.27,8-10,11a30.1,30.1,0,0,1-10.78,3.51,28.07,28.07,0,0,1-12.3-1.25L210.57,199.6h32.18q5.61,14.52,11.95,30.69,11.52-30.1,20.82-54.44,4-10.29,7.77-20.32t6.9-18.19q3.13-8.15,5.27-13.54t2.63-6.4A28.24,28.24,0,0,1,305.25,107a29.27,29.27,0,0,1,9.65-5.77,35.58,35.58,0,0,1,11.29-2,65,65,0,0,1,12,.88Q322.93,140,309.89,173.09Z"/></svg>