<svg width="150" height="143" viewBox="0 0 104 99" fill="none" xmlns="http://www.w3.org/2000/svg">
<g filter="url(#filter0_d_245_1090)">
<path fill-rule="evenodd" clip-rule="evenodd" d="M85.2226 26.28L86.8736 26.5254L86.3567 28.1145C84.482 33.2742 82.7221 38.0743 81.1061 42.4544C81.3687 44.0922 81.5424 45.791 81.5667 47.5217C81.8176 65.3958 67.4065 80.1628 49.4664 80.4146C31.5264 80.6665 16.7063 66.3099 16.4554 48.4359C16.2044 30.5618 30.5856 15.7952 48.5257 15.5433C59.697 15.3865 69.6293 20.858 75.5898 29.3401C75.8543 28.9782 76.1492 28.6458 76.445 28.373C77.2431 27.6157 78.1341 27.0659 79.1174 26.694C80.0708 26.3224 81.0866 26.1291 82.1644 26.0841C83.1827 26.0698 84.2018 26.1152 85.2226 26.28ZM78.6657 47.6822C78.8954 64.0469 65.7665 77.5 49.3414 77.7306C32.9162 77.9612 19.4148 64.882 19.185 48.5173C18.9553 32.1526 32.0842 18.6994 48.5093 18.4688C64.9345 18.2382 78.4359 31.3175 78.6657 47.6822Z" fill="#005321"/>
<path d="M80.1386 29.8225C79.2405 29.865 78.434 30.0256 77.659 30.305C76.8841 30.5845 76.1712 31.0124 75.5506 31.618C74.8997 32.1942 74.4014 32.9772 73.9955 33.938C73.9377 34.088 73.7348 34.5684 73.4461 35.3484C73.158 36.1583 72.7824 37.1485 72.32 38.3488C71.8875 39.5487 71.3972 40.8986 70.8487 42.3688C70.3301 43.8385 69.7521 45.3389 69.2044 46.8687C67.8769 50.4688 66.4052 54.459 64.7601 58.8992C63.7981 56.5251 62.8682 54.2997 62.0298 52.1924L54.9316 52.2921L61.7519 68.6711C62.6546 68.9569 63.5543 69.0338 64.4811 68.9014C65.229 68.8313 66.004 68.5518 66.8662 68.092C67.7285 67.6322 68.436 66.8164 69.0486 65.6438C69.3401 65.0727 69.7464 64.1418 70.2975 62.8506C70.8481 61.5297 71.4856 59.9986 72.1797 58.228C72.8738 56.4573 73.6257 54.5367 74.4354 52.4659C75.2451 50.3952 76.0244 48.2951 76.8037 46.195C78.6214 41.2449 80.6425 35.8443 82.8067 29.9642C81.936 29.8272 81.0367 29.7801 80.1386 29.8225Z" fill="#459A33"/>
<path d="M51.2429 49.479C50.5411 48.5636 49.6912 47.7697 48.7535 47.1263C47.8158 46.4829 46.7601 45.9605 45.646 45.5583C46.443 44.7114 47.0589 43.7775 47.4939 42.7567C47.9289 41.7358 48.1231 40.6288 48.1067 39.465C48.0892 38.2118 47.8328 37.0215 47.3676 35.8939C46.9025 34.7663 46.1694 33.7619 45.2284 32.8797C44.2874 31.9975 43.0797 31.328 41.6945 30.8103C40.2793 30.2929 38.6283 30.0475 36.7115 30.0744C36.0526 30.0836 35.2439 30.095 34.3159 30.1379C33.3879 30.1808 32.5202 30.2526 31.7427 30.3531C30.5165 30.4897 29.4716 30.7431 28.608 31.1134C27.089 31.7316 25.9942 32.7021 25.2647 34.0852C24.5061 35.5284 24.1444 37.5033 24.1796 40.0099L24.3091 49.2304L31.1377 49.1345C31.8565 49.1244 32.5154 49.1152 33.2042 49.1055C33.8332 49.0967 34.4626 49.1177 35.2712 49.1063C36.0499 49.0954 36.9189 49.113 37.7866 49.0412C38.7446 48.9979 39.7641 49.0731 40.8153 49.2672C41.8665 49.4614 42.8308 49.8657 43.7073 50.4205C44.5838 50.9752 45.3139 51.7708 45.8676 52.8076C46.4214 53.8445 46.7398 55.1831 46.7624 56.7944C46.7762 57.7791 46.6694 58.7058 46.4419 59.5745C46.2145 60.4433 45.8356 61.1947 45.3057 61.8588C44.7759 62.5228 44.0941 63.0398 43.261 63.4395C42.4278 63.8391 41.412 64.0325 40.214 64.0493C38.7764 64.0695 37.4857 63.8787 36.3421 63.5067C35.1981 63.105 34.2605 62.4615 33.4684 61.5176C32.6763 60.5736 32.0888 59.2687 31.7068 57.6624C31.3876 56.2641 31.1844 54.5956 31.1863 52.5959L24.3277 52.6922C24.4566 55.4661 24.8499 57.878 25.5073 59.8983C26.2883 62.1855 27.363 64.0507 28.7313 65.4939C30.1295 66.9367 31.7614 67.9584 33.7178 68.6174C35.6443 69.2768 37.8053 69.5747 40.2013 69.5411C42.2678 69.5121 44.1197 69.1279 45.7873 68.4181C47.4249 67.7086 48.8491 66.7336 50.0008 65.5534C51.1525 64.3733 52.0621 63.0174 52.6996 61.4864C53.3371 59.9553 53.6144 58.3696 53.5914 56.7284C53.5709 55.2662 53.3424 53.9264 52.9358 52.7084C52.5293 51.4904 51.9751 50.4238 51.2429 49.479ZM40.373 43.364C39.2453 44.126 37.693 44.5059 35.7163 44.5337L31.0141 44.5997L30.9157 37.5873C30.9052 36.8413 31.1073 36.3013 31.5515 35.9369C31.9957 35.5725 32.5311 35.2964 33.1575 35.1085C33.7839 34.9207 34.442 34.8517 35.1009 34.8425C35.7598 34.8332 36.3289 34.8252 36.7482 34.8193C37.3472 34.8109 37.9474 34.892 38.5789 35.0623C39.2103 35.2325 39.7836 35.5229 40.2682 35.9041C40.7828 36.2848 41.1793 36.7866 41.5171 37.3788C41.825 37.9714 42.0152 38.7149 42.0277 39.6101C42.0525 41.3706 41.501 42.6319 40.373 43.364Z" fill="#005321"/>
<path d="M59.9556 46.9687C59.3352 45.4553 58.7457 44.0012 58.1856 42.5167C57.596 41.0626 57.098 39.7265 56.602 38.5396C56.136 37.3524 55.7328 36.3731 55.3921 35.5721C55.0513 34.771 54.8953 34.3255 54.8333 34.1772C54.4006 33.2282 53.8805 32.4595 53.2137 31.9018C52.5468 31.3441 51.8521 30.936 51.0692 30.6485C50.2868 30.3909 49.4461 30.2535 48.5471 30.2362C47.6482 30.219 46.751 30.3212 45.8542 30.4531L53.4808 48.7907L60.6388 48.6902C60.4212 48.1262 60.1732 47.5327 59.9556 46.9687Z" fill="#005321"/>
</g>
<defs>
<filter id="filter0_d_245_1090" x="0.210567" y="0.922616" width="102.905" height="97.3611" filterUnits="userSpaceOnUse" color-interpolation-filters="sRGB">
<feFlood flood-opacity="0" result="BackgroundImageFix"/>
<feColorMatrix in="SourceAlpha" type="matrix" values="0 0 0 0 0 0 0 0 0 0 0 0 0 0 0 0 0 0 127 0" result="hardAlpha"/>
<feOffset dy="1.62416"/>
<feGaussianBlur stdDeviation="8.12079"/>
<feComposite in2="hardAlpha" operator="out"/>
<feColorMatrix type="matrix" values="0 0 0 0 0 0 0 0 0 0.262745 0 0 0 0 0.337255 0 0 0 0.08 0"/>
<feBlend mode="normal" in2="BackgroundImageFix" result="effect1_dropShadow_245_1090"/>
<feBlend mode="normal" in="SourceGraphic" in2="effect1_dropShadow_245_1090" result="shape"/>
</filter>
</defs>
</svg>
