<svg width="277" height="262" viewBox="0 0 277 262" fill="none" xmlns="http://www.w3.org/2000/svg">
<g filter="url(#filter0_d_906_1036)">
<path fill-rule="evenodd" clip-rule="evenodd" d="M228.666 68.5724L233.094 69.2307L231.707 73.4928C226.679 87.3321 221.959 100.207 217.624 111.955C218.329 116.348 218.795 120.904 218.86 125.546C219.533 173.487 180.88 213.094 132.762 213.77C84.6441 214.445 44.8945 175.939 44.2214 127.998C43.5483 80.057 82.1209 40.4508 130.239 39.7752C160.202 39.3545 186.842 54.03 202.829 76.7801C203.538 75.8095 204.329 74.9179 205.123 74.1863C207.263 72.155 209.653 70.6805 212.291 69.6829C214.848 68.6864 217.572 68.1678 220.463 68.0472C223.194 68.0088 225.928 68.1305 228.666 68.5724ZM211.078 125.976C211.694 169.869 176.481 205.952 132.426 206.571C88.3712 207.19 52.1582 172.109 51.542 128.216C50.9257 84.3236 86.1396 48.2402 130.194 47.6217C174.249 47.0032 210.462 82.0838 211.078 125.976Z" fill="#005321" fill-opacity="0.15"/>
<path d="M215.032 78.0745C212.623 78.1884 210.46 78.619 208.381 79.3686C206.303 80.1183 204.39 81.2658 202.726 82.8902C200.98 84.4357 199.644 86.5358 198.555 89.1127C198.4 89.5151 197.856 90.8035 197.081 92.8957C196.309 95.0679 195.301 97.7238 194.061 100.943C192.901 104.162 191.586 107.782 190.115 111.725C188.724 115.667 187.173 119.692 185.704 123.795C182.144 133.451 178.197 144.153 173.784 156.063C171.204 149.695 168.71 143.726 166.461 138.074L147.423 138.341L165.716 182.272C168.137 183.039 170.55 183.245 173.036 182.89C175.042 182.702 177.12 181.952 179.433 180.719C181.746 179.486 183.643 177.298 185.287 174.153C186.069 172.621 187.158 170.124 188.636 166.661C190.113 163.118 191.823 159.011 193.685 154.262C195.546 149.513 197.563 144.362 199.735 138.808C201.906 133.254 203.997 127.621 206.087 121.988C210.962 108.711 216.383 94.2257 222.188 78.4543C219.853 78.0869 217.44 77.9606 215.032 78.0745Z" fill="#459A33" fill-opacity="0.15"/>
<path d="M137.532 130.796C135.649 128.341 133.37 126.211 130.855 124.486C128.34 122.76 125.508 121.359 122.52 120.28C124.657 118.008 126.31 115.504 127.476 112.766C128.643 110.028 129.164 107.058 129.12 103.937C129.073 100.576 128.385 97.3831 127.138 94.3587C125.89 91.3343 123.924 88.6402 121.4 86.2741C118.876 83.908 115.637 82.1123 111.921 80.7236C108.126 79.336 103.697 78.6777 98.5562 78.7499C96.7889 78.7747 94.62 78.8051 92.1309 78.9201C89.6418 79.0351 87.3144 79.2279 85.2292 79.4973C81.9402 79.8637 79.1376 80.5435 76.8215 81.5366C72.7471 83.1948 69.8108 85.7976 67.8543 89.5074C65.8196 93.3784 64.8495 98.6754 64.9439 105.398L65.2911 130.129L83.6064 129.872C85.5343 129.845 87.3016 129.82 89.1492 129.794C90.8362 129.77 92.5242 129.827 94.6931 129.796C96.7817 129.767 99.1124 129.814 101.44 129.622C104.009 129.505 106.744 129.707 109.563 130.228C112.383 130.749 114.969 131.833 117.32 133.321C119.671 134.809 121.629 136.943 123.114 139.724C124.6 142.505 125.454 146.095 125.514 150.417C125.551 153.058 125.265 155.544 124.655 157.874C124.045 160.204 123.029 162.219 121.607 164C120.186 165.781 118.358 167.168 116.123 168.24C113.888 169.312 111.164 169.831 107.951 169.876C104.095 169.93 100.633 169.418 97.5655 168.421C94.4972 167.343 91.9822 165.617 89.8577 163.085C87.7331 160.554 86.1574 157.053 85.1327 152.745C84.2766 148.995 83.7317 144.519 83.7368 139.156L65.3411 139.414C65.6866 146.854 66.7416 153.323 68.5049 158.742C70.5997 164.877 73.4821 169.879 77.152 173.75C80.9022 177.62 85.2794 180.36 90.5267 182.128C95.6937 183.897 101.49 184.696 107.916 184.606C113.459 184.528 118.426 183.497 122.899 181.593C127.291 179.691 131.111 177.075 134.2 173.91C137.289 170.745 139.729 167.108 141.439 163.002C143.149 158.895 143.892 154.642 143.831 150.24C143.776 146.318 143.163 142.725 142.072 139.458C140.982 136.191 139.496 133.33 137.532 130.796ZM108.377 114.395C105.352 116.438 101.189 117.457 95.8868 117.532L83.275 117.709L83.0109 98.9007C82.9828 96.8999 83.5249 95.4513 84.7164 94.474C85.9078 93.4967 87.3437 92.7561 89.0239 92.2522C90.7041 91.7483 92.4691 91.5634 94.2364 91.5386C96.0036 91.5138 97.5299 91.4923 98.6545 91.4765C100.261 91.454 101.871 91.6715 103.565 92.1281C105.258 92.5846 106.796 93.3635 108.096 94.3859C109.476 95.4072 110.54 96.7531 111.446 98.3414C112.271 99.9308 112.781 101.925 112.815 104.326C112.881 109.048 111.402 112.431 108.377 114.395Z" fill="#005321" fill-opacity="0.15"/>
<path d="M160.901 124.063C159.238 120.004 157.656 116.104 156.154 112.122C154.573 108.222 153.237 104.638 151.907 101.455C150.657 98.2705 149.575 95.644 148.661 93.4955C147.747 91.3469 147.329 90.1521 147.163 89.7541C146.002 87.2088 144.607 85.1471 142.819 83.6512C141.03 82.1554 139.167 81.0608 137.067 80.2898C134.968 79.5988 132.713 79.2302 130.302 79.184C127.891 79.1378 125.485 79.4118 123.079 79.7657L143.535 128.95L162.734 128.68C162.15 127.168 161.485 125.576 160.901 124.063Z" fill="#005321" fill-opacity="0.15"/>
</g>
<defs>
<filter id="filter0_d_906_1036" x="0.650494" y="0.560231" width="276.006" height="261.137" filterUnits="userSpaceOnUse" color-interpolation-filters="sRGB">
<feFlood flood-opacity="0" result="BackgroundImageFix"/>
<feColorMatrix in="SourceAlpha" type="matrix" values="0 0 0 0 0 0 0 0 0 0 0 0 0 0 0 0 0 0 127 0" result="hardAlpha"/>
<feOffset dy="4.35624"/>
<feGaussianBlur stdDeviation="21.7812"/>
<feComposite in2="hardAlpha" operator="out"/>
<feColorMatrix type="matrix" values="0 0 0 0 0 0 0 0 0 0.262745 0 0 0 0 0.337255 0 0 0 0.08 0"/>
<feBlend mode="normal" in2="BackgroundImageFix" result="effect1_dropShadow_906_1036"/>
<feBlend mode="normal" in="SourceGraphic" in2="effect1_dropShadow_906_1036" result="shape"/>
</filter>
</defs>
</svg>
