<?xml version="1.0" encoding="UTF-8" standalone="no"?>
<!-- Created with Inkscape (http://www.inkscape.org/) -->

<svg
   xmlns:dc="http://purl.org/dc/elements/1.1/"
   xmlns:cc="http://creativecommons.org/ns#"
   xmlns:rdf="http://www.w3.org/1999/02/22-rdf-syntax-ns#"
   xmlns:svg="http://www.w3.org/2000/svg"
   xmlns="http://www.w3.org/2000/svg"
   xmlns:sodipodi="http://sodipodi.sourceforge.net/DTD/sodipodi-0.dtd"
   xmlns:inkscape="http://www.inkscape.org/namespaces/inkscape"
   width="210mm"
   height="297mm"
   viewBox="0 0 210 297"
   version="1.1"
   id="svg1094"
   inkscape:version="0.92.5 (2060ec1f9f, 2020-04-08)"
   sodipodi:docname="notis.svg">
  <defs
     id="defs1088" />
  <sodipodi:namedview
     id="base"
     pagecolor="#ffffff"
     bordercolor="#666666"
     borderopacity="1.0"
     inkscape:pageopacity="0.0"
     inkscape:pageshadow="2"
     inkscape:zoom="0.7"
     inkscape:cx="256.6322"
     inkscape:cy="614.92125"
     inkscape:document-units="mm"
     inkscape:current-layer="layer1"
     showgrid="false"
     inkscape:window-width="1920"
     inkscape:window-height="1016"
     inkscape:window-x="1920"
     inkscape:window-y="27"
     inkscape:window-maximized="1" />
  <metadata
     id="metadata1091">
    <rdf:RDF>
      <cc:Work
         rdf:about="">
        <dc:format>image/svg+xml</dc:format>
        <dc:type
           rdf:resource="http://purl.org/dc/dcmitype/StillImage" />
        <dc:title></dc:title>
      </cc:Work>
    </rdf:RDF>
  </metadata>
  <g
     inkscape:label="Capa 1"
     inkscape:groupmode="layer"
     id="layer1">
    <g
       id="g831"
       inkscape:export-xdpi="1951.2214"
       inkscape:export-ydpi="1951.2214"
       transform="matrix(6.1339697,0,0,6.1339697,-2100.0049,-265.55746)">
      <g
         id="g821">
        <path
           class="st1"
           d="m 357.7,77.7 c -6.8,0 -12.3,-5.6 -12.3,-12.3 0,-6.8 5.6,-12.3 12.3,-12.3 6.8,0 12.3,5.6 12.3,12.3 0,6.7 -5.5,12.3 -12.3,12.3 z"
           id="path819"
           inkscape:connector-curvature="0"
           style="fill:#ffffff" />
      </g>
      <g
         id="g829">
        <path
           id="XMLID_8_"
           class="st11"
           d="m 351.9,67.2 c -0.2,0 -0.3,-0.1 -0.4,-0.3 -0.2,-0.4 -0.2,-0.9 -0.2,-1.4 0,-0.5 0.1,-1.1 0.3,-1.6 0.1,-0.2 0.3,-0.3 0.5,-0.2 0.2,0.1 0.3,0.3 0.2,0.5 -0.2,0.4 -0.3,0.8 -0.3,1.2 0,0.4 0.1,0.7 0.2,1.1 0.1,0.2 0,0.4 -0.2,0.5 0,0.2 -0.1,0.2 -0.1,0.2 z"
           inkscape:connector-curvature="0"
           style="fill:#e30613" />
        <path
           id="XMLID_7_"
           class="st11"
           d="m 350.4,68.4 c -0.1,0 -0.2,-0.1 -0.3,-0.1 -0.5,-0.6 -0.8,-1.6 -0.8,-2.8 0,-1.1 0.3,-2 0.7,-2.7 0.1,-0.2 0.4,-0.2 0.5,-0.1 0.2,0.1 0.2,0.4 0.1,0.5 -0.3,0.5 -0.5,1.3 -0.5,2.2 0,0.9 0.2,1.8 0.6,2.3 0.1,0.2 0.1,0.4 -0.1,0.6 0,0.1 -0.1,0.1 -0.2,0.1 z"
           inkscape:connector-curvature="0"
           style="fill:#e30613" />
        <path
           id="XMLID_6_"
           class="st11"
           d="m 363.5,67.2 c 0,0 -0.1,0 -0.1,0 -0.2,-0.1 -0.3,-0.3 -0.2,-0.5 0.1,-0.3 0.2,-0.7 0.2,-1.1 0,-0.4 -0.1,-0.9 -0.3,-1.2 -0.1,-0.2 0,-0.4 0.2,-0.5 0.2,-0.1 0.4,0 0.5,0.2 0.2,0.5 0.3,1 0.3,1.6 0,0.5 -0.1,0.9 -0.2,1.4 -0.1,0 -0.2,0.1 -0.4,0.1 z"
           inkscape:connector-curvature="0"
           style="fill:#e30613" />
        <path
           id="XMLID_5_"
           class="st11"
           d="m 365,68.4 c -0.1,0 -0.2,0 -0.2,-0.1 -0.2,-0.1 -0.2,-0.4 -0.1,-0.6 0.4,-0.5 0.6,-1.3 0.6,-2.3 0,-0.9 -0.2,-1.7 -0.5,-2.2 -0.1,-0.2 -0.1,-0.4 0.1,-0.5 0.2,-0.1 0.4,-0.1 0.5,0.1 0.4,0.6 0.7,1.6 0.7,2.7 0,1.1 -0.3,2.2 -0.8,2.8 -0.1,0.1 -0.2,0.1 -0.3,0.1 z"
           inkscape:connector-curvature="0"
           style="fill:#e30613" />
        <path
           id="XMLID_3_"
           class="st11"
           d="m 361.9,68.1 c -0.5,-1 -0.5,-2.1 -0.5,-2.1 -0.1,-0.9 -0.3,-1.7 -0.5,-2.4 -1.2,-3.2 -5.1,-3.2 -6.3,0 -0.2,0.7 -0.4,1.5 -0.5,2.4 0,0 0,1.1 -0.5,2.1 -0.2,0.3 0,0.8 0.3,0.8 h 3.9 3.9 c 0.2,0 0.4,-0.5 0.2,-0.8 z"
           inkscape:connector-curvature="0"
           style="fill:#e30613" />
        <path
           id="XMLID_1_"
           class="st11"
           d="m 358.7,68.8 c 0,-0.5 -0.4,-0.8 -1,-0.8 -0.6,0 -1,0.4 -1,0.8 0,0.5 0.4,0.8 1,0.8 0.6,0 1,-0.3 1,-0.8 z"
           inkscape:connector-curvature="0"
           style="fill:#e30613" />
      </g>
    </g>
  </g>
</svg>
